<svg width="782" height="94" viewBox="0 0 782 94" fill="none" xmlns="http://www.w3.org/2000/svg">
<path d="M782 11.0361L778.75 1.66919H5.85114V13.0433L36.4031 36.4606L3.25098 87.3095V94.0001H775.5L777.45 87.3095L753.398 54.5253L782 11.0361Z" fill="#785340"/>
<path d="M4.15328 4.52486C2.7339 3.32024 3.58577 1 5.44742 1H778.013C779.523 1 780.489 2.61032 779.777 3.94259L753.378 53.3456C752.996 54.0595 753.083 54.933 753.597 55.5583L778.661 86.0464C779.734 87.3515 778.805 89.3165 777.116 89.3165H3.69004C2.1022 89.3165 1.14758 87.5552 2.01435 86.2248L36.0904 33.9225C36.6402 33.0786 36.4767 31.9575 35.7088 31.3058L4.15328 4.52486Z" fill="#AD795E"/>
<path d="M28.6017 46.4963C47.0893 48.4904 83.8398 54.3069 87.6931 57.4638C101.688 68.9297 24.1493 70.5827 14.3008 70.5827" stroke="#CC9477"/>
<path d="M241.069 90.1434L240.705 90.486L241.39 91.2144L241.754 90.8718L241.069 90.1434ZM364.548 77.1435L364.412 76.6623L364.548 77.1435ZM430.852 77.1435L430.738 76.6568L430.852 77.1435ZM532.413 74.6687L532.371 74.1705L532.413 74.6687ZM626.081 77.1435L626.171 77.6354L626.081 77.1435ZM707.646 74.6687L707.738 75.1601L707.646 74.6687ZM32.6628 92.4656C38.4512 90.4858 49.3376 86.7758 59.775 83.561C64.9941 81.9535 70.0957 80.4714 74.3886 79.3917C78.701 78.3072 82.1424 77.6435 84.0709 77.6435V76.6435C82.0001 76.6435 78.4427 77.341 74.1447 78.4219C69.8274 79.5077 64.707 80.9955 59.4806 82.6053C49.027 85.8251 38.1276 89.5396 32.3392 91.5194L32.6628 92.4656ZM84.0709 77.6435C86.4946 77.6435 90.8058 78.552 96.0791 79.9471C101.331 81.3363 107.472 83.1898 113.524 85.046C119.572 86.9009 125.532 88.7593 130.406 90.1531C132.843 90.8501 135.015 91.4329 136.795 91.8418C138.562 92.2476 139.985 92.4925 140.903 92.4925V91.4925C140.111 91.4925 138.788 91.2735 137.019 90.8672C135.264 90.464 133.111 89.8868 130.681 89.1916C125.819 87.8013 119.873 85.9474 113.818 84.09C107.766 82.234 101.608 80.3752 96.3348 78.9803C91.0836 77.5911 86.6464 76.6435 84.0709 76.6435V77.6435ZM241.754 90.8718C241.714 90.9101 241.698 90.9055 241.777 90.8738C241.841 90.8486 241.936 90.8176 242.067 90.7816C242.329 90.71 242.699 90.6288 243.176 90.539C244.129 90.3597 245.473 90.1524 247.159 89.9212C250.53 89.4591 255.24 88.9048 260.854 88.2901C272.082 87.0608 286.913 85.5916 301.844 84.1376C316.775 82.6838 331.807 81.2451 343.434 80.0772C349.248 79.4932 354.212 78.9767 357.889 78.5597C359.727 78.3512 361.246 78.1673 362.389 78.012C363.516 77.8589 364.314 77.729 364.684 77.6247L364.412 76.6623C364.124 76.7436 363.402 76.8651 362.254 77.0211C361.122 77.1749 359.612 77.3579 357.776 77.5661C354.106 77.9824 349.147 78.4983 343.334 79.0822C331.709 80.2499 316.68 81.6882 301.747 83.1423C286.816 84.5963 271.98 86.066 260.745 87.296C255.129 87.911 250.408 88.4665 247.023 88.9305C245.332 89.1624 243.968 89.3723 242.991 89.5562C242.504 89.648 242.103 89.735 241.803 89.817C241.654 89.8579 241.52 89.9001 241.408 89.9444C241.313 89.9822 241.176 90.0433 241.069 90.1434L241.754 90.8718ZM364.684 77.6247C365.268 77.4599 366.554 77.3601 368.456 77.3254C370.333 77.2912 372.746 77.32 375.537 77.3883C381.118 77.525 388.182 77.8187 395.444 78.0767C402.702 78.3346 410.153 78.5567 416.495 78.5489C422.816 78.5411 428.093 78.3059 430.967 77.6302L430.738 76.6568C427.996 77.3016 422.835 77.5411 416.493 77.5489C410.172 77.5567 402.736 77.3352 395.48 77.0774C388.227 76.8197 381.15 76.5254 375.561 76.3886C372.766 76.3202 370.337 76.291 368.438 76.3256C366.565 76.3598 365.144 76.456 364.412 76.6623L364.684 77.6247ZM430.967 77.6302C447.736 73.6871 465.832 73.6837 483.39 74.364C500.919 75.0433 517.944 76.4078 532.456 75.1669L532.371 74.1705C517.941 75.4044 501.025 74.0466 483.428 73.3648C465.86 72.684 447.647 72.6805 430.738 76.6568L430.967 77.6302ZM532.456 75.1669C536.347 74.8341 543.113 75.0039 551.363 75.4053C559.604 75.8061 569.286 76.4355 578.996 77.0148C588.703 77.5938 598.435 78.1224 606.763 78.3205C615.076 78.5182 622.035 78.3883 626.171 77.6354L625.992 76.6516C621.971 77.3836 615.109 77.5188 606.786 77.3208C598.479 77.1232 588.762 76.5955 579.056 76.0165C569.353 75.4378 559.66 74.8076 551.412 74.4065C543.175 74.0057 536.341 73.8311 532.371 74.1705L532.456 75.1669ZM626.171 77.6354C634.27 76.161 651.311 76.1585 668.046 76.2205C676.397 76.2514 684.659 76.2979 691.654 76.1818C698.636 76.0659 704.401 75.7879 707.738 75.1601L707.554 74.1773C704.313 74.7869 698.633 75.0658 691.637 75.1819C684.655 75.2978 676.406 75.2514 668.049 75.2205C651.369 75.1587 634.206 75.1562 625.992 76.6516L626.171 77.6354ZM707.738 75.1601C714.365 73.9135 723.233 70.5518 732.215 67.4068C741.237 64.2477 750.382 61.3032 757.671 60.8136L757.604 59.8158C750.158 60.3161 740.885 63.3112 731.884 66.463C722.843 69.6287 714.083 72.949 707.554 74.1773L707.738 75.1601Z" fill="#CC9477"/>
<path d="M41.6016 1C87.1029 8.34691 181.046 23.1387 192.806 23.5305C207.506 24.0203 286.259 23.5305 306.209 23.5305C326.16 23.5305 385.487 10.3061 399.662 8.8367C413.837 7.36732 437.463 8.8367 456.364 8.8367C475.264 8.8367 525.666 17.653 536.691 15.6938C547.716 13.7346 602.843 14.7142 618.593 11.7755C634.344 8.8367 659.02 11.7755 680.02 11.7755C701.021 11.7755 746.172 12.7551 758.248 8.8367C767.908 5.70202 775.723 5.34092 779.398 5.01439" stroke="#CC9477"/>
<path d="M18.2021 13.0432C52.4013 14.7918 111.227 26.4744 145.742 37.8056C188.885 51.9695 317.033 44.8657 326.734 43.5761C342.518 41.4777 391.976 26.2646 414.6 26.2646C437.224 26.2646 501.413 33.6089 511.41 33.6089C521.406 33.6089 590.857 30.9859 603.484 30.4613C616.112 29.9367 655.046 30.4613 671.356 32.0351C687.667 33.6089 722.392 27.8384 725.023 28.3629C727.653 28.8875 762.84 28.3629 767.049 28.3629" stroke="#CC9477"/>
<path d="M29.9023 25.7554C58.9189 27.0967 90.7209 37.4808 105.404 49.5528C123.758 64.6428 143.16 73.6968 164.136 75.7088C185.112 77.7208 209.234 65.6488 231.783 66.1518C254.332 66.6548 339.809 63.1338 360.785 60.6188C381.76 58.1038 430.529 49.5528 443.639 49.5528C456.749 49.5528 536.457 53.0738 552.189 54.5828C567.921 56.0918 600.433 49.5528 615.116 49.5528C629.8 49.5528 692.203 49.5528 698.495 49.5528C704.788 49.5528 723.142 43.5168 735.203 43.5168C744.852 43.5168 744.636 43.5168 755.998 43.5168" stroke="#CC9477"/>
<path d="M115.85 42.8239L116.85 46.3062L117.45 49.3009L120.4 57.1708L120.5 58.2155L121 58.8423H122.85H125.85L126.3 58.4941L126.9 55.4297L127.35 54.385L129.25 47.7687L130.9 43.5204L131.45 39.5506L132.35 36.3469V34.6058L131.65 34.4665H127.35L125.15 41.7792L123.6 43.3114L122.85 45.2615L122.1 48.9527L119.85 43.6597L117.1 36.4862V34.6058L116.5 34.4665H112.65L110.35 41.8489L110.05 44.4954L108.75 48.883L107.25 47.908L104.95 43.4507L102.45 34.4665L102.05 34.1183L100.1 34.5361L100 35.3022L102.65 49.3009L105.65 57.1708L105.75 58.2155L106.2 58.8423H108.1H111.1L111.55 58.4941L112.15 55.4297L112.55 54.4547L114.5 47.7687L115.85 42.8239Z" fill="#56321E"/>
<path d="M156.334 59.8173L156.184 59.5388C156.184 59.3066 156.134 59.0977 156.034 58.912C155.934 58.6798 155.85 58.4244 155.784 58.1459C155.584 58.1459 155.4 58.2155 155.234 58.3548C155.067 58.4477 154.884 58.5637 154.684 58.703C154.517 58.7959 154.3 58.912 154.034 59.0512C153.8 59.1441 153.5 59.1905 153.134 59.1905H152.884C152.484 59.237 152.134 59.2602 151.834 59.2602C151.534 59.2602 151.25 59.2834 150.984 59.3298C150.717 59.3298 150.45 59.353 150.184 59.3995C149.917 59.3995 149.6 59.3995 149.234 59.3995C148.6 59.2602 148.184 59.1673 147.984 59.1209C147.817 59.028 147.734 58.9816 147.734 58.9816C147.734 58.9816 147.75 58.9816 147.784 58.9816C147.817 58.9816 147.767 58.9352 147.634 58.8423C147.6 58.8887 147.567 58.912 147.534 58.912C147.5 58.912 147.467 58.9352 147.434 58.9816C147.434 58.9816 147.4 58.9816 147.334 58.9816C146.967 58.7959 146.667 58.6566 146.434 58.5637C146.234 58.4709 146.134 58.3084 146.134 58.0762C146.134 57.8905 145.967 57.5655 145.634 57.1012C145.334 56.6369 145.184 56.1029 145.184 55.4993C145.184 54.8029 145.234 53.9207 145.334 52.8528C145.434 51.7385 145.634 50.8563 145.934 50.2063C146.2 49.9742 146.667 49.7188 147.334 49.4402C148 49.1152 148.667 48.9527 149.334 48.9527C149.734 48.9527 150.034 49.0456 150.234 49.2313C150.467 49.3706 150.65 49.5563 150.784 49.7884C150.917 50.0206 150.984 50.276 150.984 50.5545C151.017 50.7867 151.034 51.0188 151.034 51.251C151.034 51.576 150.95 51.8081 150.784 51.9474C150.617 52.0867 150.417 52.1796 150.184 52.226C149.95 52.2724 149.717 52.2957 149.484 52.2957C149.25 52.2957 149.05 52.3189 148.884 52.3653C148.217 52.6439 147.667 52.8296 147.234 52.9225C146.834 53.0153 146.6 53.0618 146.534 53.0618C146.7 53.1546 146.817 53.3403 146.884 53.6189C146.95 53.8975 147 54.1993 147.034 54.5243C147.067 54.8029 147.084 55.0815 147.084 55.36C147.084 55.5922 147.1 55.7083 147.134 55.7083C148.3 55.7083 149.267 55.6386 150.034 55.4993C150.8 55.3601 151.434 55.1975 151.934 55.0118C152.434 54.7797 152.834 54.594 153.134 54.4547C153.434 54.2689 153.734 54.1529 154.034 54.1064C154.167 53.6421 154.317 53.3636 154.484 53.2707C154.65 53.1314 154.834 52.8993 155.034 52.5742C154.967 51.9242 154.85 51.2742 154.684 50.6242C154.55 49.9277 154.4 49.3009 154.234 48.7438C154.067 48.1402 153.9 47.6294 153.734 47.2116C153.6 46.7937 153.534 46.5383 153.534 46.4455C153.3 46.4455 153.1 46.3758 152.934 46.2365C152.8 46.0972 152.684 45.9579 152.584 45.8187C152.517 45.6794 152.467 45.5401 152.434 45.4008C152.4 45.2615 152.367 45.1919 152.334 45.1919C151.967 45.1919 151.684 45.0758 151.484 44.8436C151.35 44.7508 151.25 44.6347 151.184 44.4954C150.65 44.4954 150.234 44.4025 149.934 44.2168C149.634 44.0311 149.3 43.9382 148.934 43.9382C148.1 44.3561 147.2 44.6579 146.234 44.8436C145.3 45.0293 144.467 45.424 143.734 46.0276C143.334 46.4919 142.967 46.933 142.634 47.3509C142.3 47.7687 142 48.233 141.734 48.7438C141.467 49.2545 141.184 49.8116 140.884 50.4152C140.584 51.0188 140.284 51.7385 139.984 52.5742C139.817 52.9457 139.7 53.3171 139.634 53.6886C139.6 54.06 139.567 54.4314 139.534 54.8029C139.534 55.4993 139.55 56.1958 139.584 56.8922C139.65 57.5423 139.884 58.2851 140.284 59.1209C140.45 59.3066 140.584 59.5155 140.684 59.7477C140.817 59.9798 140.884 60.0959 140.884 60.0959L141.184 60.4441C141.25 60.4441 141.3 60.5834 141.334 60.862C141.4 61.0942 141.45 61.2102 141.484 61.2102H142.384C142.784 61.5353 143.1 61.8138 143.334 62.046C143.567 62.2317 143.784 62.371 143.984 62.4639C144.184 62.5103 144.4 62.5567 144.634 62.6031C144.867 62.6496 145.167 62.6728 145.534 62.6728C145.734 62.6728 145.934 62.6728 146.134 62.6728C146.367 62.6264 146.6 62.6031 146.834 62.6031C147.034 62.6031 147.25 62.6031 147.484 62.6031C147.717 62.6031 148 62.6496 148.334 62.7424C149.067 62.7424 149.667 62.696 150.134 62.6031C150.634 62.4639 151.117 62.3014 151.584 62.1156C152.084 61.9299 152.6 61.7674 153.134 61.6281C153.7 61.4888 154.384 61.396 155.184 61.3495C155.384 61.2567 155.617 61.0477 155.884 60.7227C156.184 60.3513 156.334 60.1191 156.334 60.0263C156.334 59.887 156.25 59.8173 156.084 59.8173H156.334Z" fill="#56321E"/>
<path d="M159.903 24.0894L160.153 28.3377L162.653 29.1735L162.053 34.4665L163.303 34.7451L164.303 34.0486L164.903 30.2181V26.1091L164.653 22H161.753L160.103 22.4875L159.903 24.0894Z" fill="#56321E"/>
<path d="M188.276 40.1774L186.376 35.9987L185.726 36.2773L182.376 40.0381L180.876 43.6597L179.826 45.0526V40.247L178.476 36.2076H175.576L174.776 37.4612V55.2904L174.526 56.0565L174.626 57.8673L180.126 57.2405L180.976 56.544V55.1511L181.226 52.9225L180.976 49.2313C181.21 48.9991 181.393 48.7205 181.526 48.3955C181.693 48.0705 181.86 47.7455 182.026 47.4205C182.226 47.0955 182.443 46.7473 182.676 46.3758C182.943 45.9579 183.26 45.5633 183.626 45.1919L185.926 42.7543C186.293 42.3828 186.66 41.9882 187.026 41.5703C187.426 41.1524 187.843 40.6881 188.276 40.1774Z" fill="#56321E"/>
<path d="M210.24 59.8173L210.09 59.5388C210.09 59.3066 210.04 59.0977 209.94 58.912C209.84 58.6798 209.757 58.4244 209.69 58.1459C209.49 58.1459 209.307 58.2155 209.14 58.3548C208.973 58.4477 208.79 58.5637 208.59 58.703C208.423 58.7959 208.207 58.912 207.94 59.0512C207.707 59.1441 207.407 59.1905 207.04 59.1905H206.79C206.39 59.237 206.04 59.2602 205.74 59.2602C205.44 59.2602 205.157 59.2834 204.89 59.3298C204.623 59.3298 204.357 59.353 204.09 59.3995C203.823 59.3995 203.507 59.3995 203.14 59.3995C202.507 59.2602 202.09 59.1673 201.89 59.1209C201.723 59.028 201.64 58.9816 201.64 58.9816C201.64 58.9816 201.657 58.9816 201.69 58.9816C201.723 58.9816 201.673 58.9352 201.54 58.8423C201.507 58.8887 201.473 58.912 201.44 58.912C201.407 58.912 201.373 58.9352 201.34 58.9816C201.34 58.9816 201.307 58.9816 201.24 58.9816C200.873 58.7959 200.573 58.6566 200.34 58.5637C200.14 58.4709 200.04 58.3084 200.04 58.0762C200.04 57.8905 199.873 57.5655 199.54 57.1012C199.24 56.6369 199.09 56.1029 199.09 55.4993C199.09 54.8029 199.14 53.9207 199.24 52.8528C199.34 51.7385 199.54 50.8563 199.84 50.2063C200.107 49.9742 200.573 49.7188 201.24 49.4402C201.907 49.1152 202.573 48.9527 203.24 48.9527C203.64 48.9527 203.94 49.0456 204.14 49.2313C204.373 49.3706 204.557 49.5563 204.69 49.7884C204.823 50.0206 204.89 50.276 204.89 50.5545C204.923 50.7867 204.94 51.0188 204.94 51.251C204.94 51.576 204.857 51.8081 204.69 51.9474C204.523 52.0867 204.323 52.1796 204.09 52.226C203.857 52.2724 203.623 52.2957 203.39 52.2957C203.157 52.2957 202.957 52.3189 202.79 52.3653C202.123 52.6439 201.573 52.8296 201.14 52.9225C200.74 53.0153 200.507 53.0618 200.44 53.0618C200.607 53.1546 200.723 53.3403 200.79 53.6189C200.857 53.8975 200.907 54.1993 200.94 54.5243C200.973 54.8029 200.99 55.0815 200.99 55.36C200.99 55.5922 201.007 55.7083 201.04 55.7083C202.207 55.7083 203.173 55.6386 203.94 55.4993C204.707 55.3601 205.34 55.1975 205.84 55.0118C206.34 54.7797 206.74 54.594 207.04 54.4547C207.34 54.2689 207.64 54.1529 207.94 54.1064C208.073 53.6421 208.223 53.3636 208.39 53.2707C208.557 53.1314 208.74 52.8993 208.94 52.5742C208.873 51.9242 208.757 51.2742 208.59 50.6242C208.457 49.9277 208.307 49.3009 208.14 48.7438C207.973 48.1402 207.807 47.6294 207.64 47.2116C207.507 46.7937 207.44 46.5383 207.44 46.4455C207.207 46.4455 207.007 46.3758 206.84 46.2365C206.707 46.0972 206.59 45.9579 206.49 45.8187C206.423 45.6794 206.373 45.5401 206.34 45.4008C206.307 45.2615 206.273 45.1919 206.24 45.1919C205.873 45.1919 205.59 45.0758 205.39 44.8436C205.257 44.7508 205.157 44.6347 205.09 44.4954C204.557 44.4954 204.14 44.4025 203.84 44.2168C203.54 44.0311 203.207 43.9382 202.84 43.9382C202.007 44.3561 201.107 44.6579 200.14 44.8436C199.207 45.0293 198.373 45.424 197.64 46.0276C197.24 46.4919 196.873 46.933 196.54 47.3509C196.207 47.7687 195.907 48.233 195.64 48.7438C195.373 49.2545 195.09 49.8116 194.79 50.4152C194.49 51.0188 194.19 51.7385 193.89 52.5742C193.723 52.9457 193.607 53.3171 193.54 53.6886C193.507 54.06 193.473 54.4314 193.44 54.8029C193.44 55.4993 193.457 56.1958 193.49 56.8922C193.557 57.5423 193.79 58.2851 194.19 59.1209C194.357 59.3066 194.49 59.5155 194.59 59.7477C194.723 59.9798 194.79 60.0959 194.79 60.0959L195.09 60.4441C195.157 60.4441 195.207 60.5834 195.24 60.862C195.307 61.0942 195.357 61.2102 195.39 61.2102H196.29C196.69 61.5353 197.007 61.8138 197.24 62.046C197.473 62.2317 197.69 62.371 197.89 62.4639C198.09 62.5103 198.307 62.5567 198.54 62.6031C198.773 62.6496 199.073 62.6728 199.44 62.6728C199.64 62.6728 199.84 62.6728 200.04 62.6728C200.273 62.6264 200.507 62.6031 200.74 62.6031C200.94 62.6031 201.157 62.6031 201.39 62.6031C201.623 62.6031 201.907 62.6496 202.24 62.7424C202.973 62.7424 203.573 62.696 204.04 62.6031C204.54 62.4639 205.023 62.3014 205.49 62.1156C205.99 61.9299 206.507 61.7674 207.04 61.6281C207.607 61.4888 208.29 61.396 209.09 61.3495C209.29 61.2567 209.523 61.0477 209.79 60.7227C210.09 60.3513 210.24 60.1191 210.24 60.0263C210.24 59.887 210.157 59.8173 209.99 59.8173H210.24Z" fill="#56321E"/>
<path d="M239.727 46.5848L241.027 46.5151C241.194 46.608 241.344 46.6776 241.477 46.724C241.611 46.7705 241.794 46.7937 242.027 46.7937C242.161 46.7937 242.294 46.7705 242.427 46.724C242.594 46.6776 242.744 46.6312 242.877 46.5848C243.044 46.5383 243.244 46.5151 243.477 46.5151C243.744 46.4687 244.077 46.4455 244.477 46.4455C244.611 46.4455 244.727 46.4687 244.827 46.5151C244.961 46.5151 245.061 46.5151 245.127 46.5151C245.161 46.5151 245.194 46.5151 245.227 46.5151C245.294 46.5151 245.427 46.4222 245.627 46.2365C245.461 46.2365 245.377 46.074 245.377 45.749C245.377 45.7026 245.394 45.5633 245.427 45.3311C245.461 45.099 245.477 44.9365 245.477 44.8436C245.444 44.8436 245.427 44.7275 245.427 44.4954C245.427 44.3097 245.461 44.1704 245.527 44.0775C245.294 43.8454 245.177 43.6132 245.177 43.3811C245.177 43.1025 245.111 42.8239 244.977 42.5453C244.777 42.6382 244.627 42.6846 244.527 42.6846C244.294 42.6846 244.127 42.6846 244.027 42.6846C243.961 42.6382 243.877 42.5918 243.777 42.5453C243.677 42.4989 243.494 42.4757 243.227 42.4757C242.994 42.4293 242.594 42.3828 242.027 42.3364C241.627 42.29 241.144 42.2435 240.577 42.1971C240.011 42.1507 239.394 42.081 238.727 41.9882L238.227 34.2576L237.777 33.3522L234.477 33.77L233.677 35.3719L233.527 41.6399C233.061 41.6399 232.611 41.6399 232.177 41.6399C231.744 41.5935 231.327 41.5703 230.927 41.5703C230.594 41.7096 230.411 41.7792 230.377 41.7792C230.077 41.7792 229.811 41.7792 229.577 41.7792C229.344 41.7792 229.111 41.7328 228.877 41.6399H228.077L227.327 42.5453C227.327 42.9168 227.327 43.3346 227.327 43.7989C227.327 44.2632 227.344 44.7275 227.377 45.1919C227.444 45.6562 227.527 46.074 227.627 46.4455C227.727 46.7705 227.861 46.9794 228.027 47.0723L228.427 47.5598C228.761 47.5598 229.011 47.5598 229.177 47.5598C229.344 47.5134 229.644 47.4437 230.077 47.3509C230.111 47.258 230.261 47.2116 230.527 47.2116C230.727 47.2116 230.927 47.2348 231.127 47.2812C231.361 47.3276 231.511 47.3741 231.577 47.4205C231.677 47.4205 231.777 47.4205 231.877 47.4205C232.011 47.3741 232.144 47.3509 232.277 47.3509L232.977 47.2812L232.777 48.6741V57.728L232.977 61.6978L233.527 63.2996L234.777 63.021L238.877 63.4389L241.677 62.8817C241.877 62.0924 241.977 61.3031 241.977 60.5138C241.977 59.7245 241.877 58.8887 241.677 58.0066L239.727 56.544V46.5848Z" fill="#56321E"/>
<path d="M266.059 40.1774L264.159 35.9987L263.509 36.2773L260.159 40.0381L258.659 43.6597L257.609 45.0526V40.247L256.259 36.2076H253.359L252.559 37.4612V55.2904L252.309 56.0565L252.409 57.8673L257.909 57.2405L258.759 56.544V55.1511L259.009 52.9225L258.759 49.2313C258.993 48.9991 259.176 48.7205 259.309 48.3955C259.476 48.0705 259.643 47.7455 259.809 47.4205C260.009 47.0955 260.226 46.7473 260.459 46.3758C260.726 45.9579 261.043 45.5633 261.409 45.1919L263.709 42.7543C264.076 42.3828 264.443 41.9882 264.809 41.5703C265.209 41.1524 265.626 40.6881 266.059 40.1774Z" fill="#56321E"/>
<path d="M277.923 59.4691L272.923 72.9803L273.573 74.6518H274.273L274.823 74.0946H278.273L279.273 72.9803L279.973 69.8462L281.173 65.6675L282.723 62.2549L283.323 60.862V59.5388H283.073L283.773 58.0066L285.123 56.3351L286.623 51.3903L288.173 48.2562L289.273 45.6097L289.873 43.1025V41.7792H285.723L283.823 45.1919L282.873 48.0473L282.023 49.5099L281.523 51.4599L281.023 51.7385L280.573 52.5046L279.973 52.8528L276.073 48.2562L275.623 47.4205L272.173 42.1275L271.673 41.8489L269.073 42.1971L268.923 42.8936L272.223 50.3456L273.073 52.5742L277.373 58.3548L277.523 59.0512L278.073 59.4691H277.923Z" fill="#56321E"/>
<path d="M302.321 35.4415L300.621 34.4665L298.421 33.9093L296.821 33.4218L295.621 33.979V40.5953L295.771 41.431L298.771 40.7346L301.121 41.3614L301.821 40.6649L302.321 35.4415ZM302.671 58.6334L301.821 57.6583L302.121 56.4047V53.1314L301.771 51.3903V46.5848L301.171 45.6794L300.121 45.6097L299.721 45.8883L297.721 45.6794L296.871 46.2365L295.821 63.0907L296.321 63.8568H297.221L297.821 63.5782H301.671L302.621 62.9514L302.371 61.2799L302.671 58.6334Z" fill="#56321E"/>
<path d="M327.002 39.6202L326.202 38.7148H322.752L319.852 40.3863L318.702 41.0828L317.652 41.7096L316.102 37.8095H312.602L311.702 39.6202V41.3614V53.5493L312.402 55.8476L313.702 55.1511H314.502L315.252 55.7779L317.652 54.9422L317.352 48.2562L317.252 48.1169V45.3311L320.452 44.8436L321.352 44.1472H321.952L323.102 46.4455L322.302 54.5243L322.952 55.2904H328.152L328.652 54.4547V46.0972L328.852 44.4954L327.002 39.6202Z" fill="#56321E"/>
<path d="M352.179 51.3206C352.179 50.717 352.195 50.1134 352.229 49.5099C352.295 48.9063 352.329 48.3259 352.329 47.7687C352.329 47.3044 352.312 46.8866 352.279 46.5151C352.245 46.1437 352.179 45.7722 352.079 45.4008C352.012 44.9829 351.945 44.5186 351.879 44.0079C351.812 43.4507 351.729 42.7311 351.629 41.8489C351.562 41.0131 351.495 40.3399 351.429 39.8292C351.362 39.3184 351.079 39.0631 350.579 39.0631C350.379 39.0631 350.195 39.0399 350.029 38.9934C349.862 38.947 349.762 38.8774 349.729 38.7845C349.662 38.7845 349.579 38.8774 349.479 39.0631C349.379 39.2024 349.245 39.3881 349.079 39.6202C348.912 39.806 348.729 39.9685 348.529 40.1078C348.362 40.247 348.162 40.3167 347.929 40.3167C347.829 40.3167 347.695 40.2703 347.529 40.1774C347.395 40.0381 347.212 39.8756 346.979 39.6899C346.779 39.5042 346.512 39.3417 346.179 39.2024C345.879 39.0166 345.495 38.8774 345.029 38.7845C344.229 38.7845 343.279 39.0631 342.179 39.6202C341.112 40.1774 340.095 40.9899 339.129 42.0578C338.162 43.0793 337.345 44.3561 336.679 45.8883C336.012 47.4205 335.679 49.1848 335.679 51.1813C335.679 52.0635 335.745 52.9689 335.879 53.8975C336.012 54.7797 336.179 55.6386 336.379 56.4744L337.629 58.4941C338.162 58.7262 338.579 58.9352 338.879 59.1209C339.212 59.3066 339.495 59.4923 339.729 59.6781C339.995 59.8638 340.245 60.0031 340.479 60.0959C340.745 60.1424 341.079 60.1656 341.479 60.1656C341.812 60.1656 342.279 60.1424 342.879 60.0959C343.512 60.0031 344.145 59.887 344.779 59.7477C345.445 59.6084 346.029 59.4923 346.529 59.3995C347.029 59.3066 347.345 59.237 347.479 59.1905C347.345 59.8406 347.262 60.6531 347.229 61.6281C347.229 62.5567 347.179 63.4853 347.079 64.4139C346.979 65.389 346.762 66.2943 346.429 67.1301C346.129 68.0123 345.612 68.7087 344.879 69.2194C344.612 69.3587 344.095 69.5909 343.329 69.9159C342.562 70.2409 341.812 70.5195 341.079 70.7516C340.112 71.1231 339.462 71.4017 339.129 71.5874C338.829 71.7731 338.662 71.9356 338.629 72.0749C338.595 72.2606 338.595 72.4696 338.629 72.7017C338.695 72.9339 338.645 73.2589 338.479 73.6767C338.612 73.6767 338.679 73.7928 338.679 74.025V74.0946C338.679 74.2803 338.762 74.4661 338.929 74.6518C339.095 74.8839 339.379 75 339.779 75C340.945 75 342.029 74.8143 343.029 74.4428C344.029 74.0714 344.879 73.7696 345.579 73.5374C345.945 73.3982 346.262 73.2821 346.529 73.1892C346.829 73.0964 347.129 72.9339 347.429 72.7017C347.762 72.4696 348.112 72.0981 348.479 71.5874C348.845 71.1231 349.312 70.4498 349.879 69.5677C350.379 68.5926 350.845 67.3855 351.279 65.9461C351.745 64.5532 351.979 62.7889 351.979 60.6531C351.979 59.6781 351.962 58.6334 351.929 57.5191C351.895 56.4047 351.879 55.36 351.879 54.385C351.879 53.6421 351.895 53.0153 351.929 52.5046C351.962 51.9939 352.045 51.5992 352.179 51.3206ZM344.929 43.8686C345.429 43.915 345.845 43.9847 346.179 44.0775C346.545 44.124 346.845 44.2865 347.079 44.565C347.312 44.8436 347.495 45.2615 347.629 45.8187C347.795 46.3294 347.962 47.0491 348.129 47.9777L347.829 54.5243C347.329 54.9422 346.845 55.244 346.379 55.4297C345.945 55.569 345.562 55.6386 345.229 55.6386C344.862 55.6386 344.479 55.6386 344.079 55.6386C343.712 55.5922 343.329 55.569 342.929 55.569H342.329L341.129 53.7582C341.129 52.5046 341.245 51.1581 341.479 49.7188C341.745 48.233 342.412 46.6312 343.479 44.9133C343.679 44.6347 343.879 44.4025 344.079 44.2168C344.312 43.9847 344.595 43.8686 344.929 43.8686Z" fill="#56321E"/>
<path d="M385.845 51.5296C385.778 51.1117 385.628 50.7867 385.395 50.5545C385.162 50.3224 385.045 49.9974 385.045 49.5795C384.745 49.4402 384.512 49.3241 384.345 49.2313C384.178 49.092 384.028 48.9991 383.895 48.9527C383.795 48.8598 383.678 48.7438 383.545 48.6045C383.445 48.4652 383.278 48.3259 383.045 48.1866C382.978 48.1866 382.778 48.0705 382.445 47.8384C382.145 47.5598 381.945 47.3973 381.845 47.3509L381.145 46.8633C380.712 46.5848 380.395 46.3294 380.195 46.0972C380.028 45.8651 379.928 45.6562 379.895 45.4704L378.995 44.2865C378.862 44.2865 378.728 44.1936 378.595 44.0079C378.495 43.7757 378.445 43.3114 378.445 42.615C378.445 41.965 378.495 41.4774 378.595 41.1524C378.728 40.8274 379.112 40.4328 379.745 39.9685H379.845C379.945 39.9685 380.078 39.922 380.245 39.8292C380.412 39.7363 380.562 39.5506 380.695 39.272C380.695 39.1791 380.745 39.0863 380.845 38.9934C380.945 38.9006 381.345 38.7148 382.045 38.4363C382.212 38.4363 382.345 38.413 382.445 38.3666C382.545 38.2738 382.678 38.1577 382.845 38.0184H383.545C383.645 38.0184 383.745 38.0184 383.845 38.0184C383.945 37.972 384.062 37.9255 384.195 37.8791C384.162 37.8791 384.145 37.8559 384.145 37.8095C384.178 37.8095 384.195 37.7862 384.195 37.7398C384.195 37.6934 384.212 37.6702 384.245 37.6702C384.245 37.5309 384.228 37.4148 384.195 37.3219C384.195 37.2291 384.195 37.1362 384.195 37.0434V36.6255C384.195 35.929 384.062 35.5344 383.795 35.4415C383.562 35.3022 383.362 35.1165 383.195 34.8844C382.795 34.9772 382.445 35.0469 382.145 35.0933C381.878 35.0933 381.545 35.0933 381.145 35.0933C380.912 35.0933 380.745 35.0933 380.645 35.0933C380.578 35.0469 380.528 35.0004 380.495 34.954C380.062 35.1862 379.678 35.3487 379.345 35.4415C379.012 35.488 378.645 35.6272 378.245 35.8594L376.345 36.9737C375.912 37.3452 375.428 37.6934 374.895 38.0184C374.395 38.3434 373.978 38.7845 373.645 39.3417C373.478 39.7595 373.212 40.1542 372.845 40.5256C372.845 40.9435 372.762 41.2685 372.595 41.5007C372.462 41.7328 372.395 42.0114 372.395 42.3364C372.395 42.4293 372.412 42.4989 372.445 42.5453C372.478 42.5918 372.495 42.7311 372.495 42.9632C372.495 43.1489 372.478 43.3579 372.445 43.59C372.412 43.8222 372.362 43.9847 372.295 44.0775C372.295 44.4954 372.378 44.9597 372.545 45.4704C372.745 45.9347 372.928 46.2133 373.095 46.3062L373.545 46.8633C373.878 47.0491 374.162 47.258 374.395 47.4901C374.628 47.7223 374.845 47.9777 375.045 48.2562C375.245 48.4884 375.445 48.7205 375.645 48.9527C375.878 49.1384 376.162 49.2545 376.495 49.3009C376.962 49.5331 377.245 49.742 377.345 49.9277C377.478 50.067 377.545 50.2063 377.545 50.3456C377.578 50.4385 377.628 50.5545 377.695 50.6938C377.762 50.7867 378.012 50.9724 378.445 51.251C378.445 51.4367 378.562 51.6921 378.795 52.0171L379.195 52.5742C379.295 52.9457 379.345 53.2939 379.345 53.6189C379.345 54.0368 379.228 54.385 378.995 54.6636C378.795 54.8957 378.545 55.1047 378.245 55.2904C377.978 55.4297 377.728 55.5226 377.495 55.569C377.262 55.6154 377.145 55.6154 377.145 55.569C376.378 55.894 375.828 56.1261 375.495 56.2654C375.195 56.4047 374.895 56.4744 374.595 56.4744C374.362 56.4744 373.895 56.4047 373.195 56.2654C373.128 56.4047 373.012 56.4744 372.845 56.4744C372.678 56.4744 372.462 56.4047 372.195 56.2654C371.962 56.1261 371.862 56.0797 371.895 56.1261C372.095 56.7762 372.178 57.3798 372.145 57.9369C372.112 58.4477 372.178 58.703 372.345 58.703H372.395C372.362 58.7495 372.328 58.8191 372.295 58.912C372.262 59.0048 372.245 59.1209 372.245 59.2602C372.245 59.2602 372.262 59.2602 372.295 59.2602C372.228 59.3066 372.195 59.3298 372.195 59.3298C372.195 59.4227 372.328 59.5852 372.595 59.8173C372.895 60.0031 373.062 60.0959 373.095 60.0959C373.728 60.0031 374.362 59.8638 374.995 59.6781C375.628 59.4923 376.328 59.3995 377.095 59.3995C377.562 59.3995 377.995 59.4691 378.395 59.6084C378.795 59.7477 379.212 59.8173 379.645 59.8173C380.278 59.8173 380.778 59.7245 381.145 59.5388C381.545 59.353 381.862 59.1673 382.095 58.9816C382.328 58.7495 382.545 58.5637 382.745 58.4244C382.945 58.2387 383.178 58.1459 383.445 58.1459L384.495 57.4494C384.862 57.1708 385.195 56.7762 385.495 56.2654C385.828 55.7083 385.995 55.1047 385.995 54.4547C385.995 54.0368 385.962 53.5957 385.895 53.1314C385.862 52.6671 385.845 52.1332 385.845 51.5296Z" fill="#56321E"/>
<path d="M392.688 45.4704C392.587 46.3062 392.521 47.0955 392.487 47.8384C392.487 48.5812 392.487 49.2545 392.487 49.8581C392.487 50.9724 392.604 51.9474 392.837 52.7832L393.337 53.6886L398.638 55.8476H399.837C399.971 55.8011 400.121 55.7315 400.288 55.6386C400.454 55.5458 400.637 55.4065 400.837 55.2208L405.038 53.2707C405.271 53.1314 405.604 52.8993 406.038 52.5742C406.504 52.2492 406.938 51.8778 407.337 51.4599C407.771 50.9956 408.138 50.4849 408.438 49.9277C408.737 49.3706 408.888 48.7902 408.888 48.1866C408.888 45.9579 408.471 43.9382 407.638 42.1275C406.838 40.3167 405.688 38.9238 404.188 37.9488H404.087C403.954 37.9488 403.721 37.972 403.388 38.0184C403.054 38.0648 402.754 38.088 402.487 38.088C402.254 38.088 402.038 38.0416 401.837 37.9488C401.671 37.8559 401.587 37.7166 401.587 37.5309L398.038 38.297C397.438 38.5291 396.837 38.8541 396.237 39.272C395.637 39.6899 395.087 40.2006 394.587 40.8042C394.087 41.3614 393.671 42.0346 393.337 42.8239C393.004 43.5668 392.788 44.449 392.688 45.4704ZM401.938 42.2668C402.337 42.4525 402.771 42.615 403.237 42.7543C403.704 42.8936 404.138 43.1025 404.538 43.3811C404.938 43.6132 405.288 43.9382 405.587 44.3561C405.921 44.774 406.171 45.4008 406.337 46.2365L405.038 48.883L399.688 50.4152H398.987L397.688 48.8134L397.938 44.6347C398.138 44.4954 398.337 44.2865 398.538 44.0079C398.738 43.7293 398.954 43.4507 399.188 43.1721C399.454 42.8471 399.738 42.5918 400.038 42.406C400.371 42.1739 400.721 42.0578 401.087 42.0578C401.321 42.0578 401.604 42.1275 401.938 42.2668Z" fill="#56321E"/>
<path d="M441.986 55.0815L441.836 42.1275C441.602 41.3846 441.336 40.6649 441.036 39.9685C440.736 39.272 440.336 38.7613 439.836 38.4363L434.936 38.297L433.386 38.5059L432.786 38.9934L431.586 39.272L429.186 37.2523L426.486 36.9737L423.536 38.4363L422.936 38.2273L422.686 37.6005L421.436 36.4166L420.336 36.6255L418.086 35.8594L417.086 38.5059L416.686 44.4258V56.6833L419.286 56.9619L419.986 56.4744H422.636L423.736 56.1261V42.1275H426.236L426.836 43.3114L427.036 45.9579V51.3903V55.4993L427.536 56.1261H431.636L432.736 54.9422L432.236 50.1367V46.8633V44.565L432.336 43.0328L434.486 43.3114L434.786 44.565L435.436 51.8081V55.2904L436.736 56.0565H441.536L441.986 55.0815Z" fill="#56321E"/>
<path d="M465.074 59.8173L464.924 59.5388C464.924 59.3066 464.874 59.0977 464.774 58.912C464.674 58.6798 464.591 58.4244 464.524 58.1459C464.324 58.1459 464.14 58.2155 463.974 58.3548C463.807 58.4477 463.624 58.5637 463.424 58.703C463.257 58.7959 463.04 58.912 462.774 59.0512C462.54 59.1441 462.241 59.1905 461.874 59.1905H461.624C461.224 59.237 460.874 59.2602 460.574 59.2602C460.274 59.2602 459.99 59.2834 459.724 59.3298C459.457 59.3298 459.19 59.353 458.924 59.3995C458.657 59.3995 458.34 59.3995 457.974 59.3995C457.34 59.2602 456.924 59.1673 456.724 59.1209C456.557 59.028 456.474 58.9816 456.474 58.9816C456.474 58.9816 456.491 58.9816 456.524 58.9816C456.557 58.9816 456.507 58.9352 456.374 58.8423C456.341 58.8887 456.307 58.912 456.274 58.912C456.241 58.912 456.207 58.9352 456.174 58.9816C456.174 58.9816 456.141 58.9816 456.074 58.9816C455.707 58.7959 455.407 58.6566 455.174 58.5637C454.974 58.4709 454.874 58.3084 454.874 58.0762C454.874 57.8905 454.707 57.5655 454.374 57.1012C454.074 56.6369 453.924 56.1029 453.924 55.4993C453.924 54.8029 453.974 53.9207 454.074 52.8528C454.174 51.7385 454.374 50.8563 454.674 50.2063C454.94 49.9742 455.407 49.7188 456.074 49.4402C456.74 49.1152 457.407 48.9527 458.074 48.9527C458.474 48.9527 458.774 49.0456 458.974 49.2313C459.207 49.3706 459.391 49.5563 459.524 49.7884C459.657 50.0206 459.724 50.276 459.724 50.5545C459.757 50.7867 459.774 51.0188 459.774 51.251C459.774 51.576 459.69 51.8081 459.524 51.9474C459.357 52.0867 459.157 52.1796 458.924 52.226C458.69 52.2724 458.457 52.2957 458.224 52.2957C457.99 52.2957 457.79 52.3189 457.624 52.3653C456.957 52.6439 456.407 52.8296 455.974 52.9225C455.574 53.0153 455.341 53.0618 455.274 53.0618C455.44 53.1546 455.557 53.3403 455.624 53.6189C455.691 53.8975 455.741 54.1993 455.774 54.5243C455.807 54.8029 455.824 55.0815 455.824 55.36C455.824 55.5922 455.841 55.7083 455.874 55.7083C457.04 55.7083 458.007 55.6386 458.774 55.4993C459.54 55.3601 460.174 55.1975 460.674 55.0118C461.174 54.7797 461.574 54.594 461.874 54.4547C462.174 54.2689 462.474 54.1529 462.774 54.1064C462.907 53.6421 463.057 53.3636 463.224 53.2707C463.39 53.1314 463.574 52.8993 463.774 52.5742C463.707 51.9242 463.59 51.2742 463.424 50.6242C463.29 49.9277 463.14 49.3009 462.974 48.7438C462.807 48.1402 462.64 47.6294 462.474 47.2116C462.34 46.7937 462.274 46.5383 462.274 46.4455C462.04 46.4455 461.84 46.3758 461.674 46.2365C461.54 46.0972 461.424 45.9579 461.324 45.8187C461.257 45.6794 461.207 45.5401 461.174 45.4008C461.141 45.2615 461.107 45.1919 461.074 45.1919C460.707 45.1919 460.424 45.0758 460.224 44.8436C460.09 44.7508 459.991 44.6347 459.924 44.4954C459.391 44.4954 458.974 44.4025 458.674 44.2168C458.374 44.0311 458.04 43.9382 457.674 43.9382C456.84 44.3561 455.94 44.6579 454.974 44.8436C454.04 45.0293 453.207 45.424 452.474 46.0276C452.074 46.4919 451.707 46.933 451.374 47.3509C451.04 47.7687 450.74 48.233 450.474 48.7438C450.207 49.2545 449.924 49.8116 449.624 50.4152C449.324 51.0188 449.024 51.7385 448.724 52.5742C448.557 52.9457 448.441 53.3171 448.374 53.6886C448.341 54.06 448.307 54.4314 448.274 54.8029C448.274 55.4993 448.29 56.1958 448.324 56.8922C448.391 57.5423 448.624 58.2851 449.024 59.1209C449.19 59.3066 449.324 59.5155 449.424 59.7477C449.557 59.9798 449.624 60.0959 449.624 60.0959L449.924 60.4441C449.991 60.4441 450.04 60.5834 450.074 60.862C450.141 61.0942 450.19 61.2102 450.224 61.2102H451.124C451.524 61.5353 451.84 61.8138 452.074 62.046C452.307 62.2317 452.524 62.371 452.724 62.4639C452.924 62.5103 453.141 62.5567 453.374 62.6031C453.607 62.6496 453.907 62.6728 454.274 62.6728C454.474 62.6728 454.674 62.6728 454.874 62.6728C455.107 62.6264 455.34 62.6031 455.574 62.6031C455.774 62.6031 455.99 62.6031 456.224 62.6031C456.457 62.6031 456.74 62.6496 457.074 62.7424C457.807 62.7424 458.407 62.696 458.874 62.6031C459.374 62.4639 459.857 62.3014 460.324 62.1156C460.824 61.9299 461.341 61.7674 461.874 61.6281C462.441 61.4888 463.124 61.396 463.924 61.3495C464.124 61.2567 464.357 61.0477 464.624 60.7227C464.924 60.3513 465.074 60.1191 465.074 60.0263C465.074 59.887 464.99 59.8173 464.824 59.8173H465.074Z" fill="#56321E"/>
<path d="M480.743 46.5848L482.043 46.5151C482.21 46.608 482.36 46.6776 482.493 46.724C482.626 46.7705 482.81 46.7937 483.043 46.7937C483.176 46.7937 483.31 46.7705 483.443 46.724C483.61 46.6776 483.76 46.6312 483.893 46.5848C484.06 46.5383 484.26 46.5151 484.493 46.5151C484.76 46.4687 485.093 46.4455 485.493 46.4455C485.626 46.4455 485.743 46.4687 485.843 46.5151C485.976 46.5151 486.076 46.5151 486.143 46.5151C486.176 46.5151 486.21 46.5151 486.243 46.5151C486.31 46.5151 486.443 46.4222 486.643 46.2365C486.476 46.2365 486.393 46.074 486.393 45.749C486.393 45.7026 486.41 45.5633 486.443 45.3311C486.476 45.099 486.493 44.9365 486.493 44.8436C486.46 44.8436 486.443 44.7275 486.443 44.4954C486.443 44.3097 486.476 44.1704 486.543 44.0775C486.31 43.8454 486.193 43.6132 486.193 43.3811C486.193 43.1025 486.126 42.8239 485.993 42.5453C485.793 42.6382 485.643 42.6846 485.543 42.6846C485.31 42.6846 485.143 42.6846 485.043 42.6846C484.976 42.6382 484.893 42.5918 484.793 42.5453C484.693 42.4989 484.51 42.4757 484.243 42.4757C484.01 42.4293 483.61 42.3828 483.043 42.3364C482.643 42.29 482.16 42.2435 481.593 42.1971C481.026 42.1507 480.41 42.081 479.743 41.9882L479.243 34.2576L478.793 33.3522L475.493 33.77L474.693 35.3719L474.543 41.6399C474.076 41.6399 473.626 41.6399 473.193 41.6399C472.76 41.5935 472.343 41.5703 471.943 41.5703C471.61 41.7096 471.426 41.7792 471.393 41.7792C471.093 41.7792 470.826 41.7792 470.593 41.7792C470.36 41.7792 470.126 41.7328 469.893 41.6399H469.093L468.343 42.5453C468.343 42.9168 468.343 43.3346 468.343 43.7989C468.343 44.2632 468.36 44.7275 468.393 45.1919C468.46 45.6562 468.543 46.074 468.643 46.4455C468.743 46.7705 468.876 46.9794 469.043 47.0723L469.443 47.5598C469.776 47.5598 470.026 47.5598 470.193 47.5598C470.36 47.5134 470.66 47.4437 471.093 47.3509C471.126 47.258 471.276 47.2116 471.543 47.2116C471.743 47.2116 471.943 47.2348 472.143 47.2812C472.376 47.3276 472.526 47.3741 472.593 47.4205C472.693 47.4205 472.793 47.4205 472.893 47.4205C473.026 47.3741 473.16 47.3509 473.293 47.3509L473.993 47.2812L473.793 48.6741V57.728L473.993 61.6978L474.543 63.2996L475.793 63.021L479.893 63.4389L482.693 62.8817C482.893 62.0924 482.993 61.3031 482.993 60.5138C482.993 59.7245 482.893 58.8887 482.693 58.0066L480.743 56.544V46.5848Z" fill="#56321E"/>
<path d="M507.675 43.9382C507.475 43.8454 507.292 43.7525 507.125 43.6597C506.958 43.5668 506.792 43.4971 506.625 43.4507L505.575 42.9632H499.375L499.175 42.3364V30.4271L496.375 30.0092L495.425 30.5664L494.675 41.6399L494.025 45.1222L493.175 58.6334L493.625 62.1156H498.325L499.575 61.6978V46.933L500.575 46.724L503.125 46.5151C503.525 46.6544 503.858 46.8633 504.125 47.1419C504.425 47.4205 504.658 47.7223 504.825 48.0473C504.992 48.3723 505.108 48.6741 505.175 48.9527C505.275 49.2313 505.342 49.4634 505.375 49.6491C505.442 49.9277 505.525 50.1831 505.625 50.4152C505.725 50.601 505.775 50.8795 505.775 51.251C505.775 51.4367 505.775 51.6689 505.775 51.9474C505.775 52.1796 505.758 52.5046 505.725 52.9225L505.975 52.9921L505.725 54.1761V59.0512L505.425 60.5138L505.875 62.3246H507.925L509.225 62.6728L511.625 60.9317V58.703L511.675 57.7976L510.675 48.0473C510.242 47.6759 509.908 47.3044 509.675 46.933C509.475 46.5151 509.275 46.1205 509.075 45.749C508.908 45.3311 508.725 44.9597 508.525 44.6347C508.325 44.3097 508.042 44.0775 507.675 43.9382Z" fill="#56321E"/>
<path d="M524.929 35.4415L523.229 34.4665L521.029 33.9093L519.429 33.4218L518.229 33.979V40.5953L518.379 41.431L521.379 40.7346L523.729 41.3614L524.429 40.6649L524.929 35.4415ZM525.279 58.6334L524.429 57.6583L524.729 56.4047V53.1314L524.379 51.3903V46.5848L523.779 45.6794L522.729 45.6097L522.329 45.8883L520.329 45.6794L519.479 46.2365L518.429 63.0907L518.929 63.8568H519.829L520.429 63.5782H524.279L525.229 62.9514L524.979 61.2799L525.279 58.6334Z" fill="#56321E"/>
<path d="M549.609 39.6202L548.809 38.7148H545.359L542.459 40.3863L541.309 41.0828L540.259 41.7096L538.709 37.8095H535.209L534.309 39.6202V41.3614V53.5493L535.009 55.8476L536.309 55.1511H537.109L537.859 55.7779L540.259 54.9422L539.959 48.2562L539.859 48.1169V45.3311L543.059 44.8436L543.959 44.1472H544.559L545.709 46.4455L544.909 54.5243L545.559 55.2904H550.759L551.259 54.4547V46.0972L551.459 44.4954L549.609 39.6202Z" fill="#56321E"/>
<path d="M574.786 51.3206C574.786 50.717 574.803 50.1134 574.836 49.5099C574.903 48.9063 574.936 48.3259 574.936 47.7687C574.936 47.3044 574.919 46.8866 574.886 46.5151C574.853 46.1437 574.786 45.7722 574.686 45.4008C574.619 44.9829 574.553 44.5186 574.486 44.0079C574.419 43.4507 574.336 42.7311 574.236 41.8489C574.169 41.0131 574.103 40.3399 574.036 39.8292C573.969 39.3184 573.686 39.0631 573.186 39.0631C572.986 39.0631 572.803 39.0399 572.636 38.9934C572.469 38.947 572.369 38.8774 572.336 38.7845C572.269 38.7845 572.186 38.8774 572.086 39.0631C571.986 39.2024 571.853 39.3881 571.686 39.6202C571.519 39.806 571.336 39.9685 571.136 40.1078C570.969 40.247 570.769 40.3167 570.536 40.3167C570.436 40.3167 570.303 40.2703 570.136 40.1774C570.003 40.0381 569.819 39.8756 569.586 39.6899C569.386 39.5042 569.119 39.3417 568.786 39.2024C568.486 39.0166 568.103 38.8774 567.636 38.7845C566.836 38.7845 565.886 39.0631 564.786 39.6202C563.719 40.1774 562.703 40.9899 561.736 42.0578C560.769 43.0793 559.953 44.3561 559.286 45.8883C558.619 47.4205 558.286 49.1848 558.286 51.1813C558.286 52.0635 558.353 52.9689 558.486 53.8975C558.619 54.7797 558.786 55.6386 558.986 56.4744L560.236 58.4941C560.769 58.7262 561.186 58.9352 561.486 59.1209C561.819 59.3066 562.103 59.4923 562.336 59.6781C562.603 59.8638 562.853 60.0031 563.086 60.0959C563.353 60.1424 563.686 60.1656 564.086 60.1656C564.419 60.1656 564.886 60.1424 565.486 60.0959C566.119 60.0031 566.753 59.887 567.386 59.7477C568.053 59.6084 568.636 59.4923 569.136 59.3995C569.636 59.3066 569.953 59.237 570.086 59.1905C569.953 59.8406 569.869 60.6531 569.836 61.6281C569.836 62.5567 569.786 63.4853 569.686 64.4139C569.586 65.389 569.369 66.2943 569.036 67.1301C568.736 68.0123 568.219 68.7087 567.486 69.2194C567.219 69.3587 566.703 69.5909 565.936 69.9159C565.169 70.2409 564.419 70.5195 563.686 70.7516C562.719 71.1231 562.069 71.4017 561.736 71.5874C561.436 71.7731 561.269 71.9356 561.236 72.0749C561.203 72.2606 561.203 72.4696 561.236 72.7017C561.303 72.9339 561.253 73.2589 561.086 73.6767C561.219 73.6767 561.286 73.7928 561.286 74.025V74.0946C561.286 74.2803 561.369 74.4661 561.536 74.6518C561.703 74.8839 561.986 75 562.386 75C563.553 75 564.636 74.8143 565.636 74.4428C566.636 74.0714 567.486 73.7696 568.186 73.5374C568.553 73.3982 568.869 73.2821 569.136 73.1892C569.436 73.0964 569.736 72.9339 570.036 72.7017C570.369 72.4696 570.719 72.0981 571.086 71.5874C571.453 71.1231 571.919 70.4498 572.486 69.5677C572.986 68.5926 573.453 67.3855 573.886 65.9461C574.353 64.5532 574.586 62.7889 574.586 60.6531C574.586 59.6781 574.569 58.6334 574.536 57.5191C574.503 56.4047 574.486 55.36 574.486 54.385C574.486 53.6421 574.503 53.0153 574.536 52.5046C574.569 51.9939 574.653 51.5992 574.786 51.3206ZM567.536 43.8686C568.036 43.915 568.453 43.9847 568.786 44.0775C569.153 44.124 569.453 44.2865 569.686 44.565C569.919 44.8436 570.103 45.2615 570.236 45.8187C570.403 46.3294 570.569 47.0491 570.736 47.9777L570.436 54.5243C569.936 54.9422 569.453 55.244 568.986 55.4297C568.553 55.569 568.169 55.6386 567.836 55.6386C567.469 55.6386 567.086 55.6386 566.686 55.6386C566.319 55.5922 565.936 55.569 565.536 55.569H564.936L563.736 53.7582C563.736 52.5046 563.853 51.1581 564.086 49.7188C564.353 48.233 565.019 46.6312 566.086 44.9133C566.286 44.6347 566.486 44.4025 566.686 44.2168C566.919 43.9847 567.203 43.8686 567.536 43.8686Z" fill="#56321E"/>
<path d="M610.302 39.6202L609.502 38.7148H606.052L603.152 40.3863L602.002 41.0828L600.952 41.7096L599.402 37.8095H595.902L595.002 39.6202V41.3614V53.5493L595.702 55.8476L597.002 55.1511H597.802L598.552 55.7779L600.952 54.9422L600.652 48.2562L600.552 48.1169V45.3311L603.752 44.8436L604.652 44.1472H605.252L606.402 46.4455L605.602 54.5243L606.252 55.2904H611.452L611.952 54.4547V46.0972L612.152 44.4954L610.302 39.6202Z" fill="#56321E"/>
<path d="M635.679 59.8173L635.529 59.5388C635.529 59.3066 635.479 59.0977 635.379 58.912C635.279 58.6798 635.196 58.4244 635.129 58.1459C634.929 58.1459 634.746 58.2155 634.579 58.3548C634.413 58.4477 634.229 58.5637 634.029 58.703C633.863 58.7959 633.646 58.912 633.379 59.0512C633.146 59.1441 632.846 59.1905 632.479 59.1905H632.229C631.829 59.237 631.479 59.2602 631.179 59.2602C630.879 59.2602 630.596 59.2834 630.329 59.3298C630.063 59.3298 629.796 59.353 629.529 59.3995C629.263 59.3995 628.946 59.3995 628.579 59.3995C627.946 59.2602 627.529 59.1673 627.329 59.1209C627.163 59.028 627.079 58.9816 627.079 58.9816C627.079 58.9816 627.096 58.9816 627.129 58.9816C627.163 58.9816 627.113 58.9352 626.979 58.8423C626.946 58.8887 626.913 58.912 626.879 58.912C626.846 58.912 626.813 58.9352 626.779 58.9816C626.779 58.9816 626.746 58.9816 626.679 58.9816C626.313 58.7959 626.013 58.6566 625.779 58.5637C625.579 58.4709 625.479 58.3084 625.479 58.0762C625.479 57.8905 625.313 57.5655 624.979 57.1012C624.679 56.6369 624.529 56.1029 624.529 55.4993C624.529 54.8029 624.579 53.9207 624.679 52.8528C624.779 51.7385 624.979 50.8563 625.279 50.2063C625.546 49.9742 626.013 49.7188 626.679 49.4402C627.346 49.1152 628.013 48.9527 628.679 48.9527C629.079 48.9527 629.379 49.0456 629.579 49.2313C629.813 49.3706 629.996 49.5563 630.129 49.7884C630.263 50.0206 630.329 50.276 630.329 50.5545C630.363 50.7867 630.379 51.0188 630.379 51.251C630.379 51.576 630.296 51.8081 630.129 51.9474C629.963 52.0867 629.763 52.1796 629.529 52.226C629.296 52.2724 629.063 52.2957 628.829 52.2957C628.596 52.2957 628.396 52.3189 628.229 52.3653C627.563 52.6439 627.013 52.8296 626.579 52.9225C626.179 53.0153 625.946 53.0618 625.879 53.0618C626.046 53.1546 626.163 53.3403 626.229 53.6189C626.296 53.8975 626.346 54.1993 626.379 54.5243C626.413 54.8029 626.429 55.0815 626.429 55.36C626.429 55.5922 626.446 55.7083 626.479 55.7083C627.646 55.7083 628.613 55.6386 629.379 55.4993C630.146 55.3601 630.779 55.1975 631.279 55.0118C631.779 54.7797 632.179 54.594 632.479 54.4547C632.779 54.2689 633.079 54.1529 633.379 54.1064C633.513 53.6421 633.663 53.3636 633.829 53.2707C633.996 53.1314 634.179 52.8993 634.379 52.5742C634.313 51.9242 634.196 51.2742 634.029 50.6242C633.896 49.9277 633.746 49.3009 633.579 48.7438C633.413 48.1402 633.246 47.6294 633.079 47.2116C632.946 46.7937 632.879 46.5383 632.879 46.4455C632.646 46.4455 632.446 46.3758 632.279 46.2365C632.146 46.0972 632.029 45.9579 631.929 45.8187C631.863 45.6794 631.813 45.5401 631.779 45.4008C631.746 45.2615 631.713 45.1919 631.679 45.1919C631.313 45.1919 631.029 45.0758 630.829 44.8436C630.696 44.7508 630.596 44.6347 630.529 44.4954C629.996 44.4954 629.579 44.4025 629.279 44.2168C628.979 44.0311 628.646 43.9382 628.279 43.9382C627.446 44.3561 626.546 44.6579 625.579 44.8436C624.646 45.0293 623.813 45.424 623.079 46.0276C622.679 46.4919 622.313 46.933 621.979 47.3509C621.646 47.7687 621.346 48.233 621.079 48.7438C620.813 49.2545 620.529 49.8116 620.229 50.4152C619.929 51.0188 619.629 51.7385 619.329 52.5742C619.163 52.9457 619.046 53.3171 618.979 53.6886C618.946 54.06 618.913 54.4314 618.879 54.8029C618.879 55.4993 618.896 56.1958 618.929 56.8922C618.996 57.5423 619.229 58.2851 619.629 59.1209C619.796 59.3066 619.929 59.5155 620.029 59.7477C620.163 59.9798 620.229 60.0959 620.229 60.0959L620.529 60.4441C620.596 60.4441 620.646 60.5834 620.679 60.862C620.746 61.0942 620.796 61.2102 620.829 61.2102H621.729C622.129 61.5353 622.446 61.8138 622.679 62.046C622.913 62.2317 623.129 62.371 623.329 62.4639C623.529 62.5103 623.746 62.5567 623.979 62.6031C624.213 62.6496 624.513 62.6728 624.879 62.6728C625.079 62.6728 625.279 62.6728 625.479 62.6728C625.713 62.6264 625.946 62.6031 626.179 62.6031C626.379 62.6031 626.596 62.6031 626.829 62.6031C627.063 62.6031 627.346 62.6496 627.679 62.7424C628.413 62.7424 629.013 62.696 629.479 62.6031C629.979 62.4639 630.463 62.3014 630.929 62.1156C631.429 61.9299 631.946 61.7674 632.479 61.6281C633.046 61.4888 633.729 61.396 634.529 61.3495C634.729 61.2567 634.963 61.0477 635.229 60.7227C635.529 60.3513 635.679 60.1191 635.679 60.0263C635.679 59.887 635.596 59.8173 635.429 59.8173H635.679Z" fill="#56321E"/>
<path d="M652.648 49.3706L653.798 56.1958L654.498 57.2405H657.498L660.198 56.6137L661.348 54.0368L664.098 46.4455L665.698 41.6399L665.748 40.6649L666.398 39.2024L666.648 38.2273L666.398 37.6702H663.298L661.498 37.4612L660.298 39.4809L660.348 40.247L656.648 51.042L654.698 44.0775L652.848 37.3916L650.898 37.1827L650.148 40.6649L646.548 51.251L645.748 46.3758L643.748 39.4113L642.648 36.5558L642.048 36.6255L640.898 36.4166L640.298 36.5558L639.748 37.8095L642.148 47.2812L644.048 55.2208L644.198 56.1958L644.898 57.2405H647.848L650.148 56.6137L651.298 52.8528L652.648 49.3706Z" fill="#56321E"/>
<path d="M681.097 49.1616V44.774L680.997 41.9882L680.897 40.7346V32.4468L679.897 31.4717L679.347 32.0289L675.847 31.5414L674.947 32.5861V46.0276L675.747 55.36L676.247 57.0315L676.947 56.8922H679.647L680.447 56.0565L680.847 51.5296L681.147 50.3456L681.097 49.1616ZM681.497 69.5677L681.147 66.2943L681.297 65.2497V62.1853L679.897 61.2102H675.997L675.397 62.2549V68.5926L676.497 69.9855L678.197 70.4731L679.547 69.9159L681.497 69.5677Z" fill="#56321E"/>
</svg>
