<svg width="357" height="168" viewBox="0 0 357 168" fill="none" xmlns="http://www.w3.org/2000/svg">
<path d="M96.3706 84.537L107.804 83.5769L110.133 83.3813L126.43 87.0167L157.426 95.7271C157.426 95.7271 155.496 98.0776 151.14 102.129C145.998 106.912 141.777 109.961 139.586 111.802C136.267 114.59 131.738 116.571 127.759 118.234C122.452 120.451 114.959 120.702 113.272 120.756C107.804 120.932 104.617 120.909 99.3096 119.535C94.9893 118.416 92.5967 117.437 88.711 115.204C85.4753 113.344 83.3015 112.506 80.986 109.543C79.0998 107.13 77.7146 105.509 77.6166 102.429C77.5203 99.4016 78.8096 97.7677 80.4238 95.2313C82.3828 92.1533 84.1587 90.8581 87.1329 88.7937C90.4047 86.5228 96.3706 84.537 96.3706 84.537Z" fill="url(#paint0_linear)"/>
<path d="M96.1587 82.0129L107.592 81.0527L109.921 80.8572L126.219 84.4925L157.214 93.2029C157.214 93.2029 155.284 95.5535 150.929 99.6049C145.786 104.388 141.565 107.437 139.374 109.278C136.055 112.065 131.527 114.047 127.547 115.71C122.24 117.927 114.747 118.177 113.06 118.232C107.592 118.408 104.405 118.385 99.0976 117.011C94.7774 115.892 92.3848 114.913 88.4991 112.68C85.2634 110.82 83.0896 109.982 80.774 107.019C78.8879 104.606 77.5027 102.985 77.4047 99.9048C77.3084 96.8774 78.5977 95.2435 80.2119 92.7071C82.1708 89.6291 83.9467 88.3339 86.921 86.2696C90.1928 83.9987 96.1587 82.0129 96.1587 82.0129Z" fill="url(#paint1_radial)"/>
<mask id="mask0" mask-type="alpha" maskUnits="userSpaceOnUse" x="76" y="77" width="84" height="47">
<path d="M96.1582 82.0128L107.592 81.0527L109.921 80.8571L126.218 84.4925L157.214 93.2028C157.214 93.2028 155.034 98.4013 150.679 102.453C145.537 107.236 141.62 110.03 139.429 111.87C136.111 114.658 132.288 116.225 128.309 117.888C123.002 120.105 116.119 120.693 114.432 120.748C108.964 120.924 104.272 120.879 98.9654 119.505C94.6452 118.386 92.532 117.521 88.6463 115.287C85.4106 113.428 83.4229 112.529 81.1074 109.566C79.2213 107.152 77.6027 106.141 77.4042 99.9048C77.3078 96.8774 78.5971 95.2434 80.2114 92.7071C82.1703 89.6291 83.9462 88.3339 86.9205 86.2695C90.1923 83.9986 96.1582 82.0128 96.1582 82.0128Z" fill="#4E4E4E" fill-opacity="0.6"/>
</mask>
<g mask="url(#mask0)">
<path d="M89.7426 83.8461C89.7426 83.8461 84.6984 93.8116 83.0748 98.3862C79.0456 109.739 82.1085 111.6 82.1085 111.6" stroke="url(#paint2_linear)" stroke-width="0.844312"/>
<path d="M98.9784 80.1049C98.9784 80.1049 93.1944 90.579 91.5215 95.135C85.1011 112.62 89.1649 116.515 89.1649 116.515" stroke="url(#paint3_linear)" stroke-width="0.844312"/>
<path d="M105.987 79.5165C105.987 79.5165 99.8647 92.2728 97.7171 99.6985C92.5686 117.5 94.7715 119.01 94.7715 119.01" stroke="url(#paint4_linear)" stroke-width="0.844312"/>
<path d="M112.831 81.9072C112.831 81.9072 107.641 93.3242 105.691 100.723C103.618 108.593 101.061 119.752 102.817 120.876" stroke="url(#paint5_linear)" stroke-width="0.844312"/>
<path d="M118.237 86.9605C118.237 86.9605 119.227 83.912 114.043 101.293C108.86 118.674 111.168 121.445 111.168 121.445" stroke="url(#paint6_linear)" stroke-width="0.844312"/>
<path d="M126.624 87.9507C126.624 87.9507 125.126 93.2014 122.43 102.283C119.735 111.365 117.765 120.891 119.756 119.877" stroke="url(#paint7_linear)" stroke-width="0.844312"/>
<path d="M135.011 88.941C135.011 88.941 131.113 102.769 129.321 110.177C127.529 117.585 127.872 122.585 127.872 122.585" stroke="url(#paint8_linear)" stroke-width="0.844312"/>
<path d="M143.399 89.9313C143.399 89.9313 140.997 96.8558 139.205 104.264C137.412 111.672 136.259 123.575 136.259 123.575" stroke="url(#paint9_linear)" stroke-width="0.844312"/>
<path d="M151.786 90.9215C151.786 90.9215 149.384 97.846 147.592 105.254C145.799 112.662 144.646 124.565 144.646 124.565" stroke="url(#paint10_linear)" stroke-width="0.844312"/>
<path d="M95.3946 63.6012C95.3946 63.6012 103.165 66.1391 107.974 68.2285C112.247 70.0847 145.444 92.7603 145.444 92.7603" stroke="url(#paint11_linear)" stroke-width="0.844312"/>
<path d="M94.91 76.16C94.91 76.16 108.413 79.8939 115.858 83.3473C130.308 90.0495 146.002 101.151 148.214 104.988" stroke="url(#paint12_linear)" stroke-width="0.844312"/>
<path d="M88.7182 81.5286C88.7182 81.5286 99.0663 84.4655 105.387 87.1921C120.304 93.6274 141.999 110.331 140.666 111.766" stroke="url(#paint13_linear)" stroke-width="0.844312"/>
<path d="M85.0062 86.7853C85.0062 86.7853 95.0893 90.5763 100.736 93.367C114.184 100.014 135.096 115.193 132.737 116.245" stroke="url(#paint14_linear)" stroke-width="0.844312"/>
<path d="M78.785 93.7269C78.785 93.7269 83.6109 95.0843 93.6522 99.9321C103.694 104.78 125.174 119.506 122.301 120.51" stroke="url(#paint15_linear)" stroke-width="0.844312"/>
<path d="M74.0096 101.594C74.0096 101.594 82.1955 104.765 88.8768 107.799C95.5581 110.834 106.829 118.252 114.099 124.271" stroke="url(#paint16_linear)" stroke-width="0.844312"/>
<path d="M69.2345 109.461C69.2345 109.461 76.6684 112.137 84.1017 115.666C91.5351 119.195 105.178 127.505 105.178 127.505" stroke="url(#paint17_linear)" stroke-width="0.844312"/>
<path d="M64.4604 117.328C64.4604 117.328 71.8942 120.004 79.3276 123.533C86.7609 127.062 97.5504 134.214 97.5504 134.214" stroke="url(#paint18_linear)" stroke-width="0.844312"/>
</g>
<path d="M205.451 81.725C208.1 80.1343 209.698 77.9844 211.116 75.2223C212.27 72.9755 212.665 71.6199 212.647 69.1071C212.636 67.6727 212.831 65.5313 211.459 65.1852C210.915 65.0481 210.497 65.6152 210.393 65.7719C210.515 65.5748 211.042 64.6775 210.858 64.0939C210.607 63.2951 209.455 63.0948 208.75 63.5581C208.523 63.7073 208.445 63.9032 208.418 64.0167C208.453 63.7477 208.508 62.9633 208.018 62.6412C207.363 62.2114 207.143 62.3223 206.481 62.7629C205.696 63.2851 204.572 65.2512 204.572 65.2512C204.572 65.2512 203.076 67.0054 201.777 67.1509C199.948 67.3557 198.149 67.0787 198.149 67.0787L193.783 66.5854C193.783 66.5854 191.67 69.1688 190.883 71.6702C190.1 74.1611 189.301 75.9218 190.275 78.3117C191.356 80.962 193.409 81.7894 196.121 82.6438C199.686 83.7669 203.591 82.8417 205.451 81.725Z" fill="url(#paint19_linear)"/>
<path d="M174.555 31.2409C170.037 28.5708 166.948 27.9014 161.76 27.3365C156.812 26.7977 153.871 26.9842 149.03 28.2352C143.284 29.7199 140.015 31.2881 135.384 35.1291C132.224 37.7501 130.784 39.6675 128.354 43.0199C125.111 47.4931 123.634 50.3403 121.621 55.5233C120.195 59.1942 119.605 61.3551 118.796 65.2173C117.861 69.6842 117.682 72.2692 117.429 76.8267C117.151 81.8517 116.705 86.5314 117.429 91.5C118.187 96.694 118.067 98.1528 120 103C123.226 111.088 126.429 115.814 132.779 121.574C138.312 126.593 142.521 129.107 149.482 131.606C153.721 133.128 161.37 134.139 168.989 133.903C176.039 133.684 179.616 132.226 186.299 129.838C192.681 127.558 198 123.5 198 123.5L205 116.5L209 107C209 107 209.197 106.004 209 101.5C208.746 95.7133 208.892 93.4172 207.5 88.5C205.764 82.3659 202.958 79.6476 200 74C197.741 69.6864 196.803 68.3385 194.172 62.9768C191.563 57.6579 190.843 54.308 188.246 48.9828C186.016 44.4116 185.292 41.4003 182.016 37.5686C179.519 34.6494 177.828 33.175 174.555 31.2409Z" fill="url(#paint20_linear)"/>
<path d="M215.632 102.128L209.21 99.8533C208.692 99.6701 208.119 99.7496 207.702 100.107C206.829 100.855 205.272 102.356 203.945 104.521C203.307 105.562 202.668 108.176 202.239 110.215C201.908 111.787 202.796 113.34 204.296 113.917L210.393 116.264C210.393 116.264 213.11 112.526 214.168 109.402C215.15 106.501 215.632 102.128 215.632 102.128Z" fill="url(#paint21_linear)"/>
<path d="M210.678 105.419C211.227 103.483 212.392 100.559 212.392 100.559L216.442 101.552C216.442 101.552 216.784 100.672 218.226 98.4384C219.623 96.2753 220.53 95.5624 223.071 95.1467C224.325 94.9417 226.114 95.1847 226.114 95.1847C227.41 95.2935 228.936 95.7919 230.542 96.8619L231.694 98.6862C231.694 98.6862 231.983 102.145 231.15 105.167C230.731 106.688 229.987 108.354 229.707 109.397C228.839 112.632 226.534 116.093 226.534 116.093C225.971 117.421 224.862 118.882 224.046 119.813C223.994 120.55 215.626 118.809 209.123 116.167C209.123 116.167 209.522 109.499 210.678 105.419Z" fill="#D9AE6F"/>
<mask id="mask1" mask-type="alpha" maskUnits="userSpaceOnUse" x="209" y="95" width="23" height="25">
<path d="M211.088 105.454C211.629 103.517 212.776 100.591 212.776 100.591L216.744 101.577C216.744 101.577 217.081 100.697 218.498 98.4612C219.871 96.2961 220.761 95.5818 223.253 95.162C224.482 94.9549 226.235 95.1949 226.235 95.1949C227.506 95.3015 229 95.7973 230.573 96.8645L231.7 98.6866C231.7 98.6866 231.977 102.145 231.155 105.168C230.742 106.689 230.01 108.356 229.734 109.4C228.878 112.636 226.613 116.099 226.613 116.099C226.059 117.428 224.968 118.891 224.167 119.823C224.115 120.56 215.916 118.834 209.546 116.202C209.546 116.202 209.947 109.535 211.088 105.454Z" fill="#C4C4C4"/>
</mask>
<g mask="url(#mask1)">
<path d="M228.791 97.3861C229.66 97.087 231.081 97.3611 231.081 97.3611L231.605 97.4051L232.509 99.2191L232.038 104.828L229.3 114.376L226.015 119.966L225.455 120.353C225.455 120.353 224.219 120.233 223.569 119.76C222.951 119.311 222.736 118.623 222.684 117.731C222.468 114.019 222.88 114.18 223.209 111.474C223.403 109.88 223.921 107.189 223.921 107.189C223.921 107.189 224.478 102.631 225.899 100.402C226.812 98.9687 227.378 97.8727 228.791 97.3861Z" fill="url(#paint22_linear)"/>
</g>
<path d="M164.944 132.328C165.769 133.32 167.431 134.576 167.431 134.576L172.096 132.929L172.021 124.024L171.193 116.724C171.193 116.724 167.246 114.941 165.565 115.78C164.773 116.176 163.978 116.884 163.978 116.884C163.978 116.884 162.662 117.961 162.047 119.195C161.068 121.157 161.684 123.443 162.012 125.593C162.208 126.886 162.466 127.6 162.975 128.826C163.57 130.26 163.922 131.1 164.944 132.328Z" fill="url(#paint23_linear)"/>
<path d="M167.135 136.379C167.96 137.37 168.92 137.799 168.92 137.799L173.585 136.151L173.51 127.246L172.683 119.947C172.683 119.947 169.506 118.143 167.825 118.982C167.032 119.378 165.858 120.344 165.858 120.344C165.858 120.344 164.58 122.059 163.964 123.293C162.985 125.255 163.173 126.665 163.501 128.816C163.697 130.108 164.319 130.514 164.827 131.74C165.422 133.174 166.113 135.151 167.135 136.379Z" fill="url(#paint24_linear)"/>
<path d="M181.073 113.718L181.097 113.734C182.194 114.437 182.835 115.223 183.687 116.57C184.7 118.171 184.996 118.763 185.428 120.616C185.725 121.893 185.646 123.898 185.646 123.898L182.379 129.019L168.624 138.409C168.104 138.287 167.464 136.737 167.205 135.538C167.205 135.538 167.068 134.498 167.005 132.981C166.924 131.021 167.266 128.647 167.276 126.691C167.287 124.542 167.135 123.298 167.528 121.195C167.956 118.911 169.125 117.014 170.501 115.263C171.754 113.668 173.092 112.893 174.966 112.541C176.29 112.293 177.881 112.424 178.742 112.631C179.758 112.876 180.251 113.191 181.073 113.718Z" fill="#D9AE6F"/>
<path d="M184.488 119.725C183.58 118.463 182.559 117.945 181.027 117.555C178.841 116.998 176.081 118.117 175.144 118.715C174.011 119.437 172.859 120.467 171.632 122.255C170.362 124.106 170.026 125.195 169.462 127.388C169.049 128.993 168.841 129.894 168.841 129.894C168.841 129.894 168.115 132.498 168.025 134.73C167.948 136.644 167.806 137.919 169.077 139.296C170.212 140.527 171.97 141.459 171.97 141.459C171.97 141.459 174.398 141.731 175.874 141.36C177.744 140.889 178.8 139.764 179.822 138.28C180.898 136.718 181.639 133.741 181.639 133.741C181.639 133.741 184.473 130.461 185.208 127.857C186.118 124.631 186.215 122.126 184.488 119.725Z" fill="url(#paint25_linear)"/>
<path d="M181.015 34.8702C181.015 34.8702 185.067 41.2588 186.708 45.7912C188.737 51.3917 189.7 54.8456 189.498 60.8196C189.162 70.7196 179.65 84.142 179.65 84.142M179.65 84.142C179.65 84.142 172.888 84.0466 168.661 83.2192C161.522 81.8219 157.264 79.9952 151.329 76.3247C145.014 72.4201 142.441 69.4323 139.429 63.142C137.381 58.865 136.976 56.0777 136.367 51.3542C135.932 47.9722 136.034 42.6237 136.034 42.6237M179.65 84.142C179.65 84.142 183.172 91.1071 184.635 95.8738C185.904 100.01 185.724 105.756 185.724 105.756M179.65 84.142C179.65 84.142 180.544 92.1286 180.467 97.2643C180.398 101.835 177.6 108.554 177.6 108.554" stroke="url(#paint26_linear)" stroke-width="1.30079" stroke-linecap="round"/>
<path d="M186.018 102.517C186.301 104.019 186.543 104.656 187.034 105.648" stroke="#6A2E2E" stroke-width="0.650395" stroke-linecap="round"/>
<path d="M185.594 102.481C185.15 103.912 184.877 104.613 184.281 105.417" stroke="#6A2E2E" stroke-width="0.650395" stroke-linecap="round"/>
<path d="M178.51 105.585C177.582 106.589 177.031 107.116 175.932 107.911" stroke="#6A2E2E" stroke-width="0.650395" stroke-linecap="round"/>
<path d="M179.023 105.845L178.766 108.901" stroke="#6A2E2E" stroke-width="0.650395" stroke-linecap="round"/>
<path d="M184.415 101.294C184.355 102.01 184.875 102.638 185.576 102.697C186.278 102.756 186.895 102.224 186.956 101.508C187.016 100.792 186.496 100.164 185.794 100.105C185.092 100.046 184.475 100.578 184.415 101.294Z" fill="#D9AE6F"/>
<ellipse rx="1.27487" ry="1.30079" transform="matrix(-0.996493 -0.0836796 -0.0836796 0.996493 179.006 104.756)" fill="#D9AE6F"/>
<path d="M150.873 84.298C147.588 85.3276 143.364 84.5085 141.478 86.9901C140.154 88.7326 139.107 89.8034 138.926 91.9972C138.704 94.6774 139.731 96.4167 141.594 98.313C143.504 100.257 145.097 100.684 147.746 101.223C148.375 101.351 150.456 101.379 152.017 101.146C153.781 100.884 156.203 99.5398 156.203 99.5398C156.203 99.5398 158.021 98.4095 159.137 97.6105C160.918 96.3356 161.994 95.6739 163.487 94.0597C165.249 92.1547 167.152 88.4934 167.152 88.4934L168.181 86.4041C168.181 86.4041 168.736 85.4452 168.943 84.9452C169.241 84.2252 169.511 83.6334 168.876 83.1991C168.464 82.9165 167.588 83.3085 167.588 83.3085C167.588 83.3085 167.802 82.7915 168.084 82.4799C168.44 82.0856 168.434 81.7359 168.404 81.2014C168.365 80.4844 167.812 80.3789 167.63 80.2662C167.225 80.0146 166.765 80.4111 166.765 80.4111C166.765 80.4111 167.224 79.2782 166.91 78.6828C166.714 78.3106 166.1 78.1796 166.1 78.1796C165.762 78.1226 165.361 78.0824 165.023 78.3067C165.023 78.3067 162.107 80.0199 160.498 81.4077C158.683 82.9729 150.873 84.298 150.873 84.298Z" fill="url(#paint27_linear)"/>
<path d="M178.828 61.3856C178.828 61.3856 179.001 62.3456 178.801 62.9028C178.498 63.749 177.905 64.087 177.075 64.395C176.057 64.7728 174.317 64.1376 174.317 64.1376M174.317 64.1376C174.317 64.1376 173.763 65.0422 173.232 65.4225C172.521 65.9307 171.962 66.0319 171.095 66.0414C170.149 66.0518 169.401 65.6913 169.191 65.5798C168.348 65.1338 168.58 64.0532 168.58 64.0532M174.317 64.1376C174.317 64.1376 174.28 63.2376 174.134 62.4005C173.983 61.5309 173.542 59.7902 173.542 59.7902" stroke="url(#paint28_linear)" stroke-width="0.867193" stroke-linecap="round"/>
<path d="M174.042 56.7809L173.341 57.404C173.185 57.5418 172.985 57.6164 172.778 57.6129L171.509 57.5917C171.063 57.5843 170.666 57.8779 170.541 58.3072C170.379 58.8686 170.736 59.4446 171.31 59.5455L171.963 59.6604L173.087 59.9501C173.59 60.0799 174.124 59.8966 174.444 59.4841L175.49 58.1362C175.814 57.7183 175.76 57.1223 175.365 56.7748C174.988 56.4423 174.421 56.4449 174.042 56.7809Z" fill="#783B3B"/>
<path d="M182.605 50.5677C181.873 50.3 180.739 49.9417 179.982 49.9707C179.215 50.0001 178.412 50.1008 177.725 50.2111C176.758 50.3661 176.219 51.3697 176.555 52.2933C176.819 53.0189 177.549 53.4647 178.314 53.3896C178.682 53.3534 179.084 53.3182 179.46 53.2944C180.309 53.2404 181.601 53.4791 182.282 53.6229C182.578 53.6854 182.886 53.6468 183.152 53.5047C183.69 53.218 183.936 52.5794 183.731 52.0026L183.58 51.5767C183.416 51.1128 183.066 50.7364 182.605 50.5677Z" fill="#3E2121"/>
<path d="M160.795 54.6319C160.067 54.8379 159.225 55.1096 158.643 55.4004C157.432 56.0053 156.284 57.4748 155.576 58.5232C155.145 59.1623 155.348 60.004 155.986 60.4215C156.476 60.7418 157.111 60.736 157.608 60.4165C158.23 60.0168 159.086 59.4819 159.728 59.1409C160.415 58.776 161.294 58.4218 161.931 58.1813C162.462 57.9812 162.884 57.5553 163.06 57.0143C163.201 56.5796 163.171 56.109 162.975 55.6998L162.944 55.634C162.557 54.823 161.663 54.386 160.795 54.6319Z" fill="#3E2121"/>
<path d="M157.834 47.7281C158.694 47.2192 160.154 46.8186 160.491 46.7302C160.538 46.7177 160.586 46.7102 160.635 46.7067L161.282 46.6602C161.675 46.632 162.036 46.8795 162.151 47.2566L162.288 47.7075C162.436 48.1923 162.126 48.6978 161.63 48.7983C161.065 48.9125 160.353 49.0685 159.809 49.2276C158.717 49.5474 157.39 50.1475 156.328 50.6721C155.79 50.9377 155.261 50.3678 155.624 49.8907C156.236 49.0856 157.023 48.2079 157.834 47.7281Z" fill="#9B6A5B"/>
<path d="M178.729 42.8972C177.822 42.786 175.785 43.1001 175.365 43.1676C175.313 43.1759 175.264 43.1892 175.215 43.2072L175.162 43.2267C174.784 43.3652 174.558 43.7498 174.621 44.1461L174.709 44.6909C174.782 45.1515 175.218 45.4665 175.68 45.3937L176.926 45.1974L180.703 44.5352C181.036 44.4768 181.154 44.0862 180.885 43.8807C180.374 43.4894 179.586 43.0023 178.729 42.8972Z" fill="#9B6A5B"/>
<path d="M180.059 28.4967C177.412 28.1601 173.239 28.0701 173.239 28.0701L161.388 27.8855L128.93 35.88C128.93 35.88 127.1 36.701 124.503 37.9618C122.06 39.1471 118.904 41.1438 118.904 41.1438C117.893 41.5194 114.95 43.8492 115.998 45.2816C116.531 46.0107 118.389 46.3219 119.951 46.4531C121.793 46.6078 123.3 46.4052 126.804 46.1889C130.191 45.9799 132.212 45.9571 135.588 45.5905C139.139 45.2051 141.175 44.9481 144.72 44.5006L144.722 44.5003C148.618 44.0085 150.152 43.8003 154.043 43.2613C157.603 42.7681 159.493 42.3266 163.008 41.5362C167.544 40.5163 169.989 40.0269 174.111 38.8177C178.68 37.4773 182.655 36.2638 185.886 35.1886C187.96 34.4982 189.001 33.6012 189.001 33.6012C189.001 33.6012 189.925 33.0414 189.807 32.1608C189.635 30.8762 187.947 30.3814 186.771 29.7911C185.693 29.2498 182.707 28.8334 180.059 28.4967Z" fill="url(#paint29_linear)"/>
<path d="M175.806 29.7023L174.222 30.3832L172.223 29.2466L164.21 28.2276C164.21 28.2276 163.994 27.0607 164.48 26.0765C164.959 25.107 165.673 24.1558 166.517 23.4946C168.146 22.2196 168.988 21.8509 171.03 21.6646C172.857 21.498 174.318 21.8263 175.797 22.9264C177.833 24.4411 178.259 28.9298 175.806 29.7023Z" fill="#B4836E"/>
<path d="M168.023 20.994L163.105 12.7287C162.697 12.0419 161.946 11.6335 161.15 11.6778C159.655 11.7612 157.134 11.93 155.086 12.208C150.104 12.8843 144.07 14.8537 138.122 17.6994C135.145 19.1233 131.687 21.4481 130.237 22.4549C129.785 22.7682 129.482 23.246 129.378 23.7866C129.124 25.1066 128.625 27.7049 128.282 29.5601C127.71 32.6441 126.861 37.4653 126.861 37.4653C126.861 37.4653 130.934 38.528 133.763 38.7802C136.714 39.0432 138.544 39.0236 141.487 38.6696C144.669 38.2869 149.583 37.2954 149.583 37.2954C149.583 37.2954 155.697 35.7916 158.868 34.9796C162.266 34.1094 168.05 31.7766 168.05 31.7766L172.616 29.5164L168.023 20.994Z" fill="url(#paint30_linear)"/>
<path d="M168.633 25.9514L170.804 30.3701" stroke="#AA7C6D" stroke-width="0.759881" stroke-linecap="round"/>
<path d="M151.661 36.5819L150.554 31.7849" stroke="#AA7C6D" stroke-width="0.759881" stroke-linecap="round"/>
<path d="M166.859 26.9038L169.03 31.3225" stroke="#AA7C6D" stroke-width="0.759881" stroke-linecap="round"/>
<path d="M149.543 37.1144L148.436 32.3173" stroke="#AA7C6D" stroke-width="0.759881" stroke-linecap="round"/>
<path d="M167.23 27.528C161.005 29.9812 157.395 31.1685 150.679 32.9165M148.505 33.5812C146.331 34.2459 143.736 34.8753 141.597 35.1193M170.736 26.1279C170.736 26.1279 169.86 26.478 168.983 26.828" stroke="#AA7C6D" stroke-width="0.759881"/>
<path d="M168.279 30.158C162.054 32.6112 158.445 33.7985 151.729 35.5464M149.555 36.2112C147.381 36.8759 143.524 37.3993 141.385 37.6433M172.242 28.3726C172.242 28.3726 170.91 29.1079 170.033 29.458" stroke="#AA7C6D" stroke-width="0.759881"/>
<path d="M126.566 35.3336C126.192 37.8235 128.754 40.6048 128.754 40.6048L135.263 40.3015L141.746 38.7734C141.746 38.7734 142.354 37.6095 142.159 36.4067C141.968 35.2218 141.521 33.9785 140.842 32.9991C139.532 31.1103 138.76 30.4414 136.658 29.5684C134.779 28.7877 133.124 28.6516 131.201 29.3271C128.553 30.2571 126.989 32.5113 126.566 35.3336Z" fill="#B4836E"/>
<path d="M213.77 20.7068L216.989 20C215.13 26.6184 213.965 31.8862 213.233 35.4682C211.871 42.1612 212.209 42.3222 210.656 49.561C209.8 53.5265 209.143 56.1165 208.722 59.959C208.459 62.3042 208.352 64.6643 208.4 67.0237C208.264 67.3339 207.546 68.8703 206.318 69.9122C205.054 70.9774 204.174 70.7301 204 70.6672C207.257 54.022 210.514 37.3685 213.77 20.7068Z" fill="#DAD1CE"/>
<path d="M213.725 22.9748C214.629 22.7393 215.522 22.5168 216.427 22.2812C216.834 23.6824 217.564 24.9685 218.558 26.036C219.054 26.5686 221.075 28.7387 224.186 29.0855C224.942 29.1718 225.846 29.0855 227.657 28.8996C229.911 28.6757 230.371 28.4606 231.275 28.4036C234.919 28.1929 237.88 31.2174 238.055 31.3901C240.223 33.6582 240.422 36.3974 240.595 38.9991C240.666 39.9112 240.657 40.8277 240.57 41.7384C239.607 40.9095 238.511 40.2482 237.329 39.782C235.681 39.125 234.306 39.0138 233.252 38.9391C230.735 38.7533 228.753 39.125 226.385 39.5961C223.262 40.2151 223.374 40.5253 221.799 40.5868C219.705 40.6594 217.627 40.1944 215.763 39.2362C214.012 38.32 212.559 36.9223 211.575 35.2078C212.298 31.1253 213.015 27.0476 213.725 22.9748Z" fill="#ED6D81"/>
<path d="M77.655 113.917L34.955 116.017C32.055 116.117 29.555 113.917 29.355 110.917L28.055 85.5169C27.955 82.6169 30.155 80.1169 33.155 79.9169L75.855 77.9169C78.755 77.8169 81.255 80.0169 81.455 83.0169L82.755 108.417C82.855 111.317 80.655 113.817 77.655 113.917Z" fill="#764C54"/>
<path d="M354.955 87.7167C354.855 88.1167 354.655 88.6167 354.555 89.0167C353.255 92.4167 350.955 96.7167 347.955 101.317C347.655 101.817 347.355 102.217 347.055 102.717C344.355 106.717 341.255 111.017 338.055 115.217C337.655 115.717 337.255 116.217 336.955 116.717C333.555 121.117 329.955 125.417 326.855 129.217C326.455 129.717 326.055 130.217 325.555 130.717C319.455 137.917 314.855 142.917 314.855 142.917C314.755 143.017 314.655 143.117 314.555 143.217C313.655 144.117 312.355 144.717 311.055 144.717H271.455C281.455 142.017 290.055 138.217 297.255 133.617C298.155 133.017 299.055 132.517 299.855 131.917C305.755 127.917 310.855 123.517 315.055 119.017C315.555 118.517 316.055 118.017 316.455 117.517C320.155 113.317 323.255 109.117 325.855 105.117C326.155 104.617 326.455 104.117 326.755 103.617C329.455 99.2167 331.455 95.0167 332.955 91.5167C333.155 91.0167 333.355 90.5167 333.555 90.1167C334.555 87.6167 335.355 85.4167 335.855 83.8167C338.955 83.3167 348.455 75.2167 352.655 75.0167C357.055 74.6167 356.855 81.7167 354.955 87.7167Z" fill="#6A2F2F"/>
<path d="M335.955 83.8167C335.455 85.4167 334.755 87.6167 333.655 90.1167C333.455 90.5167 333.255 91.0167 333.055 91.5167C331.555 95.0167 329.555 99.2167 326.855 103.617C326.555 104.117 326.255 104.617 325.955 105.117C323.355 109.117 320.255 113.317 316.555 117.517C316.055 118.017 315.655 118.517 315.155 119.017C310.855 123.517 305.855 127.917 299.955 131.917C299.055 132.517 298.255 133.017 297.355 133.617C290.055 138.117 281.555 142.017 271.555 144.717H39.9555C38.3555 144.717 36.8555 143.917 35.8555 142.617L33.2555 138.917L31.9555 137.117L24.3555 126.517L23.0555 124.617L15.4555 114.017L14.1555 112.217L12.9555 110.617C10.5555 107.317 12.9555 102.717 17.0555 102.717C17.0555 102.717 275.355 94.2167 335.955 83.8167Z" fill="#464646"/>
<path d="M333.655 90.0166C333.455 90.4166 333.255 90.9166 333.055 91.4166C228.655 102.917 122.355 110.417 15.4553 114.017L14.1553 112.217C121.655 108.717 228.655 101.317 333.655 90.0166Z" fill="#6A2F2F"/>
<path d="M335.955 83.8167C335.455 85.4167 334.755 87.6167 333.655 90.1167C228.655 101.317 121.655 108.717 14.1555 112.217L12.9555 110.617C10.5555 107.317 12.9555 102.717 17.0555 102.717C17.0555 102.717 275.355 94.2167 335.955 83.8167Z" fill="#A25151"/>
<path d="M326.856 103.517C326.556 104.017 326.256 104.517 325.956 105.017C226.656 115.717 125.856 122.917 24.3557 126.517L23.0557 124.617C125.256 121.117 226.856 114.117 326.856 103.517Z" fill="#6A2F2F"/>
<path d="M333.055 91.4167C331.555 94.9167 329.555 99.1167 326.855 103.517C226.855 114.117 125.255 121.117 23.0551 124.617L15.4551 114.017C122.355 110.417 228.655 102.917 333.055 91.4167Z" fill="#A25151"/>
<path d="M316.555 117.417C316.055 117.917 315.655 118.417 315.155 118.917C222.255 128.717 128.055 135.417 33.2551 138.917L31.9551 137.117C127.655 133.617 222.855 127.017 316.555 117.417Z" fill="#6A2F2F"/>
<path d="M325.955 105.017C323.355 109.017 320.255 113.217 316.555 117.417C222.855 127.017 127.555 133.617 31.9555 137.117L24.3555 126.517C125.855 122.917 226.655 115.717 325.955 105.017Z" fill="#A25151"/>
<path d="M299.956 131.917C299.056 132.517 298.256 133.017 297.356 133.617C253.956 138.017 210.256 141.717 166.356 144.717H139.756C193.456 141.417 246.956 137.117 299.956 131.917Z" fill="#6A2F2F"/>
<path d="M315.156 118.917C310.856 123.417 305.856 127.817 299.956 131.817C246.956 137.017 193.456 141.317 139.756 144.617H39.9559C38.3559 144.617 36.8559 143.817 35.8559 142.517L33.2559 138.917C128.056 135.417 222.256 128.717 315.156 118.917Z" fill="#A25151"/>
<path d="M297.355 133.617C290.055 138.117 281.555 142.017 271.555 144.717H166.355C210.255 141.617 253.955 137.917 297.355 133.617Z" fill="#A25151"/>
<path d="M295 156.999C245 164.001 48.0001 173 11.0001 164C-22.6843 155.807 38.0001 143.999 38.0001 143.999H314C314 143.999 306.499 155.389 295 156.999Z" fill="#57727C"/>
<defs>
<linearGradient id="paint0_linear" x1="136.556" y1="102.368" x2="76.4283" y2="108.231" gradientUnits="userSpaceOnUse">
<stop stop-color="#503030"/>
<stop offset="1" stop-color="#352020"/>
</linearGradient>
<radialGradient id="paint1_radial" cx="0" cy="0" r="1" gradientUnits="userSpaceOnUse" gradientTransform="translate(88.3058 101.336) rotate(7.78197) scale(40.6967 26.9402)">
<stop stop-color="#784242"/>
<stop offset="1" stop-color="#523535"/>
</radialGradient>
<linearGradient id="paint2_linear" x1="82.945" y1="86.9588" x2="84.7819" y2="108.834" gradientUnits="userSpaceOnUse">
<stop stop-color="#303030"/>
<stop offset="1"/>
</linearGradient>
<linearGradient id="paint3_linear" x1="90.1201" y1="83.3907" x2="92.6635" y2="113.679" gradientUnits="userSpaceOnUse">
<stop stop-color="#303030"/>
<stop offset="1"/>
</linearGradient>
<linearGradient id="paint4_linear" x1="98.1534" y1="80.1744" x2="101.262" y2="117.194" gradientUnits="userSpaceOnUse">
<stop stop-color="#303030"/>
<stop offset="1"/>
</linearGradient>
<linearGradient id="paint5_linear" x1="105.857" y1="82.9165" x2="108.895" y2="119.095" gradientUnits="userSpaceOnUse">
<stop stop-color="#303030"/>
<stop offset="1"/>
</linearGradient>
<linearGradient id="paint6_linear" x1="113.289" y1="87.376" x2="116.045" y2="120.189" gradientUnits="userSpaceOnUse">
<stop stop-color="#303030"/>
<stop offset="1"/>
</linearGradient>
<linearGradient id="paint7_linear" x1="121.677" y1="88.3662" x2="124.432" y2="121.179" gradientUnits="userSpaceOnUse">
<stop stop-color="#303030"/>
<stop offset="1"/>
</linearGradient>
<linearGradient id="paint8_linear" x1="130.064" y1="89.3565" x2="132.819" y2="122.169" gradientUnits="userSpaceOnUse">
<stop stop-color="#303030"/>
<stop offset="1"/>
</linearGradient>
<linearGradient id="paint9_linear" x1="138.451" y1="90.3467" x2="141.207" y2="123.159" gradientUnits="userSpaceOnUse">
<stop stop-color="#303030"/>
<stop offset="1"/>
</linearGradient>
<linearGradient id="paint10_linear" x1="146.838" y1="91.337" x2="149.594" y2="124.15" gradientUnits="userSpaceOnUse">
<stop stop-color="#303030"/>
<stop offset="1"/>
</linearGradient>
<linearGradient id="paint11_linear" x1="100.042" y1="58.5737" x2="141.565" y2="96.9569" gradientUnits="userSpaceOnUse">
<stop stop-color="#303030"/>
<stop offset="1"/>
</linearGradient>
<linearGradient id="paint12_linear" x1="100.404" y1="70.2162" x2="143.517" y2="110.069" gradientUnits="userSpaceOnUse">
<stop stop-color="#303030"/>
<stop offset="1"/>
</linearGradient>
<linearGradient id="paint13_linear" x1="93.682" y1="76.1587" x2="135.8" y2="115.092" gradientUnits="userSpaceOnUse">
<stop stop-color="#303030"/>
<stop offset="1"/>
</linearGradient>
<linearGradient id="paint14_linear" x1="89.9239" y1="82.7745" x2="129.062" y2="118.953" gradientUnits="userSpaceOnUse">
<stop stop-color="#303030"/>
<stop offset="1"/>
</linearGradient>
<linearGradient id="paint15_linear" x1="82.6577" y1="89.5374" x2="118.74" y2="122.892" gradientUnits="userSpaceOnUse">
<stop stop-color="#303030"/>
<stop offset="1"/>
</linearGradient>
<linearGradient id="paint16_linear" x1="77.8983" y1="97.3873" x2="110.819" y2="127.819" gradientUnits="userSpaceOnUse">
<stop stop-color="#303030"/>
<stop offset="1"/>
</linearGradient>
<linearGradient id="paint17_linear" x1="73.2808" y1="105.084" x2="101.657" y2="131.314" gradientUnits="userSpaceOnUse">
<stop stop-color="#303030"/>
<stop offset="1"/>
</linearGradient>
<linearGradient id="paint18_linear" x1="68.1184" y1="113.371" x2="94.3781" y2="137.645" gradientUnits="userSpaceOnUse">
<stop stop-color="#303030"/>
<stop offset="1"/>
</linearGradient>
<linearGradient id="paint19_linear" x1="207.491" y1="61.8419" x2="195.518" y2="82.8379" gradientUnits="userSpaceOnUse">
<stop stop-color="#C18C76"/>
<stop offset="1" stop-color="#612824"/>
</linearGradient>
<linearGradient id="paint20_linear" x1="184.236" y1="37.6619" x2="145.248" y2="132.985" gradientUnits="userSpaceOnUse">
<stop stop-color="#CD9F84"/>
<stop offset="0.723876" stop-color="#8A5448"/>
</linearGradient>
<linearGradient id="paint21_linear" x1="202.944" y1="106.556" x2="211.848" y2="116.428" gradientUnits="userSpaceOnUse">
<stop stop-color="#A36959"/>
<stop offset="1" stop-color="#925C4F"/>
</linearGradient>
<linearGradient id="paint22_linear" x1="220.585" y1="119.944" x2="244.373" y2="98.8358" gradientUnits="userSpaceOnUse">
<stop stop-color="#BA5F70"/>
<stop offset="1" stop-color="#F0C83B" stop-opacity="0"/>
</linearGradient>
<linearGradient id="paint23_linear" x1="158.906" y1="122.006" x2="186.474" y2="108.205" gradientUnits="userSpaceOnUse">
<stop stop-color="#8B5448"/>
<stop offset="1" stop-color="#BF8174"/>
</linearGradient>
<linearGradient id="paint24_linear" x1="153.732" y1="125.516" x2="171.836" y2="118.79" gradientUnits="userSpaceOnUse">
<stop stop-color="#9F4E20"/>
<stop offset="1" stop-color="#D9AE6F"/>
</linearGradient>
<linearGradient id="paint25_linear" x1="176.135" y1="138.422" x2="193.227" y2="131.299" gradientUnits="userSpaceOnUse">
<stop stop-color="#C9856B"/>
<stop offset="1" stop-color="#D9AE6F"/>
</linearGradient>
<linearGradient id="paint26_linear" x1="177.844" y1="103.353" x2="191.945" y2="35.8283" gradientUnits="userSpaceOnUse">
<stop stop-color="#6B2C2C"/>
<stop offset="1" stop-color="#533636"/>
</linearGradient>
<linearGradient id="paint27_linear" x1="148.136" y1="99.1181" x2="173.336" y2="63.3292" gradientUnits="userSpaceOnUse">
<stop stop-color="#8F594C"/>
<stop offset="1" stop-color="#E1AC90"/>
</linearGradient>
<linearGradient id="paint28_linear" x1="174.19" y1="65.6261" x2="173.046" y2="58.1488" gradientUnits="userSpaceOnUse">
<stop stop-color="#874E4E"/>
<stop offset="1" stop-color="#482222" stop-opacity="0"/>
</linearGradient>
<linearGradient id="paint29_linear" x1="133.124" y1="31.9322" x2="181.054" y2="24.6937" gradientUnits="userSpaceOnUse">
<stop stop-color="#C1958F"/>
<stop offset="1" stop-color="#DBBFBB"/>
</linearGradient>
<linearGradient id="paint30_linear" x1="128.836" y1="20.0223" x2="138.442" y2="3.65909" gradientUnits="userSpaceOnUse">
<stop stop-color="#D6B3AE"/>
<stop offset="1" stop-color="#E4D1C2"/>
</linearGradient>
</defs>
</svg>
