<svg width="307" height="135" viewBox="0 0 307 135" fill="none" xmlns="http://www.w3.org/2000/svg">
<path d="M307 77.943V68.6282L275.226 26.4007L0.447479 15.2229L14.7682 61.1763L2.23758 112.719L5.37021 120.791L271.646 112.719L307 77.943Z" fill="#785340"/>
<path d="M306.553 68.0083L275.226 26.4019L0.000213623 14.603L13.8734 61.7984L2.23782 112.72L269.856 107.131L306.553 68.0083Z" fill="#AD795E"/>
<path d="M6.13826 26.7926C20.7746 24.9217 55.3574 22.9922 58.5352 26.7931C61.713 30.5939 61.1736 30.1175 60.5066 29.4041" stroke="#CC9477"/>
<path d="M62.0049 39.5515C81.6842 36.7076 125.549 32.7032 143.575 39.4361" stroke="#CC9477"/>
<path d="M62.0056 39.551C81.0577 42.1683 121.516 46.643 130.93 43.6035" stroke="#CC9477"/>
<path d="M97.4911 56.3409C113.386 52.5654 150.138 44.8544 169.993 44.2148C189.847 43.5752 200.258 42.8075 202.981 42.5037" stroke="#CC9477"/>
<path d="M12.0637 81.7895C17.5957 85.6144 40.9079 91.0631 66.7055 86.6023C98.9524 81.0262 125.954 65.3877 139.876 75.9081C153.798 86.4285 220.233 77.8136 225.365 75.9079C229.471 74.3834 267.391 84.3629 285.933 86.6023" stroke="#CC9477"/>
<path d="M10.7139 90.4306C18.3217 96.2254 36.7645 106.742 49.6738 102.45C65.8103 97.0845 111.054 90.3183 119.334 94.7682C126.357 98.5424 129.474 103.31 128.262 109.015" stroke="#CC9477"/>
<path d="M108.168 32.0415C148.549 28.2174 243.206 26.4087 260.695 30.7988" stroke="#CC9477"/>
<path d="M121.347 93.5902C134.625 88.7589 167.579 81.4621 193.171 90.9252C225.161 102.754 228.932 101.341 238.906 102.013C246.885 102.55 258.691 103.124 263.597 103.343" stroke="#CC9477"/>
<path d="M188.537 89.046L279.348 95.2322" stroke="#CC9477"/>
<path d="M13.3802 73.813C19.2349 75.7856 40.6234 72.2721 48.2717 70.1584C57.8321 67.5163 77.689 67.5169 87.772 70.1584C97.8551 72.7999 161.604 71.9867 171.39 58.9309C179.22 48.4862 250.647 47.5366 291.199 50.061" stroke="#CC9477"/>
<path d="M8.48917 37.9562C31.0697 38.7849 78.5174 39.3895 87.6637 35.1787C96.81 30.9678 213.12 41.1544 270.132 46.774" stroke="#CC9477"/>
<path d="M15.3844 33.9202C27.813 33.2065 54.5428 29.1575 57.9333 29.567C61.954 30.0526 98.4324 30.6613 111.048 26.9644C121.141 24.0068 131.917 23.315 136.043 23.3387" stroke="#CC9477"/>
<path d="M11.4052 46.4072C34.8728 46.7102 83.7501 45.6882 93.0391 55.5425C102.328 65.3967 186.698 66.7912 224.221 67.6842L302.134 71.3985" stroke="#CC9477"/>
<path d="M14.0005 56.6835C25.3087 55.6762 47.0856 54.7942 43.7268 59.3243C40.3681 63.8544 22.2931 62.9055 13.6755 61.8648" stroke="#CC9477"/>
<path d="M12.5132 53.1822C28.0597 52.6868 58.0468 52.9861 53.6236 58.147C48.0947 64.5982 47.5822 65.9601 14.3176 65.2649" stroke="#CC9477"/>
<g filter="url(#filter0_i)">
<path d="M78.0238 46.9632C78.1756 46.8436 78.3577 46.684 78.5702 46.4847C78.7827 46.2853 78.98 46.066 79.1621 45.8267C79.3746 45.5475 79.5568 45.2684 79.7085 44.9893C79.8907 44.7101 79.9817 44.4509 79.9817 44.2117C79.9817 43.2147 79.8148 42.2178 79.4809 41.2209C79.1773 40.2239 78.722 39.3466 78.1149 38.589C77.5078 37.7914 76.7489 37.1334 75.8383 36.615C74.958 36.0567 73.9108 35.7178 72.6966 35.5982C72.3323 35.5982 71.9833 35.5583 71.6494 35.4785C71.3155 35.3988 71.1485 35.2393 71.1485 35L68.6898 35.3589H67.9613L67.5515 35.8972L65.6847 35.4785L64.8651 36.3758V52.4663L64 52.5859L64.2732 52.7653V63.2929L64.4553 64.6687H65.1383L65.6392 64.1304H68.6443L70.6477 64.9678C70.9512 64.9678 71.2851 64.9279 71.6494 64.8482C72.0136 64.7684 72.3475 64.589 72.6511 64.3098L77.6141 62.1564C77.9176 61.9969 78.3274 61.7377 78.8434 61.3788C79.3898 61.0199 79.921 60.6012 80.437 60.1227C80.9531 59.6442 81.3932 59.0859 81.7575 58.4479C82.1521 57.7699 82.3494 57.092 82.3494 56.4141C82.3494 54.2209 81.9699 52.3466 81.2111 50.7914C80.4522 49.1963 79.3898 47.9202 78.0238 46.9632ZM69.646 45.7669L69.3728 42.6564V39.4264C69.8888 39.3067 70.162 39.2469 70.1923 39.2469C70.2531 39.2469 70.2986 39.2669 70.3289 39.3067C70.3593 39.3067 70.4048 39.3466 70.4655 39.4264C70.5262 39.4663 70.6325 39.5261 70.7843 39.6058C70.936 39.6457 71.1637 39.7055 71.4672 39.7853C71.9529 39.9448 72.4689 40.0445 73.0153 40.0844C73.5617 40.1242 74.0777 40.204 74.5634 40.3236C75.0491 40.4034 75.4741 40.6028 75.8383 40.9218C76.2329 41.2408 76.5213 41.7393 76.7034 42.4172L75.1098 45.2883L73.7438 45.6472C73.7135 45.6871 73.6376 45.7469 73.5162 45.8267C73.4251 45.8666 73.3037 45.9264 73.1519 46.0061C73.0305 46.046 72.9091 46.1058 72.7877 46.1856C72.6662 46.2255 72.56 46.2454 72.4689 46.2454C72.3779 46.2454 72.3323 46.2055 72.3323 46.1258L69.646 45.7669ZM70.1468 51.1503C70.42 51.0706 70.7084 50.9709 71.0119 50.8512C71.3155 50.7316 71.6342 50.612 71.9681 50.4923H72.1502C72.4234 50.4923 72.6662 50.5322 72.8787 50.612C73.1216 50.6917 73.4099 50.7914 73.7438 50.911C74.2599 51.0706 74.7911 51.1902 75.3375 51.2699C75.9142 51.3098 76.4454 51.4095 76.9311 51.569C77.4471 51.7285 77.9024 52.0077 78.297 52.4064C78.6916 52.8052 78.9648 53.4433 79.1166 54.3206L77.4775 57.3114L71.1485 58.8666H70.5111V57.3712L70.1468 54.6196V51.1503Z" fill="#56321E"/>
<path d="M101.153 49.1166L99.7867 42.8957L97.5101 42.2377L96.8271 42.7163V52.4663L96.2807 52.9448H95.5067L93.1846 53.9617L92.6837 53.7224L92.5016 52.8252L92.1373 52.1074V45.5276L91.3633 42.4172H87.9484L87.2199 42.7163L86.8556 46.6043L87.6297 48.638L87.1288 55.158L88.1305 58.4479L89.2233 58.9264L90.4982 60.0031L91.4999 59.5844L91.682 59.1656L93.2756 59.4049L94.1863 58.8067L96.0075 56.4141L96.5995 56.0552L97.0548 56.6534L96.9182 57.0721L98.0109 58.0291H100.743L101.153 57.3114V49.1166Z" fill="#56321E"/>
<path d="M115.23 40.3236L113.682 39.4862L111.678 39.0077L110.221 38.589L109.129 39.0675V44.75L109.265 45.4678L111.997 44.8696L114.137 45.408L114.775 44.8098L115.23 40.3236ZM115.549 60.2423L114.775 59.4049L115.048 58.3282V55.5169L114.729 54.0215V49.8942L114.183 49.1166L113.226 49.0567L112.862 49.296L111.041 49.1166L110.267 49.5951L109.311 64.0706L109.766 64.7285H110.586L111.132 64.4893H114.638L115.503 63.9509L115.275 62.5153L115.549 60.2423Z" fill="#56321E"/>
<path d="M129.373 44.1518L129.145 43.6135L129.509 41.6994V36.1365L128.963 35.658L125.457 38.1104L125.092 40.1442V47.8604L124.227 63.6518L124.91 64.4295L127.733 64.1304L128.872 64.6089L129.828 63.7715V53.1242V50.8512L129.373 44.1518Z" fill="#56321E"/>
<path d="M144.112 48.6979L141.653 50.1933C140.894 50.7515 140.302 51.3098 139.877 51.8681C139.452 52.4264 139.118 53.0445 138.876 53.7224C138.633 54.4003 138.466 55.138 138.375 55.9356C138.284 56.7331 138.177 57.6304 138.056 58.6273C138.026 58.7469 138.01 58.9463 138.01 59.2255C138.01 59.8635 138.147 60.4617 138.42 61.0199C138.693 61.5782 139.042 62.0568 139.467 62.4555C139.892 62.8144 140.348 63.1135 140.833 63.3528C141.349 63.5522 141.835 63.6917 142.29 63.7715L146.115 64.3098C146.449 64.6288 146.783 64.8282 147.117 64.908C147.481 64.9877 147.83 65.0276 148.164 65.0276L150.167 64.1902H153.173L153.673 64.7285H154.356L154.857 63.3528V52.8252L154.812 52.6457L154.493 52.5261V37.9908L153.081 37.0337H150.805L149.94 37.8113C149.94 38.4494 149.879 39.0276 149.758 39.546C149.667 40.0644 149.621 40.4632 149.621 40.7423C149.621 40.9417 149.697 41.0414 149.849 41.0414V43.7331L149.166 46.4248V46.8436L146.479 48.2193C146.479 48.2991 146.373 48.339 146.161 48.339C145.887 48.339 145.69 48.319 145.569 48.2791C145.447 48.2791 145.311 48.2592 145.159 48.2193L144.112 48.6979ZM149.075 51.1503V54.6196L148.71 57.3712V58.9264H148.164C147.587 59.046 147.086 59.1457 146.661 59.2255C146.237 59.2653 145.766 59.2853 145.25 59.2853C144.946 59.2853 144.628 59.2653 144.294 59.2255C143.99 59.1856 143.641 59.066 143.247 58.8666C143.186 58.8666 143.125 58.8865 143.064 58.9264C143.034 58.9264 143.004 58.9264 142.973 58.9264C142.427 58.9264 142.017 58.6871 141.744 58.2086C141.501 57.6902 141.38 56.8328 141.38 55.6365C141.38 54.7592 141.471 54.1212 141.653 53.7224C141.835 53.3236 142.093 53.0245 142.427 52.8252C142.791 52.6258 143.186 52.4862 143.611 52.4064C144.066 52.3267 144.552 52.1871 145.068 51.9877C145.371 51.908 145.629 51.8282 145.842 51.7485C146.085 51.6288 146.343 51.5491 146.616 51.5092H146.844C146.874 51.5491 146.935 51.569 147.026 51.569C147.177 51.569 147.39 51.5092 147.663 51.3896C147.936 51.2301 148.27 51.1503 148.665 51.1503H149.075Z" fill="#56321E"/>
<path d="M192.775 49.5353L192.548 46.8436L191.637 43.6135L191.546 42.8957L191.227 42.2377L188.268 38.7086L187.676 38.1702L181.165 36.1963H176.247L175.473 37.273V51.3298V54.4402V63.2929L176.748 64.4893L180.163 64.0107L186.674 60.7209L189.998 56.0552L190.18 55.3972L190.681 55.2776L192.775 49.5353ZM187.858 45.1089V52.227L187.403 54.1411L186.446 55.9954L185.217 57.6104L182.849 58.2086L180.937 58.9862L181.074 55.816V43.2546L181.438 40.862L184.853 41.2807L186.765 43.6135L187.858 45.1089Z" fill="#56321E"/>
<path d="M199.057 42.477C199.27 42.477 199.452 42.5966 199.604 42.8359C199.786 43.0752 199.938 43.3543 200.059 43.6733C200.211 43.9923 200.347 44.2715 200.469 44.5107C200.59 44.75 200.697 44.8696 200.788 44.8696C201.091 44.7899 201.546 44.6304 202.154 44.3911C202.791 44.112 203.474 43.8328 204.202 43.5537C204.961 43.2745 205.69 43.0353 206.388 42.8359C207.117 42.6365 207.708 42.5368 208.164 42.5368C208.407 42.5368 208.574 42.5966 208.665 42.7163C208.786 42.8359 208.862 42.9755 208.892 43.135C208.923 43.2945 208.953 43.454 208.983 43.6135C209.044 43.7331 209.15 43.8328 209.302 43.9126C209.363 44.0322 209.454 44.1518 209.575 44.2715C209.697 44.3512 209.757 44.5107 209.757 44.75C209.606 45.2285 209.515 45.6871 209.484 46.1258C209.454 46.5245 209.439 46.9034 209.439 47.2623V47.6212L208.118 47.7408C207.906 47.7807 207.693 47.8206 207.481 47.8604C207.268 47.8604 207.025 47.8604 206.752 47.8604L205.386 48.8773C204.992 48.8773 204.658 48.9371 204.385 49.0567C204.111 49.1365 203.823 49.2761 203.519 49.4755C203.246 49.635 202.928 49.8144 202.563 50.0138C202.199 50.2132 201.713 50.4126 201.106 50.612C199.649 51.569 198.557 52.7255 197.828 54.0813C197.13 55.4371 196.781 57.112 196.781 59.1058C196.781 59.7439 196.948 60.3819 197.282 61.0199C197.616 61.6181 198.025 62.1764 198.511 62.6948C198.997 63.1733 199.498 63.5721 200.014 63.8911C200.53 64.1702 200.985 64.3098 201.38 64.3098C201.835 64.3098 202.26 64.3098 202.654 64.3098C203.049 64.3497 203.444 64.3696 203.838 64.3696H206.342H206.388C206.449 64.3696 206.494 64.3098 206.525 64.1902C206.585 64.1104 206.646 64.0107 206.707 63.8911C206.798 63.7316 206.934 63.612 207.117 63.5322C207.329 63.4126 207.617 63.3528 207.982 63.3528C208.376 63.3528 208.786 63.5123 209.211 63.8313C209.636 64.1104 210 64.25 210.304 64.25C210.547 64.25 210.774 64.2301 210.987 64.1902C211.199 64.1503 211.412 64.0905 211.624 64.0107C211.867 63.931 212.14 63.8712 212.444 63.8313C212.747 63.7515 213.096 63.7117 213.491 63.7117C213.582 63.911 213.749 64.0905 213.992 64.25H214.629C214.66 64.0506 214.72 63.8712 214.811 63.7117C214.902 63.5123 215.009 63.2531 215.13 62.934C215.1 62.0169 215.054 61.1994 214.994 60.4816C214.963 59.7638 214.933 59.0859 214.902 58.4479C214.902 57.7699 214.887 57.0721 214.857 56.3543C214.857 55.6365 214.842 54.819 214.811 53.9018H214.948C214.978 53.862 215.009 53.842 215.039 53.842C214.948 53.842 214.872 53.6825 214.811 53.3635C214.751 53.0445 214.705 52.7255 214.675 52.4064C214.644 52.0475 214.614 51.7285 214.584 51.4494C214.584 51.1304 214.584 50.9709 214.584 50.9709C214.553 50.6518 214.493 50.4126 214.402 50.2531C214.341 50.0537 214.265 49.8344 214.174 49.5951C214.113 49.316 214.037 48.9371 213.946 48.4586C213.886 47.9801 213.84 47.2025 213.81 46.1258C213.719 46.046 213.643 45.8067 213.582 45.408C213.521 45.0092 213.461 44.5905 213.4 44.1518C213.37 43.6733 213.339 43.2347 213.309 42.8359C213.309 42.3972 213.294 42.138 213.263 42.0583H213.172C212.929 42.0583 212.732 41.8788 212.58 41.5199C212.429 41.161 212.292 40.7623 212.171 40.3236C212.049 39.885 211.943 39.5061 211.852 39.1871C211.761 38.8282 211.655 38.6488 211.533 38.6488C211.472 38.569 211.412 38.4893 211.351 38.4095C211.29 38.2899 211.23 38.1902 211.169 38.1104H210.44C210.137 38.1104 209.879 38.1104 209.666 38.1104C209.484 38.1104 209.302 38.1104 209.12 38.1104C208.968 38.1104 208.801 38.0905 208.619 38.0506C208.437 38.0107 208.209 37.9509 207.936 37.8712C207.906 38.0706 207.724 38.2101 207.39 38.2899C207.086 38.3298 206.737 38.3497 206.342 38.3497C205.978 38.3497 205.629 38.3497 205.295 38.3497C204.992 38.3497 204.825 38.4095 204.794 38.5291C203.975 38.888 203.231 39.1871 202.563 39.4264C201.896 39.6656 201.334 39.9248 200.879 40.204C200.423 40.4433 200.044 40.7423 199.74 41.1012C199.437 41.4202 199.209 41.8788 199.057 42.477ZM208.938 52.5261V55.5767C208.786 56.2147 208.695 56.8727 208.665 57.5506C208.634 58.2285 208.619 58.727 208.619 59.046V59.5245H207.982C207.375 59.6043 206.813 59.6641 206.297 59.704C205.781 59.7439 205.28 59.7837 204.794 59.8236L201.607 60.0629C201.395 59.5844 201.213 59.2055 201.061 58.9264C200.939 58.6472 200.879 58.2285 200.879 57.6702C200.879 56.5537 200.985 55.6764 201.197 55.0383C201.44 54.4003 201.759 53.9218 202.154 53.6028C202.579 53.2439 203.064 52.9847 203.611 52.8252C204.157 52.6656 204.734 52.4862 205.341 52.2868C205.644 52.1672 205.918 52.0675 206.16 51.9877C206.434 51.908 206.692 51.8681 206.934 51.8681H207.117C207.42 51.9877 207.724 52.1074 208.027 52.227C208.361 52.3466 208.665 52.4463 208.938 52.5261Z" fill="#56321E"/>
<path d="M227.118 60.9601L222.565 72.5644L223.157 74H223.794L224.295 73.5215H227.437L228.347 72.5644L228.985 69.8727L230.077 66.2837L231.489 63.3528L232.035 62.1564V61.0199H231.808L232.445 59.704L233.674 58.2684L235.04 54.0215L236.452 51.3298L237.454 49.0567L238 46.9034V45.7669H234.221L232.491 48.6979L231.626 51.1503L230.851 52.4064L230.396 54.0813L229.941 54.3206L229.531 54.9785L228.985 55.2776L225.433 51.3298L225.023 50.612L221.882 46.066L221.426 45.8267L219.059 46.1258L218.922 46.7239L221.927 53.1242L222.701 55.0383L226.617 60.0031L226.754 60.6012L227.254 60.9601H227.118Z" fill="#56321E"/>
</g>
<g filter="url(#filter1_i)">
<path d="M56.7224 87.4096L56.5944 86.0542L56.0827 84.4277L56.0316 84.0663L55.8525 83.7349L54.1894 81.9578L53.8568 81.6867L50.1981 80.6928H47.4349L47 81.2349V88.3133V89.8795V94.3373L47.7164 94.9398L49.6353 94.6988L53.294 93.0422L55.1617 90.6928L55.264 90.3614L55.5455 90.3012L56.7224 87.4096ZM53.9592 85.1807V88.7651L53.7033 89.7289L53.166 90.6627L52.4752 91.4759L51.1448 91.7771L50.0702 92.1687L50.147 90.5723V84.247L50.3517 83.0422L52.2705 83.253L53.3451 84.4277L53.9592 85.1807Z" fill="#56321E"/>
<path d="M68.6954 93.3133L68.6187 93.1928C68.6187 93.0924 68.5931 93.002 68.5419 92.9217C68.4908 92.8213 68.4481 92.7108 68.414 92.5904C68.3117 92.5904 68.2178 92.6205 68.1326 92.6807C68.0473 92.7209 67.9535 92.7711 67.8511 92.8313C67.7658 92.8715 67.655 92.9217 67.5185 92.9819C67.3991 93.0221 67.2456 93.0422 67.058 93.0422H66.9301C66.7254 93.0622 66.5463 93.0723 66.3928 93.0723C66.2393 93.0723 66.0943 93.0823 65.9578 93.1024C65.8214 93.1024 65.6849 93.1124 65.5485 93.1325C65.412 93.1325 65.25 93.1325 65.0623 93.1325C64.7383 93.0723 64.5251 93.0321 64.4227 93.012C64.3374 92.9719 64.2948 92.9518 64.2948 92.9518C64.2948 92.9518 64.3033 92.9518 64.3204 92.9518C64.3374 92.9518 64.3118 92.9317 64.2436 92.8916C64.2266 92.9116 64.2095 92.9217 64.1924 92.9217C64.1754 92.9217 64.1583 92.9317 64.1413 92.9518C64.1413 92.9518 64.1242 92.9518 64.0901 92.9518C63.9025 92.8715 63.749 92.8112 63.6296 92.7711C63.5272 92.7309 63.4761 92.6606 63.4761 92.5602C63.4761 92.4799 63.3908 92.3394 63.2202 92.1386C63.0667 91.9377 62.9899 91.7068 62.9899 91.4458C62.9899 91.1446 63.0155 90.7631 63.0667 90.3012C63.1179 89.8193 63.2202 89.4377 63.3737 89.1566C63.5102 89.0562 63.749 88.9458 64.0901 88.8253C64.4312 88.6847 64.7724 88.6145 65.1135 88.6145C65.3182 88.6145 65.4717 88.6546 65.574 88.7349C65.6934 88.7952 65.7873 88.8755 65.8555 88.9759C65.9237 89.0763 65.9578 89.1867 65.9578 89.3072C65.9749 89.4076 65.9834 89.508 65.9834 89.6084C65.9834 89.749 65.9408 89.8494 65.8555 89.9096C65.7702 89.9699 65.6679 90.01 65.5485 90.0301C65.4291 90.0502 65.3097 90.0602 65.1903 90.0602C65.0709 90.0602 64.9685 90.0703 64.8832 90.0904C64.5421 90.2108 64.2607 90.2912 64.0389 90.3313C63.8343 90.3715 63.7149 90.3916 63.6807 90.3916C63.766 90.4317 63.8257 90.512 63.8598 90.6325C63.894 90.753 63.9195 90.8835 63.9366 91.0241C63.9537 91.1446 63.9622 91.2651 63.9622 91.3855C63.9622 91.4859 63.9707 91.5361 63.9878 91.5361C64.5848 91.5361 65.0794 91.506 65.4717 91.4458C65.864 91.3855 66.1881 91.3153 66.4439 91.2349C66.6998 91.1345 66.9045 91.0542 67.058 90.994C67.2115 90.9137 67.365 90.8635 67.5185 90.8434C67.5868 90.6426 67.6635 90.5221 67.7488 90.4819C67.8341 90.4217 67.9279 90.3213 68.0302 90.1807C67.9961 89.8996 67.9364 89.6185 67.8511 89.3373C67.7829 89.0361 67.7061 88.7651 67.6209 88.5241C67.5356 88.2631 67.4503 88.0422 67.365 87.8614C67.2968 87.6807 67.2627 87.5703 67.2627 87.5301C67.1433 87.5301 67.0409 87.5 66.9556 87.4398C66.8874 87.3795 66.8277 87.3193 66.7766 87.259C66.7424 87.1988 66.7169 87.1386 66.6998 87.0783C66.6827 87.0181 66.6657 86.988 66.6486 86.988C66.461 86.988 66.316 86.9377 66.2137 86.8373C66.1454 86.7972 66.0943 86.747 66.0602 86.6867C65.7873 86.6867 65.574 86.6466 65.4205 86.5663C65.267 86.4859 65.0965 86.4458 64.9088 86.4458C64.4824 86.6265 64.0219 86.757 63.5272 86.8373C63.0496 86.9177 62.6232 87.0884 62.248 87.3494C62.0433 87.5502 61.8557 87.741 61.6851 87.9217C61.5145 88.1024 61.361 88.3032 61.2246 88.5241C61.0881 88.745 60.9431 88.9859 60.7896 89.247C60.6361 89.508 60.4826 89.8193 60.3291 90.1807C60.2438 90.3414 60.1841 90.502 60.15 90.6627C60.1329 90.8233 60.1159 90.9839 60.0988 91.1446C60.0988 91.4458 60.1073 91.747 60.1244 92.0482C60.1585 92.3293 60.2779 92.6506 60.4826 93.012C60.5679 93.0924 60.6361 93.1827 60.6873 93.2831C60.7555 93.3835 60.7896 93.4337 60.7896 93.4337L60.9431 93.5843C60.9772 93.5843 61.0028 93.6446 61.0199 93.7651C61.054 93.8655 61.0796 93.9157 61.0966 93.9157H61.5572C61.7619 94.0562 61.9239 94.1767 62.0433 94.2771C62.1627 94.3574 62.2736 94.4177 62.3759 94.4578C62.4782 94.4779 62.5891 94.498 62.7085 94.5181C62.8279 94.5382 62.9814 94.5482 63.169 94.5482C63.2714 94.5482 63.3737 94.5482 63.4761 94.5482C63.5955 94.5281 63.7149 94.5181 63.8343 94.5181C63.9366 94.5181 64.0475 94.5181 64.1669 94.5181C64.2863 94.5181 64.4312 94.5382 64.6018 94.5783C64.9771 94.5783 65.2841 94.5582 65.5229 94.5181C65.7787 94.4578 66.0261 94.3875 66.2648 94.3072C66.5207 94.2269 66.7851 94.1566 67.058 94.0964C67.348 94.0361 67.6976 93.996 68.107 93.9759C68.2093 93.9357 68.3287 93.8454 68.4652 93.7048C68.6187 93.5442 68.6954 93.4438 68.6954 93.4036C68.6954 93.3434 68.6528 93.3133 68.5675 93.3133H68.6954Z" fill="#56321E"/>
<path d="M80.5 93.3133L80.3977 93.1928C80.3977 93.0924 80.3721 93.002 80.3209 92.9217C80.2868 92.8213 80.2527 92.7108 80.2186 92.5904C80.0992 92.5904 79.9968 92.6205 79.9115 92.6807C79.8263 92.7209 79.7325 92.7711 79.6301 92.8313C79.5448 92.8715 79.4425 92.9217 79.3231 92.9819C79.2037 93.0221 79.0416 93.0422 78.837 93.0422H78.709C78.5044 93.0622 78.3253 93.0723 78.1718 93.0723C78.0353 93.0723 77.8988 93.0823 77.7624 93.1024C77.643 93.1024 77.5065 93.1124 77.353 93.1325C77.2166 93.1325 77.0545 93.1325 76.8669 93.1325C76.5599 93.0924 76.2955 93.0723 76.0738 93.0723C75.8691 93.0522 75.6218 92.992 75.3318 92.8916C75.3147 92.9116 75.3062 92.9217 75.3062 92.9217C75.2892 92.9217 75.2721 92.9317 75.255 92.9518C75.255 92.9518 75.238 92.9518 75.2039 92.9518C74.9992 92.8715 74.8457 92.8112 74.7433 92.7711C74.6581 92.7309 74.6154 92.6606 74.6154 92.5602C74.6154 92.4799 74.5301 92.3394 74.3596 92.1386C74.206 91.9377 74.1293 91.7068 74.1293 91.4458C74.1293 91.2048 74.1975 90.9639 74.334 90.7229C74.4875 90.4819 74.6495 90.2811 74.8201 90.1205C75.0077 89.9398 75.1698 89.7992 75.3062 89.6988C75.4427 89.5984 75.4938 89.5582 75.4597 89.5783C75.4938 89.5783 75.528 89.5582 75.5621 89.5181C75.5962 89.498 75.6218 89.4779 75.6388 89.4578C75.6729 89.4177 75.7156 89.3775 75.7667 89.3373C75.852 89.2169 75.9544 89.1265 76.0738 89.0663C76.2102 88.9859 76.5087 88.9056 76.9693 88.8253C77.3274 88.745 77.6089 88.6847 77.8136 88.6446C78.0353 88.6044 78.2229 88.5843 78.3764 88.5843C78.5299 88.5843 78.6749 88.5843 78.8114 88.5843C78.9478 88.5843 79.1269 88.5843 79.3487 88.5843C79.3998 88.3835 79.4425 88.243 79.4766 88.1627C79.5107 88.0823 79.596 87.9016 79.7325 87.6205C79.6983 87.4197 79.6813 87.1888 79.6813 86.9277C79.6983 86.6466 79.6386 86.496 79.5022 86.4759H78.095C77.8903 86.4759 77.6771 86.4759 77.4554 86.4759C77.2507 86.4558 77.0034 86.4458 76.7134 86.4458C76.2699 86.6265 75.8009 86.757 75.3062 86.8373C74.8286 86.9177 74.4107 87.0884 74.0525 87.3494C73.8308 87.5502 73.6346 87.741 73.4641 87.9217C73.3106 88.1024 73.1571 88.3032 73.0035 88.5241C72.8671 88.745 72.7221 88.9859 72.5686 89.247C72.4321 89.508 72.2786 89.8193 72.1081 90.1807C72.0398 90.3414 71.9887 90.502 71.9546 90.6627C71.9204 90.8233 71.8949 90.9839 71.8778 91.1446C71.8778 91.4458 71.8863 91.747 71.9034 92.0482C71.9375 92.3293 72.0654 92.6506 72.2872 93.012C72.3554 93.0924 72.4236 93.1827 72.4918 93.2831C72.5601 93.3835 72.5942 93.4337 72.5942 93.4337L72.7221 93.5843C72.7562 93.5843 72.7903 93.6446 72.8244 93.7651C72.8586 93.8655 72.8841 93.9157 72.9012 93.9157H73.3362C73.5408 94.0562 73.7029 94.1767 73.8223 94.2771C73.9417 94.3574 74.0525 94.4177 74.1549 94.4578C74.2743 94.4779 74.3937 94.498 74.5131 94.5181C74.6325 94.5382 74.786 94.5482 74.9736 94.5482C75.0589 94.5482 75.1527 94.5482 75.255 94.5482C75.3744 94.5281 75.4938 94.5181 75.6132 94.5181C75.7326 94.5181 75.852 94.5181 75.9714 94.5181C76.0908 94.5181 76.2358 94.5382 76.4064 94.5783C76.7646 94.5783 77.0631 94.5582 77.3019 94.5181C77.5577 94.4578 77.805 94.3875 78.0438 94.3072C78.2997 94.2269 78.5641 94.1566 78.837 94.0964C79.1269 94.0361 79.4851 93.996 79.9115 93.9759C79.9968 93.9357 80.1162 93.8454 80.2697 93.7048C80.4233 93.5442 80.5 93.4438 80.5 93.4036C80.5 93.3434 80.4488 93.3133 80.3465 93.3133H80.5Z" fill="#56321E"/>
<path d="M92.2318 93.3133L92.1551 93.1928C92.1551 93.0924 92.1295 93.002 92.0783 92.9217C92.0271 92.8213 91.9845 92.7108 91.9504 92.5904C91.848 92.5904 91.7542 92.6205 91.6689 92.6807C91.5837 92.7209 91.4898 92.7711 91.3875 92.8313C91.3022 92.8715 91.1913 92.9217 91.0549 92.9819C90.9355 93.0221 90.782 93.0422 90.5944 93.0422H90.4664C90.2618 93.0622 90.0827 93.0723 89.9291 93.0723C89.7756 93.0723 89.6307 93.0823 89.4942 93.1024C89.3577 93.1024 89.2213 93.1124 89.0848 93.1325C88.9484 93.1325 88.7863 93.1325 88.5987 93.1325C88.2746 93.0723 88.0614 93.0321 87.9591 93.012C87.8738 92.9719 87.8312 92.9518 87.8312 92.9518C87.8312 92.9518 87.8397 92.9518 87.8567 92.9518C87.8738 92.9518 87.8482 92.9317 87.78 92.8916C87.7629 92.9116 87.7459 92.9217 87.7288 92.9217C87.7118 92.9217 87.6947 92.9317 87.6777 92.9518C87.6777 92.9518 87.6606 92.9518 87.6265 92.9518C87.4389 92.8715 87.2853 92.8112 87.1659 92.7711C87.0636 92.7309 87.0124 92.6606 87.0124 92.5602C87.0124 92.4799 86.9272 92.3394 86.7566 92.1386C86.6031 91.9377 86.5263 91.7068 86.5263 91.4458C86.5263 91.1446 86.5519 90.7631 86.6031 90.3012C86.6542 89.8193 86.7566 89.4377 86.9101 89.1566C87.0466 89.0562 87.2853 88.9458 87.6265 88.8253C87.9676 88.6847 88.3088 88.6145 88.6499 88.6145C88.8546 88.6145 89.0081 88.6546 89.1104 88.7349C89.2298 88.7952 89.3236 88.8755 89.3919 88.9759C89.4601 89.0763 89.4942 89.1867 89.4942 89.3072C89.5113 89.4076 89.5198 89.508 89.5198 89.6084C89.5198 89.749 89.4771 89.8494 89.3919 89.9096C89.3066 89.9699 89.2042 90.01 89.0848 90.0301C88.9654 90.0502 88.846 90.0602 88.7266 90.0602C88.6073 90.0602 88.5049 90.0703 88.4196 90.0904C88.0785 90.2108 87.7971 90.2912 87.5753 90.3313C87.3706 90.3715 87.2512 90.3916 87.2171 90.3916C87.3024 90.4317 87.3621 90.512 87.3962 90.6325C87.4303 90.753 87.4559 90.8835 87.473 91.0241C87.49 91.1446 87.4986 91.2651 87.4986 91.3855C87.4986 91.4859 87.5071 91.5361 87.5241 91.5361C88.1211 91.5361 88.6158 91.506 89.0081 91.4458C89.4004 91.3855 89.7245 91.3153 89.9803 91.2349C90.2362 91.1345 90.4408 91.0542 90.5944 90.994C90.7479 90.9137 90.9014 90.8635 91.0549 90.8434C91.1231 90.6426 91.1999 90.5221 91.2852 90.4819C91.3704 90.4217 91.4643 90.3213 91.5666 90.1807C91.5325 89.8996 91.4728 89.6185 91.3875 89.3373C91.3193 89.0361 91.2425 88.7651 91.1572 88.5241C91.072 88.2631 90.9867 88.0422 90.9014 87.8614C90.8332 87.6807 90.799 87.5703 90.799 87.5301C90.6796 87.5301 90.5773 87.5 90.492 87.4398C90.4238 87.3795 90.3641 87.3193 90.3129 87.259C90.2788 87.1988 90.2532 87.1386 90.2362 87.0783C90.2191 87.0181 90.2021 86.988 90.185 86.988C89.9974 86.988 89.8524 86.9377 89.7501 86.8373C89.6818 86.7972 89.6307 86.747 89.5965 86.6867C89.3236 86.6867 89.1104 86.6466 88.9569 86.5663C88.8034 86.4859 88.6328 86.4458 88.4452 86.4458C88.0188 86.6265 87.5583 86.757 87.0636 86.8373C86.586 86.9177 86.1596 87.0884 85.7844 87.3494C85.5797 87.5502 85.392 87.741 85.2215 87.9217C85.0509 88.1024 84.8974 88.3032 84.7609 88.5241C84.6245 88.745 84.4795 88.9859 84.326 89.247C84.1725 89.508 84.019 89.8193 83.8655 90.1807C83.7802 90.3414 83.7205 90.502 83.6864 90.6627C83.6693 90.8233 83.6522 90.9839 83.6352 91.1446C83.6352 91.4458 83.6437 91.747 83.6608 92.0482C83.6949 92.3293 83.8143 92.6506 84.019 93.012C84.1043 93.0924 84.1725 93.1827 84.2237 93.2831C84.2919 93.3835 84.326 93.4337 84.326 93.4337L84.4795 93.5843C84.5136 93.5843 84.5392 93.6446 84.5563 93.7651C84.5904 93.8655 84.616 93.9157 84.633 93.9157H85.0935C85.2982 94.0562 85.4603 94.1767 85.5797 94.2771C85.6991 94.3574 85.8099 94.4177 85.9123 94.4578C86.0146 94.4779 86.1255 94.498 86.2449 94.5181C86.3643 94.5382 86.5178 94.5482 86.7054 94.5482C86.8078 94.5482 86.9101 94.5482 87.0124 94.5482C87.1318 94.5281 87.2512 94.5181 87.3706 94.5181C87.473 94.5181 87.5838 94.5181 87.7032 94.5181C87.8226 94.5181 87.9676 94.5382 88.1382 94.5783C88.5134 94.5783 88.8205 94.5582 89.0592 94.5181C89.3151 94.4578 89.5624 94.3875 89.8012 94.3072C90.0571 94.2269 90.3215 94.1566 90.5944 94.0964C90.8843 94.0361 91.234 93.996 91.6434 93.9759C91.7457 93.9357 91.8651 93.8454 92.0016 93.7048C92.1551 93.5442 92.2318 93.4438 92.2318 93.4036C92.2318 93.3434 92.1892 93.3133 92.1039 93.3133H92.2318Z" fill="#56321E"/>
<path d="M107.977 91.2651L107.9 85.6627C107.78 85.3414 107.644 85.0301 107.49 84.7289C107.337 84.4277 107.132 84.2068 106.876 84.0663L104.369 84.006L103.576 84.0964L103.269 84.3072L102.655 84.4277L101.427 83.5542L100.045 83.4337L98.5356 84.0663L98.2285 83.9759L98.1006 83.7048L97.461 83.1928L96.8981 83.2831L95.7468 82.9518L95.2351 84.0964L95.0304 86.6566V91.9578L96.3608 92.0783L96.719 91.8675H98.075L98.6379 91.7169V85.6627H99.9172L100.224 86.1747L100.327 87.3193V89.6687V91.4458L100.582 91.7169H102.68L103.243 91.2048L102.987 89.1265V87.7108V86.7169L103.039 86.0542L104.139 86.1747L104.292 86.7169L104.625 89.8494V91.3554L105.29 91.6867H107.746L107.977 91.2651Z" fill="#56321E"/>
<path d="M117.514 86.1446L116.976 86.2651H116.567H116.337C116.235 86.2651 116.183 86.245 116.183 86.2048L114.674 86.0542V85.8434L114.264 83.9458V82.5904C114.35 82.5904 114.392 82.5402 114.392 82.4398C114.392 82.3193 114.358 82.1486 114.29 81.9277C114.239 81.7068 114.213 81.4458 114.213 81.1446V80.9639L113.753 80.5422H112.448L111.987 81.0542V88.8855L111.501 88.9759L111.655 89.0663V94.3675L111.757 95.0301H112.141L112.422 94.7892H114.111L115.237 95.1807C115.39 95.1807 115.569 95.1606 115.774 95.1205C115.979 95.0803 116.175 95 116.362 94.8795L118.486 94.0361C118.657 93.9558 118.878 93.8052 119.151 93.5843C119.424 93.3635 119.689 93.1124 119.944 92.8313C120.217 92.5301 120.448 92.2088 120.635 91.8675C120.823 91.5261 120.917 91.2048 120.917 90.9036C120.917 90.3414 120.882 89.8695 120.814 89.488C120.746 89.1064 120.635 88.7651 120.482 88.4639C120.328 88.1627 120.123 87.8916 119.868 87.6506C119.612 87.3896 119.288 87.1285 118.895 86.8675L117.514 86.1446ZM114.955 88.2229L115.416 88.1024C115.518 88.0622 115.612 88.0321 115.697 88.012C115.783 87.9719 115.876 87.9317 115.979 87.8916H116.081C116.2 87.8916 116.362 87.9217 116.567 87.9819C116.772 88.0221 116.985 88.0723 117.207 88.1325C117.429 88.1928 117.642 88.2631 117.846 88.3434C118.051 88.4237 118.205 88.494 118.307 88.5542C118.392 88.6145 118.537 88.7952 118.742 89.0964C118.947 89.3775 119.049 89.739 119.049 90.1807C119.049 90.3414 119.015 90.4819 118.947 90.6024C118.878 90.7229 118.793 90.8333 118.691 90.9337C118.588 91.0341 118.486 91.1345 118.384 91.2349C118.281 91.3353 118.205 91.4458 118.153 91.5663C117.898 91.6466 117.676 91.7269 117.488 91.8072C117.301 91.8875 117.121 91.9578 116.951 92.0181C116.78 92.0582 116.601 92.0984 116.414 92.1386C116.243 92.1586 116.055 92.1687 115.851 92.1687C115.783 92.1687 115.723 92.1687 115.672 92.1687C115.62 92.1687 115.552 92.1586 115.467 92.1386H115.134V91.3554L114.955 89.9699V88.2229Z" fill="#56321E"/>
<path d="M132.284 93.3133L132.207 93.1928C132.207 93.0924 132.181 93.002 132.13 92.9217C132.079 92.8213 132.036 92.7108 132.002 92.5904C131.9 92.5904 131.806 92.6205 131.721 92.6807C131.635 92.7209 131.542 92.7711 131.439 92.8313C131.354 92.8715 131.243 92.9217 131.107 92.9819C130.987 93.0221 130.834 93.0422 130.646 93.0422H130.518C130.314 93.0622 130.134 93.0723 129.981 93.0723C129.827 93.0723 129.682 93.0823 129.546 93.1024C129.41 93.1024 129.273 93.1124 129.137 93.1325C129 93.1325 128.838 93.1325 128.651 93.1325C128.326 93.0723 128.113 93.0321 128.011 93.012C127.926 92.9719 127.883 92.9518 127.883 92.9518C127.883 92.9518 127.892 92.9518 127.909 92.9518C127.926 92.9518 127.9 92.9317 127.832 92.8916C127.815 92.9116 127.798 92.9217 127.781 92.9217C127.764 92.9217 127.747 92.9317 127.729 92.9518C127.729 92.9518 127.712 92.9518 127.678 92.9518C127.491 92.8715 127.337 92.8112 127.218 92.7711C127.115 92.7309 127.064 92.6606 127.064 92.5602C127.064 92.4799 126.979 92.3394 126.808 92.1386C126.655 91.9377 126.578 91.7068 126.578 91.4458C126.578 91.1446 126.604 90.7631 126.655 90.3012C126.706 89.8193 126.808 89.4377 126.962 89.1566C127.098 89.0562 127.337 88.9458 127.678 88.8253C128.019 88.6847 128.361 88.6145 128.702 88.6145C128.906 88.6145 129.06 88.6546 129.162 88.7349C129.282 88.7952 129.375 88.8755 129.444 88.9759C129.512 89.0763 129.546 89.1867 129.546 89.3072C129.563 89.4076 129.572 89.508 129.572 89.6084C129.572 89.749 129.529 89.8494 129.444 89.9096C129.358 89.9699 129.256 90.01 129.137 90.0301C129.017 90.0502 128.898 90.0602 128.778 90.0602C128.659 90.0602 128.557 90.0703 128.471 90.0904C128.13 90.2108 127.849 90.2912 127.627 90.3313C127.422 90.3715 127.303 90.3916 127.269 90.3916C127.354 90.4317 127.414 90.512 127.448 90.6325C127.482 90.753 127.508 90.8835 127.525 91.0241C127.542 91.1446 127.55 91.2651 127.55 91.3855C127.55 91.4859 127.559 91.5361 127.576 91.5361C128.173 91.5361 128.668 91.506 129.06 91.4458C129.452 91.3855 129.776 91.3153 130.032 91.2349C130.288 91.1345 130.493 91.0542 130.646 90.994C130.8 90.9137 130.953 90.8635 131.107 90.8434C131.175 90.6426 131.252 90.5221 131.337 90.4819C131.422 90.4217 131.516 90.3213 131.618 90.1807C131.584 89.8996 131.525 89.6185 131.439 89.3373C131.371 89.0361 131.294 88.7651 131.209 88.5241C131.124 88.2631 131.038 88.0422 130.953 87.8614C130.885 87.6807 130.851 87.5703 130.851 87.5301C130.731 87.5301 130.629 87.5 130.544 87.4398C130.476 87.3795 130.416 87.3193 130.365 87.259C130.331 87.1988 130.305 87.1386 130.288 87.0783C130.271 87.0181 130.254 86.988 130.237 86.988C130.049 86.988 129.904 86.9377 129.802 86.8373C129.734 86.7972 129.682 86.747 129.648 86.6867C129.375 86.6867 129.162 86.6466 129.009 86.5663C128.855 86.4859 128.685 86.4458 128.497 86.4458C128.071 86.6265 127.61 86.757 127.115 86.8373C126.638 86.9177 126.211 87.0884 125.836 87.3494C125.631 87.5502 125.444 87.741 125.273 87.9217C125.103 88.1024 124.949 88.3032 124.813 88.5241C124.676 88.745 124.531 88.9859 124.378 89.247C124.224 89.508 124.071 89.8193 123.917 90.1807C123.832 90.3414 123.772 90.502 123.738 90.6627C123.721 90.8233 123.704 90.9839 123.687 91.1446C123.687 91.4458 123.696 91.747 123.713 92.0482C123.747 92.3293 123.866 92.6506 124.071 93.012C124.156 93.0924 124.224 93.1827 124.275 93.2831C124.344 93.3835 124.378 93.4337 124.378 93.4337L124.531 93.5843C124.565 93.5843 124.591 93.6446 124.608 93.7651C124.642 93.8655 124.668 93.9157 124.685 93.9157H125.145C125.35 94.0562 125.512 94.1767 125.631 94.2771C125.751 94.3574 125.862 94.4177 125.964 94.4578C126.066 94.4779 126.177 94.498 126.297 94.5181C126.416 94.5382 126.57 94.5482 126.757 94.5482C126.86 94.5482 126.962 94.5482 127.064 94.5482C127.184 94.5281 127.303 94.5181 127.422 94.5181C127.525 94.5181 127.636 94.5181 127.755 94.5181C127.874 94.5181 128.019 94.5382 128.19 94.5783C128.565 94.5783 128.872 94.5582 129.111 94.5181C129.367 94.4578 129.614 94.3875 129.853 94.3072C130.109 94.2269 130.373 94.1566 130.646 94.0964C130.936 94.0361 131.286 93.996 131.695 93.9759C131.798 93.9357 131.917 93.8454 132.053 93.7048C132.207 93.5442 132.284 93.4438 132.284 93.4036C132.284 93.3434 132.241 93.3133 132.156 93.3133H132.284Z" fill="#56321E"/>
<path d="M142.732 84.8193L141.76 83.012L141.427 83.1325L139.713 84.759L138.946 86.3253L138.408 86.9277V84.8494L137.717 83.1024H136.234L135.824 83.6446V91.3554L135.696 91.6867L135.747 92.4699L138.562 92.1988L138.997 91.8976V91.2952L139.125 90.3313L138.997 88.7349C139.116 88.6345 139.21 88.5141 139.278 88.3735C139.363 88.2329 139.449 88.0924 139.534 87.9518C139.636 87.8112 139.747 87.6606 139.867 87.5C140.003 87.3193 140.165 87.1486 140.353 86.988L141.53 85.9337C141.717 85.7731 141.905 85.6024 142.093 85.4217C142.297 85.241 142.51 85.0402 142.732 84.8193Z" fill="#56321E"/>
<path d="M162.142 90.1506L161.63 88.9759C161.443 88.5542 161.221 88.1827 160.965 87.8614C160.726 87.5402 160.343 87.1988 159.814 86.8373H159.456L159.046 86.506H157.051L156.027 86.8675L157.511 84.0964L157.537 83.7349L157.997 83.1928L158.688 81.8072L158.995 80.9639L156.872 80L156.565 80.0301L154.39 84.1566L153.776 85.0904L152.88 88.0723L152.752 89.8193C152.735 89.9197 152.727 90.0301 152.727 90.1506C152.727 90.251 152.727 90.3514 152.727 90.4518C152.727 90.9137 152.761 91.3655 152.829 91.8072C152.897 92.2289 152.991 92.6205 153.111 92.9819C153.23 93.3434 153.375 93.6546 153.546 93.9157C153.716 94.1767 153.912 94.3574 154.134 94.4578C154.253 94.5382 154.39 94.6185 154.543 94.6988C154.697 94.7791 154.867 94.8695 155.055 94.9699L155.669 95.3313H157.179H158.739L160.735 94.3675L162.04 92.5301L162.142 90.1506ZM158.944 91.9578L157.614 92.5301L156.334 91.6867L155.925 90.994L156.36 89.7892L157.332 89.5783C157.434 89.5181 157.597 89.488 157.818 89.488C158.347 89.488 158.773 89.6084 159.098 89.8494C159.422 90.0904 159.584 90.3916 159.584 90.753C159.584 91.0141 159.507 91.245 159.353 91.4458C159.2 91.6466 159.063 91.8173 158.944 91.9578Z" fill="#56321E"/>
<path d="M171.159 87.5904L171.824 87.5602C171.909 87.6004 171.986 87.6305 172.054 87.6506C172.122 87.6707 172.216 87.6807 172.336 87.6807C172.404 87.6807 172.472 87.6707 172.54 87.6506C172.626 87.6305 172.702 87.6104 172.771 87.5904C172.856 87.5703 172.958 87.5602 173.078 87.5602C173.214 87.5402 173.385 87.5301 173.589 87.5301C173.658 87.5301 173.717 87.5402 173.768 87.5602C173.837 87.5602 173.888 87.5602 173.922 87.5602C173.939 87.5602 173.956 87.5602 173.973 87.5602C174.007 87.5602 174.075 87.5201 174.178 87.4398C174.093 87.4398 174.05 87.3695 174.05 87.2289C174.05 87.2088 174.058 87.1486 174.075 87.0482C174.092 86.9478 174.101 86.8775 174.101 86.8373C174.084 86.8373 174.075 86.7871 174.075 86.6867C174.075 86.6064 174.092 86.5462 174.127 86.506C174.007 86.4056 173.948 86.3052 173.948 86.2048C173.948 86.0843 173.913 85.9639 173.845 85.8434C173.743 85.8835 173.666 85.9036 173.615 85.9036C173.496 85.9036 173.41 85.9036 173.359 85.9036C173.325 85.8835 173.282 85.8635 173.231 85.8434C173.18 85.8233 173.086 85.8133 172.95 85.8133C172.83 85.7932 172.626 85.7731 172.336 85.753C172.131 85.7329 171.884 85.7129 171.594 85.6928C171.304 85.6727 170.988 85.6426 170.647 85.6024L170.391 82.259L170.161 81.8675L168.472 82.0482L168.063 82.741L167.986 85.4518C167.747 85.4518 167.517 85.4518 167.295 85.4518C167.074 85.4317 166.86 85.4217 166.656 85.4217C166.485 85.4819 166.391 85.512 166.374 85.512C166.221 85.512 166.084 85.512 165.965 85.512C165.846 85.512 165.726 85.492 165.607 85.4518H165.197L164.814 85.8434C164.814 86.004 164.814 86.1847 164.814 86.3855C164.814 86.5863 164.822 86.7871 164.839 86.988C164.873 87.1888 164.916 87.3695 164.967 87.5301C165.018 87.6707 165.087 87.761 165.172 87.8012L165.376 88.012C165.547 88.012 165.675 88.012 165.76 88.012C165.846 87.992 165.999 87.9618 166.221 87.9217C166.238 87.8815 166.315 87.8614 166.451 87.8614C166.553 87.8614 166.656 87.8715 166.758 87.8916C166.877 87.9116 166.954 87.9317 166.988 87.9518C167.04 87.9518 167.091 87.9518 167.142 87.9518C167.21 87.9317 167.278 87.9217 167.347 87.9217L167.705 87.8916L167.602 88.494V92.4096L167.705 94.1265L167.986 94.8193L168.626 94.6988L170.724 94.8795L172.157 94.6386C172.259 94.2972 172.31 93.9558 172.31 93.6145C172.31 93.2731 172.259 92.9116 172.157 92.5301L171.159 91.8976V87.5904Z" fill="#56321E"/>
<path d="M184.94 86.4458C184.838 86.4056 184.744 86.3655 184.659 86.3253C184.573 86.2851 184.488 86.255 184.403 86.2349L183.865 86.0241H180.693L180.59 85.753V80.6024L179.158 80.4217L178.672 80.6627L178.288 85.4518L177.955 86.9578L177.52 92.8012L177.751 94.3072H180.156L180.795 94.1265V87.741L181.307 87.6506L182.612 87.5602C182.816 87.6205 182.987 87.7108 183.123 87.8313C183.277 87.9518 183.396 88.0823 183.482 88.2229C183.567 88.3635 183.627 88.494 183.661 88.6145C183.712 88.7349 183.746 88.8353 183.763 88.9157C183.797 89.0361 183.84 89.1466 183.891 89.247C183.942 89.3273 183.968 89.4478 183.968 89.6084C183.968 89.6888 183.968 89.7892 183.968 89.9096C183.968 90.01 183.959 90.1506 183.942 90.3313L184.07 90.3614L183.942 90.8735V92.9819L183.789 93.6145L184.019 94.3976H185.068L185.733 94.5482L186.961 93.7952V92.8313L186.987 92.4398L186.475 88.2229C186.253 88.0622 186.083 87.9016 185.963 87.741C185.861 87.5602 185.759 87.3896 185.656 87.2289C185.571 87.0482 185.477 86.8875 185.375 86.747C185.273 86.6064 185.128 86.506 184.94 86.4458Z" fill="#56321E"/>
<path d="M189.266 95.1506L189.394 97.2892L190.775 97.5904L190.468 99.8795L191.338 100L191.85 99.6988L192.157 98.0422V95.9639L192.029 94.1867H190.212L189.394 94.4578L189.266 95.1506Z" fill="#56321E"/>
<path d="M211.68 93.2229V90.7831L210.938 90.6627L209.71 90.753L208.149 90.6325L206.537 90.9639L207.356 90.3012L208.303 89.1566L210.043 86.747L210.964 84.0663V83.3735L210.81 82.5602L210.222 81.8976L209.096 81.3253L208.431 81.0843L204.9 80.753C204.559 80.7932 204.277 80.8434 204.056 80.9036C203.851 80.9438 203.612 80.9639 203.339 80.9639C203.271 81.1647 203.211 81.3855 203.16 81.6265C203.126 81.8474 203.109 82.0783 203.109 82.3193C203.109 82.5803 203.126 82.8414 203.16 83.1024C203.211 83.3635 203.254 83.5944 203.288 83.7952L203.646 84.2169L204.414 84.3373H206.461L208.328 84.9096L208.431 85.6024L205.668 88.9157L202.904 90.8735L202.623 91.8675V93.9157L203.135 94.3373L205.105 94.0663L206.256 94.1265H211.347L211.68 93.2229Z" fill="#56321E"/>
<path d="M226.715 84.7892C226.664 84.3876 226.562 84.006 226.408 83.6446C226.255 83.2631 226.076 82.9217 225.871 82.6205C225.683 82.3193 225.47 82.0482 225.231 81.8072C225.009 81.5462 224.796 81.3153 224.592 81.1145C224.063 81.1145 223.508 81.0743 222.929 80.994C222.349 80.8936 221.82 80.8434 221.342 80.8434C221.172 80.9237 221.027 80.9739 220.907 80.994C220.788 81.0141 220.677 81.0241 220.575 81.0241C220.472 81.0241 220.379 81.0341 220.293 81.0542C220.225 81.0743 220.14 81.1245 220.037 81.2048C219.918 81.245 219.816 81.2651 219.73 81.2651H219.705C219.381 81.4458 219.133 81.6265 218.963 81.8072C218.792 81.988 218.63 82.1687 218.477 82.3494C218.34 82.5301 218.178 82.7108 217.991 82.8916C217.803 83.0723 217.539 83.253 217.197 83.4337C217.197 83.5944 217.189 83.7048 217.172 83.7651C217.155 83.8253 217.087 83.8554 216.967 83.8554L215.79 85.8735C215.773 86.0341 215.748 86.2249 215.714 86.4458C215.696 86.6466 215.671 86.8474 215.637 87.0482C215.603 87.249 215.577 87.4398 215.56 87.6205C215.543 87.8012 215.534 87.9217 215.534 87.9819C215.551 88.6647 215.586 89.2068 215.637 89.6084C215.688 89.99 215.748 90.3313 215.816 90.6325C215.884 90.9137 215.961 91.2149 216.046 91.5361C216.131 91.8373 216.208 92.239 216.276 92.741C216.311 92.8012 216.362 92.8815 216.43 92.9819C216.515 93.0622 216.609 93.1426 216.711 93.2229L217.146 93.7349C217.453 93.9357 217.709 94.0863 217.914 94.1867C218.119 94.2671 218.323 94.3273 218.528 94.3675C218.733 94.4076 218.963 94.4377 219.219 94.4578C219.475 94.4779 219.79 94.5281 220.165 94.6084C220.353 94.6687 220.549 94.6988 220.754 94.6988C221.061 94.6988 221.351 94.6687 221.624 94.6084C221.897 94.5482 222.076 94.5181 222.161 94.5181H222.238C222.289 94.4779 222.383 94.4377 222.519 94.3976C222.656 94.3373 222.767 94.257 222.852 94.1566C223.074 93.8956 223.312 93.6546 223.568 93.4337C223.841 93.1928 224.105 92.9518 224.361 92.7108C224.634 92.4699 224.882 92.1888 225.103 91.8675C225.342 91.5261 225.538 91.1145 225.692 90.6325C225.726 90.492 225.769 90.3414 225.82 90.1807C225.871 90 225.99 89.6988 226.178 89.2771C226.229 89.2771 226.289 89.1365 226.357 88.8554C226.425 88.5743 226.485 88.243 226.536 87.8614C226.604 87.4799 226.655 87.0984 226.69 86.7169C226.741 86.3153 226.766 85.994 226.766 85.753C226.766 85.5924 226.758 85.4418 226.741 85.3012C226.741 85.1406 226.732 84.9699 226.715 84.7892ZM224.182 86.2952C224.131 86.4558 224.054 86.7068 223.952 87.0482C223.867 87.3695 223.773 87.6908 223.671 88.012C223.568 88.3333 223.449 88.6245 223.312 88.8855C223.193 89.1466 223.065 89.2871 222.929 89.3072L222.673 90C222.69 90.0602 222.536 90.2209 222.212 90.4819C221.905 90.7229 221.393 90.9036 220.677 91.0241C220.217 90.9036 219.858 90.7831 219.602 90.6627C219.347 90.5422 219.15 90.4116 219.014 90.2711C218.895 90.1305 218.809 89.9799 218.758 89.8193C218.707 89.6586 218.639 89.4779 218.553 89.2771C218.4 89.0361 218.323 88.8554 218.323 88.7349C218.323 88.4337 218.349 88.1526 218.4 87.8916C218.451 87.6305 218.511 87.3394 218.579 87.0181L219.116 85.8133C219.253 85.6928 219.347 85.5924 219.398 85.512C219.449 85.4317 219.483 85.3514 219.5 85.2711C219.534 85.1908 219.551 85.1305 219.551 85.0904C219.568 85.0301 219.594 84.9498 219.628 84.8494L220.575 84.3675C220.745 84.2671 220.899 84.1767 221.035 84.0964C221.189 83.996 221.368 83.8956 221.573 83.7952C221.931 83.8755 222.332 83.9357 222.775 83.9759C222.997 84.2369 223.193 84.4779 223.364 84.6988C223.551 84.8996 223.764 85.1004 224.003 85.3012C224.003 85.4016 224.029 85.5622 224.08 85.7831C224.148 86.004 224.182 86.1747 224.182 86.2952Z" fill="#56321E"/>
<path d="M239.914 93.2229V90.7831L239.172 90.6627L237.944 90.753L236.383 90.6325L234.771 90.9639L235.59 90.3012L236.536 89.1566L238.276 86.747L239.197 84.0663V83.3735L239.044 82.5602L238.455 81.8976L237.33 81.3253L236.664 81.0843L233.134 80.753C232.793 80.7932 232.511 80.8434 232.289 80.9036C232.085 80.9438 231.846 80.9639 231.573 80.9639C231.505 81.1647 231.445 81.3855 231.394 81.6265C231.36 81.8474 231.343 82.0783 231.343 82.3193C231.343 82.5803 231.36 82.8414 231.394 83.1024C231.445 83.3635 231.488 83.5944 231.522 83.7952L231.88 84.2169L232.648 84.3373H234.694L236.562 84.9096L236.664 85.6024L233.901 88.9157L231.138 90.8735L230.857 91.8675V93.9157L231.368 94.3373L233.338 94.0663L234.49 94.1265H239.581L239.914 93.2229Z" fill="#56321E"/>
<path d="M254.949 84.7892C254.898 84.3876 254.795 84.006 254.642 83.6446C254.488 83.2631 254.309 82.9217 254.105 82.6205C253.917 82.3193 253.704 82.0482 253.465 81.8072C253.243 81.5462 253.03 81.3153 252.825 81.1145C252.296 81.1145 251.742 81.0743 251.162 80.994C250.582 80.8936 250.054 80.8434 249.576 80.8434C249.405 80.9237 249.26 80.9739 249.141 80.994C249.022 81.0141 248.911 81.0241 248.808 81.0241C248.706 81.0241 248.612 81.0341 248.527 81.0542C248.459 81.0743 248.373 81.1245 248.271 81.2048C248.152 81.245 248.049 81.2651 247.964 81.2651H247.938C247.614 81.4458 247.367 81.6265 247.197 81.8072C247.026 81.988 246.864 82.1687 246.71 82.3494C246.574 82.5301 246.412 82.7108 246.224 82.8916C246.037 83.0723 245.772 83.253 245.431 83.4337C245.431 83.5944 245.423 83.7048 245.406 83.7651C245.389 83.8253 245.32 83.8554 245.201 83.8554L244.024 85.8735C244.007 86.0341 243.981 86.2249 243.947 86.4458C243.93 86.6466 243.905 86.8474 243.87 87.0482C243.836 87.249 243.811 87.4398 243.794 87.6205C243.777 87.8012 243.768 87.9217 243.768 87.9819C243.785 88.6647 243.819 89.2068 243.87 89.6084C243.922 89.99 243.981 90.3313 244.05 90.6325C244.118 90.9137 244.195 91.2149 244.28 91.5361C244.365 91.8373 244.442 92.239 244.51 92.741C244.544 92.8012 244.595 92.8815 244.664 92.9819C244.749 93.0622 244.843 93.1426 244.945 93.2229L245.38 93.7349C245.687 93.9357 245.943 94.0863 246.148 94.1867C246.352 94.2671 246.557 94.3273 246.762 94.3675C246.966 94.4076 247.197 94.4377 247.452 94.4578C247.708 94.4779 248.024 94.5281 248.399 94.6084C248.587 94.6687 248.783 94.6988 248.987 94.6988C249.295 94.6988 249.584 94.6687 249.857 94.6084C250.13 94.5482 250.309 94.5181 250.395 94.5181H250.471C250.523 94.4779 250.616 94.4377 250.753 94.3976C250.889 94.3373 251 94.257 251.085 94.1566C251.307 93.8956 251.546 93.6546 251.802 93.4337C252.075 93.1928 252.339 92.9518 252.595 92.7108C252.868 92.4699 253.115 92.1888 253.337 91.8675C253.576 91.5261 253.772 91.1145 253.925 90.6325C253.96 90.492 254.002 90.3414 254.053 90.1807C254.105 90 254.224 89.6988 254.412 89.2771C254.463 89.2771 254.522 89.1365 254.591 88.8554C254.659 88.5743 254.719 88.243 254.77 87.8614C254.838 87.4799 254.889 87.0984 254.923 86.7169C254.974 86.3153 255 85.994 255 85.753C255 85.5924 254.991 85.4418 254.974 85.3012C254.974 85.1406 254.966 84.9699 254.949 84.7892ZM252.416 86.2952C252.365 86.4558 252.288 86.7068 252.186 87.0482C252.1 87.3695 252.007 87.6908 251.904 88.012C251.802 88.3333 251.682 88.6245 251.546 88.8855C251.427 89.1466 251.299 89.2871 251.162 89.3072L250.906 90C250.923 90.0602 250.77 90.2209 250.446 90.4819C250.139 90.7229 249.627 90.9036 248.911 91.0241C248.45 90.9036 248.092 90.7831 247.836 90.6627C247.58 90.5422 247.384 90.4116 247.248 90.2711C247.128 90.1305 247.043 89.9799 246.992 89.8193C246.941 89.6586 246.872 89.4779 246.787 89.2771C246.634 89.0361 246.557 88.8554 246.557 88.7349C246.557 88.4337 246.582 88.1526 246.634 87.8916C246.685 87.6305 246.745 87.3394 246.813 87.0181L247.35 85.8133C247.486 85.6928 247.58 85.5924 247.631 85.512C247.683 85.4317 247.717 85.3514 247.734 85.2711C247.768 85.1908 247.785 85.1305 247.785 85.0904C247.802 85.0301 247.828 84.9498 247.862 84.8494L248.808 84.3675C248.979 84.2671 249.132 84.1767 249.269 84.0964C249.422 83.996 249.602 83.8956 249.806 83.7952C250.164 83.8755 250.565 83.9357 251.009 83.9759C251.23 84.2369 251.427 84.4779 251.597 84.6988C251.785 84.8996 251.998 85.1004 252.237 85.3012C252.237 85.4016 252.262 85.5622 252.314 85.7831C252.382 86.004 252.416 86.1747 252.416 86.2952Z" fill="#56321E"/>
</g>
<defs>
<filter id="filter0_i" x="64" y="35" width="174" height="40" filterUnits="userSpaceOnUse" color-interpolation-filters="sRGB">
<feFlood flood-opacity="0" result="BackgroundImageFix"/>
<feBlend mode="normal" in="SourceGraphic" in2="BackgroundImageFix" result="shape"/>
<feColorMatrix in="SourceAlpha" type="matrix" values="0 0 0 0 0 0 0 0 0 0 0 0 0 0 0 0 0 0 127 0" result="hardAlpha"/>
<feOffset dy="1"/>
<feGaussianBlur stdDeviation="0.5"/>
<feComposite in2="hardAlpha" operator="arithmetic" k2="-1" k3="1"/>
<feColorMatrix type="matrix" values="0 0 0 0 0 0 0 0 0 0 0 0 0 0 0 0 0 0 0.3 0"/>
<feBlend mode="normal" in2="shape" result="effect1_innerShadow"/>
</filter>
<filter id="filter1_i" x="47" y="80" width="208" height="21" filterUnits="userSpaceOnUse" color-interpolation-filters="sRGB">
<feFlood flood-opacity="0" result="BackgroundImageFix"/>
<feBlend mode="normal" in="SourceGraphic" in2="BackgroundImageFix" result="shape"/>
<feColorMatrix in="SourceAlpha" type="matrix" values="0 0 0 0 0 0 0 0 0 0 0 0 0 0 0 0 0 0 127 0" result="hardAlpha"/>
<feOffset dy="1"/>
<feGaussianBlur stdDeviation="0.5"/>
<feComposite in2="hardAlpha" operator="arithmetic" k2="-1" k3="1"/>
<feColorMatrix type="matrix" values="0 0 0 0 0 0 0 0 0 0 0 0 0 0 0 0 0 0 0.3 0"/>
<feBlend mode="normal" in2="shape" result="effect1_innerShadow"/>
</filter>
</defs>
</svg>
