<svg width="319" height="51" viewBox="0 0 319 51" fill="none" xmlns="http://www.w3.org/2000/svg">
<g filter="url(#filter0_d)">
<path d="M315 5.49544L313.703 1.2998H5.33428V6.3945L17.5238 16.8836L4.29688 39.6599V42.6568H312.407L313.185 39.6599L303.589 24.9752L315 5.49544Z" fill="#785340"/>
<path d="M6.61876 4.44797C5.31182 3.20271 6.19319 1 7.99839 1H311.574C313.044 1 314.011 2.53236 313.38 3.85955L303.842 23.8971C303.526 24.5611 303.6 25.3449 304.034 25.9383L312.411 37.3772C313.378 38.6984 312.435 40.5588 310.797 40.5588H6.47307C4.93148 40.5588 3.96946 38.8883 4.74323 37.555L16.9915 16.4493C17.4557 15.6494 17.3109 14.6355 16.6413 13.9975L6.61876 4.44797Z" fill="#AD795E"/>
<path d="M14.4108 21.3787C21.787 22.2719 36.4496 24.8772 37.9869 26.2912C43.5708 31.427 12.6344 32.1674 8.70508 32.1674" stroke="#CC9477"/>
<path d="M98.9554 40.7486L98.6116 41.1117L99.3377 41.7993L99.6815 41.4362L98.9554 40.7486ZM148.447 35.1063L148.598 35.583L148.447 35.1063ZM174.901 35.1063L175.029 35.5898L174.901 35.1063ZM215.421 33.9978L215.469 34.4955L215.421 33.9978ZM252.793 35.1063L252.893 35.5962L252.793 35.1063ZM16.147 42.2243C18.4565 41.3375 22.7954 39.6774 26.9542 38.2394C29.034 37.5202 31.0629 36.8586 32.7672 36.3774C34.4934 35.89 35.8249 35.6063 36.543 35.6063V34.6063C35.6655 34.6063 34.2046 34.9324 32.4955 35.415C30.7645 35.9037 28.715 36.5724 26.6274 37.2943C22.451 38.7384 18.098 40.4039 15.7885 41.2908L16.147 42.2243ZM36.543 35.6063C37.4553 35.6063 39.1304 35.9976 41.2426 36.6249C43.3306 37.245 45.7751 38.0731 48.19 38.9047C50.5999 39.7346 52.9829 40.5687 54.9315 41.1943C55.906 41.5072 56.7794 41.7705 57.4986 41.9559C58.2023 42.1374 58.806 42.2575 59.2177 42.2575V41.2575C58.9471 41.2575 58.4552 41.1699 57.7483 40.9876C57.0568 40.8093 56.2047 40.5529 55.2372 40.2422C53.3017 39.6208 50.9344 38.7921 48.5155 37.9592C46.1016 37.1279 43.6384 36.2933 41.5274 35.6663C39.4406 35.0465 37.6253 34.6063 36.543 34.6063V35.6063ZM99.6815 41.4362C99.6231 41.4979 99.5701 41.5157 99.5942 41.505C99.6034 41.5009 99.628 41.4912 99.6741 41.4771C99.7652 41.4491 99.9021 41.415 100.089 41.3755C100.46 41.2971 100.99 41.2053 101.66 41.102C103 40.8958 104.875 40.648 107.115 40.3728C111.592 39.8224 117.507 39.1646 123.465 38.5133C129.421 37.8622 135.419 37.2176 140.059 36.6944C142.379 36.4328 144.362 36.2012 145.831 36.0141C146.565 35.9206 147.174 35.8379 147.634 35.7677C148.076 35.7002 148.422 35.6388 148.598 35.583L148.296 34.6297C148.21 34.6571 147.948 34.7082 147.483 34.7792C147.035 34.8475 146.436 34.929 145.705 35.0222C144.243 35.2083 142.266 35.4392 139.947 35.7007C135.31 36.2237 129.315 36.8678 123.356 37.5192C117.399 38.1704 111.478 38.829 106.993 39.3802C104.751 39.6558 102.864 39.9051 101.508 40.1137C100.832 40.2178 100.281 40.3129 99.8821 40.3972C99.6839 40.439 99.5135 40.4803 99.3805 40.5211C99.3145 40.5414 99.2478 40.5646 99.1872 40.5916C99.1414 40.6119 99.04 40.6592 98.9554 40.7486L99.6815 41.4362ZM148.598 35.583C148.675 35.5587 148.83 35.5304 149.085 35.5078C149.331 35.4859 149.642 35.4714 150.013 35.4638C150.754 35.4486 151.71 35.4614 152.822 35.4919C155.047 35.553 157.86 35.6844 160.761 35.8001C163.657 35.9157 166.636 36.0154 169.173 36.0119C171.688 36.0084 173.835 35.9047 175.029 35.5898L174.773 34.6229C173.726 34.8994 171.709 35.0084 169.172 35.0119C166.657 35.0154 163.696 34.9164 160.801 34.8009C157.911 34.6856 155.082 34.5536 152.85 34.4923C151.733 34.4616 150.758 34.4483 149.992 34.464C149.61 34.4718 149.274 34.487 148.997 34.5117C148.728 34.5356 148.482 34.5708 148.296 34.6297L148.598 35.583ZM175.029 35.5898C181.669 33.8368 188.847 33.8325 195.848 34.1371C202.817 34.4403 209.65 35.0542 215.469 34.4955L215.374 33.5001C209.646 34.0499 202.936 33.4445 195.892 33.138C188.878 32.8329 181.57 32.8286 174.773 34.6229L175.029 35.5898ZM215.469 34.4955C216.993 34.3492 219.668 34.4233 222.965 34.6033C226.25 34.7827 230.108 35.0643 233.985 35.324C237.858 35.5833 241.747 35.8206 245.077 35.9095C248.39 35.9979 251.202 35.9419 252.893 35.5962L252.693 34.6165C251.13 34.9359 248.427 34.9986 245.103 34.9098C241.796 34.8215 237.924 34.5855 234.052 34.3262C230.184 34.0672 226.312 33.7846 223.019 33.6048C219.737 33.4256 216.986 33.3453 215.374 33.5001L215.469 34.4955ZM252.893 35.5962C254.472 35.2734 256.952 35.1073 259.899 35.0276C262.836 34.9482 266.2 34.9551 269.534 34.9689C272.864 34.9828 276.165 35.0036 278.961 34.9515C281.742 34.8997 284.072 34.7756 285.439 34.487L285.232 33.5086C283.974 33.7743 281.738 33.8996 278.942 33.9517C276.161 34.0035 272.874 33.9828 269.539 33.9689C266.206 33.9551 262.827 33.9481 259.872 34.028C256.927 34.1077 254.367 34.2742 252.693 34.6165L252.893 35.5962ZM285.439 34.487C288.116 33.9215 291.692 32.3996 295.255 30.999C298.862 29.5808 302.467 28.282 305.318 28.0669L305.243 27.0698C302.216 27.2981 298.472 28.6598 294.889 30.0683C291.261 31.4944 287.803 32.9656 285.232 33.5086L285.439 34.487Z" fill="#CC9477"/>
<path d="M19.5986 1C37.7526 4.29083 75.2337 10.9164 79.9258 11.0919C85.7909 11.3113 117.211 11.0919 125.171 11.0919C133.131 11.0919 156.801 5.16839 162.457 4.51022C168.112 3.85206 177.538 4.51022 185.079 4.51022C192.62 4.51022 212.729 8.45923 217.128 7.58167C221.527 6.70411 243.521 7.14289 249.805 5.82656C256.089 4.51022 265.934 5.82656 274.313 5.82656C282.692 5.82656 300.706 6.26534 305.524 4.51022C309.378 3.10613 312.496 2.94439 313.963 2.79813" stroke="#CC9477"/>
<path d="M10.2617 6.39453C23.9064 7.17778 47.3766 12.4107 61.1472 17.4861C78.3605 23.8304 129.489 20.6485 133.359 20.0708C139.657 19.1309 159.389 12.3167 168.415 12.3167C177.442 12.3167 203.052 15.6063 207.04 15.6063C211.029 15.6063 238.738 14.4314 243.776 14.1965C248.814 13.9615 264.348 14.1965 270.855 14.9014C277.363 15.6063 291.217 13.0216 292.267 13.2566C293.317 13.4915 307.355 13.2566 309.035 13.2566" stroke="#CC9477"/>
<path d="M14.9297 12.0884C26.5066 12.6892 39.1949 17.3405 45.0531 22.7478C52.3759 29.5069 60.1171 33.5624 68.486 34.4636C76.8548 35.3648 86.4791 29.9575 95.4756 30.1828C104.472 30.4081 138.575 28.831 146.944 27.7044C155.313 26.5779 174.771 22.7478 180.001 22.7478C185.232 22.7478 217.034 24.3249 223.31 25.0008C229.587 25.6767 242.559 22.7478 248.417 22.7478C254.275 22.7478 279.172 22.7478 281.683 22.7478C284.194 22.7478 291.517 20.0441 296.329 20.0441C300.178 20.0441 300.092 20.0441 304.625 20.0441" stroke="#CC9477"/>
<g filter="url(#filter1_i)">
<path d="M49.3897 13.1131L48.3493 13.4213L47.7759 13.1816H42.1276L41.6816 13.6952V28.8969L43.0831 29.1023L45.2066 28.5887L45.2915 26.6371L44.9305 25.3703L44.7394 22.152H45.8224L47.4362 21.7069L47.8184 21.8781H48.5404L48.7315 21.3303L48.8376 20.5085L48.5404 20.3031L46.969 19.8923H44.6969L44.5271 19.3787V16.1946L44.4634 16.0234L44.6545 15.7495L45.4401 15.9549L45.4826 16.3315L45.5251 16.3657L45.8861 15.9549H49.1986L49.5384 15.2017L49.3897 13.1131Z" fill="#56321E"/>
<path d="M58.9915 17.6326L58.1846 15.5783L57.9086 15.7152L56.4859 17.5641L55.8488 19.3444L55.4029 20.0292V17.6668L54.8296 15.681H53.598L53.2582 16.2973V25.0622L53.1521 25.4388L53.1945 26.329L55.5303 26.0209L55.8913 25.6785V24.9937L55.9975 23.8981L55.8913 22.0835C55.9904 21.9694 56.0683 21.8324 56.1249 21.6726C56.1957 21.5129 56.2664 21.3531 56.3372 21.1933C56.4222 21.0335 56.5142 20.8623 56.6133 20.6797C56.7265 20.4743 56.861 20.2803 57.0167 20.0977L57.9935 18.8994C58.1492 18.7168 58.305 18.5227 58.4607 18.3173C58.6305 18.1119 58.8075 17.8836 58.9915 17.6326Z" fill="#56321E"/>
<path d="M68.3193 27.2877L68.2556 27.1507C68.2556 27.0366 68.2343 26.9339 68.1919 26.8426C68.1494 26.7284 68.114 26.6029 68.0857 26.466C68.0007 26.466 67.9229 26.5002 67.8521 26.5687C67.7813 26.6143 67.7035 26.6714 67.6185 26.7399C67.5477 26.7855 67.4557 26.8426 67.3425 26.911C67.2434 26.9567 67.116 26.9795 66.9603 26.9795H66.8541C66.6842 27.0023 66.5356 27.0138 66.4082 27.0138C66.2808 27.0138 66.1604 27.0252 66.0472 27.048C65.9339 27.048 65.8207 27.0594 65.7074 27.0822C65.5942 27.0822 65.4597 27.0822 65.304 27.0822C65.035 27.0138 64.858 26.9681 64.7731 26.9453C64.7023 26.8996 64.6669 26.8768 64.6669 26.8768C64.6669 26.8768 64.674 26.8768 64.6882 26.8768C64.7023 26.8768 64.6811 26.854 64.6245 26.8083C64.6103 26.8312 64.5962 26.8426 64.582 26.8426C64.5678 26.8426 64.5537 26.854 64.5395 26.8768C64.5395 26.8768 64.5254 26.8768 64.4971 26.8768C64.3413 26.7855 64.2139 26.717 64.1148 26.6714C64.0299 26.6257 63.9874 26.5458 63.9874 26.4317C63.9874 26.3404 63.9167 26.1806 63.7751 25.9524C63.6477 25.7241 63.584 25.4616 63.584 25.1649C63.584 24.8225 63.6052 24.3888 63.6477 23.8639C63.6901 23.3161 63.7751 22.8824 63.9025 22.5628C64.0157 22.4487 64.2139 22.3232 64.4971 22.1862C64.7802 22.0264 65.0633 21.9465 65.3464 21.9465C65.5163 21.9465 65.6437 21.9922 65.7287 22.0835C65.8278 22.152 65.9056 22.2433 65.9622 22.3574C66.0189 22.4715 66.0472 22.5971 66.0472 22.734C66.0613 22.8481 66.0684 22.9623 66.0684 23.0764C66.0684 23.2362 66.033 23.3503 65.9622 23.4188C65.8915 23.4872 65.8065 23.5329 65.7074 23.5557C65.6083 23.5785 65.5092 23.59 65.4101 23.59C65.311 23.59 65.2261 23.6014 65.1553 23.6242C64.8722 23.7612 64.6386 23.8525 64.4546 23.8981C64.2847 23.9438 64.1856 23.9666 64.1573 23.9666C64.2281 24.0122 64.2776 24.1035 64.3059 24.2405C64.3343 24.3774 64.3555 24.5258 64.3697 24.6856C64.3838 24.8225 64.3909 24.9595 64.3909 25.0964C64.3909 25.2106 64.398 25.2676 64.4121 25.2676C64.9076 25.2676 65.3181 25.2334 65.6437 25.1649C65.9693 25.0964 66.2383 25.0165 66.4506 24.9252C66.663 24.8111 66.8328 24.7198 66.9603 24.6513C67.0877 24.56 67.2151 24.503 67.3425 24.4802C67.3991 24.2519 67.4628 24.1149 67.5336 24.0693C67.6044 24.0008 67.6822 23.8867 67.7672 23.7269C67.7389 23.4074 67.6893 23.0878 67.6185 22.7682C67.5619 22.4259 67.4982 22.1177 67.4274 21.8438C67.3566 21.5471 67.2859 21.296 67.2151 21.0906C67.1584 20.8852 67.1301 20.7596 67.1301 20.714C67.031 20.714 66.9461 20.6797 66.8753 20.6113C66.8187 20.5428 66.7691 20.4743 66.7267 20.4058C66.6984 20.3374 66.6771 20.2689 66.663 20.2004C66.6488 20.1319 66.6347 20.0977 66.6205 20.0977C66.4648 20.0977 66.3445 20.0406 66.2595 19.9265C66.2029 19.8808 66.1604 19.8238 66.1321 19.7553C65.9056 19.7553 65.7287 19.7097 65.6013 19.6184C65.4738 19.5271 65.3323 19.4814 65.1766 19.4814C64.8227 19.6868 64.4404 19.8352 64.0299 19.9265C63.6335 20.0178 63.2796 20.2118 62.9682 20.5085C62.7983 20.7368 62.6426 20.9536 62.501 21.1591C62.3595 21.3645 62.2321 21.5927 62.1188 21.8438C62.0056 22.0949 61.8852 22.3688 61.7578 22.6655C61.6304 22.9623 61.503 23.3161 61.3756 23.7269C61.3048 23.9095 61.2553 24.0921 61.227 24.2747C61.2128 24.4573 61.1986 24.6399 61.1845 24.8225C61.1845 25.1649 61.1916 25.5073 61.2057 25.8497C61.234 26.1692 61.3331 26.5344 61.503 26.9453C61.5738 27.0366 61.6304 27.1393 61.6729 27.2534C61.7295 27.3676 61.7578 27.4246 61.7578 27.4246L61.8852 27.5958C61.9135 27.5958 61.9348 27.6643 61.9489 27.8012C61.9772 27.9154 61.9985 27.9724 62.0126 27.9724H62.3948C62.5647 28.1322 62.6992 28.2692 62.7983 28.3833C62.8974 28.4746 62.9894 28.5431 63.0744 28.5887C63.1593 28.6115 63.2513 28.6344 63.3504 28.6572C63.4495 28.68 63.5769 28.6914 63.7326 28.6914C63.8176 28.6914 63.9025 28.6914 63.9874 28.6914C64.0865 28.6686 64.1856 28.6572 64.2847 28.6572C64.3697 28.6572 64.4617 28.6572 64.5608 28.6572C64.6599 28.6572 64.7802 28.68 64.9217 28.7257C65.2332 28.7257 65.488 28.7028 65.6862 28.6572C65.8985 28.5887 66.1038 28.5088 66.302 28.4175C66.5143 28.3262 66.7338 28.2463 66.9603 28.1779C67.2009 28.1094 67.4911 28.0637 67.8309 28.0409C67.9158 27.9952 68.0149 27.8925 68.1282 27.7328C68.2556 27.5502 68.3193 27.436 68.3193 27.3904C68.3193 27.3219 68.2839 27.2877 68.2131 27.2877H68.3193Z" fill="#56321E"/>
<path d="M77.8404 30.643V24.2747L77.5856 21.6726L77.352 20.5428L77.1609 16.263L76.9486 14.7908L76.1417 14.962L75.993 14.6881H75.6533L73.7422 14.4484C73.7139 14.6538 73.6218 14.7794 73.4661 14.825C73.3104 14.8707 73.1476 14.9049 72.9777 14.9277C72.8079 14.9506 72.6521 14.962 72.5106 14.962C72.369 14.962 72.2912 14.9962 72.277 15.0647C71.3993 15.681 70.734 16.4799 70.281 17.4614C69.8421 18.42 69.6227 19.6298 69.6227 21.0906V21.433C69.8917 22.1634 70.2173 22.7682 70.5995 23.2476C70.9959 23.7269 71.4064 24.0807 71.8311 24.309L74.1456 25.5758C74.3013 25.7355 74.4429 25.8497 74.5703 25.9181C74.7119 25.9638 74.8676 26.0094 75.0375 26.0551L74.9738 26.6714V28.9996V30.5745L75.3985 31.1223H77.0335L77.2671 31.4305H77.6068L77.8404 30.643ZM75.3135 17.6326V19.9607L75.1649 21.5357V22.4601H74.8676L71.8948 21.5014L71.1303 19.8238C71.2011 19.3216 71.3214 18.9564 71.4913 18.7282C71.6754 18.4999 71.8806 18.3401 72.1071 18.2488C72.3478 18.1575 72.5955 18.1005 72.8503 18.0776C73.1193 18.0548 73.3741 17.9863 73.6148 17.8722C73.8413 17.7581 74.0324 17.6782 74.1881 17.6326C74.3438 17.5869 74.4995 17.5641 74.6553 17.5641C74.7543 17.5641 74.8534 17.5755 74.9525 17.5983C75.0658 17.5983 75.1861 17.6097 75.3135 17.6326Z" fill="#56321E"/>
<path d="M86.6139 20.3374L85.9769 16.7766L84.9151 16.4L84.5966 16.6739V22.2547L84.3418 22.5286H83.9808L82.8979 23.1106L82.6643 22.9737L82.5794 22.4601L82.4095 22.0493V18.2831L82.0485 16.5027H80.4559L80.1162 16.6739L79.9463 18.8994L80.3073 20.0634L80.0737 23.7954L80.5408 25.6785L81.0505 25.9524L81.645 26.5687L82.1122 26.329L82.1971 26.0893L82.9403 26.2263L83.365 25.8839L84.2144 24.5144L84.4905 24.309L84.7028 24.6513L84.6391 24.891L85.1487 25.4388H86.4228L86.6139 25.028V20.3374Z" fill="#56321E"/>
<path d="M96.8738 27.2877L96.8101 27.1507C96.8101 27.0366 96.7889 26.9339 96.7464 26.8426C96.7039 26.7284 96.6685 26.6029 96.6402 26.466C96.5553 26.466 96.4774 26.5002 96.4066 26.5687C96.3359 26.6143 96.258 26.6714 96.1731 26.7399C96.1023 26.7855 96.0103 26.8426 95.897 26.911C95.7979 26.9567 95.6705 26.9795 95.5148 26.9795H95.4086C95.2387 27.0023 95.0901 27.0138 94.9627 27.0138C94.8353 27.0138 94.715 27.0252 94.6017 27.048C94.4885 27.048 94.3752 27.0594 94.262 27.0822C94.1487 27.0822 94.0142 27.0822 93.8585 27.0822C93.5895 27.0138 93.4126 26.9681 93.3276 26.9453C93.2569 26.8996 93.2215 26.8768 93.2215 26.8768C93.2215 26.8768 93.2285 26.8768 93.2427 26.8768C93.2569 26.8768 93.2356 26.854 93.179 26.8083C93.1648 26.8312 93.1507 26.8426 93.1365 26.8426C93.1224 26.8426 93.1082 26.854 93.0941 26.8768C93.0941 26.8768 93.0799 26.8768 93.0516 26.8768C92.8959 26.7855 92.7685 26.717 92.6694 26.6714C92.5844 26.6257 92.542 26.5458 92.542 26.4317C92.542 26.3404 92.4712 26.1806 92.3296 25.9524C92.2022 25.7241 92.1385 25.4616 92.1385 25.1649C92.1385 24.8225 92.1597 24.3888 92.2022 23.8639C92.2447 23.3161 92.3296 22.8824 92.457 22.5628C92.5703 22.4487 92.7685 22.3232 93.0516 22.1862C93.3347 22.0264 93.6178 21.9465 93.901 21.9465C94.0708 21.9465 94.1982 21.9922 94.2832 22.0835C94.3823 22.152 94.4601 22.2433 94.5168 22.3574C94.5734 22.4715 94.6017 22.5971 94.6017 22.734C94.6159 22.8481 94.6229 22.9623 94.6229 23.0764C94.6229 23.2362 94.5875 23.3503 94.5168 23.4188C94.446 23.4872 94.361 23.5329 94.262 23.5557C94.1629 23.5785 94.0638 23.59 93.9647 23.59C93.8656 23.59 93.7806 23.6014 93.7099 23.6242C93.4267 23.7612 93.1932 23.8525 93.0091 23.8981C92.8392 23.9438 92.7402 23.9666 92.7118 23.9666C92.7826 24.0122 92.8322 24.1035 92.8605 24.2405C92.8888 24.3774 92.91 24.5258 92.9242 24.6856C92.9383 24.8225 92.9454 24.9595 92.9454 25.0964C92.9454 25.2106 92.9525 25.2676 92.9667 25.2676C93.4621 25.2676 93.8727 25.2334 94.1983 25.1649C94.5238 25.0964 94.7928 25.0165 95.0052 24.9252C95.2175 24.8111 95.3874 24.7198 95.5148 24.6513C95.6422 24.56 95.7696 24.503 95.897 24.4802C95.9536 24.2519 96.0173 24.1149 96.0881 24.0693C96.1589 24.0008 96.2368 23.8867 96.3217 23.7269C96.2934 23.4074 96.2438 23.0878 96.1731 22.7682C96.1164 22.4259 96.0527 22.1177 95.9819 21.8438C95.9112 21.5471 95.8404 21.296 95.7696 21.0906C95.713 20.8852 95.6847 20.7596 95.6847 20.714C95.5856 20.714 95.5006 20.6797 95.4298 20.6113C95.3732 20.5428 95.3237 20.4743 95.2812 20.4058C95.2529 20.3374 95.2317 20.2689 95.2175 20.2004C95.2033 20.1319 95.1892 20.0977 95.175 20.0977C95.0193 20.0977 94.899 20.0406 94.8141 19.9265C94.7574 19.8808 94.715 19.8238 94.6866 19.7553C94.4601 19.7553 94.2832 19.7097 94.1558 19.6184C94.0284 19.5271 93.8868 19.4814 93.7311 19.4814C93.3772 19.6868 92.995 19.8352 92.5844 19.9265C92.1881 20.0178 91.8341 20.2118 91.5227 20.5085C91.3528 20.7368 91.1971 20.9536 91.0556 21.1591C90.914 21.3645 90.7866 21.5927 90.6733 21.8438C90.5601 22.0949 90.4398 22.3688 90.3123 22.6655C90.1849 22.9623 90.0575 23.3161 89.9301 23.7269C89.8593 23.9095 89.8098 24.0921 89.7815 24.2747C89.7673 24.4573 89.7532 24.6399 89.739 24.8225C89.739 25.1649 89.7461 25.5073 89.7603 25.8497C89.7886 26.1692 89.8877 26.5344 90.0575 26.9453C90.1283 27.0366 90.1849 27.1393 90.2274 27.2534C90.284 27.3676 90.3123 27.4246 90.3123 27.4246L90.4398 27.5958C90.4681 27.5958 90.4893 27.6643 90.5035 27.8012C90.5318 27.9154 90.553 27.9724 90.5672 27.9724H90.9494C91.1193 28.1322 91.2537 28.2692 91.3528 28.3833C91.4519 28.4746 91.5439 28.5431 91.6289 28.5887C91.7138 28.6115 91.8058 28.6344 91.9049 28.6572C92.004 28.68 92.1314 28.6914 92.2872 28.6914C92.3721 28.6914 92.457 28.6914 92.542 28.6914C92.6411 28.6686 92.7402 28.6572 92.8392 28.6572C92.9242 28.6572 93.0162 28.6572 93.1153 28.6572C93.2144 28.6572 93.3347 28.68 93.4763 28.7257C93.7877 28.7257 94.0425 28.7028 94.2407 28.6572C94.4531 28.5887 94.6583 28.5088 94.8565 28.4175C95.0689 28.3262 95.2883 28.2463 95.5148 28.1779C95.7554 28.1094 96.0456 28.0637 96.3854 28.0409C96.4703 27.9952 96.5694 27.8925 96.6827 27.7328C96.8101 27.5502 96.8738 27.436 96.8738 27.3904C96.8738 27.3219 96.8384 27.2877 96.7676 27.2877H96.8738Z" fill="#56321E"/>
<path d="M105.631 17.3586L105.291 16.9136H103.826L102.594 17.7353L102.106 18.0776L101.66 18.3858L101.001 16.4685H99.515L99.1328 17.3586V18.2146V24.2062L99.4301 25.3361L99.9822 24.9937H100.322L100.64 25.3019L101.66 24.891L101.532 21.6042L101.49 21.5357V20.1662L102.849 19.9265L103.231 19.5841H103.486L103.974 20.714L103.634 24.6856L103.911 25.0622H106.119L106.331 24.6513V20.5428L106.416 19.7553L105.631 17.3586Z" fill="#56321E"/>
<path d="M113.669 20.7824L114.221 20.7482C114.291 20.7939 114.355 20.8281 114.412 20.8509C114.468 20.8737 114.546 20.8852 114.645 20.8852C114.702 20.8852 114.759 20.8737 114.815 20.8509C114.886 20.8281 114.95 20.8053 115.006 20.7824C115.077 20.7596 115.162 20.7482 115.261 20.7482C115.374 20.7254 115.516 20.714 115.686 20.714C115.742 20.714 115.792 20.7254 115.834 20.7482C115.891 20.7482 115.934 20.7482 115.962 20.7482C115.976 20.7482 115.99 20.7482 116.004 20.7482C116.033 20.7482 116.089 20.7026 116.174 20.6113C116.103 20.6113 116.068 20.5314 116.068 20.3716C116.068 20.3488 116.075 20.2803 116.089 20.1662C116.103 20.052 116.111 19.9721 116.111 19.9265C116.096 19.9265 116.089 19.8694 116.089 19.7553C116.089 19.664 116.103 19.5955 116.132 19.5499C116.033 19.4358 115.983 19.3216 115.983 19.2075C115.983 19.0705 115.955 18.9336 115.898 18.7966C115.813 18.8423 115.75 18.8651 115.707 18.8651C115.608 18.8651 115.537 18.8651 115.495 18.8651C115.466 18.8423 115.431 18.8195 115.389 18.7966C115.346 18.7738 115.268 18.7624 115.155 18.7624C115.056 18.7396 114.886 18.7168 114.645 18.6939C114.475 18.6711 114.27 18.6483 114.03 18.6255C113.789 18.6026 113.527 18.5684 113.244 18.5227L113.032 14.7223L112.84 14.2772L111.439 14.4827L111.099 15.2701L111.036 18.3515C110.837 18.3515 110.646 18.3515 110.462 18.3515C110.278 18.3287 110.101 18.3173 109.931 18.3173C109.79 18.3858 109.712 18.42 109.698 18.42C109.57 18.42 109.457 18.42 109.358 18.42C109.259 18.42 109.16 18.3972 109.061 18.3515H108.721L108.402 18.7966C108.402 18.9792 108.402 19.1847 108.402 19.4129C108.402 19.6412 108.41 19.8694 108.424 20.0977C108.452 20.3259 108.487 20.5314 108.53 20.714C108.572 20.8737 108.629 20.9765 108.7 21.0221L108.87 21.2618C109.011 21.2618 109.117 21.2618 109.188 21.2618C109.259 21.239 109.386 21.2047 109.57 21.1591C109.584 21.1134 109.648 21.0906 109.761 21.0906C109.846 21.0906 109.931 21.102 110.016 21.1248C110.115 21.1477 110.179 21.1705 110.207 21.1933C110.25 21.1933 110.292 21.1933 110.335 21.1933C110.391 21.1705 110.448 21.1591 110.505 21.1591L110.802 21.1248L110.717 21.8096V26.2605L110.802 28.2121L111.036 28.9996L111.566 28.8626L113.308 29.068L114.497 28.7941C114.582 28.4061 114.624 28.0181 114.624 27.63C114.624 27.242 114.582 26.8312 114.497 26.3975L113.669 25.6785V20.7824Z" fill="#56321E"/>
<path d="M121.051 17.4956L120.944 17.1875L121.114 16.0918V12.9077L120.859 12.6338L119.224 14.0376L119.055 15.2017V19.6184L118.651 28.6572L118.97 29.1023L120.286 28.9311L120.817 29.205L121.263 28.7257V22.6313V21.3303L121.051 17.4956Z" fill="#56321E"/>
<path d="M127.733 27.1165L125.61 33.7586L125.886 34.5804H126.183L126.417 34.3065H127.882L128.307 33.7586L128.604 32.2179L129.113 30.1637L129.772 28.486L130.027 27.8012V27.1507H129.92L130.218 26.3975L130.791 25.5758L131.428 23.1449L132.086 21.6042L132.553 20.3031L132.808 19.0705V18.42H131.046L130.239 20.0977L129.835 21.5014L129.474 22.2204L129.262 23.1791L129.05 23.3161L128.859 23.6927L128.604 23.8639L126.948 21.6042L126.756 21.1933L125.291 18.5912L125.079 18.4543L123.975 18.6255L123.911 18.9678L125.313 22.6313L125.674 23.7269L127.5 26.5687L127.563 26.911L127.797 27.1165H127.733Z" fill="#56321E"/>
<path d="M149.951 28.4175C149.838 27.5045 149.739 26.6828 149.654 25.9524C149.569 25.1991 149.484 24.4687 149.399 23.7612C149.329 23.0536 149.251 22.3117 149.166 21.5357C149.081 20.7596 148.982 19.9037 148.868 18.9678C148.798 18.8309 148.741 18.6369 148.699 18.3858C148.656 18.1347 148.621 17.8722 148.592 17.5983C148.564 17.3244 148.536 17.0505 148.508 16.7766C148.493 16.4799 148.479 16.2402 148.465 16.0576C148.423 15.6467 148.373 15.1674 148.316 14.6196C148.26 14.0718 148.147 13.5582 147.977 13.0789C147.934 12.9876 147.863 12.8392 147.764 12.6338C147.679 12.4056 147.63 12.2686 147.616 12.2229C147.432 12.2229 147.269 12.2229 147.127 12.2229C146.986 12.2001 146.844 12.1887 146.703 12.1887C146.561 12.1659 146.412 12.1545 146.257 12.1545C146.115 12.1316 145.945 12.1088 145.747 12.086C145.605 12.086 145.492 12.086 145.407 12.086C145.337 12.086 145.259 12.0746 145.174 12.0518C145.117 12.0518 145.06 12.0518 145.004 12.0518H144.855C144.558 12.7365 144.275 13.3756 144.006 13.9691C143.737 14.5397 143.482 15.1104 143.241 15.681C143.001 16.2516 142.767 16.8679 142.541 17.5298C142.328 18.1918 142.123 18.9564 141.925 19.8238C141.741 20.5998 141.564 21.1591 141.394 21.5014C141.238 21.8438 141.125 22.1406 141.054 22.3916C140.899 22.8481 140.771 23.2362 140.672 23.5557C140.587 23.8525 140.474 24.2291 140.332 24.6856L140.014 26.2948C139.957 26.5458 139.9 26.7969 139.844 27.048C139.801 27.2991 139.752 27.573 139.695 27.8697C139.709 28.0751 139.724 28.2463 139.738 28.3833C139.752 28.4974 139.773 28.6344 139.801 28.7941H142.052C142.165 28.3148 142.272 27.8811 142.371 27.4931C142.47 27.1051 142.562 26.7284 142.647 26.3632C142.746 25.9752 142.845 25.5758 142.944 25.1649C143.043 24.7541 143.156 24.2975 143.284 23.7954C143.369 23.6584 143.489 23.5671 143.645 23.5215C143.815 23.4758 143.999 23.453 144.197 23.453C144.395 23.4302 144.6 23.4188 144.813 23.4188C145.039 23.4188 145.244 23.4188 145.429 23.4188C145.726 23.4188 146.023 23.4188 146.32 23.4188C146.632 23.3959 146.936 23.3731 147.233 23.3503C147.262 23.647 147.283 23.9323 147.297 24.2062C147.325 24.4801 147.34 24.6628 147.34 24.7541C147.34 24.8454 147.325 24.9024 147.297 24.9252C147.269 24.9481 147.255 25.0622 147.255 25.2676C147.255 25.8839 147.276 26.4317 147.318 26.911C147.361 27.3676 147.41 27.8697 147.467 28.4175L148.125 28.5202C148.21 28.5431 148.302 28.5659 148.401 28.5887C148.5 28.5887 148.621 28.5887 148.762 28.5887C148.89 28.5887 148.996 28.5773 149.081 28.5545C149.18 28.5088 149.272 28.4974 149.357 28.5202L149.951 28.4175ZM147.042 21.2618L146.936 21.4672H146.023C145.853 21.4672 145.683 21.4672 145.513 21.4672C145.358 21.4444 145.23 21.433 145.131 21.433C144.777 21.4786 144.452 21.5014 144.154 21.5014C144.154 21.4786 144.147 21.4672 144.133 21.4672C144.133 21.4444 144.133 21.4216 144.133 21.3987V21.3645L144.43 20.3374C144.572 19.7211 144.742 19.1048 144.94 18.4885C145.138 17.8494 145.372 17.3358 145.641 16.9478C145.726 16.8337 145.811 16.7081 145.896 16.5712C145.995 16.4342 146.08 16.263 146.15 16.0576C146.207 16.0576 146.257 16.069 146.299 16.0918C146.342 16.0918 146.37 16.0918 146.384 16.0918H146.448V16.1261C146.448 16.1717 146.469 16.206 146.511 16.2288C146.554 16.7766 146.625 17.2445 146.724 17.6326C146.823 18.0206 146.887 18.3972 146.915 18.7624L146.957 19.995C146.972 20.2004 146.979 20.4058 146.979 20.6113C146.993 20.7939 147.014 21.0107 147.042 21.2618Z" fill="#56321E"/>
<path d="M158.553 23.2133C158.525 23.0079 158.461 22.8481 158.362 22.734C158.263 22.6199 158.213 22.4601 158.213 22.2547C158.086 22.1862 157.987 22.1291 157.916 22.0835C157.845 22.015 157.782 21.9694 157.725 21.9465C157.682 21.9009 157.633 21.8438 157.576 21.7753C157.534 21.7069 157.463 21.6384 157.364 21.5699C157.336 21.5699 157.251 21.5129 157.109 21.3987C156.982 21.2618 156.897 21.1819 156.854 21.1591L156.557 20.9194C156.373 20.7824 156.239 20.6569 156.154 20.5428C156.083 20.4287 156.04 20.3259 156.026 20.2346L155.644 19.6526C155.587 19.6526 155.531 19.6069 155.474 19.5156C155.432 19.4015 155.41 19.1733 155.41 18.8309C155.41 18.5113 155.432 18.2717 155.474 18.1119C155.531 17.9521 155.693 17.7581 155.962 17.5298H156.005C156.047 17.5298 156.104 17.507 156.175 17.4614C156.246 17.4157 156.309 17.3244 156.366 17.1875C156.366 17.1418 156.387 17.0962 156.43 17.0505C156.472 17.0049 156.642 16.9136 156.939 16.7766C157.01 16.7766 157.067 16.7652 157.109 16.7424C157.152 16.6967 157.208 16.6396 157.279 16.5712H157.576C157.619 16.5712 157.661 16.5712 157.704 16.5712C157.746 16.5483 157.796 16.5255 157.852 16.5027C157.838 16.5027 157.831 16.4913 157.831 16.4685C157.845 16.4685 157.852 16.457 157.852 16.4342C157.852 16.4114 157.859 16.4 157.874 16.4C157.874 16.3315 157.866 16.2744 157.852 16.2288C157.852 16.1831 157.852 16.1375 157.852 16.0918V15.8864C157.852 15.544 157.796 15.35 157.682 15.3044C157.583 15.2359 157.498 15.1446 157.428 15.0305C157.258 15.0761 157.109 15.1104 156.982 15.1332C156.868 15.1332 156.727 15.1332 156.557 15.1332C156.458 15.1332 156.387 15.1332 156.345 15.1332C156.316 15.1104 156.295 15.0875 156.281 15.0647C156.097 15.1788 155.934 15.2587 155.793 15.3044C155.651 15.3272 155.495 15.3957 155.325 15.5098L154.519 16.0576C154.334 16.2402 154.129 16.4114 153.903 16.5712C153.69 16.7309 153.513 16.9478 153.372 17.2217C153.301 17.4271 153.188 17.6211 153.032 17.8037C153.032 18.0092 152.997 18.1689 152.926 18.2831C152.869 18.3972 152.841 18.5342 152.841 18.6939C152.841 18.7396 152.848 18.7738 152.862 18.7966C152.876 18.8195 152.883 18.8879 152.883 19.0021C152.883 19.0934 152.876 19.1961 152.862 19.3102C152.848 19.4243 152.827 19.5042 152.799 19.5499C152.799 19.7553 152.834 19.9836 152.905 20.2346C152.99 20.4629 153.068 20.5998 153.138 20.6455L153.329 20.9194C153.471 21.0107 153.591 21.1134 153.69 21.2275C153.789 21.3417 153.881 21.4672 153.966 21.6042C154.051 21.7183 154.136 21.8324 154.221 21.9465C154.32 22.0378 154.441 22.0949 154.582 22.1177C154.78 22.2319 154.901 22.3346 154.943 22.4259C155 22.4943 155.028 22.5628 155.028 22.6313C155.042 22.6769 155.064 22.734 155.092 22.8025C155.12 22.8481 155.226 22.9394 155.41 23.0764C155.41 23.1677 155.46 23.2932 155.559 23.453L155.729 23.7269C155.771 23.9095 155.793 24.0807 155.793 24.2405C155.793 24.4459 155.743 24.6171 155.644 24.7541C155.559 24.8682 155.453 24.9709 155.325 25.0622C155.212 25.1307 155.106 25.1763 155.007 25.1991C154.908 25.222 154.858 25.222 154.858 25.1991C154.533 25.3589 154.299 25.4731 154.158 25.5415C154.03 25.61 153.903 25.6442 153.775 25.6442C153.676 25.6442 153.478 25.61 153.181 25.5415C153.152 25.61 153.103 25.6442 153.032 25.6442C152.961 25.6442 152.869 25.61 152.756 25.5415C152.657 25.4731 152.614 25.4502 152.629 25.4731C152.714 25.7926 152.749 26.0893 152.735 26.3632C152.721 26.6143 152.749 26.7399 152.82 26.7399H152.841C152.827 26.7627 152.813 26.7969 152.799 26.8426C152.784 26.8882 152.777 26.9453 152.777 27.0138C152.777 27.0138 152.784 27.0138 152.799 27.0138C152.77 27.0366 152.756 27.048 152.756 27.048C152.756 27.0936 152.813 27.1735 152.926 27.2877C153.053 27.379 153.124 27.4246 153.138 27.4246C153.407 27.379 153.676 27.3105 153.945 27.2192C154.214 27.1279 154.511 27.0822 154.837 27.0822C155.035 27.0822 155.219 27.1165 155.389 27.185C155.559 27.2534 155.736 27.2877 155.92 27.2877C156.189 27.2877 156.401 27.242 156.557 27.1507C156.727 27.0594 156.861 26.9681 156.96 26.8768C157.06 26.7627 157.152 26.6714 157.237 26.6029C157.321 26.5116 157.421 26.466 157.534 26.466L157.98 26.1236C158.135 25.9866 158.277 25.7926 158.404 25.5415C158.546 25.2676 158.617 24.9709 158.617 24.6513C158.617 24.4459 158.603 24.2291 158.574 24.0008C158.56 23.7726 158.553 23.5101 158.553 23.2133Z" fill="#56321E"/>
<path d="M165.196 21.7069C165.14 21.7525 165.083 21.7753 165.026 21.7753C164.927 21.7753 164.857 21.7069 164.814 21.5699L164.687 20.5085C164.673 20.0292 164.665 19.4015 164.665 18.6255C164.665 17.8494 164.658 17.0619 164.644 16.263C164.63 15.4413 164.609 14.6767 164.58 13.9691C164.552 13.2387 164.503 12.6909 164.432 12.3257C164.191 12.3257 164.014 12.3257 163.901 12.3257C163.788 12.3257 163.682 12.3257 163.582 12.3257C163.498 12.3028 163.398 12.2914 163.285 12.2914C163.172 12.2686 163.016 12.2458 162.818 12.2229C162.733 12.3599 162.662 12.4398 162.606 12.4626C162.549 12.4626 162.492 12.5083 162.436 12.5996V14.1403C162.436 15.2359 162.422 16.263 162.393 17.2217C162.379 18.1575 162.365 19.082 162.351 19.995C162.337 20.908 162.323 21.8324 162.308 22.7682C162.294 23.6813 162.287 24.6513 162.287 25.6785C162.287 26.0665 162.287 26.466 162.287 26.8768C162.287 27.2877 162.294 27.7213 162.308 28.1779C162.28 28.2692 162.252 28.3605 162.223 28.4518C162.209 28.5431 162.202 28.6115 162.202 28.6572C162.245 28.817 162.28 28.9425 162.308 29.0338C162.337 29.1479 162.365 29.2506 162.393 29.3419L162.606 29.9925C162.776 29.9925 162.981 29.9925 163.221 29.9925C163.462 30.0153 163.703 30.0153 163.943 29.9925C164.198 29.9925 164.446 29.9582 164.687 29.8898C164.927 29.8213 165.154 29.6957 165.366 29.5131C165.338 29.1023 165.324 28.6572 165.324 28.1779C165.338 27.6985 165.302 27.1735 165.218 26.6029C165.147 26.1692 165.104 25.8725 165.09 25.7127C165.076 25.5529 165.069 25.3589 165.069 25.1307C165.069 25.0165 165.069 24.891 165.069 24.7541C165.083 24.6171 165.14 24.503 165.239 24.4117C165.72 24.9823 166.095 25.4616 166.364 25.8497C166.633 26.2149 166.846 26.523 167.001 26.7741C167.157 27.0023 167.256 27.1735 167.299 27.2877C167.341 27.4018 167.376 27.4817 167.405 27.5273L167.49 27.767V27.8012C167.49 27.8241 167.511 27.9039 167.553 28.0409C167.596 28.155 167.73 28.3833 167.957 28.7257C168.084 28.9083 168.176 29.0338 168.233 29.1023C168.304 29.1936 168.36 29.2621 168.403 29.3077C168.445 29.3534 168.473 29.3876 168.488 29.4104C168.516 29.4332 168.565 29.4789 168.636 29.5474L169.019 29.8555C169.188 29.7414 169.358 29.5245 169.528 29.205C169.698 28.9083 169.953 28.6344 170.293 28.3833C170.462 28.2692 170.59 28.1893 170.675 28.1436C170.76 28.098 170.802 28.0067 170.802 27.8697C170.802 27.7328 170.767 27.5958 170.696 27.4589C170.625 27.3219 170.54 27.1849 170.441 27.048C170.342 26.8882 170.236 26.7399 170.123 26.6029C170.024 26.466 169.946 26.329 169.889 26.192C169.592 25.7355 169.302 25.3589 169.019 25.0622C168.735 24.7655 168.473 24.4916 168.233 24.2405C167.992 23.9894 167.759 23.7612 167.532 23.5557C167.32 23.3503 167.122 23.1335 166.938 22.9052C167.178 22.6313 167.398 22.3688 167.596 22.1177C167.794 21.8438 167.992 21.5699 168.19 21.296C168.389 20.9993 168.601 20.6797 168.827 20.3374C169.054 19.9721 169.316 19.5613 169.613 19.1048C169.571 18.9678 169.521 18.8195 169.464 18.6597C169.422 18.4999 169.351 18.3744 169.252 18.2831C169.224 18.3059 169.167 18.3173 169.082 18.3173C169.026 18.3173 168.962 18.3059 168.891 18.2831C168.82 18.2602 168.742 18.2032 168.658 18.1119C168.459 18.2945 168.297 18.4428 168.169 18.557C168.042 18.6711 167.907 18.7966 167.766 18.9336C167.624 19.0705 167.468 19.2531 167.299 19.4814C167.129 19.7097 166.916 20.0292 166.661 20.4401C166.407 20.6227 166.237 20.7824 166.152 20.9194C166.067 21.0335 165.954 21.1362 165.812 21.2275C165.741 21.3188 165.656 21.4101 165.557 21.5014C165.458 21.5927 165.352 21.7297 165.239 21.9123C165.21 21.8895 165.196 21.8438 165.196 21.7753V21.7069Z" fill="#56321E"/>
<path d="M179.696 27.2877L179.633 27.1507C179.633 27.0366 179.611 26.9339 179.569 26.8426C179.527 26.7284 179.491 26.6029 179.463 26.466C179.378 26.466 179.3 26.5002 179.229 26.5687C179.158 26.6143 179.081 26.6714 178.996 26.7399C178.925 26.7855 178.833 26.8426 178.72 26.911C178.621 26.9567 178.493 26.9795 178.337 26.9795H178.231C178.061 27.0023 177.913 27.0138 177.785 27.0138C177.658 27.0138 177.538 27.0252 177.424 27.048C177.311 27.048 177.198 27.0594 177.085 27.0822C176.971 27.0822 176.837 27.0822 176.681 27.0822C176.412 27.0138 176.235 26.9681 176.15 26.9453C176.08 26.8996 176.044 26.8768 176.044 26.8768C176.044 26.8768 176.051 26.8768 176.065 26.8768C176.079 26.8768 176.058 26.854 176.002 26.8083C175.988 26.8312 175.973 26.8426 175.959 26.8426C175.945 26.8426 175.931 26.854 175.917 26.8768C175.917 26.8768 175.903 26.8768 175.874 26.8768C175.719 26.7855 175.591 26.717 175.492 26.6714C175.407 26.6257 175.365 26.5458 175.365 26.4317C175.365 26.3404 175.294 26.1806 175.152 25.9524C175.025 25.7241 174.961 25.4616 174.961 25.1649C174.961 24.8225 174.982 24.3888 175.025 23.8639C175.067 23.3161 175.152 22.8824 175.28 22.5628C175.393 22.4487 175.591 22.3232 175.874 22.1862C176.157 22.0264 176.44 21.9465 176.724 21.9465C176.893 21.9465 177.021 21.9922 177.106 22.0835C177.205 22.152 177.283 22.2433 177.339 22.3574C177.396 22.4715 177.424 22.5971 177.424 22.734C177.439 22.8481 177.446 22.9623 177.446 23.0764C177.446 23.2362 177.41 23.3503 177.339 23.4188C177.269 23.4872 177.184 23.5329 177.085 23.5557C176.986 23.5785 176.886 23.59 176.787 23.59C176.688 23.59 176.603 23.6014 176.533 23.6242C176.249 23.7612 176.016 23.8525 175.832 23.8981C175.662 23.9438 175.563 23.9666 175.534 23.9666C175.605 24.0122 175.655 24.1035 175.683 24.2405C175.711 24.3774 175.733 24.5258 175.747 24.6856C175.761 24.8225 175.768 24.9595 175.768 25.0964C175.768 25.2106 175.775 25.2676 175.789 25.2676C176.285 25.2676 176.695 25.2334 177.021 25.1649C177.346 25.0964 177.615 25.0165 177.828 24.9252C178.04 24.8111 178.21 24.7198 178.337 24.6513C178.465 24.56 178.592 24.503 178.72 24.4802C178.776 24.2519 178.84 24.1149 178.911 24.0693C178.982 24.0008 179.059 23.8867 179.144 23.7269C179.116 23.4074 179.066 23.0878 178.996 22.7682C178.939 22.4259 178.875 22.1177 178.805 21.8438C178.734 21.5471 178.663 21.296 178.592 21.0906C178.536 20.8852 178.507 20.7596 178.507 20.714C178.408 20.714 178.323 20.6797 178.253 20.6113C178.196 20.5428 178.146 20.4743 178.104 20.4058C178.076 20.3374 178.054 20.2689 178.04 20.2004C178.026 20.1319 178.012 20.0977 177.998 20.0977C177.842 20.0977 177.722 20.0406 177.637 19.9265C177.58 19.8808 177.538 19.8238 177.509 19.7553C177.283 19.7553 177.106 19.7097 176.978 19.6184C176.851 19.5271 176.709 19.4814 176.554 19.4814C176.2 19.6868 175.818 19.8352 175.407 19.9265C175.011 20.0178 174.657 20.2118 174.345 20.5085C174.175 20.7368 174.02 20.9536 173.878 21.1591C173.737 21.3645 173.609 21.5927 173.496 21.8438C173.383 22.0949 173.262 22.3688 173.135 22.6655C173.008 22.9623 172.88 23.3161 172.753 23.7269C172.682 23.9095 172.632 24.0921 172.604 24.2747C172.59 24.4573 172.576 24.6399 172.562 24.8225C172.562 25.1649 172.569 25.5073 172.583 25.8497C172.611 26.1692 172.71 26.5344 172.88 26.9453C172.951 27.0366 173.008 27.1393 173.05 27.2534C173.107 27.3676 173.135 27.4246 173.135 27.4246L173.262 27.5958C173.291 27.5958 173.312 27.6643 173.326 27.8012C173.354 27.9154 173.376 27.9724 173.39 27.9724H173.772C173.942 28.1322 174.076 28.2692 174.175 28.3833C174.275 28.4746 174.367 28.5431 174.452 28.5887C174.536 28.6115 174.628 28.6344 174.728 28.6572C174.827 28.68 174.954 28.6914 175.11 28.6914C175.195 28.6914 175.28 28.6914 175.365 28.6914C175.464 28.6686 175.563 28.6572 175.662 28.6572C175.747 28.6572 175.839 28.6572 175.938 28.6572C176.037 28.6572 176.157 28.68 176.299 28.7257C176.61 28.7257 176.865 28.7028 177.063 28.6572C177.276 28.5887 177.481 28.5088 177.679 28.4175C177.892 28.3262 178.111 28.2463 178.337 28.1779C178.578 28.1094 178.868 28.0637 179.208 28.0409C179.293 27.9952 179.392 27.8925 179.505 27.7328C179.633 27.5502 179.696 27.436 179.696 27.3904C179.696 27.3219 179.661 27.2877 179.59 27.2877H179.696Z" fill="#56321E"/>
<path d="M184.992 20.0977L183.845 20.9536C183.491 21.2732 183.215 21.5927 183.017 21.9123C182.819 22.2319 182.663 22.5856 182.55 22.9737C182.437 23.3617 182.359 23.784 182.316 24.2405C182.274 24.697 182.224 25.2106 182.168 25.7812C182.154 25.8497 182.147 25.9638 182.147 26.1236C182.147 26.4888 182.21 26.8312 182.338 27.1507C182.465 27.4703 182.628 27.7442 182.826 27.9724C183.024 28.1779 183.237 28.349 183.463 28.486C183.704 28.6001 183.93 28.68 184.143 28.7257L185.926 29.0338C186.082 29.2164 186.238 29.3305 186.393 29.3762C186.563 29.4218 186.726 29.4447 186.882 29.4447L187.816 28.9653H189.218L189.451 29.2735H189.77L190.003 28.486V22.4601L189.982 22.3574L189.833 22.2889V13.9691L189.175 13.4213H188.113L187.71 13.8664C187.71 14.2316 187.682 14.5625 187.625 14.8593C187.583 15.156 187.561 15.3843 187.561 15.544C187.561 15.6582 187.597 15.7152 187.667 15.7152V17.2559L187.349 18.7966V19.0363L186.096 19.8238C186.096 19.8694 186.047 19.8923 185.947 19.8923C185.82 19.8923 185.728 19.8808 185.671 19.858C185.615 19.858 185.551 19.8466 185.48 19.8238L184.992 20.0977ZM187.306 21.5014V23.4872L187.137 25.0622V25.9524H186.882C186.613 26.0209 186.379 26.0779 186.181 26.1236C185.983 26.1464 185.763 26.1578 185.523 26.1578C185.381 26.1578 185.233 26.1464 185.077 26.1236C184.935 26.1007 184.773 26.0323 184.589 25.9181C184.56 25.9181 184.532 25.9296 184.504 25.9524C184.489 25.9524 184.475 25.9524 184.461 25.9524C184.206 25.9524 184.015 25.8154 183.888 25.5415C183.775 25.2448 183.718 24.7541 183.718 24.0693C183.718 23.5671 183.76 23.2019 183.845 22.9737C183.93 22.7454 184.051 22.5742 184.206 22.4601C184.376 22.346 184.56 22.2661 184.758 22.2204C184.971 22.1748 185.197 22.0949 185.438 21.9808C185.579 21.9351 185.7 21.8895 185.799 21.8438C185.912 21.7753 186.032 21.7297 186.16 21.7069H186.266C186.28 21.7297 186.308 21.7411 186.351 21.7411C186.422 21.7411 186.521 21.7069 186.648 21.6384C186.776 21.5471 186.931 21.5014 187.115 21.5014H187.306Z" fill="#56321E"/>
<path d="M207.56 24.1035C207.659 23.9438 207.765 23.7612 207.878 23.5557C207.991 23.3503 208.097 23.1335 208.197 22.9052C208.31 22.6541 208.402 22.403 208.473 22.152C208.543 21.8781 208.579 21.627 208.579 21.3987C208.579 19.6184 208.352 18.0206 207.899 16.6054C207.446 15.1902 206.788 14.0946 205.924 13.3186C205.882 13.2729 205.825 13.2501 205.755 13.2501H205.351C205.28 13.2501 205.217 13.2615 205.16 13.2843C205.118 13.2843 205.061 13.2843 204.99 13.2843C204.849 13.2843 204.728 13.2615 204.629 13.2158C204.53 13.1702 204.473 13.0675 204.459 12.9077L202.421 13.5582C202.067 13.7637 201.72 14.0261 201.38 14.3457C201.041 14.6653 200.722 15.0647 200.425 15.544C200.142 16.0005 199.908 16.5369 199.724 17.1532C199.554 17.7695 199.448 18.4771 199.405 19.276C199.377 19.9607 199.342 20.5998 199.299 21.1933C199.271 21.7639 199.257 22.3232 199.257 22.871C199.257 23.259 199.271 23.647 199.299 24.0351C199.328 24.4003 199.391 24.7883 199.49 25.1991L199.745 25.8497L202.739 27.5616C202.895 27.5616 203.022 27.5616 203.122 27.5616C203.235 27.5616 203.334 27.5502 203.419 27.5273C203.518 27.4817 203.61 27.4246 203.695 27.3561C203.78 27.2877 203.893 27.1735 204.035 27.0138L205.712 25.8839C205.825 26.1806 205.946 26.4774 206.073 26.7741C206.215 27.0708 206.406 27.4132 206.646 27.8012C206.632 28.0295 206.682 28.2121 206.795 28.349C206.922 28.4632 207.036 28.5659 207.135 28.6572L207.538 28.9996L208.281 28.4518C208.565 28.2235 208.834 28.0295 209.088 27.8697C209.357 27.6871 209.492 27.5273 209.492 27.3904C209.492 27.2078 209.435 27.0366 209.322 26.8768C209.223 26.6942 209.088 26.4545 208.919 26.1578L208.366 25.3361C208.225 25.1078 208.083 24.9024 207.942 24.7198C207.814 24.5144 207.687 24.309 207.56 24.1035ZM206.349 21.9465L205.861 21.0906C205.79 20.9308 205.712 20.7824 205.627 20.6455C205.556 20.4857 205.486 20.3259 205.415 20.1662L204.396 18.4543C204.325 18.4999 204.24 18.6255 204.141 18.8309C204.056 19.0363 203.957 19.2531 203.843 19.4814C203.73 19.7097 203.617 19.9151 203.504 20.0977C203.405 20.2803 203.306 20.3716 203.206 20.3716C203.164 20.3716 203.136 20.3374 203.122 20.2689L204.204 22.6998C204.247 22.7683 204.275 22.8025 204.289 22.8025L203.376 23.1449H202.994L202.208 21.9465V21.6042C202.208 21.3759 202.201 21.1591 202.187 20.9536C202.187 20.7482 202.187 20.5428 202.187 20.3374C202.187 20.0634 202.194 19.801 202.208 19.5499C202.237 19.276 202.293 18.9564 202.378 18.5912C202.492 18.4771 202.612 18.3173 202.739 18.1119C202.867 17.8836 203.001 17.6668 203.143 17.4614C203.298 17.2331 203.461 17.0391 203.631 16.8793C203.801 16.6967 203.985 16.6054 204.183 16.6054C204.282 16.6054 204.41 16.6396 204.565 16.7081C204.721 16.7538 204.891 16.8337 205.075 16.9478C205.273 17.0391 205.457 17.1532 205.627 17.2902C205.797 17.4043 205.953 17.507 206.094 17.5983C206.321 17.8266 206.519 18.1233 206.689 18.4885C206.859 18.8309 206.986 19.3102 207.071 19.9265L206.349 21.9465Z" fill="#56321E"/>
<path d="M218.5 20.3374L217.863 16.7766L216.801 16.4L216.482 16.6739V22.2547L216.228 22.5286H215.867L214.784 23.1106L214.55 22.9737L214.465 22.4601L214.295 22.0493V18.2831L213.934 16.5027H212.342L212.002 16.6739L211.832 18.8994L212.193 20.0634L211.96 23.7954L212.427 25.6785L212.936 25.9524L213.531 26.5687L213.998 26.329L214.083 26.0893L214.826 26.2263L215.251 25.8839L216.1 24.5144L216.376 24.309L216.589 24.6513L216.525 24.891L217.035 25.4388H218.309L218.5 25.028V20.3374Z" fill="#56321E"/>
<path d="M228.76 27.2877L228.696 27.1507C228.696 27.0366 228.675 26.9339 228.632 26.8426C228.59 26.7284 228.554 26.6029 228.526 26.466C228.441 26.466 228.363 26.5002 228.292 26.5687C228.222 26.6143 228.144 26.6714 228.059 26.7399C227.988 26.7855 227.896 26.8426 227.783 26.911C227.684 26.9567 227.556 26.9795 227.401 26.9795H227.294C227.125 27.0023 226.976 27.0138 226.849 27.0138C226.721 27.0138 226.601 27.0252 226.488 27.048C226.374 27.048 226.261 27.0594 226.148 27.0822C226.035 27.0822 225.9 27.0822 225.744 27.0822C225.475 27.0138 225.298 26.9681 225.213 26.9453C225.143 26.8996 225.107 26.8768 225.107 26.8768C225.107 26.8768 225.114 26.8768 225.129 26.8768C225.143 26.8768 225.121 26.854 225.065 26.8083C225.051 26.8312 225.037 26.8426 225.022 26.8426C225.008 26.8426 224.994 26.854 224.98 26.8768C224.98 26.8768 224.966 26.8768 224.937 26.8768C224.782 26.7855 224.654 26.717 224.555 26.6714C224.47 26.6257 224.428 26.5458 224.428 26.4317C224.428 26.3404 224.357 26.1806 224.215 25.9524C224.088 25.7241 224.024 25.4616 224.024 25.1649C224.024 24.8225 224.046 24.3888 224.088 23.8639C224.131 23.3161 224.215 22.8824 224.343 22.5628C224.456 22.4487 224.654 22.3232 224.937 22.1862C225.221 22.0264 225.504 21.9465 225.787 21.9465C225.957 21.9465 226.084 21.9922 226.169 22.0835C226.268 22.152 226.346 22.2433 226.403 22.3574C226.459 22.4715 226.488 22.5971 226.488 22.734C226.502 22.8481 226.509 22.9623 226.509 23.0764C226.509 23.2362 226.473 23.3503 226.403 23.4188C226.332 23.4872 226.247 23.5329 226.148 23.5557C226.049 23.5785 225.95 23.59 225.85 23.59C225.751 23.59 225.666 23.6014 225.596 23.6242C225.313 23.7612 225.079 23.8525 224.895 23.8981C224.725 23.9438 224.626 23.9666 224.598 23.9666C224.668 24.0122 224.718 24.1035 224.746 24.2405C224.775 24.3774 224.796 24.5258 224.81 24.6856C224.824 24.8225 224.831 24.9595 224.831 25.0964C224.831 25.2106 224.838 25.2676 224.852 25.2676C225.348 25.2676 225.758 25.2334 226.084 25.1649C226.41 25.0964 226.679 25.0165 226.891 24.9252C227.103 24.8111 227.273 24.7198 227.401 24.6513C227.528 24.56 227.655 24.503 227.783 24.4802C227.839 24.2519 227.903 24.1149 227.974 24.0693C228.045 24.0008 228.123 23.8867 228.208 23.7269C228.179 23.4074 228.13 23.0878 228.059 22.7682C228.002 22.4259 227.939 22.1177 227.868 21.8438C227.797 21.5471 227.726 21.296 227.655 21.0906C227.599 20.8852 227.57 20.7596 227.57 20.714C227.471 20.714 227.386 20.6797 227.316 20.6113C227.259 20.5428 227.21 20.4743 227.167 20.4058C227.139 20.3374 227.117 20.2689 227.103 20.2004C227.089 20.1319 227.075 20.0977 227.061 20.0977C226.905 20.0977 226.785 20.0406 226.7 19.9265C226.643 19.8808 226.601 19.8238 226.572 19.7553C226.346 19.7553 226.169 19.7097 226.042 19.6184C225.914 19.5271 225.773 19.4814 225.617 19.4814C225.263 19.6868 224.881 19.8352 224.47 19.9265C224.074 20.0178 223.72 20.2118 223.409 20.5085C223.239 20.7368 223.083 20.9536 222.941 21.1591C222.8 21.3645 222.672 21.5927 222.559 21.8438C222.446 22.0949 222.326 22.3688 222.198 22.6655C222.071 22.9623 221.943 23.3161 221.816 23.7269C221.745 23.9095 221.696 24.0921 221.667 24.2747C221.653 24.4573 221.639 24.6399 221.625 24.8225C221.625 25.1649 221.632 25.5073 221.646 25.8497C221.674 26.1692 221.773 26.5344 221.943 26.9453C222.014 27.0366 222.071 27.1393 222.113 27.2534C222.17 27.3676 222.198 27.4246 222.198 27.4246L222.326 27.5958C222.354 27.5958 222.375 27.6643 222.389 27.8012C222.418 27.9154 222.439 27.9724 222.453 27.9724H222.835C223.005 28.1322 223.14 28.2692 223.239 28.3833C223.338 28.4746 223.43 28.5431 223.515 28.5887C223.6 28.6115 223.692 28.6344 223.791 28.6572C223.89 28.68 224.017 28.6914 224.173 28.6914C224.258 28.6914 224.343 28.6914 224.428 28.6914C224.527 28.6686 224.626 28.6572 224.725 28.6572C224.81 28.6572 224.902 28.6572 225.001 28.6572C225.1 28.6572 225.221 28.68 225.362 28.7257C225.674 28.7257 225.928 28.7028 226.127 28.6572C226.339 28.5887 226.544 28.5088 226.742 28.4175C226.955 28.3262 227.174 28.2463 227.401 28.1779C227.641 28.1094 227.931 28.0637 228.271 28.0409C228.356 27.9952 228.455 27.8925 228.569 27.7328C228.696 27.5502 228.76 27.436 228.76 27.3904C228.76 27.3219 228.724 27.2877 228.653 27.2877H228.76Z" fill="#56321E"/>
<path d="M236.731 23.2133C236.702 23.0079 236.639 22.8481 236.54 22.734C236.44 22.6199 236.391 22.4601 236.391 22.2547C236.264 22.1862 236.164 22.1291 236.094 22.0835C236.023 22.015 235.959 21.9694 235.903 21.9465C235.86 21.9009 235.811 21.8438 235.754 21.7753C235.711 21.7069 235.641 21.6384 235.542 21.5699C235.513 21.5699 235.428 21.5129 235.287 21.3987C235.159 21.2618 235.074 21.1819 235.032 21.1591L234.735 20.9194C234.551 20.7824 234.416 20.6569 234.331 20.5428C234.26 20.4287 234.218 20.3259 234.204 20.2346L233.822 19.6526C233.765 19.6526 233.708 19.6069 233.652 19.5156C233.609 19.4015 233.588 19.1733 233.588 18.8309C233.588 18.5113 233.609 18.2717 233.652 18.1119C233.708 17.9521 233.871 17.7581 234.14 17.5298H234.183C234.225 17.5298 234.282 17.507 234.352 17.4614C234.423 17.4157 234.487 17.3244 234.544 17.1875C234.544 17.1418 234.565 17.0962 234.607 17.0505C234.65 17.0049 234.82 16.9136 235.117 16.7766C235.188 16.7766 235.244 16.7652 235.287 16.7424C235.329 16.6967 235.386 16.6396 235.457 16.5712H235.754C235.796 16.5712 235.839 16.5712 235.881 16.5712C235.924 16.5483 235.973 16.5255 236.03 16.5027C236.016 16.5027 236.009 16.4913 236.009 16.4685C236.023 16.4685 236.03 16.457 236.03 16.4342C236.03 16.4114 236.037 16.4 236.051 16.4C236.051 16.3315 236.044 16.2744 236.03 16.2288C236.03 16.1831 236.03 16.1375 236.03 16.0918V15.8864C236.03 15.544 235.973 15.35 235.86 15.3044C235.761 15.2359 235.676 15.1446 235.605 15.0305C235.435 15.0761 235.287 15.1104 235.159 15.1332C235.046 15.1332 234.904 15.1332 234.735 15.1332C234.636 15.1332 234.565 15.1332 234.522 15.1332C234.494 15.1104 234.473 15.0875 234.459 15.0647C234.275 15.1788 234.112 15.2587 233.97 15.3044C233.829 15.3272 233.673 15.3957 233.503 15.5098L232.696 16.0576C232.512 16.2402 232.307 16.4114 232.08 16.5712C231.868 16.7309 231.691 16.9478 231.549 17.2217C231.479 17.4271 231.365 17.6211 231.21 17.8037C231.21 18.0092 231.174 18.1689 231.104 18.2831C231.047 18.3972 231.019 18.5342 231.019 18.6939C231.019 18.7396 231.026 18.7738 231.04 18.7966C231.054 18.8195 231.061 18.8879 231.061 19.0021C231.061 19.0934 231.054 19.1961 231.04 19.3102C231.026 19.4243 231.004 19.5042 230.976 19.5499C230.976 19.7553 231.012 19.9836 231.082 20.2346C231.167 20.4629 231.245 20.5998 231.316 20.6455L231.507 20.9194C231.649 21.0107 231.769 21.1134 231.868 21.2275C231.967 21.3417 232.059 21.4672 232.144 21.6042C232.229 21.7183 232.314 21.8324 232.399 21.9465C232.498 22.0378 232.618 22.0949 232.76 22.1177C232.958 22.2319 233.078 22.3346 233.121 22.4259C233.177 22.4943 233.206 22.5628 233.206 22.6313C233.22 22.6769 233.241 22.734 233.269 22.8025C233.298 22.8481 233.404 22.9394 233.588 23.0764C233.588 23.1677 233.638 23.2932 233.737 23.453L233.906 23.7269C233.949 23.9095 233.97 24.0807 233.97 24.2405C233.97 24.4459 233.921 24.6171 233.822 24.7541C233.737 24.8682 233.63 24.9709 233.503 25.0622C233.39 25.1307 233.284 25.1763 233.185 25.1991C233.085 25.222 233.036 25.222 233.036 25.1991C232.71 25.3589 232.477 25.4731 232.335 25.5415C232.208 25.61 232.08 25.6442 231.953 25.6442C231.854 25.6442 231.656 25.61 231.358 25.5415C231.33 25.61 231.28 25.6442 231.21 25.6442C231.139 25.6442 231.047 25.61 230.934 25.5415C230.835 25.4731 230.792 25.4502 230.806 25.4731C230.891 25.7926 230.927 26.0893 230.912 26.3632C230.898 26.6143 230.927 26.7399 230.997 26.7399H231.019C231.004 26.7627 230.99 26.7969 230.976 26.8426C230.962 26.8882 230.955 26.9453 230.955 27.0138C230.955 27.0138 230.962 27.0138 230.976 27.0138C230.948 27.0366 230.934 27.048 230.934 27.048C230.934 27.0936 230.99 27.1735 231.104 27.2877C231.231 27.379 231.302 27.4246 231.316 27.4246C231.585 27.379 231.854 27.3105 232.123 27.2192C232.392 27.1279 232.689 27.0822 233.015 27.0822C233.213 27.0822 233.397 27.1165 233.567 27.185C233.737 27.2534 233.914 27.2877 234.098 27.2877C234.367 27.2877 234.579 27.242 234.735 27.1507C234.904 27.0594 235.039 26.9681 235.138 26.8768C235.237 26.7627 235.329 26.6714 235.414 26.6029C235.499 26.5116 235.598 26.466 235.711 26.466L236.157 26.1236C236.313 25.9866 236.455 25.7926 236.582 25.5415C236.724 25.2676 236.794 24.9709 236.794 24.6513C236.794 24.4459 236.78 24.2291 236.752 24.0008C236.738 23.7726 236.731 23.5101 236.731 23.2133Z" fill="#56321E"/>
<path d="M244.393 20.7824L244.945 20.7482C245.016 20.7939 245.08 20.8281 245.136 20.8509C245.193 20.8737 245.271 20.8852 245.37 20.8852C245.427 20.8852 245.483 20.8737 245.54 20.8509C245.611 20.8281 245.674 20.8053 245.731 20.7824C245.802 20.7596 245.887 20.7482 245.986 20.7482C246.099 20.7254 246.241 20.714 246.41 20.714C246.467 20.714 246.517 20.7254 246.559 20.7482C246.616 20.7482 246.658 20.7482 246.686 20.7482C246.701 20.7482 246.715 20.7482 246.729 20.7482C246.757 20.7482 246.814 20.7026 246.899 20.6113C246.828 20.6113 246.793 20.5314 246.793 20.3716C246.793 20.3488 246.8 20.2803 246.814 20.1662C246.828 20.052 246.835 19.9721 246.835 19.9265C246.821 19.9265 246.814 19.8694 246.814 19.7553C246.814 19.664 246.828 19.5955 246.856 19.5499C246.757 19.4358 246.708 19.3216 246.708 19.2075C246.708 19.0705 246.679 18.9336 246.623 18.7966C246.538 18.8423 246.474 18.8651 246.432 18.8651C246.333 18.8651 246.262 18.8651 246.219 18.8651C246.191 18.8423 246.156 18.8195 246.113 18.7966C246.071 18.7738 245.993 18.7624 245.88 18.7624C245.78 18.7396 245.611 18.7168 245.37 18.6939C245.2 18.6711 244.995 18.6483 244.754 18.6255C244.513 18.6026 244.252 18.5684 243.968 18.5227L243.756 14.7223L243.565 14.2772L242.164 14.4827L241.824 15.2701L241.76 18.3515C241.562 18.3515 241.371 18.3515 241.187 18.3515C241.003 18.3287 240.826 18.3173 240.656 18.3173C240.514 18.3858 240.436 18.42 240.422 18.42C240.295 18.42 240.182 18.42 240.083 18.42C239.983 18.42 239.884 18.3972 239.785 18.3515H239.446L239.127 18.7966C239.127 18.9792 239.127 19.1847 239.127 19.4129C239.127 19.6412 239.134 19.8694 239.148 20.0977C239.177 20.3259 239.212 20.5314 239.254 20.714C239.297 20.8737 239.354 20.9765 239.424 21.0221L239.594 21.2618C239.736 21.2618 239.842 21.2618 239.913 21.2618C239.983 21.239 240.111 21.2047 240.295 21.1591C240.309 21.1134 240.373 21.0906 240.486 21.0906C240.571 21.0906 240.656 21.102 240.741 21.1248C240.84 21.1477 240.904 21.1705 240.932 21.1933C240.974 21.1933 241.017 21.1933 241.059 21.1933C241.116 21.1705 241.173 21.1591 241.229 21.1591L241.526 21.1248L241.442 21.8096V26.2605L241.526 28.2121L241.76 28.9996L242.291 28.8626L244.032 29.068L245.221 28.7941C245.306 28.4061 245.349 28.0181 245.349 27.63C245.349 27.242 245.306 26.8312 245.221 26.3975L244.393 25.6785V20.7824Z" fill="#56321E"/>
<path d="M252.603 15.3044L251.881 14.825L250.947 14.5511L250.267 14.3115L249.758 14.5854V17.838L249.822 18.2488L251.096 17.9065L252.094 18.2146L252.391 17.8722L252.603 15.3044ZM252.752 26.7056L252.391 26.2263L252.518 25.61V24.0008L252.37 23.1449V20.7824L252.115 20.3374L251.669 20.3031L251.499 20.4401L250.65 20.3374L250.289 20.6113L249.843 28.8969L250.055 29.2735H250.437L250.692 29.1365H252.327L252.731 28.8284L252.624 28.0067L252.752 26.7056Z" fill="#56321E"/>
<path d="M256.226 20.2346C256.184 20.6455 256.155 21.0335 256.141 21.3987C256.141 21.7639 256.141 22.0949 256.141 22.3916C256.141 22.9394 256.191 23.4188 256.29 23.8296L256.502 24.2747L258.753 25.3361H259.263C259.319 25.3133 259.383 25.279 259.454 25.2334C259.524 25.1877 259.602 25.1193 259.687 25.028L261.471 24.0693C261.57 24.0008 261.712 23.8867 261.896 23.7269C262.094 23.5671 262.278 23.3845 262.448 23.1791C262.632 22.9509 262.787 22.6998 262.915 22.4259C263.042 22.152 263.106 21.8666 263.106 21.5699C263.106 20.4743 262.929 19.4814 262.575 18.5912C262.235 17.701 261.747 17.0163 261.11 16.5369H261.067C261.011 16.5369 260.912 16.5483 260.77 16.5712C260.629 16.594 260.501 16.6054 260.388 16.6054C260.289 16.6054 260.197 16.5826 260.112 16.5369C260.041 16.4913 260.006 16.4228 260.006 16.3315L258.498 16.7081C258.243 16.8223 257.989 16.982 257.734 17.1875C257.479 17.3929 257.245 17.644 257.033 17.9407C256.821 18.2146 256.644 18.5456 256.502 18.9336C256.361 19.2988 256.269 19.7325 256.226 20.2346ZM260.154 18.6597C260.324 18.751 260.508 18.8309 260.707 18.8994C260.905 18.9678 261.089 19.0705 261.259 19.2075C261.428 19.3216 261.577 19.4814 261.705 19.6868C261.846 19.8923 261.952 20.2004 262.023 20.6113L261.471 21.9123L259.199 22.6655H258.902L258.349 21.8781L258.456 19.8238C258.541 19.7553 258.626 19.6526 258.71 19.5156C258.795 19.3787 258.887 19.2417 258.987 19.1048C259.1 18.945 259.22 18.8195 259.348 18.7282C259.489 18.614 259.638 18.557 259.793 18.557C259.893 18.557 260.013 18.5912 260.154 18.6597Z" fill="#56321E"/>
<path d="M272.852 17.3586L272.512 16.9136H271.047L269.815 17.7353L269.327 18.0776L268.881 18.3858L268.223 16.4685H266.736L266.354 17.3586V18.2146V24.2062L266.651 25.3361L267.203 24.9937H267.543L267.862 25.3019L268.881 24.891L268.754 21.6042L268.711 21.5357V20.1662L270.07 19.9265L270.452 19.5841H270.707L271.196 20.714L270.856 24.6856L271.132 25.0622H273.34L273.553 24.6513V20.5428L273.637 19.7553L272.852 17.3586Z" fill="#56321E"/>
<path d="M282.206 23.2133C282.178 23.0079 282.114 22.8481 282.015 22.734C281.916 22.6199 281.867 22.4601 281.867 22.2547C281.739 22.1862 281.64 22.1291 281.569 22.0835C281.499 22.015 281.435 21.9694 281.378 21.9465C281.336 21.9009 281.286 21.8438 281.23 21.7753C281.187 21.7069 281.116 21.6384 281.017 21.5699C280.989 21.5699 280.904 21.5129 280.762 21.3987C280.635 21.2618 280.55 21.1819 280.508 21.1591L280.21 20.9194C280.026 20.7824 279.892 20.6569 279.807 20.5428C279.736 20.4287 279.694 20.3259 279.679 20.2346L279.297 19.6526C279.241 19.6526 279.184 19.6069 279.127 19.5156C279.085 19.4015 279.064 19.1733 279.064 18.8309C279.064 18.5113 279.085 18.2717 279.127 18.1119C279.184 17.9521 279.347 17.7581 279.616 17.5298H279.658C279.701 17.5298 279.757 17.507 279.828 17.4614C279.899 17.4157 279.963 17.3244 280.019 17.1875C280.019 17.1418 280.04 17.0962 280.083 17.0505C280.125 17.0049 280.295 16.9136 280.593 16.7766C280.663 16.7766 280.72 16.7652 280.762 16.7424C280.805 16.6967 280.862 16.6396 280.932 16.5712H281.23C281.272 16.5712 281.315 16.5712 281.357 16.5712C281.399 16.5483 281.449 16.5255 281.506 16.5027C281.491 16.5027 281.484 16.4913 281.484 16.4685C281.499 16.4685 281.506 16.457 281.506 16.4342C281.506 16.4114 281.513 16.4 281.527 16.4C281.527 16.3315 281.52 16.2744 281.506 16.2288C281.506 16.1831 281.506 16.1375 281.506 16.0918V15.8864C281.506 15.544 281.449 15.35 281.336 15.3044C281.237 15.2359 281.152 15.1446 281.081 15.0305C280.911 15.0761 280.762 15.1104 280.635 15.1332C280.522 15.1332 280.38 15.1332 280.21 15.1332C280.111 15.1332 280.04 15.1332 279.998 15.1332C279.97 15.1104 279.948 15.0875 279.934 15.0647C279.75 15.1788 279.587 15.2587 279.446 15.3044C279.304 15.3272 279.149 15.3957 278.979 15.5098L278.172 16.0576C277.988 16.2402 277.783 16.4114 277.556 16.5712C277.344 16.7309 277.167 16.9478 277.025 17.2217C276.954 17.4271 276.841 17.6211 276.685 17.8037C276.685 18.0092 276.65 18.1689 276.579 18.2831C276.523 18.3972 276.494 18.5342 276.494 18.6939C276.494 18.7396 276.501 18.7738 276.516 18.7966C276.53 18.8195 276.537 18.8879 276.537 19.0021C276.537 19.0934 276.53 19.1961 276.516 19.3102C276.501 19.4243 276.48 19.5042 276.452 19.5499C276.452 19.7553 276.487 19.9836 276.558 20.2346C276.643 20.4629 276.721 20.5998 276.792 20.6455L276.983 20.9194C277.124 21.0107 277.245 21.1134 277.344 21.2275C277.443 21.3417 277.535 21.4672 277.62 21.6042C277.705 21.7183 277.79 21.8324 277.875 21.9465C277.974 22.0378 278.094 22.0949 278.236 22.1177C278.434 22.2319 278.554 22.3346 278.597 22.4259C278.653 22.4943 278.681 22.5628 278.681 22.6313C278.696 22.6769 278.717 22.734 278.745 22.8025C278.774 22.8481 278.88 22.9394 279.064 23.0764C279.064 23.1677 279.113 23.2932 279.212 23.453L279.382 23.7269C279.425 23.9095 279.446 24.0807 279.446 24.2405C279.446 24.4459 279.396 24.6171 279.297 24.7541C279.212 24.8682 279.106 24.9709 278.979 25.0622C278.866 25.1307 278.759 25.1763 278.66 25.1991C278.561 25.222 278.512 25.222 278.512 25.1991C278.186 25.3589 277.952 25.4731 277.811 25.5415C277.683 25.61 277.556 25.6442 277.429 25.6442C277.33 25.6442 277.131 25.61 276.834 25.5415C276.806 25.61 276.756 25.6442 276.685 25.6442C276.615 25.6442 276.523 25.61 276.409 25.5415C276.31 25.4731 276.268 25.4502 276.282 25.4731C276.367 25.7926 276.402 26.0893 276.388 26.3632C276.374 26.6143 276.402 26.7399 276.473 26.7399H276.494C276.48 26.7627 276.466 26.7969 276.452 26.8426C276.438 26.8882 276.431 26.9453 276.431 27.0138C276.431 27.0138 276.438 27.0138 276.452 27.0138C276.424 27.0366 276.409 27.048 276.409 27.048C276.409 27.0936 276.466 27.1735 276.579 27.2877C276.707 27.379 276.777 27.4246 276.792 27.4246C277.061 27.379 277.33 27.3105 277.599 27.2192C277.867 27.1279 278.165 27.0822 278.49 27.0822C278.689 27.0822 278.873 27.1165 279.042 27.185C279.212 27.2534 279.389 27.2877 279.573 27.2877C279.842 27.2877 280.055 27.242 280.21 27.1507C280.38 27.0594 280.515 26.9681 280.614 26.8768C280.713 26.7627 280.805 26.6714 280.89 26.6029C280.975 26.5116 281.074 26.466 281.187 26.466L281.633 26.1236C281.789 25.9866 281.93 25.7926 282.058 25.5415C282.199 25.2676 282.27 24.9709 282.27 24.6513C282.27 24.4459 282.256 24.2291 282.228 24.0008C282.213 23.7726 282.206 23.5101 282.206 23.2133Z" fill="#56321E"/>
</g>
</g>
<defs>
<filter id="filter0_d" x="0.296875" y="0.508057" width="318.703" height="50.1487" filterUnits="userSpaceOnUse" color-interpolation-filters="sRGB">
<feFlood flood-opacity="0" result="BackgroundImageFix"/>
<feColorMatrix in="SourceAlpha" type="matrix" values="0 0 0 0 0 0 0 0 0 0 0 0 0 0 0 0 0 0 127 0"/>
<feOffset dy="4"/>
<feGaussianBlur stdDeviation="2"/>
<feColorMatrix type="matrix" values="0 0 0 0 0 0 0 0 0 0 0 0 0 0 0 0 0 0 0.25 0"/>
<feBlend mode="normal" in2="BackgroundImageFix" result="effect1_dropShadow"/>
<feBlend mode="normal" in="SourceGraphic" in2="effect1_dropShadow" result="shape"/>
</filter>
<filter id="filter1_i" x="41.6816" y="12.0518" width="240.588" height="23.5286" filterUnits="userSpaceOnUse" color-interpolation-filters="sRGB">
<feFlood flood-opacity="0" result="BackgroundImageFix"/>
<feBlend mode="normal" in="SourceGraphic" in2="BackgroundImageFix" result="shape"/>
<feColorMatrix in="SourceAlpha" type="matrix" values="0 0 0 0 0 0 0 0 0 0 0 0 0 0 0 0 0 0 127 0" result="hardAlpha"/>
<feOffset dy="1"/>
<feGaussianBlur stdDeviation="0.5"/>
<feComposite in2="hardAlpha" operator="arithmetic" k2="-1" k3="1"/>
<feColorMatrix type="matrix" values="0 0 0 0 0 0 0 0 0 0 0 0 0 0 0 0 0 0 0.3 0"/>
<feBlend mode="normal" in2="shape" result="effect1_innerShadow"/>
</filter>
</defs>
</svg>
