<svg width="566" height="53" viewBox="0 0 566 53" fill="none" xmlns="http://www.w3.org/2000/svg">
<g filter="url(#filter0_i)">
<path d="M18.1338 2.49696L15.686 3.22188L14.3372 2.65805H1.04906L0 3.86626V39.6292L3.29706 40.1125L8.2926 38.9043L8.49242 34.3131L7.64318 31.3328L7.19358 23.7614H9.74131L13.5379 22.7143L14.4371 23.117H16.1356L16.5852 21.8283L16.835 19.8951L16.1356 19.4119L12.4389 18.4453H7.09367L6.69403 17.2371V9.7462L6.54416 9.34346L6.99376 8.69909L8.84211 9.18237L8.94202 10.0684L9.04193 10.1489L9.89118 9.18237H17.6842L18.4835 7.41033L18.1338 2.49696Z" fill="#56321E"/>
<path d="M40.7226 13.1292L38.8243 8.29635L38.1749 8.61854L34.8279 12.9681L33.3292 17.1565L32.2802 18.7675V13.2097L30.9314 8.53799H28.034L27.2347 9.98784V30.6079L26.9849 31.4939L27.0848 33.5881L32.5799 32.8632L33.4292 32.0577V30.4468L33.6789 27.8693L33.4292 23.6003C33.6623 23.3318 33.8455 23.0096 33.9787 22.6337C34.1452 22.2579 34.3117 21.882 34.4782 21.5061C34.678 21.1302 34.8945 20.7275 35.1276 20.2979C35.3941 19.8146 35.7105 19.3582 36.0768 18.9286L38.3747 16.1094C38.7411 15.6798 39.1074 15.2234 39.4738 14.7401C39.8734 14.2568 40.2897 13.7199 40.7226 13.1292Z" fill="#56321E"/>
<path d="M62.6667 35.8435L62.5169 35.5213C62.5169 35.2528 62.4669 35.0111 62.367 34.7964C62.2671 34.5279 62.1838 34.2325 62.1172 33.9103C61.9174 33.9103 61.7342 33.9909 61.5677 34.152C61.4012 34.2594 61.218 34.3936 61.0182 34.5547C60.8517 34.6621 60.6352 34.7963 60.3688 34.9574C60.1357 35.0648 59.8359 35.1185 59.4696 35.1185H59.2198C58.8202 35.1722 58.4705 35.1991 58.1708 35.1991C57.871 35.1991 57.5879 35.2259 57.3215 35.2796C57.0551 35.2796 56.7887 35.3065 56.5222 35.3602C56.2558 35.3602 55.9394 35.3602 55.5731 35.3602C54.9403 35.1991 54.524 35.0917 54.3242 35.038C54.1577 34.9306 54.0744 34.8769 54.0744 34.8769C54.0744 34.8769 54.0911 34.8769 54.1244 34.8769C54.1577 34.8769 54.1077 34.8232 53.9745 34.7158C53.9412 34.7695 53.9079 34.7964 53.8746 34.7964C53.8413 34.7964 53.808 34.8232 53.7747 34.8769C53.7747 34.8769 53.7414 34.8769 53.6748 34.8769C53.3084 34.6621 53.0087 34.501 52.7756 34.3936C52.5757 34.2862 52.4758 34.0983 52.4758 33.8298C52.4758 33.615 52.3093 33.2391 51.9763 32.7021C51.6765 32.1651 51.5267 31.5476 51.5267 30.8495C51.5267 30.0441 51.5766 29.0238 51.6765 27.7888C51.7765 26.5 51.9763 25.4797 52.276 24.728C52.5424 24.4595 53.0087 24.1641 53.6748 23.8419C54.3408 23.4661 55.0069 23.2781 55.673 23.2781C56.0726 23.2781 56.3724 23.3855 56.5722 23.6003C56.8053 23.7614 56.9885 23.9762 57.1217 24.2447C57.2549 24.5132 57.3215 24.8085 57.3215 25.1307C57.3548 25.3992 57.3715 25.6677 57.3715 25.9362C57.3715 26.3121 57.2882 26.5805 57.1217 26.7416C56.9552 26.9027 56.7553 27.0101 56.5222 27.0638C56.2891 27.1175 56.056 27.1444 55.8228 27.1444C55.5897 27.1444 55.3899 27.1712 55.2234 27.2249C54.5573 27.5471 54.0078 27.7619 53.5749 27.8693C53.1752 27.9767 52.9421 28.0304 52.8755 28.0304C53.042 28.1378 53.1586 28.3526 53.2252 28.6748C53.2918 28.997 53.3417 29.346 53.375 29.7219C53.4083 30.0441 53.425 30.3663 53.425 30.6884C53.425 30.9569 53.4416 31.0912 53.4749 31.0912C54.6406 31.0912 55.6064 31.0106 56.3724 30.8495C57.1383 30.6884 57.7711 30.5005 58.2707 30.2857C58.7702 30.0172 59.1699 29.8024 59.4696 29.6413C59.7693 29.4265 60.0691 29.2923 60.3688 29.2386C60.502 28.7016 60.6519 28.3794 60.8184 28.272C60.9849 28.1109 61.1681 27.8425 61.3679 27.4666C61.3013 26.7148 61.1847 25.963 61.0182 25.2112C60.885 24.4058 60.7351 23.6808 60.5686 23.0365C60.4021 22.3384 60.2356 21.7477 60.0691 21.2644C59.9358 20.7812 59.8692 20.4858 59.8692 20.3784C59.6361 20.3784 59.4363 20.2979 59.2698 20.1368C59.1366 19.9757 59.02 19.8146 58.9201 19.6535C58.8535 19.4924 58.8035 19.3313 58.7702 19.1702C58.7369 19.0091 58.7036 18.9286 58.6703 18.9286C58.304 18.9286 58.0209 18.7943 57.8211 18.5258C57.6878 18.4184 57.5879 18.2842 57.5213 18.1231C56.9885 18.1231 56.5722 18.0157 56.2724 17.8009C55.9727 17.5861 55.6397 17.4787 55.2733 17.4787C54.4407 17.962 53.5415 18.311 52.5757 18.5258C51.6432 18.7406 50.8106 19.1971 50.078 19.8951C49.6783 20.4321 49.312 20.9422 48.979 21.4255C48.6459 21.9088 48.3462 22.4458 48.0798 23.0365C47.8133 23.6272 47.5302 24.2715 47.2305 24.9696C46.9308 25.6677 46.631 26.5 46.3313 27.4666C46.1648 27.8961 46.0482 28.3257 45.9816 28.7553C45.9483 29.1849 45.915 29.6145 45.8817 30.0441C45.8817 30.8495 45.8984 31.655 45.9317 32.4605C45.9983 33.2123 46.2314 34.0714 46.6311 35.038C46.7976 35.2528 46.9308 35.4944 47.0307 35.7629C47.1639 36.0314 47.2305 36.1656 47.2305 36.1656L47.5302 36.5684C47.5969 36.5684 47.6468 36.7295 47.6801 37.0517C47.7467 37.3202 47.7967 37.4544 47.83 37.4544H48.7292C49.1288 37.8303 49.4452 38.1525 49.6783 38.421C49.9115 38.6358 50.1279 38.7969 50.3277 38.9043C50.5276 38.958 50.744 39.0116 50.9772 39.0653C51.2103 39.119 51.51 39.1459 51.8764 39.1459C52.0762 39.1459 52.276 39.1459 52.4758 39.1459C52.709 39.0922 52.9421 39.0653 53.1752 39.0653C53.375 39.0653 53.5915 39.0653 53.8246 39.0653C54.0577 39.0653 54.3408 39.119 54.6739 39.2264C55.4066 39.2264 56.006 39.1727 56.4723 39.0653C56.9718 38.9043 57.4547 38.7163 57.921 38.5015C58.4205 38.2867 58.9367 38.0988 59.4696 37.9377C60.0358 37.7766 60.7185 37.6692 61.5178 37.6155C61.7176 37.5081 61.9507 37.2665 62.2171 36.8906C62.5169 36.461 62.6667 36.1925 62.6667 36.0851C62.6667 35.924 62.5835 35.8435 62.417 35.8435H62.6667Z" fill="#56321E"/>
<path d="M85.0659 43.7371V28.7553L84.4664 22.6337L83.9169 19.9757L83.4673 9.90729L82.9678 6.44377L81.0695 6.8465L80.7198 6.20213H79.9205L75.4245 5.6383C75.3579 6.12158 75.1414 6.41692 74.7751 6.52432C74.4087 6.63171 74.0257 6.71226 73.6261 6.76596C73.2265 6.81965 72.8601 6.8465 72.5271 6.8465C72.194 6.8465 72.0109 6.92705 71.9776 7.08815C69.9127 8.53799 68.3475 10.4174 67.2818 12.7264C66.2494 14.9818 65.7331 17.8278 65.7331 21.2644V22.0699C66.3659 23.7882 67.1319 25.2112 68.0311 26.3389C68.9636 27.4666 69.9294 28.2989 70.9285 28.8359L76.3736 31.8161C76.74 32.192 77.073 32.4605 77.3728 32.6216C77.7058 32.729 78.0721 32.8364 78.4718 32.9438L78.3219 34.3936V39.8708V43.576L79.321 44.8647H83.1676L83.7171 45.5897H84.5164L85.0659 43.7371ZM79.1212 13.1292V18.6064L78.7715 22.3115V24.4863H78.0721L71.0784 22.231L69.28 18.2842C69.4465 17.1028 69.7296 16.2437 70.1292 15.7067C70.5622 15.1697 71.0451 14.7938 71.5779 14.579C72.1441 14.3642 72.7269 14.23 73.3264 14.1763C73.9591 14.1226 74.5586 13.9615 75.1248 13.693C75.6576 13.4245 76.1072 13.2366 76.4736 13.1292C76.8399 13.0218 77.2062 12.9681 77.5726 12.9681C77.8057 12.9681 78.0388 12.9949 78.2719 13.0486C78.5384 13.0486 78.8215 13.0755 79.1212 13.1292Z" fill="#56321E"/>
<path d="M105.706 19.4924L104.207 11.1155L101.71 10.2295L100.96 10.8739V24.003L100.361 24.6474H99.5116L96.9639 26.0167L96.4144 25.6945L96.2145 24.4863L95.8149 23.5198V14.6596L94.9657 10.4711H91.219L90.4197 10.8739L90.0201 16.1094L90.8693 18.848L90.3198 27.6277L91.4188 32.0577L92.6177 32.7021L94.0165 34.152L95.1155 33.5881L95.3153 33.0243L97.0638 33.3465L98.0629 32.541L100.061 29.3191L100.711 28.8359L101.21 29.6413L101.06 30.2052L102.259 31.4939H105.256L105.706 30.5274V19.4924Z" fill="#56321E"/>
<path d="M129.843 35.8435L129.693 35.5213C129.693 35.2528 129.643 35.0111 129.543 34.7964C129.443 34.5279 129.36 34.2325 129.294 33.9103C129.094 33.9103 128.911 33.9909 128.744 34.152C128.578 34.2594 128.394 34.3936 128.195 34.5547C128.028 34.6621 127.812 34.7963 127.545 34.9574C127.312 35.0648 127.012 35.1185 126.646 35.1185H126.396C125.997 35.1722 125.647 35.1991 125.347 35.1991C125.047 35.1991 124.764 35.2259 124.498 35.2796C124.231 35.2796 123.965 35.3065 123.699 35.3602C123.432 35.3602 123.116 35.3602 122.749 35.3602C122.117 35.1991 121.7 35.0917 121.501 35.038C121.334 34.9306 121.251 34.8769 121.251 34.8769C121.251 34.8769 121.267 34.8769 121.301 34.8769C121.334 34.8769 121.284 34.8232 121.151 34.7158C121.118 34.7695 121.084 34.7964 121.051 34.7964C121.018 34.7964 120.984 34.8232 120.951 34.8769C120.951 34.8769 120.918 34.8769 120.851 34.8769C120.485 34.6621 120.185 34.501 119.952 34.3936C119.752 34.2862 119.652 34.0983 119.652 33.8298C119.652 33.615 119.486 33.2391 119.153 32.7021C118.853 32.1651 118.703 31.5476 118.703 30.8495C118.703 30.0441 118.753 29.0238 118.853 27.7888C118.953 26.5 119.153 25.4797 119.452 24.728C119.719 24.4595 120.185 24.1641 120.851 23.8419C121.517 23.4661 122.183 23.2781 122.849 23.2781C123.249 23.2781 123.549 23.3855 123.749 23.6003C123.982 23.7614 124.165 23.9762 124.298 24.2447C124.431 24.5132 124.498 24.8085 124.498 25.1307C124.531 25.3992 124.548 25.6677 124.548 25.9362C124.548 26.3121 124.465 26.5805 124.298 26.7416C124.132 26.9027 123.932 27.0101 123.699 27.0638C123.465 27.1175 123.232 27.1444 122.999 27.1444C122.766 27.1444 122.566 27.1712 122.4 27.2249C121.734 27.5471 121.184 27.7619 120.751 27.8693C120.352 27.9767 120.118 28.0304 120.052 28.0304C120.218 28.1378 120.335 28.3526 120.402 28.6748C120.468 28.997 120.518 29.346 120.551 29.7219C120.585 30.0441 120.601 30.3663 120.601 30.6884C120.601 30.9569 120.618 31.0912 120.651 31.0912C121.817 31.0912 122.783 31.0106 123.549 30.8495C124.315 30.6884 124.947 30.5005 125.447 30.2857C125.947 30.0172 126.346 29.8024 126.646 29.6413C126.946 29.4265 127.245 29.2923 127.545 29.2386C127.678 28.7016 127.828 28.3794 127.995 28.272C128.161 28.1109 128.344 27.8425 128.544 27.4666C128.478 26.7148 128.361 25.963 128.195 25.2112C128.061 24.4058 127.912 23.6808 127.745 23.0365C127.578 22.3384 127.412 21.7477 127.245 21.2644C127.112 20.7812 127.046 20.4858 127.046 20.3784C126.812 20.3784 126.613 20.2979 126.446 20.1368C126.313 19.9757 126.196 19.8146 126.096 19.6535C126.03 19.4924 125.98 19.3313 125.947 19.1702C125.913 19.0091 125.88 18.9286 125.847 18.9286C125.48 18.9286 125.197 18.7943 124.997 18.5258C124.864 18.4184 124.764 18.2842 124.698 18.1231C124.165 18.1231 123.749 18.0157 123.449 17.8009C123.149 17.5861 122.816 17.4787 122.45 17.4787C121.617 17.962 120.718 18.311 119.752 18.5258C118.82 18.7406 117.987 19.1971 117.254 19.8951C116.855 20.4321 116.488 20.9422 116.155 21.4255C115.822 21.9088 115.523 22.4458 115.256 23.0365C114.99 23.6272 114.707 24.2715 114.407 24.9696C114.107 25.6677 113.807 26.5 113.508 27.4666C113.341 27.8961 113.225 28.3257 113.158 28.7553C113.125 29.1849 113.091 29.6145 113.058 30.0441C113.058 30.8495 113.075 31.655 113.108 32.4605C113.175 33.2123 113.408 34.0714 113.807 35.038C113.974 35.2528 114.107 35.4944 114.207 35.7629C114.34 36.0314 114.407 36.1656 114.407 36.1656L114.707 36.5684C114.773 36.5684 114.823 36.7295 114.857 37.0517C114.923 37.3202 114.973 37.4544 115.006 37.4544H115.906C116.305 37.8303 116.622 38.1525 116.855 38.421C117.088 38.6358 117.304 38.7969 117.504 38.9043C117.704 38.958 117.92 39.0116 118.154 39.0653C118.387 39.119 118.686 39.1459 119.053 39.1459C119.253 39.1459 119.452 39.1459 119.652 39.1459C119.885 39.0922 120.118 39.0653 120.352 39.0653C120.551 39.0653 120.768 39.0653 121.001 39.0653C121.234 39.0653 121.517 39.119 121.85 39.2264C122.583 39.2264 123.182 39.1727 123.649 39.0653C124.148 38.9043 124.631 38.7163 125.097 38.5015C125.597 38.2867 126.113 38.0988 126.646 37.9377C127.212 37.7766 127.895 37.6692 128.694 37.6155C128.894 37.5081 129.127 37.2665 129.394 36.8906C129.693 36.461 129.843 36.1925 129.843 36.0851C129.843 35.924 129.76 35.8435 129.593 35.8435H129.843Z" fill="#56321E"/>
<path d="M150.444 12.4848L149.645 11.4377H146.198L143.3 13.3708L142.151 14.1763L141.102 14.9012L139.554 10.3906H136.057L135.158 12.4848V14.4985V28.5942L135.857 31.2523L137.156 30.4468H137.955L138.704 31.1717L141.102 30.2052L140.802 22.4726L140.703 22.3115V19.0897L143.9 18.5258L144.799 17.7204H145.398L146.547 20.3784L145.748 29.7219L146.397 30.6079H151.593L152.092 29.6413V19.9757L152.292 18.1231L150.444 12.4848Z" fill="#56321E"/>
<path d="M169.354 20.5395L170.653 20.459C170.819 20.5664 170.969 20.6469 171.102 20.7006C171.236 20.7543 171.419 20.7812 171.652 20.7812C171.785 20.7812 171.918 20.7543 172.052 20.7006C172.218 20.6469 172.368 20.5932 172.501 20.5395C172.668 20.4858 172.868 20.459 173.101 20.459C173.367 20.4053 173.7 20.3784 174.1 20.3784C174.233 20.3784 174.35 20.4053 174.449 20.459C174.583 20.459 174.683 20.459 174.749 20.459C174.782 20.459 174.816 20.459 174.849 20.459C174.916 20.459 175.049 20.3516 175.249 20.1368C175.082 20.1368 174.999 19.9488 174.999 19.5729C174.999 19.5193 175.016 19.3582 175.049 19.0897C175.082 18.8212 175.099 18.6332 175.099 18.5258C175.066 18.5258 175.049 18.3916 175.049 18.1231C175.049 17.9083 175.082 17.7472 175.149 17.6398C174.916 17.3713 174.799 17.1028 174.799 16.8343C174.799 16.5122 174.732 16.19 174.599 15.8678C174.399 15.9752 174.25 16.0289 174.15 16.0289C173.917 16.0289 173.75 16.0289 173.65 16.0289C173.584 15.9752 173.5 15.9215 173.4 15.8678C173.3 15.8141 173.117 15.7872 172.851 15.7872C172.618 15.7335 172.218 15.6798 171.652 15.6261C171.252 15.5724 170.769 15.5187 170.203 15.465C169.637 15.4113 169.021 15.3308 168.355 15.2234L167.855 6.28267L167.406 5.23556L164.109 5.71885L163.309 7.57143L163.16 14.8207C162.693 14.8207 162.244 14.8207 161.811 14.8207C161.378 14.767 160.961 14.7401 160.562 14.7401C160.229 14.9012 160.046 14.9818 160.012 14.9818C159.713 14.9818 159.446 14.9818 159.213 14.9818C158.98 14.9818 158.747 14.9281 158.514 14.8207H157.714L156.965 15.8678C156.965 16.2974 156.965 16.7806 156.965 17.3176C156.965 17.8546 156.982 18.3916 157.015 18.9286C157.082 19.4655 157.165 19.9488 157.265 20.3784C157.365 20.7543 157.498 20.9959 157.664 21.1033L158.064 21.6672C158.397 21.6672 158.647 21.6672 158.813 21.6672C158.98 21.6135 159.28 21.5329 159.713 21.4255C159.746 21.3181 159.896 21.2644 160.162 21.2644C160.362 21.2644 160.562 21.2913 160.762 21.345C160.995 21.3987 161.145 21.4524 161.211 21.5061C161.311 21.5061 161.411 21.5061 161.511 21.5061C161.644 21.4524 161.777 21.4255 161.911 21.4255L162.61 21.345L162.41 22.9559V33.4271L162.61 38.0182L163.16 39.8708L164.408 39.5486L168.505 40.0319L171.302 39.3875C171.502 38.4747 171.602 37.5618 171.602 36.6489C171.602 35.7361 171.502 34.7695 171.302 33.7492L169.354 32.0577V20.5395Z" fill="#56321E"/>
<path d="M186.721 12.807L186.471 12.0821L186.87 9.50456V2.01368L186.271 1.3693L182.424 4.67173L182.025 7.41033V17.8009L181.076 39.0653L181.825 40.1125L184.922 39.7097L186.171 40.3541L187.22 39.2264V24.8891V21.8283L186.721 12.807Z" fill="#56321E"/>
<path d="M202.442 35.4407L197.446 51.0669L198.096 53H198.795L199.345 52.3556H202.792L203.791 51.0669L204.49 47.4422L205.689 42.6094L207.238 38.6626L207.837 37.0517V35.5213H207.587L208.287 33.7492L209.636 31.8161L211.134 26.0973L212.683 22.4726L213.782 19.4119L214.381 16.5122V14.9818H210.235L208.337 18.9286L207.388 22.231L206.538 23.9225L206.039 26.1778L205.539 26.5L205.09 27.386L204.49 27.7888L200.594 22.4726L200.144 21.5061L196.697 15.3845L196.198 15.0623L193.6 15.465L193.45 16.2705L196.747 24.8891L197.596 27.4666L201.893 34.152L202.042 34.9574L202.592 35.4407H202.442Z" fill="#56321E"/>
<path d="M254.712 38.5015C254.445 36.3536 254.212 34.4205 254.012 32.7021C253.813 30.9301 253.613 29.2118 253.413 27.5471C253.246 25.8825 253.063 24.1373 252.863 22.3115C252.664 20.4858 252.43 18.4721 252.164 16.2705C251.998 15.9483 251.864 15.4919 251.764 14.9012C251.664 14.3105 251.581 13.693 251.515 13.0486C251.448 12.4043 251.381 11.7599 251.315 11.1155C251.282 10.4174 251.248 9.8536 251.215 9.42401C251.115 8.45745 250.998 7.32979 250.865 6.04103C250.732 4.75228 250.466 3.54407 250.066 2.41641C249.966 2.20162 249.8 1.85258 249.566 1.3693C249.367 0.83232 249.25 0.510131 249.217 0.402735C248.784 0.402735 248.401 0.402735 248.068 0.402735C247.735 0.349038 247.402 0.322189 247.069 0.322189C246.736 0.26849 246.386 0.241641 246.02 0.241641C245.687 0.187943 245.287 0.134245 244.821 0.0805461C244.488 0.0805461 244.221 0.0805461 244.021 0.0805461C243.855 0.0805461 243.672 0.0536974 243.472 0C243.339 0 243.205 0 243.072 0H242.722C242.023 1.61094 241.357 3.11449 240.724 4.51064C240.092 5.85309 239.492 7.19554 238.926 8.53799C238.36 9.88045 237.81 11.3303 237.277 12.8875C236.778 14.4448 236.295 16.2437 235.829 18.2842C235.396 20.1099 234.979 21.4255 234.58 22.231C234.213 23.0365 233.947 23.7345 233.78 24.3252C233.414 25.3992 233.114 26.3121 232.881 27.0638C232.681 27.7619 232.415 28.6479 232.082 29.7219L231.333 33.5076C231.199 34.0983 231.066 34.689 230.933 35.2796C230.833 35.8703 230.717 36.5147 230.583 37.2128C230.617 37.696 230.65 38.0988 230.683 38.421C230.717 38.6895 230.766 39.0117 230.833 39.3875H236.128C236.395 38.2599 236.645 37.2396 236.878 36.3267C237.111 35.4139 237.327 34.5279 237.527 33.6687C237.76 32.7558 237.993 31.8161 238.226 30.8495C238.46 29.883 238.726 28.809 239.026 27.6277C239.226 27.3055 239.509 27.0907 239.875 26.9833C240.275 26.8759 240.708 26.8222 241.174 26.8222C241.64 26.7685 242.123 26.7416 242.623 26.7416C243.155 26.7416 243.638 26.7416 244.071 26.7416C244.771 26.7416 245.47 26.7416 246.169 26.7416C246.902 26.6879 247.618 26.6342 248.317 26.5805C248.384 27.2786 248.434 27.9498 248.467 28.5942C248.534 29.2386 248.567 29.6682 248.567 29.883C248.567 30.0978 248.534 30.232 248.467 30.2857C248.401 30.3394 248.367 30.6079 248.367 31.0912C248.367 32.541 248.417 33.8298 248.517 34.9574C248.617 36.0314 248.734 37.2128 248.867 38.5015L250.416 38.7432C250.615 38.7969 250.832 38.8506 251.065 38.9043C251.298 38.9043 251.581 38.9043 251.914 38.9043C252.214 38.9043 252.464 38.8774 252.664 38.8237C252.897 38.7163 253.113 38.6895 253.313 38.7432L254.712 38.5015ZM247.868 21.6672L247.618 22.1505H245.47C245.07 22.1505 244.671 22.1505 244.271 22.1505C243.905 22.0968 243.605 22.0699 243.372 22.0699C242.539 22.1773 241.773 22.231 241.074 22.231C241.074 22.1773 241.057 22.1505 241.024 22.1505C241.024 22.0968 241.024 22.0431 241.024 21.9894V21.9088L241.723 19.4924C242.056 18.0426 242.456 16.5927 242.922 15.1429C243.389 13.6393 243.938 12.4311 244.571 11.5182C244.771 11.2497 244.97 10.9544 245.17 10.6322C245.403 10.31 245.603 9.9073 245.77 9.42401C245.903 9.42401 246.02 9.45086 246.119 9.50456C246.219 9.50456 246.286 9.50456 246.319 9.50456H246.469V9.58511C246.469 9.6925 246.519 9.77305 246.619 9.82675C246.719 11.1155 246.885 12.2163 247.119 13.1292C247.352 14.042 247.502 14.9281 247.568 15.7872L247.668 18.6869C247.701 19.1702 247.718 19.6535 247.718 20.1368C247.751 20.5664 247.801 21.0765 247.868 21.6672Z" fill="#56321E"/>
<path d="M274.948 26.2584C274.881 25.7751 274.731 25.3992 274.498 25.1307C274.265 24.8622 274.148 24.4863 274.148 24.003C273.849 23.8419 273.615 23.7077 273.449 23.6003C273.282 23.4392 273.133 23.3318 272.999 23.2781C272.899 23.1707 272.783 23.0365 272.65 22.8754C272.55 22.7143 272.383 22.5532 272.15 22.3921C272.083 22.3921 271.884 22.2578 271.551 21.9894C271.251 21.6672 271.051 21.4792 270.951 21.4255L270.252 20.8617C269.819 20.5395 269.503 20.2442 269.303 19.9757C269.136 19.7072 269.036 19.4656 269.003 19.2508L268.104 17.8815C267.971 17.8815 267.837 17.7741 267.704 17.5593C267.604 17.2908 267.554 16.7538 267.554 15.9483C267.554 15.1966 267.604 14.6327 267.704 14.2568C267.837 13.8809 268.22 13.4245 268.853 12.8875H268.953C269.053 12.8875 269.186 12.8338 269.353 12.7264C269.519 12.619 269.669 12.4043 269.802 12.0821C269.802 11.9747 269.852 11.8673 269.952 11.7599C270.052 11.6525 270.452 11.4377 271.151 11.1155C271.318 11.1155 271.451 11.0887 271.551 11.035C271.651 10.9276 271.784 10.7933 271.95 10.6322H272.65C272.75 10.6322 272.85 10.6322 272.949 10.6322C273.049 10.5785 273.166 10.5248 273.299 10.4711C273.266 10.4711 273.249 10.4443 273.249 10.3906C273.282 10.3906 273.299 10.3637 273.299 10.31C273.299 10.2563 273.316 10.2295 273.349 10.2295C273.349 10.0684 273.332 9.93414 273.299 9.82675C273.299 9.71935 273.299 9.61195 273.299 9.50456V9.02128C273.299 8.21581 273.166 7.75937 272.899 7.65197C272.666 7.49088 272.467 7.27609 272.3 7.0076C271.9 7.115 271.551 7.19554 271.251 7.24924C270.985 7.24924 270.651 7.24924 270.252 7.24924C270.019 7.24924 269.852 7.24924 269.752 7.24924C269.686 7.19554 269.636 7.14184 269.602 7.08815C269.169 7.35664 268.786 7.54458 268.453 7.65197C268.12 7.70567 267.754 7.86677 267.354 8.13526L265.456 9.42401C265.023 9.8536 264.54 10.2563 264.007 10.6322C263.508 11.0081 263.092 11.5182 262.759 12.1626C262.592 12.6459 262.326 13.1023 261.959 13.5319C261.959 14.0152 261.876 14.3911 261.709 14.6596C261.576 14.9281 261.51 15.2503 261.51 15.6261C261.51 15.7335 261.526 15.8141 261.56 15.8678C261.593 15.9215 261.61 16.0826 261.61 16.3511C261.61 16.5659 261.593 16.8075 261.56 17.076C261.526 17.3445 261.476 17.5324 261.41 17.6398C261.41 18.1231 261.493 18.6601 261.659 19.2508C261.859 19.7877 262.043 20.1099 262.209 20.2173L262.659 20.8617C262.992 21.0765 263.275 21.3181 263.508 21.5866C263.741 21.8551 263.957 22.1505 264.157 22.4726C264.357 22.7411 264.557 23.0096 264.757 23.2781C264.99 23.4929 265.273 23.6272 265.606 23.6809C266.072 23.9493 266.355 24.191 266.455 24.4058C266.588 24.5669 266.655 24.728 266.655 24.8891C266.688 24.9965 266.738 25.1307 266.805 25.2918C266.872 25.3992 267.121 25.614 267.554 25.9362C267.554 26.151 267.671 26.4463 267.904 26.8222L268.304 27.4666C268.404 27.8961 268.453 28.2989 268.453 28.6748C268.453 29.1581 268.337 29.5608 268.104 29.883C267.904 30.1515 267.654 30.3931 267.354 30.6079C267.088 30.769 266.838 30.8764 266.605 30.9301C266.372 30.9838 266.255 30.9838 266.255 30.9301C265.489 31.306 264.94 31.5745 264.607 31.7356C264.307 31.8967 264.007 31.9772 263.708 31.9772C263.475 31.9772 263.008 31.8967 262.309 31.7356C262.242 31.8967 262.126 31.9772 261.959 31.9772C261.793 31.9772 261.576 31.8967 261.31 31.7356C261.077 31.5745 260.977 31.5208 261.01 31.5745C261.21 32.3262 261.293 33.0243 261.26 33.6687C261.227 34.2594 261.293 34.5547 261.46 34.5547H261.51C261.476 34.6084 261.443 34.689 261.41 34.7964C261.376 34.9037 261.36 35.038 261.36 35.1991C261.36 35.1991 261.376 35.1991 261.41 35.1991C261.343 35.2528 261.31 35.2796 261.31 35.2796C261.31 35.387 261.443 35.575 261.709 35.8435C262.009 36.0583 262.176 36.1656 262.209 36.1656C262.842 36.0583 263.475 35.8972 264.107 35.6824C264.74 35.4676 265.439 35.3602 266.205 35.3602C266.672 35.3602 267.105 35.4407 267.504 35.6018C267.904 35.7629 268.32 35.8435 268.753 35.8435C269.386 35.8435 269.885 35.7361 270.252 35.5213C270.651 35.3065 270.968 35.0917 271.201 34.8769C271.434 34.6084 271.651 34.3936 271.85 34.2325C272.05 34.0177 272.283 33.9103 272.55 33.9103L273.599 33.1049C273.965 32.7827 274.298 32.3262 274.598 31.7356C274.931 31.0912 275.098 30.3931 275.098 29.6413C275.098 29.1581 275.064 28.6479 274.998 28.1109C274.964 27.574 274.948 26.9564 274.948 26.2584Z" fill="#56321E"/>
<path d="M290.576 22.7143C290.443 22.8217 290.31 22.8754 290.177 22.8754C289.944 22.8754 289.777 22.7143 289.677 22.3921L289.377 19.8951C289.344 18.7675 289.327 17.2908 289.327 15.465C289.327 13.6393 289.311 11.7867 289.277 9.90729C289.244 7.97416 289.194 6.17528 289.128 4.51064C289.061 2.7923 288.944 1.50355 288.778 0.644376C288.212 0.644376 287.795 0.644376 287.529 0.644376C287.263 0.644376 287.013 0.644376 286.78 0.644376C286.58 0.590678 286.347 0.56383 286.08 0.56383C285.814 0.510132 285.448 0.456434 284.981 0.402735C284.781 0.724924 284.615 0.912867 284.482 0.966565C284.349 0.966565 284.215 1.07396 284.082 1.28875V4.91337C284.082 7.49088 284.049 9.90729 283.982 12.1626C283.949 14.3642 283.916 16.539 283.882 18.6869C283.849 20.8349 283.816 23.0096 283.782 25.2112C283.749 27.3592 283.732 29.6413 283.732 32.0577C283.732 32.9706 283.732 33.9103 283.732 34.8769C283.732 35.8435 283.749 36.8637 283.782 37.9377C283.716 38.1525 283.649 38.3673 283.583 38.5821C283.549 38.7969 283.533 38.958 283.533 39.0653C283.632 39.4412 283.716 39.7366 283.782 39.9514C283.849 40.2199 283.916 40.4615 283.982 40.6763L284.482 42.2067C284.881 42.2067 285.364 42.2067 285.93 42.2067C286.497 42.2604 287.063 42.2604 287.629 42.2067C288.228 42.2067 288.811 42.1261 289.377 41.965C289.943 41.8039 290.476 41.5086 290.976 41.079C290.909 40.1125 290.876 39.0653 290.876 37.9377C290.909 36.81 290.826 35.575 290.626 34.2325C290.46 33.2123 290.36 32.5142 290.326 32.1383C290.293 31.7624 290.277 31.306 290.277 30.769C290.277 30.5005 290.277 30.2052 290.277 29.883C290.31 29.5608 290.443 29.2923 290.676 29.0775C291.809 30.42 292.691 31.5476 293.324 32.4605C293.957 33.3197 294.456 34.0446 294.822 34.6353C295.189 35.1722 295.422 35.575 295.522 35.8435C295.622 36.1119 295.705 36.2999 295.772 36.4073L295.971 36.9711V37.0517C295.971 37.1054 296.021 37.2933 296.121 37.6155C296.221 37.884 296.538 38.421 297.07 39.2264C297.37 39.656 297.587 39.9514 297.72 40.1125C297.886 40.3273 298.02 40.4883 298.12 40.5957C298.219 40.7031 298.286 40.7837 298.319 40.8374C298.386 40.8911 298.503 40.9985 298.669 41.1596L299.568 41.8845C299.968 41.616 300.368 41.1059 300.767 40.3541C301.167 39.656 301.766 39.0116 302.566 38.421C302.965 38.1525 303.265 37.9645 303.465 37.8571C303.665 37.7497 303.764 37.535 303.764 37.2128C303.764 36.8906 303.681 36.5684 303.515 36.2462C303.348 35.924 303.148 35.6018 302.915 35.2796C302.682 34.9037 302.432 34.5547 302.166 34.2325C301.933 33.9103 301.75 33.5881 301.616 33.266C300.917 32.192 300.234 31.306 299.568 30.6079C298.902 29.9098 298.286 29.2654 297.72 28.6748C297.154 28.0841 296.604 27.5471 296.071 27.0638C295.572 26.5805 295.106 26.0704 294.673 25.5334C295.239 24.8891 295.755 24.2715 296.221 23.6809C296.687 23.0365 297.154 22.3921 297.62 21.7477C298.086 21.0496 298.586 20.2979 299.119 19.4924C299.652 18.6332 300.268 17.6667 300.967 16.5927C300.867 16.2705 300.751 15.9215 300.617 15.5456C300.517 15.1697 300.351 14.8744 300.118 14.6596C300.051 14.7133 299.918 14.7401 299.718 14.7401C299.585 14.7401 299.435 14.7133 299.269 14.6596C299.102 14.6059 298.919 14.4716 298.719 14.2568C298.253 14.6864 297.87 15.0355 297.57 15.3039C297.27 15.5724 296.954 15.8678 296.621 16.19C296.288 16.5122 295.922 16.9417 295.522 17.4787C295.122 18.0157 294.623 18.7675 294.023 19.734C293.424 20.1636 293.024 20.5395 292.824 20.8617C292.624 21.1302 292.358 21.3718 292.025 21.5866C291.858 21.8014 291.659 22.0162 291.426 22.231C291.192 22.4458 290.943 22.768 290.676 23.1976C290.61 23.1439 290.576 23.0365 290.576 22.8754V22.7143Z" fill="#56321E"/>
<path d="M324.689 35.8435L324.539 35.5213C324.539 35.2528 324.489 35.0111 324.389 34.7964C324.289 34.5279 324.206 34.2325 324.139 33.9103C323.939 33.9103 323.756 33.9909 323.59 34.152C323.423 34.2594 323.24 34.3936 323.04 34.5547C322.874 34.6621 322.657 34.7963 322.391 34.9574C322.158 35.0648 321.858 35.1185 321.492 35.1185H321.242C320.842 35.1722 320.493 35.1991 320.193 35.1991C319.893 35.1991 319.61 35.2259 319.344 35.2796C319.077 35.2796 318.811 35.3065 318.544 35.3602C318.278 35.3602 317.961 35.3602 317.595 35.3602C316.962 35.1991 316.546 35.0917 316.346 35.038C316.18 34.9306 316.096 34.8769 316.096 34.8769C316.096 34.8769 316.113 34.8769 316.146 34.8769C316.18 34.8769 316.13 34.8232 315.997 34.7158C315.963 34.7695 315.93 34.7964 315.897 34.7964C315.863 34.7964 315.83 34.8232 315.797 34.8769C315.797 34.8769 315.763 34.8769 315.697 34.8769C315.331 34.6621 315.031 34.501 314.798 34.3936C314.598 34.2862 314.498 34.0983 314.498 33.8298C314.498 33.615 314.331 33.2391 313.998 32.7021C313.699 32.1651 313.549 31.5476 313.549 30.8495C313.549 30.0441 313.599 29.0238 313.699 27.7888C313.799 26.5 313.998 25.4797 314.298 24.728C314.564 24.4595 315.031 24.1641 315.697 23.8419C316.363 23.4661 317.029 23.2781 317.695 23.2781C318.095 23.2781 318.394 23.3855 318.594 23.6003C318.827 23.7614 319.011 23.9762 319.144 24.2447C319.277 24.5132 319.344 24.8085 319.344 25.1307C319.377 25.3992 319.394 25.6677 319.394 25.9362C319.394 26.3121 319.31 26.5805 319.144 26.7416C318.977 26.9027 318.777 27.0101 318.544 27.0638C318.311 27.1175 318.078 27.1444 317.845 27.1444C317.612 27.1444 317.412 27.1712 317.245 27.2249C316.579 27.5471 316.03 27.7619 315.597 27.8693C315.197 27.9767 314.964 28.0304 314.898 28.0304C315.064 28.1378 315.181 28.3526 315.247 28.6748C315.314 28.997 315.364 29.346 315.397 29.7219C315.43 30.0441 315.447 30.3663 315.447 30.6884C315.447 30.9569 315.464 31.0912 315.497 31.0912C316.663 31.0912 317.628 31.0106 318.394 30.8495C319.16 30.6884 319.793 30.5005 320.293 30.2857C320.792 30.0172 321.192 29.8024 321.492 29.6413C321.791 29.4265 322.091 29.2923 322.391 29.2386C322.524 28.7016 322.674 28.3794 322.84 28.272C323.007 28.1109 323.19 27.8425 323.39 27.4666C323.323 26.7148 323.207 25.963 323.04 25.2112C322.907 24.4058 322.757 23.6808 322.591 23.0365C322.424 22.3384 322.258 21.7477 322.091 21.2644C321.958 20.7812 321.891 20.4858 321.891 20.3784C321.658 20.3784 321.458 20.2979 321.292 20.1368C321.159 19.9757 321.042 19.8146 320.942 19.6535C320.876 19.4924 320.826 19.3313 320.792 19.1702C320.759 19.0091 320.726 18.9286 320.692 18.9286C320.326 18.9286 320.043 18.7943 319.843 18.5258C319.71 18.4184 319.61 18.2842 319.543 18.1231C319.011 18.1231 318.594 18.0157 318.295 17.8009C317.995 17.5861 317.662 17.4787 317.295 17.4787C316.463 17.962 315.564 18.311 314.598 18.5258C313.665 18.7406 312.833 19.1971 312.1 19.8951C311.7 20.4321 311.334 20.9422 311.001 21.4255C310.668 21.9088 310.368 22.4458 310.102 23.0365C309.835 23.6272 309.552 24.2715 309.253 24.9696C308.953 25.6677 308.653 26.5 308.353 27.4666C308.187 27.8961 308.07 28.3257 308.004 28.7553C307.97 29.1849 307.937 29.6145 307.904 30.0441C307.904 30.8495 307.92 31.655 307.954 32.4605C308.02 33.2123 308.253 34.0714 308.653 35.038C308.82 35.2528 308.953 35.4944 309.053 35.7629C309.186 36.0314 309.253 36.1656 309.253 36.1656L309.552 36.5684C309.619 36.5684 309.669 36.7295 309.702 37.0517C309.769 37.3202 309.819 37.4544 309.852 37.4544H310.751C311.151 37.8303 311.467 38.1525 311.7 38.421C311.934 38.6358 312.15 38.7969 312.35 38.9043C312.55 38.958 312.766 39.0116 312.999 39.0653C313.232 39.119 313.532 39.1459 313.898 39.1459C314.098 39.1459 314.298 39.1459 314.498 39.1459C314.731 39.0922 314.964 39.0653 315.197 39.0653C315.397 39.0653 315.614 39.0653 315.847 39.0653C316.08 39.0653 316.363 39.119 316.696 39.2264C317.429 39.2264 318.028 39.1727 318.494 39.0653C318.994 38.9043 319.477 38.7163 319.943 38.5015C320.443 38.2867 320.959 38.0988 321.492 37.9377C322.058 37.7766 322.741 37.6692 323.54 37.6155C323.74 37.5081 323.973 37.2665 324.239 36.8906C324.539 36.461 324.689 36.1925 324.689 36.0851C324.689 35.924 324.606 35.8435 324.439 35.8435H324.689Z" fill="#56321E"/>
<path d="M337.147 18.9286L334.449 20.9422C333.617 21.694 332.967 22.4458 332.501 23.1976C332.035 23.9493 331.668 24.7817 331.402 25.6945C331.136 26.6074 330.952 27.6008 330.852 28.6748C330.753 29.7487 330.636 30.9569 330.503 32.2994C330.469 32.4605 330.453 32.729 330.453 33.1049C330.453 33.964 330.603 34.7695 330.902 35.5213C331.202 36.273 331.585 36.9174 332.051 37.4544C332.518 37.9377 333.017 38.3404 333.55 38.6626C334.116 38.9311 334.649 39.119 335.149 39.2264L339.345 39.9514C339.711 40.381 340.078 40.6494 340.444 40.7568C340.844 40.8642 341.227 40.9179 341.593 40.9179L343.791 39.7903H347.088L347.637 40.5152H348.387L348.936 38.6626V24.4863L348.886 24.2447L348.537 24.0836V4.51064L346.988 3.22188H344.49L343.541 4.269C343.541 5.12817 343.475 5.90679 343.341 6.60486C343.241 7.30294 343.191 7.83992 343.191 8.2158C343.191 8.48429 343.275 8.61854 343.441 8.61854V12.2432L342.692 15.8678V16.4316L339.745 18.2842C339.745 18.3916 339.628 18.4453 339.395 18.4453C339.095 18.4453 338.879 18.4184 338.745 18.3647C338.612 18.3647 338.462 18.3379 338.296 18.2842L337.147 18.9286ZM342.592 22.231V26.9027L342.192 30.6079V32.7021H341.593C340.96 32.8632 340.411 32.9975 339.944 33.1049C339.478 33.1586 338.962 33.1854 338.396 33.1854C338.063 33.1854 337.713 33.1586 337.347 33.1049C337.014 33.0512 336.631 32.8901 336.198 32.6216C336.131 32.6216 336.064 32.6484 335.998 32.7021C335.965 32.7021 335.931 32.7021 335.898 32.7021C335.298 32.7021 334.849 32.3799 334.549 31.7356C334.283 31.0375 334.15 29.883 334.15 28.272C334.15 27.0907 334.249 26.2315 334.449 25.6945C334.649 25.1575 334.932 24.7548 335.298 24.4863C335.698 24.2178 336.131 24.0299 336.597 23.9225C337.097 23.8151 337.63 23.6272 338.196 23.3587C338.529 23.2513 338.812 23.1439 339.045 23.0365C339.312 22.8754 339.595 22.768 339.894 22.7143H340.144C340.177 22.768 340.244 22.7948 340.344 22.7948C340.51 22.7948 340.744 22.7143 341.043 22.5532C341.343 22.3384 341.709 22.231 342.142 22.231H342.592Z" fill="#56321E"/>
<path d="M390.239 28.3526C390.472 27.9767 390.721 27.5471 390.988 27.0638C391.254 26.5805 391.504 26.0704 391.737 25.5334C392.004 24.9428 392.22 24.3521 392.387 23.7614C392.553 23.117 392.636 22.5263 392.636 21.9894C392.636 17.8009 392.104 14.042 391.038 10.7128C389.972 7.38348 388.423 4.80598 386.392 2.98024C386.292 2.87285 386.159 2.81915 385.992 2.81915H385.043C384.877 2.81915 384.727 2.846 384.594 2.8997C384.494 2.8997 384.36 2.8997 384.194 2.8997C383.861 2.8997 383.578 2.846 383.345 2.7386C383.112 2.63121 382.978 2.38956 382.945 2.01368L378.149 3.54407C377.317 4.02736 376.501 4.64488 375.701 5.39666C374.902 6.14843 374.153 7.08814 373.453 8.2158C372.787 9.28977 372.238 10.5517 371.805 12.0015C371.405 13.4514 371.156 15.116 371.056 16.9954C370.989 18.6064 370.906 20.1099 370.806 21.5061C370.739 22.8485 370.706 24.1641 370.706 25.4529C370.706 26.3658 370.739 27.2786 370.806 28.1915C370.872 29.0507 371.022 29.9635 371.255 30.9301L371.855 32.4605L378.899 36.4878C379.265 36.4878 379.565 36.4878 379.798 36.4878C380.064 36.4878 380.297 36.461 380.497 36.4073C380.73 36.2999 380.947 36.1657 381.147 36.0046C381.346 35.8435 381.613 35.575 381.946 35.1991L385.892 32.541C386.159 33.2391 386.442 33.9372 386.742 34.6353C387.075 35.3333 387.524 36.1388 388.09 37.0517C388.057 37.5886 388.174 38.0182 388.44 38.3404C388.74 38.6089 389.006 38.8506 389.239 39.0653L390.189 39.8708L391.937 38.5821C392.603 38.0451 393.236 37.5886 393.835 37.2128C394.468 36.7832 394.784 36.4073 394.784 36.0851C394.784 35.6555 394.651 35.2528 394.385 34.8769C394.152 34.4473 393.835 33.8835 393.436 33.1854L392.137 31.2523C391.804 30.7153 391.471 30.232 391.138 29.8024C390.838 29.3191 390.538 28.8359 390.239 28.3526ZM387.391 23.2781L386.242 21.2644C386.076 20.8885 385.892 20.5395 385.693 20.2173C385.526 19.8414 385.36 19.4656 385.193 19.0897L382.795 15.0623C382.629 15.1697 382.429 15.465 382.196 15.9483C381.996 16.4316 381.763 16.9417 381.496 17.4787C381.23 18.0157 380.963 18.499 380.697 18.9286C380.464 19.3582 380.231 19.5729 379.998 19.5729C379.898 19.5729 379.831 19.4924 379.798 19.3313L382.346 25.0502C382.445 25.2112 382.512 25.2918 382.545 25.2918L380.397 26.0973H379.498L377.65 23.2781V22.4726C377.65 21.9357 377.633 21.4255 377.6 20.9422C377.6 20.459 377.6 19.9757 377.6 19.4924C377.6 18.848 377.616 18.2305 377.65 17.6398C377.716 16.9954 377.85 16.2437 378.049 15.3845C378.316 15.116 378.599 14.7401 378.899 14.2568C379.198 13.7199 379.515 13.2097 379.848 12.7264C380.214 12.1895 380.597 11.733 380.997 11.3571C381.396 10.9276 381.829 10.7128 382.296 10.7128C382.529 10.7128 382.828 10.7933 383.195 10.9544C383.561 11.0618 383.961 11.2497 384.394 11.5182C384.86 11.733 385.293 12.0015 385.693 12.3237C386.092 12.5922 386.459 12.8338 386.792 13.0486C387.324 13.5856 387.791 14.2837 388.19 15.1429C388.59 15.9483 388.89 17.076 389.09 18.5258L387.391 23.2781Z" fill="#56321E"/>
<path d="M415.976 19.4924L414.477 11.1155L411.98 10.2295L411.23 10.8739V24.003L410.631 24.6474H409.782L407.234 26.0167L406.684 25.6945L406.485 24.4863L406.085 23.5198V14.6596L405.236 10.4711H401.489L400.69 10.8739L400.29 16.1094L401.139 18.848L400.59 27.6277L401.689 32.0577L402.888 32.7021L404.286 34.152L405.385 33.5881L405.585 33.0243L407.334 33.3465L408.333 32.541L410.331 29.3191L410.981 28.8359L411.48 29.6413L411.33 30.2052L412.529 31.4939H415.526L415.976 30.5274V19.4924Z" fill="#56321E"/>
<path d="M440.113 35.8435L439.963 35.5213C439.963 35.2528 439.913 35.0111 439.813 34.7964C439.714 34.5279 439.63 34.2325 439.564 33.9103C439.364 33.9103 439.181 33.9909 439.014 34.152C438.848 34.2594 438.664 34.3936 438.465 34.5547C438.298 34.6621 438.082 34.7963 437.815 34.9574C437.582 35.0648 437.282 35.1185 436.916 35.1185H436.666C436.267 35.1722 435.917 35.1991 435.617 35.1991C435.317 35.1991 435.034 35.2259 434.768 35.2796C434.501 35.2796 434.235 35.3065 433.969 35.3602C433.702 35.3602 433.386 35.3602 433.019 35.3602C432.387 35.1991 431.97 35.0917 431.771 35.038C431.604 34.9306 431.521 34.8769 431.521 34.8769C431.521 34.8769 431.537 34.8769 431.571 34.8769C431.604 34.8769 431.554 34.8232 431.421 34.7158C431.388 34.7695 431.354 34.7964 431.321 34.7964C431.288 34.7964 431.254 34.8232 431.221 34.8769C431.221 34.8769 431.188 34.8769 431.121 34.8769C430.755 34.6621 430.455 34.501 430.222 34.3936C430.022 34.2862 429.922 34.0983 429.922 33.8298C429.922 33.615 429.756 33.2391 429.423 32.7021C429.123 32.1651 428.973 31.5476 428.973 30.8495C428.973 30.0441 429.023 29.0238 429.123 27.7888C429.223 26.5 429.423 25.4797 429.722 24.728C429.989 24.4595 430.455 24.1641 431.121 23.8419C431.787 23.4661 432.453 23.2781 433.119 23.2781C433.519 23.2781 433.819 23.3855 434.019 23.6003C434.252 23.7614 434.435 23.9762 434.568 24.2447C434.701 24.5132 434.768 24.8085 434.768 25.1307C434.801 25.3992 434.818 25.6677 434.818 25.9362C434.818 26.3121 434.735 26.5805 434.568 26.7416C434.402 26.9027 434.202 27.0101 433.969 27.0638C433.735 27.1175 433.502 27.1444 433.269 27.1444C433.036 27.1444 432.836 27.1712 432.67 27.2249C432.004 27.5471 431.454 27.7619 431.021 27.8693C430.622 27.9767 430.388 28.0304 430.322 28.0304C430.488 28.1378 430.605 28.3526 430.672 28.6748C430.738 28.997 430.788 29.346 430.821 29.7219C430.855 30.0441 430.871 30.3663 430.871 30.6884C430.871 30.9569 430.888 31.0912 430.921 31.0912C432.087 31.0912 433.053 31.0106 433.819 30.8495C434.585 30.6884 435.217 30.5005 435.717 30.2857C436.217 30.0172 436.616 29.8024 436.916 29.6413C437.216 29.4265 437.515 29.2923 437.815 29.2386C437.948 28.7016 438.098 28.3794 438.265 28.272C438.431 28.1109 438.614 27.8425 438.814 27.4666C438.748 26.7148 438.631 25.963 438.465 25.2112C438.331 24.4058 438.182 23.6808 438.015 23.0365C437.849 22.3384 437.682 21.7477 437.515 21.2644C437.382 20.7812 437.316 20.4858 437.316 20.3784C437.083 20.3784 436.883 20.2979 436.716 20.1368C436.583 19.9757 436.466 19.8146 436.366 19.6535C436.3 19.4924 436.25 19.3313 436.217 19.1702C436.183 19.0091 436.15 18.9286 436.117 18.9286C435.75 18.9286 435.467 18.7943 435.267 18.5258C435.134 18.4184 435.034 18.2842 434.968 18.1231C434.435 18.1231 434.019 18.0157 433.719 17.8009C433.419 17.5861 433.086 17.4787 432.72 17.4787C431.887 17.962 430.988 18.311 430.022 18.5258C429.09 18.7406 428.257 19.1971 427.524 19.8951C427.125 20.4321 426.758 20.9422 426.425 21.4255C426.092 21.9088 425.793 22.4458 425.526 23.0365C425.26 23.6272 424.977 24.2715 424.677 24.9696C424.377 25.6677 424.077 26.5 423.778 27.4666C423.611 27.8961 423.495 28.3257 423.428 28.7553C423.395 29.1849 423.361 29.6145 423.328 30.0441C423.328 30.8495 423.345 31.655 423.378 32.4605C423.445 33.2123 423.678 34.0714 424.077 35.038C424.244 35.2528 424.377 35.4944 424.477 35.7629C424.61 36.0314 424.677 36.1656 424.677 36.1656L424.977 36.5684C425.043 36.5684 425.093 36.7295 425.126 37.0517C425.193 37.3202 425.243 37.4544 425.276 37.4544H426.176C426.575 37.8303 426.892 38.1525 427.125 38.421C427.358 38.6358 427.574 38.7969 427.774 38.9043C427.974 38.958 428.19 39.0116 428.424 39.0653C428.657 39.119 428.956 39.1459 429.323 39.1459C429.523 39.1459 429.722 39.1459 429.922 39.1459C430.155 39.0922 430.388 39.0653 430.622 39.0653C430.821 39.0653 431.038 39.0653 431.271 39.0653C431.504 39.0653 431.787 39.119 432.12 39.2264C432.853 39.2264 433.452 39.1727 433.919 39.0653C434.418 38.9043 434.901 38.7163 435.367 38.5015C435.867 38.2867 436.383 38.0988 436.916 37.9377C437.482 37.7766 438.165 37.6692 438.964 37.6155C439.164 37.5081 439.397 37.2665 439.664 36.8906C439.963 36.461 440.113 36.1925 440.113 36.0851C440.113 35.924 440.03 35.8435 439.863 35.8435H440.113Z" fill="#56321E"/>
<path d="M458.866 26.2584C458.799 25.7751 458.649 25.3992 458.416 25.1307C458.183 24.8622 458.066 24.4863 458.066 24.003C457.767 23.8419 457.533 23.7077 457.367 23.6003C457.2 23.4392 457.05 23.3318 456.917 23.2781C456.817 23.1707 456.701 23.0365 456.568 22.8754C456.468 22.7143 456.301 22.5532 456.068 22.3921C456.001 22.3921 455.802 22.2578 455.469 21.9894C455.169 21.6672 454.969 21.4792 454.869 21.4255L454.17 20.8617C453.737 20.5395 453.42 20.2442 453.221 19.9757C453.054 19.7072 452.954 19.4656 452.921 19.2508L452.022 17.8815C451.888 17.8815 451.755 17.7741 451.622 17.5593C451.522 17.2908 451.472 16.7538 451.472 15.9483C451.472 15.1966 451.522 14.6327 451.622 14.2568C451.755 13.8809 452.138 13.4245 452.771 12.8875H452.871C452.971 12.8875 453.104 12.8338 453.271 12.7264C453.437 12.619 453.587 12.4043 453.72 12.0821C453.72 11.9747 453.77 11.8673 453.87 11.7599C453.97 11.6525 454.37 11.4377 455.069 11.1155C455.235 11.1155 455.369 11.0887 455.469 11.035C455.568 10.9276 455.702 10.7933 455.868 10.6322H456.568C456.668 10.6322 456.767 10.6322 456.867 10.6322C456.967 10.5785 457.084 10.5248 457.217 10.4711C457.184 10.4711 457.167 10.4443 457.167 10.3906C457.2 10.3906 457.217 10.3637 457.217 10.31C457.217 10.2563 457.234 10.2295 457.267 10.2295C457.267 10.0684 457.25 9.93414 457.217 9.82675C457.217 9.71935 457.217 9.61195 457.217 9.50456V9.02128C457.217 8.21581 457.084 7.75937 456.817 7.65197C456.584 7.49088 456.384 7.27609 456.218 7.0076C455.818 7.115 455.469 7.19554 455.169 7.24924C454.902 7.24924 454.569 7.24924 454.17 7.24924C453.937 7.24924 453.77 7.24924 453.67 7.24924C453.604 7.19554 453.554 7.14184 453.52 7.08815C453.087 7.35664 452.704 7.54458 452.371 7.65197C452.038 7.70567 451.672 7.86677 451.272 8.13526L449.374 9.42401C448.941 9.8536 448.458 10.2563 447.925 10.6322C447.426 11.0081 447.009 11.5182 446.676 12.1626C446.51 12.6459 446.243 13.1023 445.877 13.5319C445.877 14.0152 445.794 14.3911 445.627 14.6596C445.494 14.9281 445.428 15.2503 445.428 15.6261C445.428 15.7335 445.444 15.8141 445.477 15.8678C445.511 15.9215 445.527 16.0826 445.527 16.3511C445.527 16.5659 445.511 16.8075 445.477 17.076C445.444 17.3445 445.394 17.5324 445.328 17.6398C445.328 18.1231 445.411 18.6601 445.577 19.2508C445.777 19.7877 445.96 20.1099 446.127 20.2173L446.577 20.8617C446.91 21.0765 447.193 21.3181 447.426 21.5866C447.659 21.8551 447.875 22.1505 448.075 22.4726C448.275 22.7411 448.475 23.0096 448.675 23.2781C448.908 23.4929 449.191 23.6272 449.524 23.6809C449.99 23.9493 450.273 24.191 450.373 24.4058C450.506 24.5669 450.573 24.728 450.573 24.8891C450.606 24.9965 450.656 25.1307 450.723 25.2918C450.789 25.3992 451.039 25.614 451.472 25.9362C451.472 26.151 451.589 26.4463 451.822 26.8222L452.221 27.4666C452.321 27.8961 452.371 28.2989 452.371 28.6748C452.371 29.1581 452.255 29.5608 452.022 29.883C451.822 30.1515 451.572 30.3931 451.272 30.6079C451.006 30.769 450.756 30.8764 450.523 30.9301C450.29 30.9838 450.173 30.9838 450.173 30.9301C449.407 31.306 448.858 31.5745 448.525 31.7356C448.225 31.8967 447.925 31.9772 447.626 31.9772C447.392 31.9772 446.926 31.8967 446.227 31.7356C446.16 31.8967 446.044 31.9772 445.877 31.9772C445.711 31.9772 445.494 31.8967 445.228 31.7356C444.995 31.5745 444.895 31.5208 444.928 31.5745C445.128 32.3262 445.211 33.0243 445.178 33.6687C445.144 34.2594 445.211 34.5547 445.378 34.5547H445.428C445.394 34.6084 445.361 34.689 445.328 34.7964C445.294 34.9037 445.278 35.038 445.278 35.1991C445.278 35.1991 445.294 35.1991 445.328 35.1991C445.261 35.2528 445.228 35.2796 445.228 35.2796C445.228 35.387 445.361 35.575 445.627 35.8435C445.927 36.0583 446.094 36.1656 446.127 36.1656C446.76 36.0583 447.392 35.8972 448.025 35.6824C448.658 35.4676 449.357 35.3602 450.123 35.3602C450.59 35.3602 451.023 35.4407 451.422 35.6018C451.822 35.7629 452.238 35.8435 452.671 35.8435C453.304 35.8435 453.803 35.7361 454.17 35.5213C454.569 35.3065 454.886 35.0917 455.119 34.8769C455.352 34.6084 455.568 34.3936 455.768 34.2325C455.968 34.0177 456.201 33.9103 456.468 33.9103L457.517 33.1049C457.883 32.7827 458.216 32.3262 458.516 31.7356C458.849 31.0912 459.015 30.3931 459.015 29.6413C459.015 29.1581 458.982 28.6479 458.915 28.1109C458.882 27.574 458.866 26.9564 458.866 26.2584Z" fill="#56321E"/>
<path d="M476.892 20.5395L478.191 20.459C478.357 20.5664 478.507 20.6469 478.64 20.7006C478.774 20.7543 478.957 20.7812 479.19 20.7812C479.323 20.7812 479.456 20.7543 479.59 20.7006C479.756 20.6469 479.906 20.5932 480.039 20.5395C480.206 20.4858 480.406 20.459 480.639 20.459C480.905 20.4053 481.238 20.3784 481.638 20.3784C481.771 20.3784 481.888 20.4053 481.987 20.459C482.121 20.459 482.221 20.459 482.287 20.459C482.321 20.459 482.354 20.459 482.387 20.459C482.454 20.459 482.587 20.3516 482.787 20.1368C482.62 20.1368 482.537 19.9488 482.537 19.5729C482.537 19.5193 482.554 19.3582 482.587 19.0897C482.62 18.8212 482.637 18.6332 482.637 18.5258C482.604 18.5258 482.587 18.3916 482.587 18.1231C482.587 17.9083 482.62 17.7472 482.687 17.6398C482.454 17.3713 482.337 17.1028 482.337 16.8343C482.337 16.5122 482.271 16.19 482.137 15.8678C481.938 15.9752 481.788 16.0289 481.688 16.0289C481.455 16.0289 481.288 16.0289 481.188 16.0289C481.122 15.9752 481.038 15.9215 480.938 15.8678C480.839 15.8141 480.655 15.7872 480.389 15.7872C480.156 15.7335 479.756 15.6798 479.19 15.6261C478.79 15.5724 478.307 15.5187 477.741 15.465C477.175 15.4113 476.559 15.3308 475.893 15.2234L475.393 6.28267L474.944 5.23556L471.647 5.71885L470.847 7.57143L470.698 14.8207C470.231 14.8207 469.782 14.8207 469.349 14.8207C468.916 14.767 468.5 14.7401 468.1 14.7401C467.767 14.9012 467.584 14.9818 467.55 14.9818C467.251 14.9818 466.984 14.9818 466.751 14.9818C466.518 14.9818 466.285 14.9281 466.052 14.8207H465.252L464.503 15.8678C464.503 16.2974 464.503 16.7806 464.503 17.3176C464.503 17.8546 464.52 18.3916 464.553 18.9286C464.62 19.4655 464.703 19.9488 464.803 20.3784C464.903 20.7543 465.036 20.9959 465.202 21.1033L465.602 21.6672C465.935 21.6672 466.185 21.6672 466.351 21.6672C466.518 21.6135 466.818 21.5329 467.251 21.4255C467.284 21.3181 467.434 21.2644 467.7 21.2644C467.9 21.2644 468.1 21.2913 468.3 21.345C468.533 21.3987 468.683 21.4524 468.749 21.5061C468.849 21.5061 468.949 21.5061 469.049 21.5061C469.182 21.4524 469.315 21.4255 469.449 21.4255L470.148 21.345L469.948 22.9559V33.4271L470.148 38.0182L470.698 39.8708L471.946 39.5486L476.043 40.0319L478.84 39.3875C479.04 38.4747 479.14 37.5618 479.14 36.6489C479.14 35.7361 479.04 34.7695 478.84 33.7492L476.892 32.0577V20.5395Z" fill="#56321E"/>
<path d="M496.207 7.65197L494.508 6.52432L492.31 5.87994L490.712 5.31611L489.513 5.96049V13.6125L489.663 14.579L492.66 13.7736L495.008 14.4985L495.707 13.693L496.207 7.65197ZM496.557 34.4742L495.707 33.3465L496.007 31.8967V28.1109L495.657 26.0973V20.5395L495.058 19.4924L494.009 19.4119L493.609 19.734L491.611 19.4924L490.762 20.1368L489.713 39.6292L490.212 40.5152H491.111L491.711 40.193H495.557L496.507 39.4681L496.257 37.535L496.557 34.4742Z" fill="#56321E"/>
<path d="M504.73 19.2508C504.63 20.2173 504.563 21.1302 504.53 21.9894C504.53 22.8485 504.53 23.6271 504.53 24.3252C504.53 25.614 504.646 26.7416 504.88 27.7082L505.379 28.7553L510.674 31.2523H511.873C512.007 31.1986 512.156 31.118 512.323 31.0106C512.489 30.9032 512.673 30.7421 512.872 30.5274L517.069 28.272C517.302 28.1109 517.635 27.8425 518.068 27.4666C518.534 27.0907 518.967 26.6611 519.367 26.1778C519.8 25.6408 520.166 25.0502 520.466 24.4058C520.765 23.7614 520.915 23.0902 520.915 22.3921C520.915 19.8146 520.499 17.4787 519.666 15.3845C518.867 13.2903 517.718 11.6793 516.219 10.5517H516.12C515.986 10.5517 515.753 10.5785 515.42 10.6322C515.087 10.6859 514.787 10.7128 514.521 10.7128C514.288 10.7128 514.071 10.6591 513.872 10.5517C513.705 10.4443 513.622 10.2832 513.622 10.0684L510.075 10.9544C509.475 11.2229 508.876 11.5988 508.277 12.0821C507.677 12.5653 507.128 13.156 506.628 13.8541C506.128 14.4985 505.712 15.2771 505.379 16.19C505.046 17.0491 504.83 18.0694 504.73 19.2508ZM513.971 15.5456C514.371 15.7604 514.804 15.9483 515.27 16.1094C515.737 16.2705 516.169 16.5122 516.569 16.8343C516.969 17.1028 517.318 17.4787 517.618 17.962C517.951 18.4453 518.201 19.1702 518.368 20.1368L517.069 23.1976L511.723 24.9696H511.024L509.725 23.117L509.975 18.2842C510.175 18.1231 510.375 17.8815 510.574 17.5593C510.774 17.2371 510.991 16.9149 511.224 16.5927C511.49 16.2168 511.773 15.9215 512.073 15.7067C512.406 15.4382 512.756 15.3039 513.122 15.3039C513.355 15.3039 513.638 15.3845 513.971 15.5456Z" fill="#56321E"/>
<path d="M543.843 12.4848L543.044 11.4377H539.597L536.699 13.3708L535.55 14.1763L534.501 14.9012L532.953 10.3906H529.456L528.556 12.4848V14.4985V28.5942L529.256 31.2523L530.555 30.4468H531.354L532.103 31.1717L534.501 30.2052L534.201 22.4726L534.102 22.3115V19.0897L537.299 18.5258L538.198 17.7204H538.797L539.946 20.3784L539.147 29.7219L539.796 30.6079H544.992L545.491 29.6413V19.9757L545.691 18.1231L543.843 12.4848Z" fill="#56321E"/>
<path d="M565.85 26.2584C565.784 25.7751 565.634 25.3992 565.401 25.1307C565.167 24.8622 565.051 24.4863 565.051 24.003C564.751 23.8419 564.518 23.7077 564.352 23.6003C564.185 23.4392 564.035 23.3318 563.902 23.2781C563.802 23.1707 563.685 23.0365 563.552 22.8754C563.452 22.7143 563.286 22.5532 563.053 22.3921C562.986 22.3921 562.786 22.2578 562.453 21.9894C562.153 21.6672 561.954 21.4792 561.854 21.4255L561.154 20.8617C560.721 20.5395 560.405 20.2442 560.205 19.9757C560.039 19.7072 559.939 19.4656 559.905 19.2508L559.006 17.8815C558.873 17.8815 558.74 17.7741 558.607 17.5593C558.507 17.2908 558.457 16.7538 558.457 15.9483C558.457 15.1966 558.507 14.6327 558.607 14.2568C558.74 13.8809 559.123 13.4245 559.756 12.8875H559.855C559.955 12.8875 560.089 12.8338 560.255 12.7264C560.422 12.619 560.571 12.4043 560.705 12.0821C560.705 11.9747 560.755 11.8673 560.855 11.7599C560.955 11.6525 561.354 11.4377 562.054 11.1155C562.22 11.1155 562.353 11.0887 562.453 11.035C562.553 10.9276 562.686 10.7933 562.853 10.6322H563.552C563.652 10.6322 563.752 10.6322 563.852 10.6322C563.952 10.5785 564.068 10.5248 564.202 10.4711C564.168 10.4711 564.152 10.4443 564.152 10.3906C564.185 10.3906 564.202 10.3637 564.202 10.31C564.202 10.2563 564.218 10.2295 564.252 10.2295C564.252 10.0684 564.235 9.93414 564.202 9.82675C564.202 9.71935 564.202 9.61195 564.202 9.50456V9.02128C564.202 8.21581 564.068 7.75937 563.802 7.65197C563.569 7.49088 563.369 7.27609 563.203 7.0076C562.803 7.115 562.453 7.19554 562.153 7.24924C561.887 7.24924 561.554 7.24924 561.154 7.24924C560.921 7.24924 560.755 7.24924 560.655 7.24924C560.588 7.19554 560.538 7.14184 560.505 7.08815C560.072 7.35664 559.689 7.54458 559.356 7.65197C559.023 7.70567 558.657 7.86677 558.257 8.13526L556.359 9.42401C555.926 9.8536 555.443 10.2563 554.91 10.6322C554.41 11.0081 553.994 11.5182 553.661 12.1626C553.495 12.6459 553.228 13.1023 552.862 13.5319C552.862 14.0152 552.779 14.3911 552.612 14.6596C552.479 14.9281 552.412 15.2503 552.412 15.6261C552.412 15.7335 552.429 15.8141 552.462 15.8678C552.495 15.9215 552.512 16.0826 552.512 16.3511C552.512 16.5659 552.495 16.8075 552.462 17.076C552.429 17.3445 552.379 17.5324 552.312 17.6398C552.312 18.1231 552.396 18.6601 552.562 19.2508C552.762 19.7877 552.945 20.1099 553.112 20.2173L553.561 20.8617C553.894 21.0765 554.177 21.3181 554.41 21.5866C554.644 21.8551 554.86 22.1505 555.06 22.4726C555.26 22.7411 555.459 23.0096 555.659 23.2781C555.892 23.4929 556.175 23.6272 556.508 23.6809C556.975 23.9493 557.258 24.191 557.358 24.4058C557.491 24.5669 557.558 24.728 557.558 24.8891C557.591 24.9965 557.641 25.1307 557.707 25.2918C557.774 25.3992 558.024 25.614 558.457 25.9362C558.457 26.151 558.573 26.4463 558.806 26.8222L559.206 27.4666C559.306 27.8961 559.356 28.2989 559.356 28.6748C559.356 29.1581 559.239 29.5608 559.006 29.883C558.806 30.1515 558.557 30.3931 558.257 30.6079C557.991 30.769 557.741 30.8764 557.508 30.9301C557.274 30.9838 557.158 30.9838 557.158 30.9301C556.392 31.306 555.842 31.5745 555.509 31.7356C555.21 31.8967 554.91 31.9772 554.61 31.9772C554.377 31.9772 553.911 31.8967 553.211 31.7356C553.145 31.8967 553.028 31.9772 552.862 31.9772C552.695 31.9772 552.479 31.8967 552.212 31.7356C551.979 31.5745 551.879 31.5208 551.913 31.5745C552.112 32.3262 552.196 33.0243 552.162 33.6687C552.129 34.2594 552.196 34.5547 552.362 34.5547H552.412C552.379 34.6084 552.346 34.689 552.312 34.7964C552.279 34.9037 552.262 35.038 552.262 35.1991C552.262 35.1991 552.279 35.1991 552.312 35.1991C552.246 35.2528 552.212 35.2796 552.212 35.2796C552.212 35.387 552.346 35.575 552.612 35.8435C552.912 36.0583 553.078 36.1656 553.112 36.1656C553.744 36.0583 554.377 35.8972 555.01 35.6824C555.643 35.4676 556.342 35.3602 557.108 35.3602C557.574 35.3602 558.007 35.4407 558.407 35.6018C558.806 35.7629 559.223 35.8435 559.656 35.8435C560.288 35.8435 560.788 35.7361 561.154 35.5213C561.554 35.3065 561.87 35.0917 562.104 34.8769C562.337 34.6084 562.553 34.3936 562.753 34.2325C562.953 34.0177 563.186 33.9103 563.452 33.9103L564.501 33.1049C564.868 32.7827 565.201 32.3262 565.5 31.7356C565.833 31.0912 566 30.3931 566 29.6413C566 29.1581 565.967 28.6479 565.9 28.1109C565.867 27.574 565.85 26.9564 565.85 26.2584Z" fill="#56321E"/>
</g>
<defs>
<filter id="filter0_i" x="0" y="0" width="566" height="54" filterUnits="userSpaceOnUse" color-interpolation-filters="sRGB">
<feFlood flood-opacity="0" result="BackgroundImageFix"/>
<feBlend mode="normal" in="SourceGraphic" in2="BackgroundImageFix" result="shape"/>
<feColorMatrix in="SourceAlpha" type="matrix" values="0 0 0 0 0 0 0 0 0 0 0 0 0 0 0 0 0 0 127 0" result="hardAlpha"/>
<feOffset dy="1"/>
<feGaussianBlur stdDeviation="0.5"/>
<feComposite in2="hardAlpha" operator="arithmetic" k2="-1" k3="1"/>
<feColorMatrix type="matrix" values="0 0 0 0 0 0 0 0 0 0 0 0 0 0 0 0 0 0 0.3 0"/>
<feBlend mode="normal" in2="shape" result="effect1_innerShadow"/>
</filter>
</defs>
</svg>
