<svg width="734" height="99" viewBox="0 0 734 99" fill="none" xmlns="http://www.w3.org/2000/svg">
<path d="M734 11.5756L730.95 1.70508H5.49135V13.6907L34.168 38.3669L3.05078 91.9497V99H727.899L729.729 91.9497L707.154 57.4029L734 11.5756Z" fill="#785340"/>
<path d="M3.61876 4.44797C2.31182 3.20271 3.19319 1 4.99839 1H730.223C731.693 1 732.661 2.53236 732.029 3.85955L707.057 56.3249C706.741 56.9889 706.815 57.7728 707.249 58.3661L731.06 90.8831C732.028 92.2043 731.084 94.0647 729.447 94.0647H3.47303C1.93145 94.0647 0.969462 92.3942 1.74323 91.0609L33.9865 35.5007C34.4507 34.7007 34.3059 33.6868 33.6363 33.0488L3.61876 4.44797Z" fill="#AD795E"/>
<path d="M26.846 48.9424C44.1989 51.0437 78.6936 57.1729 82.3103 60.4995C95.4466 72.5819 22.6669 74.3237 13.4229 74.3237" stroke="#CC9477"/>
<path d="M226.232 94.9762L225.888 95.3392L226.614 96.0268L226.958 95.6638L226.232 94.9762ZM342.173 81.2374L342.022 80.7607L342.173 81.2374ZM404.407 81.2374L404.28 80.7539V80.7539L404.407 81.2374ZM499.735 78.6295L499.783 79.1272L499.735 78.6295ZM587.653 81.2374L587.553 80.7475L587.653 81.2374ZM664.211 78.6295L664.315 79.1187L664.211 78.6295ZM30.6861 97.3515C36.1192 95.2652 46.3364 91.3561 56.132 87.9689C61.0303 86.2751 65.8173 84.7139 69.8448 83.5767C73.8942 82.4333 77.1142 81.7374 78.9114 81.7374V80.7374C76.9548 80.7374 73.6055 81.4758 69.5731 82.6143C65.5188 83.759 60.7113 85.3273 55.8052 87.0238C45.992 90.4171 35.7608 94.3317 30.3276 96.418L30.6861 97.3515ZM78.9114 81.7374C81.1725 81.7374 85.2082 82.6909 90.1602 84.1616C95.0879 85.6251 100.851 87.5777 106.532 89.5338C112.208 91.4882 117.803 93.4468 122.378 94.9159C124.666 95.6505 126.706 96.2651 128.38 96.6965C130.037 97.124 131.382 97.3847 132.255 97.3847V96.3847C131.523 96.3847 130.29 96.1565 128.629 95.7282C126.984 95.3039 124.965 94.6961 122.684 93.9638C118.122 92.4989 112.542 90.5458 106.857 88.5883C101.178 86.6325 95.3957 84.6733 90.4449 83.203C85.5184 81.7398 81.3425 80.7374 78.9114 80.7374V81.7374ZM226.958 95.6638C226.917 95.7067 226.897 95.7047 226.968 95.6729C227.025 95.6477 227.111 95.6159 227.233 95.5785C227.476 95.5039 227.82 95.4189 228.267 95.3244C229.159 95.1359 230.419 94.9178 232.002 94.6742C235.164 94.1875 239.584 93.6035 244.854 92.9557C255.392 91.6604 269.312 90.1123 283.327 88.5801C297.34 87.0482 311.45 85.5321 322.364 84.3014C327.821 83.686 332.481 83.1417 335.933 82.7022C337.658 82.4824 339.084 82.2885 340.158 82.1248C341.214 81.9636 341.97 81.826 342.324 81.714L342.022 80.7607C341.758 80.8443 341.086 80.9716 340.007 81.1362C338.946 81.2981 337.529 81.4908 335.806 81.7102C332.362 82.1488 327.708 82.6924 322.252 83.3077C311.34 84.5381 297.235 86.0538 283.218 87.5861C269.203 89.1182 255.278 90.6669 244.732 91.9632C239.459 92.6112 235.027 93.1967 231.85 93.6859C230.262 93.9303 228.98 94.1517 228.061 94.346C227.602 94.4429 227.224 94.5351 226.939 94.6225C226.798 94.6661 226.669 94.7114 226.561 94.7594C226.468 94.8009 226.334 94.8681 226.232 94.9762L226.958 95.6638ZM342.324 81.714C342.578 81.6335 343.005 81.5623 343.614 81.5081C344.215 81.4547 344.963 81.4202 345.843 81.4022C347.603 81.3661 349.866 81.3965 352.485 81.4684C357.723 81.6124 364.352 81.9219 371.169 82.1938C377.981 82.4656 384.977 82.6996 390.931 82.6914C396.863 82.6832 401.827 82.4358 404.535 81.7208L404.28 80.7539C401.717 81.4305 396.884 81.6832 390.93 81.6914C384.998 81.6996 378.02 81.4664 371.209 81.1946C364.403 80.9231 357.759 80.613 352.512 80.4688C349.889 80.3967 347.606 80.3658 345.823 80.4024C344.931 80.4207 344.158 80.4559 343.526 80.5121C342.903 80.5675 342.385 80.6456 342.022 80.7607L342.324 81.714ZM404.535 81.7208C420.262 77.5689 437.238 77.5646 453.716 78.2815C470.163 78.997 486.154 80.4356 499.783 79.1272L499.687 78.1318C486.15 79.4313 470.282 78.0012 453.76 77.2824C437.269 76.565 420.163 76.5607 404.28 80.7539L404.535 81.7208ZM499.783 79.1272C503.428 78.7773 509.772 78.9557 517.517 79.3787C525.251 79.801 534.337 80.4642 543.453 81.0746C552.563 81.6848 561.7 82.242 569.518 82.4507C577.32 82.6591 583.861 82.5227 587.753 81.7273L587.553 80.7475C583.789 81.5168 577.358 81.6597 569.545 81.4511C561.749 81.2429 552.63 80.687 543.519 80.0769C534.413 79.4671 525.314 78.803 517.572 78.3802C509.841 77.958 503.42 77.7734 499.687 78.1318L499.783 79.1272ZM587.753 81.7273C591.534 80.9546 597.421 80.5637 604.352 80.3762C611.273 80.189 619.2 80.2052 627.042 80.2378C634.88 80.2704 642.635 80.3194 649.202 80.197C655.755 80.0749 661.174 79.7821 664.315 79.1187L664.108 78.1403C661.075 78.7809 655.751 79.0748 649.184 79.1972C642.631 79.3193 634.89 79.2705 627.046 79.2379C619.206 79.2053 611.264 79.1889 604.325 79.3766C597.396 79.564 591.429 79.9554 587.553 80.7475L587.753 81.7273ZM664.315 79.1187C670.542 77.8035 678.874 74.2575 687.3 70.9452C695.771 67.6153 704.345 64.5173 711.172 64.0024L711.097 63.0052C704.094 63.5334 695.38 66.6943 686.934 70.0145C678.443 73.3523 670.229 76.8476 664.108 78.1403L664.315 79.1187Z" fill="#CC9477"/>
<path d="M39.0488 1C81.7573 8.7419 169.934 24.3289 180.972 24.7418C194.77 25.258 268.689 24.7418 287.415 24.7418C306.141 24.7418 361.826 10.8064 375.132 9.25803C388.437 7.70965 410.612 9.25803 428.353 9.25803C446.093 9.25803 493.401 18.5483 503.75 16.4838C514.098 14.4193 565.841 15.4516 580.625 12.3548C595.409 9.25803 618.57 12.3548 638.281 12.3548C657.993 12.3548 700.373 13.387 711.707 9.25803C720.774 5.95482 728.11 5.5743 731.559 5.23022" stroke="#CC9477"/>
<path d="M17.084 13.6906C49.184 15.5333 104.399 27.8439 136.795 39.7843C177.291 54.7097 297.573 47.224 306.678 45.865C321.494 43.6538 367.915 27.6228 389.151 27.6228C410.386 27.6228 470.635 35.3619 480.018 35.3619C489.402 35.3619 554.589 32.598 566.441 32.0452C578.294 31.4924 614.838 32.0452 630.148 33.7036C645.457 35.3619 678.051 29.2812 680.52 29.834C682.989 30.3868 716.016 29.834 719.967 29.834" stroke="#CC9477"/>
<path d="M28.0654 27.0863C55.3009 28.4998 85.1509 39.4422 98.9328 52.1632C116.16 68.0645 134.372 77.6052 154.06 79.7254C173.748 81.8456 196.39 69.1245 217.555 69.6546C238.72 70.1846 318.95 66.4743 338.638 63.8241C358.326 61.1739 404.102 52.1632 416.407 52.1632C428.712 52.1632 503.528 55.8735 518.294 57.4636C533.06 59.0537 563.577 52.1632 577.359 52.1632C591.141 52.1632 649.714 52.1632 655.62 52.1632C661.527 52.1632 678.754 45.8027 690.075 45.8027C699.131 45.8027 698.929 45.8027 709.594 45.8027" stroke="#CC9477"/>
</svg>
