<svg width="156" height="186" viewBox="0 0 156 186" fill="none" xmlns="http://www.w3.org/2000/svg">
<g clip-path="url(#clip0)" filter="url(#filter0_d)">
<path d="M125.629 162.421C125.318 163.488 124.716 164.448 123.89 165.195C123.064 165.943 122.046 166.45 120.949 166.659C119.831 166.82 118.698 166.85 117.573 166.75C116.562 166.69 116.188 166.981 116.229 168.045C116.299 170.385 116.229 172.725 116.229 175.075C116.229 176.491 115.945 176.762 114.561 176.762H108.92C107.495 176.762 107.293 176.551 107.283 175.085C107.283 172.675 107.283 170.265 107.283 167.854C107.283 166.991 106.99 166.71 106.151 166.77C105.312 166.83 104.584 166.77 103.796 166.77C103.01 166.801 102.225 166.674 101.49 166.396C100.755 166.118 100.083 165.695 99.5168 165.153C98.9502 164.611 98.4999 163.96 98.193 163.24C97.8861 162.521 97.7289 161.747 97.7309 160.965C97.6399 155.402 97.7309 149.828 97.7309 144.264C97.7309 143.059 98.0543 142.788 99.2774 142.778C101.157 142.778 103.038 142.778 104.918 142.778C106.121 142.778 106.414 143.079 106.424 144.304C106.424 148.643 106.424 152.991 106.424 157.36C106.424 158.816 106.535 158.927 108.001 158.927H115.794C116.956 158.927 117.169 158.716 117.169 157.551C117.169 153.132 117.169 148.723 117.169 144.304C117.169 142.949 117.33 142.798 118.725 142.788C120.565 142.788 122.415 142.788 124.254 142.788C124.509 142.75 124.769 142.774 125.012 142.858C125.255 142.942 125.473 143.083 125.649 143.27L125.629 162.421Z" fill="white"/>
<path d="M30.3721 159.67V144.486C30.3721 142.959 30.554 142.778 32.0803 142.778H53.6205C54.382 142.768 55.138 142.908 55.8441 143.192C56.5503 143.475 57.1924 143.895 57.7328 144.429C58.2732 144.962 58.701 145.597 58.9911 146.296C59.2813 146.996 59.4279 147.746 59.4225 148.503C59.4225 156.008 59.4225 163.513 59.4225 171.018C59.4321 171.776 59.2883 172.528 58.9996 173.229C58.7109 173.931 58.2833 174.568 57.742 175.102C57.2008 175.636 56.557 176.056 55.849 176.338C55.1409 176.62 54.3831 176.757 53.6205 176.743H32.0803C30.5641 176.743 30.3721 176.562 30.3721 175.045V159.67ZM50.4971 159.771C50.4971 157.29 50.4971 154.809 50.4971 152.329C50.4971 151.475 50.204 151.214 49.365 151.224C46.3326 151.224 43.3002 151.224 40.3487 151.224C39.5501 151.224 39.2671 151.485 39.2772 152.289C39.2772 157.27 39.2772 162.258 39.2772 167.252C39.2772 168.066 39.5602 168.317 40.3487 168.307C43.3811 168.307 46.4135 168.307 49.3751 168.307C50.2141 168.307 50.5173 168.046 50.4971 167.202C50.4668 164.722 50.4971 162.241 50.4971 159.771Z" fill="white"/>
<path d="M64.2324 161.819V149.085C64.2324 145.179 66.6381 142.778 70.5297 142.778C76.2104 142.778 81.881 142.778 87.5516 142.778C89 142.778 90.3954 143.32 91.4608 144.295C92.5262 145.269 93.1838 146.607 93.303 148.041C93.4074 149.394 93.4412 150.751 93.4041 152.108C93.4041 159.305 93.4041 166.506 93.4041 173.71V174.403C93.4041 176.562 93.2323 176.732 91.0995 176.732H86.1769C84.7011 176.732 84.3878 176.431 84.3777 174.935C84.3777 172.595 84.3777 170.245 84.3777 167.905C84.3777 166.439 84.2665 166.328 82.8109 166.328H74.6133C73.3296 166.328 73.178 166.479 73.178 167.724C73.178 170.205 73.178 172.685 73.178 175.166C73.178 176.481 72.9253 176.732 71.6315 176.732H66.1024C64.4144 176.732 64.2526 176.572 64.2526 174.834L64.2324 161.819ZM78.7273 158.867C80.2637 158.867 81.7597 158.867 83.3365 158.867C84.0542 158.867 84.3979 158.676 84.3473 157.862C84.3473 155.763 84.3473 153.655 84.3473 151.556C84.3473 150.802 84.0542 150.551 83.3365 150.551C80.3041 150.551 77.1909 150.551 74.1282 150.551C73.4408 150.551 73.1174 150.762 73.1174 151.485C73.1174 153.614 73.1174 155.75 73.1174 157.892C73.1174 158.606 73.4004 158.837 74.1282 158.816C75.6545 158.847 77.1909 158.867 78.7273 158.867Z" fill="white"/>
<path d="M19.2725 112.99V98.3072C19.2777 97.8329 19.3183 97.3596 19.3938 96.8912C19.4143 96.6663 19.5237 96.4587 19.698 96.3138C19.8723 96.1688 20.0973 96.0984 20.3237 96.1179C22.6789 96.1179 25.0441 96.1179 27.3993 96.1179C28.309 96.1179 28.4101 96.7607 28.4101 97.4637V106.733C28.4101 108.48 28.5314 108.591 30.2599 108.591H38.5787C39.9332 108.591 40.0242 108.49 40.0242 107.125C40.0242 104.112 40.0242 101.099 40.0242 98.0863C40.0242 96.3991 40.3072 96.138 41.9851 96.138C43.936 96.138 45.8868 96.138 47.8276 96.138C48.0234 96.1024 48.2251 96.1137 48.4157 96.1709C48.6063 96.2281 48.7805 96.3297 48.9237 96.4671C49.067 96.6045 49.1752 96.7739 49.2395 96.9612C49.3037 97.1485 49.3222 97.3482 49.2932 97.544C49.2932 101.24 49.2932 104.945 49.2932 108.651C49.2583 109.125 49.1349 109.588 48.9293 110.017C47.6962 113.291 46.4832 116.575 45.2096 119.829C44.8659 120.702 45.0883 120.903 45.9475 120.833C46.8066 120.763 47.5243 120.833 48.3026 120.833C49.081 120.833 49.3134 121.084 49.3134 121.787C49.3134 124.026 49.3134 126.266 49.3134 128.516C49.3134 129.6 48.9192 129.921 47.777 129.932H41.8335C40.3881 129.932 40.0747 129.64 40.0646 128.214C40.0646 125.151 40.0646 122.098 40.0646 119.035C40.0646 118.734 40.0646 118.433 40.0646 118.121C40.0646 117.408 39.7007 117.117 38.9831 117.117H29.7545C28.7437 117.117 28.4707 117.71 28.4707 118.563C28.4707 121.727 28.4707 124.88 28.4707 128.044C28.4707 129.952 28.4708 129.972 26.5199 129.972H21.0818C19.6161 129.972 19.3634 129.721 19.3533 128.244C19.3533 123.826 19.3533 119.417 19.3533 114.998L19.2725 112.99Z" fill="white"/>
<path d="M115.753 110.118C118.118 106.884 120.477 103.644 122.829 100.396C123.587 99.3922 124.365 98.3176 125.113 97.2531C125.354 96.8815 125.689 96.5797 126.085 96.3786C126.481 96.1775 126.923 96.0842 127.367 96.1083C129.894 96.1083 132.421 96.1083 134.958 96.1083C135.282 96.1083 135.696 95.9978 135.898 96.3493C136.101 96.7008 135.757 97.0422 135.545 97.3535C132.411 101.471 129.278 105.589 126.104 109.676C125.854 109.92 125.706 110.248 125.687 110.595C125.668 110.943 125.781 111.285 126.003 111.554C129.453 117.138 132.873 122.741 136.262 128.365C136.485 128.727 136.879 129.088 136.646 129.56C136.414 130.032 135.807 129.912 135.363 129.912C133.038 129.912 130.703 129.912 128.388 129.912C127.845 129.966 127.299 129.844 126.832 129.566C126.364 129.287 125.998 128.866 125.79 128.365C123.769 124.539 121.747 120.743 119.726 116.937C119.2 115.932 119.19 115.932 118.513 116.937L118.462 117.027C115.743 119.759 115.308 123.113 115.551 126.778C115.773 130.293 115.682 129.912 112.438 129.922H108.132C106.676 129.922 106.464 129.711 106.464 128.275C106.464 118.627 106.464 108.98 106.464 99.3319C106.464 98.7495 106.464 98.177 106.464 97.5946C106.464 96.4095 106.737 96.1484 107.909 96.1384H113.974C115.349 96.1384 115.601 96.3894 115.601 97.7352C115.601 101.471 115.601 105.207 115.601 108.943V110.057L115.753 110.118Z" fill="white"/>
<path d="M57.4104 139.098C57.4108 136.637 57.6021 135.224 57.6829 133.205C57.784 130.865 57.9356 128.525 58.0367 126.176C58.1277 124.167 58.1479 122.158 58.2692 120.08C58.3298 119.075 57.9356 118.794 56.9754 118.814C54.7213 118.814 52.4571 118.814 50.203 118.814C49.0204 118.814 48.9597 118.734 49.3539 117.689C51.9214 110.85 54.509 104.021 57.0663 97.1724C57.1538 96.853 57.3542 96.5756 57.6309 96.3912C57.9075 96.2067 58.2418 96.1275 58.5724 96.1681C63.8286 96.1681 69.0949 96.1681 74.3611 96.1681C75.5135 96.1681 75.6044 96.3087 75.0889 97.4134C73.0673 101.692 71.0457 105.966 69.0241 110.238C68.3671 111.634 68.357 111.644 69.9541 111.644H77.2419C77.525 111.644 77.9192 111.503 78.0809 111.835C78.2426 112.166 77.8888 112.387 77.717 112.618L62.4539 133.075L57.9963 139.04C57.9356 139.191 57.6829 139.471 57.4104 139.098Z" fill="#FFBC96"/>
<path d="M91.747 129.892C89.0077 129.892 86.2785 129.892 83.5393 129.892C82.037 129.878 80.6009 129.275 79.5443 128.214C78.4877 127.153 77.8963 125.72 77.899 124.228C77.899 122.39 77.899 120.562 77.899 118.724C77.8797 118.113 78.0804 117.515 78.4651 117.037C80.1026 114.868 81.7198 112.679 83.3472 110.489C83.4887 110.308 83.7515 110.128 83.6505 109.887C83.5494 109.646 83.1754 109.696 82.9227 109.696C81.6188 109.696 80.3249 109.696 79.0311 109.696C78.1922 109.696 77.8788 109.435 77.8889 108.581C77.9394 106.271 77.8889 103.962 77.8889 101.652C77.9392 100.23 78.5213 98.8786 79.5214 97.8608C80.5215 96.8431 81.8676 96.2325 83.2967 96.1484C89.0077 96.0881 94.7086 96.1484 100.42 96.1484C100.599 96.1209 100.783 96.135 100.957 96.1897C101.13 96.2443 101.288 96.3379 101.419 96.4632C101.55 96.5886 101.651 96.7423 101.712 96.9123C101.774 97.0824 101.795 97.2643 101.774 97.4439C101.774 99.3419 101.774 101.24 101.774 103.148C101.774 104.203 101.087 104.544 100.157 104.554H88.5933C87.1782 104.554 87.0468 104.685 87.0468 106.05V120.11C87.0468 121.365 87.259 121.596 88.5326 121.606H99.9142C101.542 121.606 101.804 121.857 101.804 123.494C101.804 125.131 101.804 126.758 101.804 128.385C101.804 129.57 101.441 129.902 100.268 129.912H91.747V129.892Z" fill="white"/>
<path d="M61.3622 67.9665C61.3622 71.689 61.3622 75.4215 61.3622 79.164C61.3829 79.9298 61.247 80.6918 60.9627 81.4039C60.6785 82.116 60.2518 82.7634 59.7085 83.3069C59.1651 83.8505 58.5165 84.2789 57.8018 84.5663C57.087 84.8536 56.321 84.9939 55.5501 84.9787H38.1138C37.3506 84.9895 36.5929 84.8484 35.8854 84.5638C35.178 84.2791 34.5349 83.8568 33.9943 83.3214C33.4536 82.7861 33.0262 82.1488 32.7373 81.4468C32.4483 80.7449 32.3037 79.9926 32.3119 79.2343C32.3119 71.7358 32.3119 64.234 32.3119 56.7288C32.3104 55.9707 32.4608 55.22 32.7543 54.5202C33.0478 53.8205 33.4785 53.1857 34.0213 52.653C34.5641 52.1202 35.2082 51.7001 35.916 51.4171C36.6238 51.1341 37.3812 50.9938 38.1442 51.0045H55.5703C56.3319 50.9964 57.0874 51.1395 57.7925 51.4253C58.4976 51.7111 59.1383 52.134 59.6768 52.669C60.2153 53.204 60.6409 53.8405 60.9285 54.5411C61.2162 55.2417 61.3602 55.9923 61.3521 56.7489C61.3656 60.5048 61.369 64.244 61.3622 67.9665ZM41.2271 67.9665C41.2271 70.4771 41.2271 72.9878 41.2271 75.4985C41.2271 76.3019 41.5101 76.563 42.2985 76.5027C45.3444 76.5027 48.3768 76.5027 51.3957 76.5027C52.1336 76.5027 52.4065 76.2617 52.4065 75.4985C52.4065 70.4771 52.4065 65.4558 52.4065 60.4345C52.4065 59.6813 52.1336 59.4302 51.3957 59.4302C48.3566 59.4302 45.3242 59.4302 42.2985 59.4302C41.5101 59.4302 41.2069 59.6813 41.2271 60.4345C41.2473 62.9853 41.2271 65.4659 41.2271 67.9464V67.9665Z" fill="white"/>
<path d="M93.4347 69.8243C93.4347 65.516 93.4347 61.1977 93.4347 56.8894C93.4091 56.1063 93.5461 55.3263 93.8373 54.5981C94.1285 53.87 94.5675 53.2092 95.1271 52.657C95.6866 52.1049 96.3547 51.6732 97.0895 51.3888C97.8244 51.1045 98.6104 50.9736 99.3984 51.0044H116.521C117.31 50.9781 118.095 51.1123 118.829 51.3987C119.563 51.6851 120.23 52.1177 120.79 52.6699C121.349 53.2221 121.789 53.8821 122.083 54.6095C122.376 55.3369 122.516 56.1162 122.495 56.8994C122.495 65.6968 122.495 74.4941 122.495 83.2915C122.495 84.7577 122.263 84.9786 120.746 84.9786H115.318C113.792 84.9786 113.56 84.7477 113.56 83.1911C113.56 80.8411 113.56 78.5011 113.56 76.1612C113.56 74.6749 113.469 74.5745 112.013 74.5745C109.318 74.5745 106.649 74.5745 104.008 74.5745C102.471 74.5745 102.36 74.6749 102.36 76.1713C102.36 78.5112 102.36 80.8612 102.36 83.2011C102.36 84.7477 102.107 84.9786 100.591 84.9786C98.6706 84.9786 96.7602 84.9786 94.8397 84.9786C93.7177 84.9786 93.465 84.7276 93.465 83.5827C93.4448 78.9899 93.4347 74.4038 93.4347 69.8243ZM107.889 67.0927C109.466 67.0927 111.033 67.0927 112.599 67.0927C113.297 67.0927 113.61 66.8718 113.61 66.1587C113.61 64.0197 113.61 61.8906 113.61 59.7515C113.61 59.0184 113.297 58.8176 112.599 58.8276C109.567 58.8276 106.454 58.8276 103.381 58.8276C102.643 58.8276 102.37 59.0887 102.37 59.8319C102.37 61.9308 102.37 64.0297 102.37 66.1286C102.37 66.922 102.714 67.1329 103.431 67.1329C104.887 67.0726 106.393 67.0927 107.889 67.0927Z" fill="white"/>
<path d="M65.5469 67.9263C65.5469 64.3612 65.5469 60.7961 65.5469 57.2309C65.4961 56.3958 65.6251 55.5595 65.9253 54.7778C66.2255 53.9961 66.69 53.287 67.2879 52.6977C67.8857 52.1085 68.6032 51.6527 69.3924 51.3607C70.1815 51.0687 71.0243 50.9473 71.8644 51.0045H87.5521C88.9672 51.0045 89.2401 51.2756 89.2502 52.6615C89.2502 54.3186 89.2502 55.9856 89.2502 57.6829C89.2502 59.1089 88.8762 59.4805 87.4207 59.4905H76.2412C74.7856 59.4905 74.6846 59.591 74.6846 61.0672C74.6846 65.7538 74.6846 70.4404 74.6846 75.1269C74.6846 76.3823 74.8362 76.5329 76.0997 76.5329H87.2791C88.9368 76.5329 89.2502 76.8442 89.2502 78.5414C89.2502 80.2386 89.2502 81.8655 89.2502 83.5627C89.2502 84.7176 88.9268 85.0591 87.8149 85.0591C82.2454 85.0591 76.6961 85.0591 71.1063 85.0591C69.6004 84.9939 68.1793 84.348 67.145 83.2585C66.1107 82.169 65.5447 80.7218 65.5672 79.2243C65.5267 75.4383 65.5469 71.6622 65.5469 67.9263Z" fill="white"/>
<path d="M127.297 67.8961V52.7116C127.297 51.1852 127.479 51.0144 129.015 51.0044H134.858C136.03 51.0044 136.273 51.2555 136.364 52.4304C136.364 52.802 136.364 53.1836 136.364 53.5552V74.8557C136.364 76.4826 136.364 76.5227 138.022 76.5227C141.721 76.5227 145.411 76.5227 149.14 76.5227C150.667 76.5227 151 76.8742 151.01 78.3907C151.01 80.0879 151.01 81.7851 151.01 83.4823C151.01 84.6673 150.657 84.9786 149.464 84.9786H128.844C127.58 84.9786 127.327 84.7376 127.327 83.4823C127.287 78.2902 127.297 73.0882 127.297 67.8961Z" fill="white"/>
<path d="M5 68.0066V52.5208C5 51.155 5.15162 51.0144 6.54652 51.0044H12.298C13.7737 51.0044 13.9557 51.1852 13.9557 52.6414C13.9557 60.006 13.9557 67.3706 13.9557 74.7352C13.9557 76.4525 14.0062 76.5027 15.7549 76.5027C19.414 76.5027 23.0731 76.5027 26.7322 76.5027C28.2686 76.5027 28.6123 76.824 28.6426 78.3405C28.6426 80.0377 28.6426 81.7349 28.6426 83.4321C28.5921 84.7075 28.2787 84.9586 27.0051 84.9586H6.47577C5.17184 84.9586 5 84.7879 5 83.4723V68.0066Z" fill="white"/>
<path d="M60.0988 6.0013C60.0988 4.63551 59.9472 4.49491 58.5523 4.48486H52.8109C51.3251 4.48486 51.1431 4.66563 51.1431 6.12181V28.2156C51.1431 29.9329 51.1431 29.9831 49.354 29.9831H41.7932C40.0344 29.9831 39.994 29.9831 39.994 28.2156V6.12181C39.994 4.66563 39.8121 4.49491 38.3262 4.48486H32.5849C31.1899 4.48486 31.0383 4.63551 31.0383 6.0013C31.0383 11.1632 31.0383 16.3251 31.0383 21.4871V32.4837C31.0383 27.4624 31.0383 22.4411 31.0383 17.4198C31.0383 22.4411 31.0383 27.4624 31.0383 32.4837V32.7649C31.0315 33.5237 31.1774 34.2762 31.4675 34.9782C31.7575 35.6802 32.1859 36.3175 32.7273 36.8526C33.2688 37.3878 33.9125 37.81 34.6205 38.0945C35.3286 38.379 36.0867 38.5201 36.8504 38.5093H54.2766C55.0476 38.5231 55.8134 38.3818 56.528 38.0941C57.2426 37.8064 57.8913 37.3781 58.4352 36.8349C58.979 36.2918 59.4067 35.6451 59.6926 34.9336C59.9785 34.2221 60.1166 33.4605 60.0988 32.6946V32.4837V21.4871C60.0988 16.3251 60.1089 11.1632 60.0988 6.0013Z" fill="white"/>
<path d="M101.248 21.437V10.6913C101.197 9.85661 101.326 9.02068 101.626 8.23945C101.927 7.45821 102.391 6.74967 102.989 6.16119C103.587 5.57272 104.305 5.11788 105.094 4.82708C105.883 4.53629 106.726 4.41623 107.566 4.47495H123.253C124.668 4.47495 124.941 4.7461 124.951 6.12194C124.951 7.78902 124.951 9.4561 124.951 11.1433C124.951 12.5794 124.577 12.9509 123.122 12.961H111.953C110.497 12.961 110.396 13.0715 110.396 14.5477C110.396 19.2343 110.396 23.9209 110.396 28.6074C110.396 29.8627 110.548 30.0134 111.811 30.0134H122.99C124.648 30.0134 125.012 30.3247 125.012 32.0219C125.012 33.7191 125.012 35.346 125.012 37.0432C125.012 38.1981 124.679 38.5396 123.567 38.5396C117.997 38.5396 112.448 38.5396 106.858 38.5396C105.321 38.4898 103.866 37.8356 102.814 36.7207C101.762 35.6059 101.199 34.1217 101.248 32.5943C101.248 28.8585 101.248 25.1327 101.248 21.437Z" fill="white"/>
<path d="M89.4417 21.437H87.7436C88.2995 21.437 88.8555 21.437 89.4114 21.437C90.9112 21.4613 92.3598 20.8952 93.4411 19.8623C94.5223 18.8294 95.1486 17.4135 95.1831 15.9236V10.2295C95.1967 8.73221 94.6151 7.2901 93.5647 6.2164C92.5143 5.14271 91.0799 4.52416 89.5731 4.49512H86.3184V38.4493H89.3508C90.1217 38.4643 90.8877 38.3244 91.6029 38.0379C92.318 37.7514 92.9674 37.3242 93.5122 36.782C94.057 36.2399 94.4858 35.5939 94.7729 34.8829C95.0601 34.1719 95.1996 33.4106 95.1831 32.6446V26.8601C95.1177 25.3939 94.4832 24.01 93.4126 22.9988C92.3421 21.9876 90.9188 21.4278 89.4417 21.437Z" fill="white"/>
<path d="M86.339 4.48486H67.8919C66.3655 4.48486 66.1836 4.65559 66.1836 6.18207V36.7519C66.1836 38.2683 66.3756 38.4591 67.8919 38.4591H86.3693L86.339 4.48486ZM84.3174 16.2649H76.4736C75.7862 16.2649 75.5335 16.1946 75.5335 15.9536C75.5335 14.4405 75.5335 12.924 75.5335 11.4042C75.5335 11.1632 75.7761 11.0829 76.4736 11.0829C79.0814 11.0829 81.6994 11.0829 84.3073 11.0829C85.0351 11.0829 85.3181 11.1632 85.3181 11.4243C85.3181 12.1775 85.3181 12.9207 85.3181 13.6739C85.3181 14.4271 85.3181 15.1803 85.3181 15.9335C85.2979 16.1946 85.0755 16.2749 84.3073 16.2649H84.3174ZM84.9239 30.7966H76.5342C75.8064 30.7966 75.5234 30.7162 75.5234 30.4451C75.5234 28.7847 75.5234 27.1109 75.5234 25.4238C75.5234 25.1627 75.7862 25.0723 76.5342 25.0823C79.3375 25.0823 82.1307 25.0823 84.9137 25.0823C85.6921 25.0823 85.9852 25.1727 85.9245 25.4539C85.9245 26.2774 85.9245 27.1009 85.9245 27.9244C85.9245 28.7479 85.9245 29.5714 85.9245 30.3949C85.9751 30.7162 85.6921 30.7966 84.9137 30.7966H84.9239Z" fill="white"/>
</g>
<defs>
<filter id="filter0_d" x="0" y="-1" width="156" height="189" filterUnits="userSpaceOnUse" color-interpolation-filters="sRGB">
<feFlood flood-opacity="0" result="BackgroundImageFix"/>
<feColorMatrix in="SourceAlpha" type="matrix" values="0 0 0 0 0 0 0 0 0 0 0 0 0 0 0 0 0 0 127 0"/>
<feOffset dy="4"/>
<feGaussianBlur stdDeviation="2.5"/>
<feColorMatrix type="matrix" values="0 0 0 0 0 0 0 0 0 0 0 0 0 0 0 0 0 0 0.2 0"/>
<feBlend mode="normal" in2="BackgroundImageFix" result="effect1_dropShadow"/>
<feBlend mode="normal" in="SourceGraphic" in2="effect1_dropShadow" result="shape"/>
</filter>
<clipPath id="clip0">
<rect width="146" height="179" fill="white" transform="translate(5)"/>
</clipPath>
</defs>
</svg>
