<svg width="241" height="64" viewBox="0 0 241 64" fill="none" xmlns="http://www.w3.org/2000/svg">
<path d="M6.207 61.2961V59.6007L13.6671 36.5422L0.442383 19.2484L198.474 0.598145L240.183 28.4039L237.131 34.8467L189.657 63.6698L6.207 61.2961Z" fill="#785340"/>
<path d="M0.442383 21.2831V19.2485L13.6671 36.8815L12.3107 41.2897L0.442383 21.2831Z" fill="#5B4132"/>
<path d="M13.3285 36.8813L1.12109 19.2484L198.813 0.598145L240.183 28.4039L190.336 58.9225H6.54661L13.3285 36.8813Z" fill="#AD795E"/>
<path d="M3.97656 24.0554C15.4476 21.5105 39.0644 17.0183 41.7634 19.4082C44.4625 21.7982 44.0126 21.5105 43.4503 21.068" stroke="#CC9477" stroke-width="0.926407"/>
<path d="M45.1377 28.0389C60.5448 24.3876 95.0029 17.8817 109.578 21.0682" stroke="#CC9477" stroke-width="0.926407"/>
<path d="M45.1377 28.0387C60.3199 28.26 92.5062 27.9723 99.7937 25.0513" stroke="#CC9477" stroke-width="0.926407"/>
<path d="M77.5264 33.6817C89.8971 29.6985 118.552 21.2009 134.207 19.0765C149.861 16.9521 158.048 15.5358 160.185 15.0933" stroke="#CC9477" stroke-width="0.926407"/>
<path d="M11.7363 50.9424C16.0098 52.602 29.2802 54.9256 48.1737 50.9424C71.7904 45.9633 93.7203 41.6481 104.517 46.2953C115.313 50.9424 164.233 45.2995 167.945 43.9718C170.913 42.9096 199.321 42.644 213.154 42.644" stroke="#CC9477" stroke-width="0.926407"/>
<path d="M9.03711 54.5951C15.3349 56.808 30.4272 60.57 40.4137 57.9145C52.8969 54.5951 88.3073 49.0446 95.0697 50.6103C100.805 51.9383 103.504 53.9312 102.829 56.5867" stroke="#CC9477" stroke-width="0.926407"/>
<path d="M81.2373 18.8878C112.951 12.8023 187.648 3.54172 201.683 5.13501" stroke="#CC9477" stroke-width="0.926407"/>
<path d="M105.191 57.2494C113.514 53.8194 134.341 47.756 151.075 50.9426C171.993 54.9258 174.355 53.9301 180.765 53.5982C185.893 53.3326 193.473 52.8236 196.622 52.6024" stroke="#CC9477" stroke-width="0.926407"/>
<path d="M148.039 50.2784L206.406 47.291" stroke="#CC9477" stroke-width="0.926407"/>
<path d="M12.4111 46.9593C17.1345 47.8445 28.0657 49.0837 34.0036 46.9593C41.426 44.3038 58.6326 38.3291 66.7297 39.3249C74.8269 40.3207 125.434 42.3123 132.519 32.3542C138.187 24.3878 183.014 16.0894 215.178 14.4297" stroke="#CC9477" stroke-width="0.926407"/>
<path d="M8.7002 29.366C26.5815 28.0383 64.0984 24.4534 71.116 20.7357C78.1336 17.018 170.531 14.3183 215.853 13.4331" stroke="#CC9477" stroke-width="0.926407"/>
<path d="M8.02539 28.0389C17.8095 26.4899 38.7272 21.4002 41.4263 21.4002C44.627 21.4002 73.4776 18.7447 83.2617 15.0934C91.089 12.1724 99.5686 10.7782 102.83 10.4463" stroke="#CC9477" stroke-width="0.926407"/>
<path d="M10.3867 31.6906C28.9428 29.9203 68.0117 27.9065 75.839 34.0141C83.6662 40.1218 145.002 36.559 174.692 34.0141L236.433 30.0308" stroke="#CC9477" stroke-width="0.926407"/>
<path d="M13.7607 37.9967C22.6452 36.337 39.8067 33.8807 37.3775 37.3328C34.9484 40.7849 20.6209 41.648 13.7607 41.648" stroke="#CC9477" stroke-width="0.926407"/>
<path d="M12.4111 35.6735C24.6694 34.0138 48.3761 31.6902 45.1372 35.6735C41.0887 40.6525 40.7513 41.6484 14.4354 43.9719" stroke="#CC9477" stroke-width="0.926407"/>
<path d="M3.97656 24.0554C15.4476 21.5105 39.0644 17.0183 41.7634 19.4082C44.4625 21.7982 44.0126 21.5105 43.4503 21.068" stroke="#CC9477" stroke-width="0.926407"/>
<path d="M45.1377 28.0389C60.5448 24.3876 95.0029 17.8817 109.578 21.0682" stroke="#CC9477" stroke-width="0.926407"/>
<path d="M45.1377 28.0387C60.3199 28.26 92.5062 27.9723 99.7937 25.0513" stroke="#CC9477" stroke-width="0.926407"/>
<path d="M77.5264 33.6817C89.8971 29.6985 118.552 21.2009 134.207 19.0765C149.861 16.9521 158.048 15.5358 160.185 15.0933" stroke="#CC9477" stroke-width="0.926407"/>
<path d="M11.7363 50.9424C16.0098 52.602 29.2802 54.9256 48.1737 50.9424C71.7904 45.9633 93.7203 41.6481 104.517 46.2953C115.313 50.9424 164.233 45.2995 167.945 43.9718C170.913 42.9096 199.321 42.644 213.154 42.644" stroke="#CC9477" stroke-width="0.926407"/>
<path d="M9.03711 54.5951C15.3349 56.808 30.4272 60.57 40.4137 57.9145C52.8969 54.5951 88.3073 49.0446 95.0697 50.6103C100.805 51.9383 103.504 53.9312 102.829 56.5867" stroke="#CC9477" stroke-width="0.926407"/>
<path d="M81.2373 18.8878C112.951 12.8023 187.648 3.54172 201.683 5.13501" stroke="#CC9477" stroke-width="0.926407"/>
<path d="M105.191 57.2494C113.514 53.8194 134.341 47.756 151.075 50.9426C171.993 54.9258 174.355 53.9301 180.765 53.5982C185.893 53.3326 193.473 52.8236 196.622 52.6024" stroke="#CC9477" stroke-width="0.926407"/>
<path d="M148.039 50.2784L206.406 47.291" stroke="#CC9477" stroke-width="0.926407"/>
<path d="M12.4111 46.9593C17.1345 47.8445 28.0657 49.0837 34.0036 46.9593C41.426 44.3038 58.6326 38.3291 66.7297 39.3249C74.8269 40.3207 125.434 42.3123 132.519 32.3542C138.187 24.3878 183.014 16.0894 215.178 14.4297" stroke="#CC9477" stroke-width="0.926407"/>
<path d="M8.7002 29.366C26.5815 28.0383 64.0984 24.4534 71.116 20.7357C78.1336 17.018 170.531 14.3183 215.853 13.4331" stroke="#CC9477" stroke-width="0.926407"/>
<path d="M8.02539 28.0389C17.8095 26.4899 38.7272 21.4002 41.4263 21.4002C44.627 21.4002 73.4776 18.7447 83.2617 15.0934C91.089 12.1724 99.5686 10.7782 102.83 10.4463" stroke="#CC9477" stroke-width="0.926407"/>
<path d="M10.3867 31.6906C28.9428 29.9203 68.0117 27.9065 75.839 34.0141C83.6662 40.1218 145.002 36.559 174.692 34.0141L236.433 30.0308" stroke="#CC9477" stroke-width="0.926407"/>
<path d="M13.7607 37.9967C22.6452 36.337 39.8067 33.8807 37.3775 37.3328C34.9484 40.7849 20.6209 41.648 13.7607 41.648" stroke="#CC9477" stroke-width="0.926407"/>
<path d="M12.4111 35.6735C24.6694 34.0138 48.3761 31.6902 45.1372 35.6735C41.0887 40.6525 40.7513 41.6484 14.4354 43.9719" stroke="#CC9477" stroke-width="0.926407"/>
<g filter="url(#filter0_i)">
<path d="M96.6638 44.6844C96.4908 43.4747 96.3395 42.3859 96.2098 41.4181C96.0801 40.4201 95.9503 39.4523 95.8206 38.5148C95.7125 37.5773 95.5936 36.5943 95.4639 35.5661C95.3342 34.5378 95.1828 33.4037 95.0099 32.1637C94.9018 31.9822 94.8153 31.7252 94.7504 31.3925C94.6856 31.0598 94.6315 30.712 94.5883 30.3491C94.545 29.9862 94.5018 29.6233 94.4585 29.2604C94.4369 28.8672 94.4153 28.5496 94.3937 28.3077C94.3288 27.7633 94.2532 27.1282 94.1667 26.4024C94.0802 25.6765 93.9072 24.9961 93.6478 24.3609C93.5829 24.24 93.4748 24.0434 93.3235 23.7712C93.1938 23.4688 93.1181 23.2873 93.0965 23.2268C92.8154 23.2268 92.5668 23.2268 92.3506 23.2268C92.1344 23.1966 91.9182 23.1815 91.702 23.1815C91.4858 23.1512 91.2588 23.1361 91.0209 23.1361C90.8047 23.1059 90.5453 23.0756 90.2426 23.0454C90.0264 23.0454 89.8535 23.0454 89.7237 23.0454C89.6156 23.0454 89.4967 23.0302 89.367 23C89.2805 23 89.194 23 89.1076 23H88.8805C88.4265 23.9073 87.9941 24.7541 87.5833 25.5404C87.1726 26.2965 86.7834 27.0526 86.4158 27.8087C86.0483 28.5648 85.6916 29.3813 85.3457 30.2584C85.0213 31.1354 84.7079 32.1486 84.4052 33.2978C84.1241 34.3261 83.8539 35.0671 83.5944 35.5207C83.3566 35.9744 83.1836 36.3675 83.0755 36.7002C82.8377 37.3051 82.6431 37.8192 82.4918 38.2426C82.3621 38.6358 82.1891 39.1348 81.9729 39.7396L81.4865 41.8718C81.4 42.2045 81.3135 42.5371 81.227 42.8698C81.1622 43.2025 81.0865 43.5654 81 43.9586C81.0216 44.2308 81.0432 44.4576 81.0649 44.6391C81.0865 44.7903 81.1189 44.9717 81.1622 45.1834H84.5998C84.7727 44.5483 84.9349 43.9737 85.0862 43.4596C85.2376 42.9454 85.3781 42.4464 85.5078 41.9625C85.6591 41.4484 85.8105 40.9191 85.9618 40.3748C86.1132 39.8304 86.2861 39.2255 86.4807 38.5602C86.6104 38.3787 86.7942 38.2577 87.032 38.1972C87.2915 38.1368 87.5725 38.1065 87.8752 38.1065C88.1779 38.0763 88.4914 38.0611 88.8157 38.0611C89.1616 38.0611 89.4751 38.0611 89.7562 38.0611C90.2102 38.0611 90.6642 38.0611 91.1182 38.0611C91.5939 38.0309 92.0587 38.0007 92.5127 37.9704C92.556 38.3636 92.5884 38.7416 92.61 39.1045C92.6533 39.4675 92.6749 39.7094 92.6749 39.8304C92.6749 39.9513 92.6533 40.027 92.61 40.0572C92.5668 40.0874 92.5452 40.2387 92.5452 40.5108C92.5452 41.3274 92.5776 42.0533 92.6425 42.6884C92.7073 43.2932 92.783 43.9586 92.8695 44.6844L93.8748 44.8205C94.0045 44.8508 94.1451 44.881 94.2964 44.9112C94.4477 44.9112 94.6315 44.9112 94.8477 44.9112C95.0423 44.9112 95.2044 44.8961 95.3342 44.8659C95.4855 44.8054 95.626 44.7903 95.7558 44.8205L96.6638 44.6844ZM92.2209 35.2032L92.0587 35.4753H90.6642C90.4048 35.4753 90.1453 35.4753 89.8859 35.4753C89.6481 35.4451 89.4535 35.43 89.3021 35.43C88.7616 35.4905 88.2644 35.5207 87.8103 35.5207C87.8103 35.4905 87.7995 35.4753 87.7779 35.4753C87.7779 35.4451 87.7779 35.4149 87.7779 35.3846V35.3392L88.2319 33.9783C88.4481 33.1617 88.7076 32.3452 89.0103 31.5286C89.313 30.6818 89.6697 30.0013 90.0805 29.4872C90.2102 29.336 90.3399 29.1696 90.4696 28.9882C90.621 28.8067 90.7507 28.5799 90.8588 28.3077C90.9453 28.3077 91.0209 28.3228 91.0858 28.3531C91.1507 28.3531 91.1939 28.3531 91.2155 28.3531H91.3128V28.3984C91.3128 28.4589 91.3452 28.5043 91.4101 28.5345C91.475 29.2604 91.5831 29.8803 91.7344 30.3945C91.8858 30.9086 91.983 31.4076 92.0263 31.8915L92.0911 33.5247C92.1128 33.7968 92.1236 34.069 92.1236 34.3412C92.1452 34.5832 92.1776 34.8705 92.2209 35.2032Z" fill="#56321E"/>
<path d="M109.087 32.3905L108.406 32.572H107.887H107.595C107.466 32.572 107.401 32.5417 107.401 32.4813L105.487 32.2544V31.9369L104.968 29.0789V27.0375C105.077 27.0375 105.131 26.9619 105.131 26.8107C105.131 26.6292 105.087 26.3721 105.001 26.0394C104.936 25.7068 104.904 25.3136 104.904 24.86V24.5878L104.32 23.9527H102.666L102.082 24.7239V36.5187L101.466 36.6548L101.661 36.7909V44.7751L101.79 45.7732H102.277L102.634 45.4103H104.774L106.201 46C106.395 46 106.622 45.9698 106.882 45.9093C107.141 45.8488 107.39 45.7278 107.628 45.5464L110.319 44.2761C110.536 44.1552 110.817 43.9283 111.163 43.5957C111.509 43.263 111.844 42.8849 112.168 42.4615C112.514 42.0079 112.806 41.524 113.044 41.0099C113.281 40.4957 113.4 40.0118 113.4 39.5582C113.4 38.7114 113.357 38.0007 113.271 37.426C113.184 36.8514 113.044 36.3373 112.849 35.8836C112.654 35.43 112.395 35.0217 112.071 34.6588C111.746 34.2656 111.336 33.8725 110.838 33.4793L109.087 32.3905ZM105.844 35.5207L106.428 35.3392C106.558 35.2788 106.676 35.2334 106.785 35.2032C106.893 35.1427 107.012 35.0822 107.141 35.0217H107.271C107.422 35.0217 107.628 35.0671 107.887 35.1578C108.147 35.2183 108.417 35.2939 108.698 35.3846C108.979 35.4753 109.249 35.5812 109.509 35.7022C109.768 35.8231 109.963 35.929 110.092 36.0197C110.201 36.1105 110.384 36.3826 110.644 36.8363C110.903 37.2597 111.033 37.8041 111.033 38.4694C111.033 38.7114 110.99 38.9231 110.903 39.1045C110.817 39.286 110.709 39.4523 110.579 39.6035C110.449 39.7548 110.319 39.906 110.19 40.0572C110.06 40.2084 109.963 40.3748 109.898 40.5562C109.574 40.6772 109.293 40.7982 109.055 40.9191C108.817 41.0401 108.59 41.146 108.374 41.2367C108.157 41.2972 107.93 41.3577 107.693 41.4181C107.476 41.4484 107.239 41.4635 106.979 41.4635C106.893 41.4635 106.817 41.4635 106.752 41.4635C106.687 41.4635 106.601 41.4484 106.493 41.4181H106.071V40.2387L105.844 38.1519V35.5207Z" fill="#56321E"/>
<path d="M116.361 33.8422C116.296 34.3866 116.253 34.9007 116.231 35.3846C116.231 35.8685 116.231 36.307 116.231 36.7002C116.231 37.426 116.307 38.0611 116.458 38.6055L116.782 39.1953L120.22 40.6016H120.998C121.085 40.5713 121.182 40.526 121.29 40.4655C121.398 40.405 121.517 40.3143 121.647 40.1933L124.371 38.9231C124.522 38.8323 124.738 38.6811 125.019 38.4694C125.322 38.2577 125.603 38.0158 125.863 37.7436C126.144 37.4412 126.382 37.1085 126.576 36.7456C126.771 36.3826 126.868 36.0046 126.868 35.6114C126.868 34.1598 126.598 32.8442 126.057 31.6647C125.538 30.4852 124.792 29.5779 123.82 28.9428H123.755C123.668 28.9428 123.517 28.9579 123.301 28.9882C123.084 29.0184 122.89 29.0335 122.717 29.0335C122.566 29.0335 122.425 29.0033 122.295 28.9428C122.187 28.8823 122.133 28.7916 122.133 28.6706L119.831 29.1696C119.441 29.3208 119.052 29.5325 118.663 29.8047C118.274 30.0769 117.917 30.4096 117.593 30.8028C117.269 31.1657 116.998 31.6042 116.782 32.1183C116.566 32.6022 116.425 33.1769 116.361 33.8422ZM122.36 31.7554C122.62 31.8764 122.901 31.9822 123.203 32.073C123.506 32.1637 123.787 32.2998 124.047 32.4813C124.306 32.6325 124.533 32.8442 124.728 33.1164C124.944 33.3886 125.106 33.7968 125.214 34.3412L124.371 36.0651L120.901 37.0631H120.447L119.604 36.0197L119.766 33.2978C119.896 33.2071 120.025 33.071 120.155 32.8895C120.285 32.7081 120.425 32.5266 120.577 32.3452C120.75 32.1335 120.933 31.9671 121.128 31.8462C121.344 31.6949 121.571 31.6193 121.809 31.6193C121.96 31.6193 122.144 31.6647 122.36 31.7554Z" fill="#56321E"/>
<path d="M141.687 33.9783L140.714 29.2604L139.093 28.7613L138.606 29.1243V36.5187L138.217 36.8817H137.666L136.012 37.6529L135.655 37.4714L135.526 36.7909L135.266 36.2465V31.2564L134.715 28.8974H132.283L131.764 29.1243L131.504 32.073L132.056 33.6154L131.699 38.5602L132.412 41.0552L133.191 41.4181L134.099 42.2347L134.812 41.9172L134.942 41.5996L136.077 41.7811L136.726 41.3274L138.023 39.5128L138.444 39.2406L138.769 39.6943L138.671 40.0118L139.45 40.7377H141.395L141.687 40.1933V33.9783Z" fill="#56321E"/>
<path d="M153.173 34.568L154.016 34.5227C154.125 34.5832 154.222 34.6285 154.308 34.6588C154.395 34.689 154.514 34.7041 154.665 34.7041C154.751 34.7041 154.838 34.689 154.924 34.6588C155.033 34.6285 155.13 34.5983 155.216 34.568C155.324 34.5378 155.454 34.5227 155.605 34.5227C155.778 34.4924 155.995 34.4773 156.254 34.4773C156.341 34.4773 156.416 34.4924 156.481 34.5227C156.568 34.5227 156.632 34.5227 156.676 34.5227C156.697 34.5227 156.719 34.5227 156.741 34.5227C156.784 34.5227 156.87 34.4622 157 34.3412C156.892 34.3412 156.838 34.2354 156.838 34.0237C156.838 33.9934 156.849 33.9027 156.87 33.7515C156.892 33.6003 156.903 33.4944 156.903 33.4339C156.881 33.4339 156.87 33.3583 156.87 33.2071C156.87 33.0861 156.892 32.9954 156.935 32.9349C156.784 32.7837 156.708 32.6325 156.708 32.4813C156.708 32.2998 156.665 32.1183 156.578 31.9369C156.449 31.9974 156.351 32.0276 156.287 32.0276C156.135 32.0276 156.027 32.0276 155.962 32.0276C155.919 31.9974 155.865 31.9671 155.8 31.9369C155.735 31.9066 155.616 31.8915 155.443 31.8915C155.292 31.8613 155.033 31.831 154.665 31.8008C154.406 31.7705 154.092 31.7403 153.725 31.7101C153.357 31.6798 152.957 31.6344 152.525 31.574L152.2 26.5385L151.908 25.9487L149.768 26.2209L149.249 27.2643L149.152 31.3471C148.849 31.3471 148.557 31.3471 148.276 31.3471C147.995 31.3169 147.725 31.3018 147.466 31.3018C147.249 31.3925 147.13 31.4379 147.109 31.4379C146.914 31.4379 146.741 31.4379 146.59 31.4379C146.439 31.4379 146.287 31.4076 146.136 31.3471H145.617L145.131 31.9369C145.131 32.1788 145.131 32.451 145.131 32.7535C145.131 33.0559 145.141 33.3583 145.163 33.6607C145.206 33.9632 145.26 34.2354 145.325 34.4773C145.39 34.689 145.476 34.8251 145.585 34.8856L145.844 35.2032C146.06 35.2032 146.222 35.2032 146.33 35.2032C146.439 35.1729 146.633 35.1275 146.914 35.0671C146.936 35.0066 147.033 34.9763 147.206 34.9763C147.336 34.9763 147.466 34.9915 147.595 35.0217C147.747 35.0519 147.844 35.0822 147.887 35.1124C147.952 35.1124 148.017 35.1124 148.082 35.1124C148.168 35.0822 148.255 35.0671 148.341 35.0671L148.795 35.0217L148.665 35.929V41.8264L148.795 44.4122L149.152 45.4556L149.963 45.2742L152.622 45.5464L154.438 45.1834C154.568 44.6693 154.633 44.1552 154.633 43.641C154.633 43.1269 154.568 42.5825 154.438 42.0079L153.173 41.0552V34.568Z" fill="#56321E"/>
</g>
<defs>
<filter id="filter0_i" x="81" y="23" width="76" height="24" filterUnits="userSpaceOnUse" color-interpolation-filters="sRGB">
<feFlood flood-opacity="0" result="BackgroundImageFix"/>
<feBlend mode="normal" in="SourceGraphic" in2="BackgroundImageFix" result="shape"/>
<feColorMatrix in="SourceAlpha" type="matrix" values="0 0 0 0 0 0 0 0 0 0 0 0 0 0 0 0 0 0 127 0" result="hardAlpha"/>
<feOffset dy="1"/>
<feGaussianBlur stdDeviation="0.5"/>
<feComposite in2="hardAlpha" operator="arithmetic" k2="-1" k3="1"/>
<feColorMatrix type="matrix" values="0 0 0 0 0 0 0 0 0 0 0 0 0 0 0 0 0 0 0.3 0"/>
<feBlend mode="normal" in2="shape" result="effect1_innerShadow"/>
</filter>
</defs>
</svg>
