<svg width="667" height="156" viewBox="0 0 667 156" fill="none" xmlns="http://www.w3.org/2000/svg">
<path d="M666.559 61.6253L663.845 51.0498H18.4437V63.8915L43.9558 90.3303L16.2725 147.74V155.294H661.13L662.759 147.74L642.675 110.726L666.559 61.6253Z" fill="#785340"/>
<path d="M16.4466 53.6084C15.3189 52.3144 16.238 50.2944 17.9544 50.2944H663.075C664.486 50.2944 665.454 51.7169 664.935 53.0295L642.498 109.801C642.268 110.384 642.324 111.04 642.649 111.576L664.168 146.968C664.979 148.3 664.019 150.007 662.459 150.007H16.7424C15.2684 150.007 14.3008 148.466 14.9407 147.138L43.9263 86.986C44.2736 86.2653 44.158 85.407 43.6324 84.8038L16.4466 53.6084Z" fill="#AD795E"/>
<path d="M37.4418 101.661C52.8797 103.913 83.5678 110.48 86.7855 114.044C98.4721 126.989 33.7239 128.855 25.5 128.855" stroke="#CC9477"/>
<path d="M214.754 151.042L214.445 151.435L215.231 152.054L215.54 151.661L214.754 151.042ZM317.971 136.263L318.149 136.73V136.73L317.971 136.263ZM373.337 136.263L373.186 135.786L373.337 136.263ZM458.145 133.469L458.202 133.966L458.145 133.469ZM536.361 136.263L536.242 135.777L536.361 136.263ZM604.471 133.469L604.594 133.953L604.471 133.469ZM40.9081 153.482C45.7417 151.246 54.8298 147.059 63.5424 143.431C67.8993 141.616 72.1555 139.944 75.7352 138.727C77.5253 138.119 79.1401 137.626 80.5102 137.285C81.8882 136.943 82.9885 136.763 83.7612 136.763V135.763C82.864 135.763 81.6684 135.967 80.2691 136.315C78.8619 136.664 77.2182 137.167 75.4133 137.78C71.8031 139.008 67.5236 140.689 63.158 142.507C54.4257 146.144 45.3219 150.339 40.4884 152.574L40.9081 153.482ZM83.7612 136.763C84.7374 136.763 86.121 137.011 87.8346 137.467C89.5391 137.92 91.5363 138.57 93.7268 139.353C98.1079 140.92 103.233 143.011 108.287 145.107C113.335 147.201 118.315 149.3 122.387 150.875C124.423 151.662 126.241 152.322 127.733 152.785C129.206 153.243 130.419 153.528 131.218 153.528V152.528C130.589 152.528 129.509 152.289 128.03 151.83C126.569 151.377 124.776 150.726 122.748 149.942C118.69 148.373 113.728 146.281 108.67 144.184C103.617 142.088 98.4709 139.988 94.0636 138.412C91.8599 137.623 89.8338 136.964 88.0916 136.5C86.3585 136.039 84.8721 135.763 83.7612 135.763V136.763ZM215.54 151.661C215.502 151.709 215.478 151.711 215.535 151.681C215.58 151.657 215.652 151.624 215.758 151.585C215.968 151.507 216.27 151.417 216.666 151.317C217.456 151.116 218.574 150.883 219.981 150.622C222.792 150.101 226.722 149.475 231.41 148.781C240.784 147.394 253.167 145.735 265.635 144.093C278.102 142.452 290.655 140.828 300.365 139.509C305.22 138.85 309.367 138.266 312.439 137.795C313.974 137.56 315.244 137.352 316.201 137.176C317.138 137.004 317.823 136.855 318.149 136.73L317.792 135.796C317.569 135.881 316.984 136.015 316.021 136.192C315.078 136.366 313.819 136.572 312.287 136.807C309.224 137.276 305.084 137.859 300.231 138.518C290.524 139.836 277.975 141.46 265.505 143.102C253.037 144.743 240.647 146.403 231.264 147.792C226.573 148.486 222.628 149.114 219.798 149.638C218.385 149.901 217.242 150.138 216.42 150.348C216.01 150.452 215.669 150.552 215.411 150.647C215.282 150.695 215.163 150.745 215.062 150.8C214.973 150.847 214.847 150.924 214.754 151.042L215.54 151.661ZM318.149 136.73C318.361 136.649 318.727 136.574 319.267 136.517C319.796 136.46 320.458 136.423 321.239 136.404C322.801 136.365 324.811 136.398 327.14 136.475C331.799 136.629 337.694 136.96 343.761 137.252C349.821 137.543 356.048 137.794 361.348 137.785C366.623 137.776 371.059 137.512 373.489 136.739L373.186 135.786C370.927 136.505 366.646 136.776 361.347 136.785C356.073 136.794 349.868 136.544 343.809 136.253C337.755 135.962 331.842 135.63 327.173 135.475C324.838 135.398 322.805 135.365 321.214 135.404C320.419 135.424 319.728 135.462 319.16 135.522C318.603 135.582 318.13 135.667 317.792 135.796L318.149 136.73ZM373.489 136.739C387.458 132.298 402.541 132.292 417.198 133.06C431.818 133.826 446.063 135.369 458.202 133.966L458.087 132.972C446.059 134.363 431.961 132.832 417.25 132.061C402.577 131.293 387.339 131.287 373.186 135.786L373.489 136.739ZM458.202 133.966C461.432 133.592 467.064 133.782 473.956 134.236C480.835 134.688 488.917 135.398 497.028 136.052C505.133 136.706 513.264 137.303 520.223 137.527C527.163 137.75 532.999 137.605 536.481 136.748L536.242 135.777C532.912 136.597 527.207 136.751 520.255 136.528C513.323 136.305 505.213 135.709 497.108 135.056C489.009 134.402 480.911 133.691 474.022 133.238C467.147 132.785 461.422 132.587 458.087 132.972L458.202 133.966ZM536.481 136.748C539.83 135.924 545.055 135.505 551.222 135.305C557.376 135.104 564.425 135.121 571.402 135.156C578.375 135.191 585.276 135.244 591.121 135.113C596.949 134.982 601.784 134.668 604.594 133.953L604.348 132.984C601.665 133.667 596.943 133.982 591.099 134.113C585.271 134.244 578.386 134.191 571.407 134.156C564.433 134.121 557.365 134.104 551.189 134.305C545.024 134.506 539.704 134.925 536.242 135.777L536.481 136.748ZM604.594 133.953C610.148 132.541 617.575 128.734 625.063 125.189C632.604 121.619 640.213 118.31 646.261 117.761L646.17 116.765C639.915 117.333 632.144 120.73 624.635 124.285C617.073 127.865 609.779 131.603 604.348 132.984L604.594 133.953Z" fill="#CC9477"/>
<path d="M48.2979 50.2944C86.2933 58.5893 164.739 75.2897 174.559 75.7321C186.835 76.2851 252.596 75.7321 269.256 75.7321C285.915 75.7321 335.455 60.8013 347.292 59.1423C359.129 57.4833 378.858 59.1423 394.641 59.1423C410.423 59.1423 452.511 69.0962 461.717 66.8842C470.924 64.6722 516.957 65.7782 530.109 62.4603C543.261 59.1423 563.866 62.4603 581.403 62.4603C598.939 62.4603 636.642 63.5663 646.725 59.1423C654.792 55.6032 661.318 55.1955 664.387 54.8268" stroke="#CC9477"/>
<path d="M28.7578 63.8911C57.3154 65.8654 106.437 79.0554 135.259 91.8486C171.285 107.84 278.294 99.8197 286.394 98.3637C299.575 95.9946 340.873 78.8185 359.765 78.8185C378.657 78.8185 432.258 87.1104 440.605 87.1104C448.953 87.1104 506.947 84.149 517.491 83.5567C528.036 82.9644 560.547 83.5567 574.167 85.3335C587.787 87.1104 616.784 80.5953 618.981 81.1876C621.177 81.7799 650.56 81.1876 654.075 81.1876" stroke="#CC9477"/>
<path d="M38.5273 78.2441C62.7573 79.7585 89.3132 91.4825 101.574 105.112C116.9 122.149 133.102 132.372 150.618 134.643C168.134 136.915 188.277 123.285 207.106 123.853C225.935 124.421 297.311 120.446 314.827 117.606C332.343 114.767 373.066 105.112 384.014 105.112C394.961 105.112 461.52 109.088 474.657 110.791C487.794 112.495 514.943 105.112 527.204 105.112C539.465 105.112 591.574 105.112 596.829 105.112C602.083 105.112 617.41 98.2974 627.481 98.2974C635.538 98.2974 635.358 98.2974 644.846 98.2974" stroke="#CC9477"/>
<g filter="url(#filter0_i)">
<path d="M182.224 117.959L180.831 115.881H175.703L173.677 116.694L170.638 116.152L168.992 116.694L168.549 114.706V95.0999L167.029 89.5885L166.523 80.6436L165.953 79.5594L161.711 80.1015L160.762 82.0892V90.6727L159.559 99.3465V116.152L159.812 121.212L160.572 123.29L162.154 122.838L167.283 123.471L169.245 122.657L175.83 123.29L178.489 122.025L181.654 122.477L182.224 117.959Z" fill="#56321E"/>
<path d="M187.07 99.4369C186.944 100.521 186.859 101.545 186.817 102.509C186.817 103.473 186.817 104.346 186.817 105.129C186.817 106.575 186.965 107.84 187.26 108.924L187.893 110.098L194.604 112.899H196.124C196.293 112.839 196.483 112.749 196.694 112.628C196.905 112.508 197.137 112.327 197.39 112.086L202.708 109.556C203.004 109.376 203.426 109.074 203.974 108.653C204.565 108.231 205.114 107.749 205.621 107.207C206.169 106.605 206.634 105.942 207.013 105.219C207.393 104.497 207.583 103.744 207.583 102.961C207.583 100.069 207.056 97.4491 206 95.0999C204.987 92.7508 203.531 90.9437 201.632 89.6788H201.505C201.336 89.6788 201.041 89.7089 200.619 89.7692C200.197 89.8294 199.817 89.8595 199.479 89.8595C199.184 89.8595 198.909 89.7993 198.656 89.6788C198.445 89.5583 198.34 89.3776 198.34 89.1367L193.845 90.1306C193.085 90.4317 192.325 90.8534 191.565 91.3955C190.806 91.9376 190.109 92.6002 189.476 93.3833C188.843 94.1061 188.315 94.9795 187.893 96.0035C187.471 96.9672 187.197 98.1117 187.07 99.4369ZM198.783 95.2807C199.289 95.5216 199.838 95.7324 200.429 95.9131C201.02 96.0938 201.569 96.3649 202.075 96.7263C202.582 97.0275 203.025 97.4491 203.405 97.9912C203.827 98.5333 204.143 99.3465 204.354 100.431L202.708 103.864L195.934 105.852H195.047L193.401 103.774L193.718 98.3526C193.971 98.1719 194.224 97.9009 194.478 97.5395C194.731 97.178 195.005 96.8166 195.301 96.4552C195.638 96.0336 195.997 95.7023 196.377 95.4614C196.799 95.1602 197.242 95.0096 197.707 95.0096C198.002 95.0096 198.361 95.0999 198.783 95.2807Z" fill="#56321E"/>
<path d="M239.743 118.049L239.49 117.688C239.49 117.387 239.427 117.116 239.3 116.875C239.216 116.574 239.131 116.242 239.047 115.881C238.751 115.881 238.498 115.971 238.287 116.152C238.076 116.272 237.844 116.423 237.591 116.604C237.38 116.724 237.126 116.875 236.831 117.056C236.535 117.176 236.134 117.236 235.628 117.236H235.311C234.805 117.296 234.362 117.327 233.982 117.327C233.644 117.327 233.307 117.357 232.969 117.417C232.673 117.417 232.336 117.447 231.956 117.507C231.618 117.507 231.217 117.507 230.753 117.507C229.993 117.387 229.339 117.327 228.79 117.327C228.284 117.266 227.672 117.086 226.954 116.784C226.912 116.845 226.891 116.875 226.891 116.875C226.849 116.875 226.807 116.905 226.764 116.965C226.764 116.965 226.722 116.965 226.638 116.965C226.131 116.724 225.751 116.544 225.498 116.423C225.287 116.303 225.182 116.092 225.182 115.791C225.182 115.55 224.97 115.128 224.548 114.526C224.169 113.923 223.979 113.231 223.979 112.448C223.979 111.725 224.147 111.002 224.485 110.279C224.865 109.556 225.266 108.954 225.688 108.472C226.152 107.93 226.553 107.508 226.891 107.207C227.229 106.906 227.355 106.786 227.271 106.846C227.355 106.846 227.44 106.785 227.524 106.665C227.608 106.605 227.672 106.545 227.714 106.484C227.798 106.364 227.904 106.243 228.031 106.123C228.242 105.762 228.495 105.49 228.79 105.31C229.128 105.069 229.867 104.828 231.006 104.587C231.893 104.346 232.589 104.165 233.096 104.045C233.644 103.924 234.108 103.864 234.488 103.864C234.868 103.864 235.227 103.864 235.565 103.864C235.902 103.864 236.346 103.864 236.894 103.864C237.021 103.262 237.126 102.84 237.211 102.599C237.295 102.358 237.506 101.816 237.844 100.973C237.759 100.37 237.717 99.6778 237.717 98.8947C237.759 98.0515 237.612 97.5997 237.274 97.5395H233.792C233.285 97.5395 232.758 97.5395 232.209 97.5395C231.703 97.4792 231.091 97.4491 230.373 97.4491C229.276 97.9912 228.115 98.3827 226.891 98.6237C225.709 98.8646 224.675 99.3766 223.789 100.16C223.24 100.762 222.755 101.334 222.332 101.876C221.953 102.418 221.573 103.021 221.193 103.683C220.855 104.346 220.496 105.069 220.117 105.852C219.779 106.635 219.399 107.569 218.977 108.653C218.808 109.135 218.681 109.617 218.597 110.098C218.513 110.58 218.449 111.062 218.407 111.544C218.407 112.448 218.428 113.351 218.47 114.255C218.555 115.098 218.871 116.062 219.42 117.146C219.589 117.387 219.758 117.658 219.927 117.959C220.095 118.26 220.18 118.411 220.18 118.411L220.496 118.863C220.581 118.863 220.665 119.043 220.75 119.405C220.834 119.706 220.897 119.856 220.94 119.856H222.016C222.522 120.278 222.923 120.64 223.219 120.941C223.514 121.182 223.789 121.362 224.042 121.483C224.337 121.543 224.633 121.603 224.928 121.663C225.224 121.724 225.604 121.754 226.068 121.754C226.279 121.754 226.511 121.754 226.764 121.754C227.06 121.694 227.355 121.663 227.651 121.663C227.946 121.663 228.242 121.663 228.537 121.663C228.832 121.663 229.191 121.724 229.613 121.844C230.5 121.844 231.238 121.784 231.829 121.663C232.462 121.483 233.074 121.272 233.665 121.031C234.298 120.79 234.953 120.579 235.628 120.399C236.346 120.218 237.232 120.097 238.287 120.037C238.498 119.917 238.794 119.646 239.173 119.224C239.553 118.742 239.743 118.441 239.743 118.32C239.743 118.14 239.617 118.049 239.363 118.049H239.743Z" fill="#56321E"/>
<path d="M247.881 89.6788C248.177 89.6788 248.43 89.8595 248.641 90.2209C248.894 90.5823 249.105 91.004 249.274 91.4859C249.485 91.9677 249.675 92.3894 249.844 92.7508C250.013 93.1122 250.161 93.2929 250.287 93.2929C250.709 93.1724 251.342 92.9315 252.187 92.5701C253.073 92.1484 254.023 91.7268 255.036 91.3052C256.091 90.8835 257.104 90.5221 258.075 90.2209C259.088 89.9198 259.911 89.7692 260.544 89.7692C260.881 89.7692 261.114 89.8595 261.24 90.0402C261.409 90.2209 261.515 90.4317 261.557 90.6727C261.599 90.9136 261.641 91.1546 261.683 91.3955C261.768 91.5762 261.915 91.7268 262.127 91.8473C262.211 92.028 262.338 92.2087 262.506 92.3894C262.675 92.5099 262.76 92.7508 262.76 93.1122C262.549 93.835 262.422 94.5277 262.38 95.1903C262.338 95.7926 262.316 96.3649 262.316 96.907V97.4491L260.48 97.6298C260.185 97.69 259.89 97.7503 259.594 97.8105C259.299 97.8105 258.961 97.8105 258.581 97.8105L256.682 99.3465C256.133 99.3465 255.669 99.4369 255.289 99.6176C254.909 99.738 254.508 99.9489 254.086 100.25C253.706 100.491 253.263 100.762 252.756 101.063C252.25 101.364 251.575 101.666 250.73 101.967C248.704 103.412 247.185 105.159 246.172 107.207C245.201 109.255 244.716 111.785 244.716 114.797C244.716 115.76 244.948 116.724 245.412 117.688C245.876 118.592 246.446 119.435 247.122 120.218C247.797 120.941 248.493 121.543 249.211 122.025C249.928 122.447 250.562 122.657 251.11 122.657C251.743 122.657 252.334 122.657 252.883 122.657C253.432 122.718 253.98 122.748 254.529 122.748H258.011H258.075C258.159 122.748 258.222 122.657 258.265 122.477C258.349 122.356 258.433 122.206 258.518 122.025C258.644 121.784 258.834 121.603 259.088 121.483C259.383 121.302 259.784 121.212 260.291 121.212C260.839 121.212 261.409 121.453 262 121.935C262.591 122.356 263.097 122.567 263.519 122.567C263.857 122.567 264.174 122.537 264.469 122.477C264.765 122.416 265.06 122.326 265.355 122.206C265.693 122.085 266.073 121.995 266.495 121.935C266.917 121.814 267.403 121.754 267.951 121.754C268.078 122.055 268.31 122.326 268.648 122.567H269.534C269.576 122.266 269.661 121.995 269.787 121.754C269.914 121.453 270.062 121.061 270.23 120.579C270.188 119.194 270.125 117.959 270.041 116.875C269.998 115.791 269.956 114.767 269.914 113.803C269.914 112.779 269.893 111.725 269.851 110.641C269.851 109.556 269.83 108.321 269.787 106.936H269.977C270.019 106.876 270.062 106.846 270.104 106.846C269.977 106.846 269.872 106.605 269.787 106.123C269.703 105.641 269.64 105.159 269.597 104.677C269.555 104.135 269.513 103.653 269.471 103.232C269.471 102.75 269.471 102.509 269.471 102.509C269.429 102.027 269.344 101.666 269.217 101.425C269.133 101.123 269.028 100.792 268.901 100.431C268.817 100.009 268.711 99.4369 268.584 98.714C268.5 97.9912 268.437 96.8166 268.394 95.1903C268.268 95.0698 268.162 94.7084 268.078 94.1061C267.993 93.5037 267.909 92.8713 267.825 92.2087C267.782 91.4859 267.74 90.8233 267.698 90.2209C267.698 89.5583 267.677 89.1668 267.635 89.0463H267.508C267.17 89.0463 266.896 88.7753 266.685 88.2332C266.474 87.6911 266.284 87.0887 266.115 86.4261C265.946 85.7635 265.799 85.1913 265.672 84.7094C265.545 84.1673 265.398 83.8963 265.229 83.8963C265.144 83.7758 265.06 83.6553 264.976 83.5349C264.891 83.3542 264.807 83.2036 264.722 83.0831H263.709C263.287 83.0831 262.928 83.0831 262.633 83.0831C262.38 83.0831 262.127 83.0831 261.873 83.0831C261.662 83.0831 261.43 83.053 261.177 82.9928C260.924 82.9325 260.607 82.8422 260.227 82.7217C260.185 83.0229 259.932 83.2337 259.467 83.3542C259.045 83.4144 258.56 83.4445 258.011 83.4445C257.505 83.4445 257.019 83.4445 256.555 83.4445C256.133 83.4445 255.901 83.5349 255.859 83.7156C254.719 84.2577 253.685 84.7094 252.756 85.0709C251.828 85.4323 251.047 85.8238 250.414 86.2454C249.781 86.6068 249.253 87.0586 248.831 87.6007C248.409 88.0826 248.092 88.7753 247.881 89.6788ZM261.62 104.858V109.466C261.409 110.43 261.282 111.424 261.24 112.448C261.198 113.472 261.177 114.225 261.177 114.706V115.429H260.291C259.446 115.55 258.665 115.64 257.948 115.7C257.23 115.76 256.534 115.821 255.859 115.881L251.427 116.242C251.131 115.52 250.878 114.947 250.667 114.526C250.498 114.104 250.414 113.472 250.414 112.628C250.414 110.942 250.562 109.617 250.857 108.653C251.195 107.689 251.638 106.966 252.187 106.484C252.777 105.942 253.453 105.551 254.213 105.31C254.972 105.069 255.774 104.798 256.618 104.497C257.04 104.316 257.42 104.165 257.758 104.045C258.138 103.924 258.497 103.864 258.834 103.864H259.088C259.51 104.045 259.932 104.226 260.354 104.406C260.818 104.587 261.24 104.738 261.62 104.858Z" fill="#56321E"/>
<path d="M286.203 92.2087L285.886 91.3955L286.393 88.5042V80.1015L285.633 79.3787L280.758 83.0831L280.252 86.1551V97.8105L279.049 121.663L279.998 122.838L283.924 122.386L285.506 123.109L286.836 121.844V105.762V102.328L286.203 92.2087Z" fill="#56321E"/>
<path d="M340.783 82.3603L339.643 81.1857H335.844L334.958 81.9989V95.5517L333.945 96.1842H324.575L324.828 95.5517V81.005L324.005 79.9208L320.776 79.3787L319.573 80.1015L318.624 94.4675L317.484 98.9851L316.724 116.513L317.294 121.031H323.245L324.828 120.489V101.334L326.094 101.063H329.26H333.502L333.312 109.105L333.565 109.195L333.312 110.731V117.056L332.869 118.953L333.439 121.302H337.047L338.63 121.754L342.239 119.495V116.604V115.429V111.544L340.783 98.8947V82.3603Z" fill="#56321E"/>
<path d="M353.36 89.6788C353.656 89.6788 353.909 89.8595 354.12 90.2209C354.373 90.5823 354.584 91.004 354.753 91.4859C354.964 91.9677 355.154 92.3894 355.323 92.7508C355.492 93.1122 355.639 93.2929 355.766 93.2929C356.188 93.1724 356.821 92.9315 357.665 92.5701C358.552 92.1484 359.501 91.7268 360.514 91.3052C361.57 90.8835 362.583 90.5221 363.553 90.2209C364.566 89.9198 365.389 89.7692 366.023 89.7692C366.36 89.7692 366.592 89.8595 366.719 90.0402C366.888 90.2209 366.993 90.4317 367.036 90.6727C367.078 90.9136 367.12 91.1546 367.162 91.3955C367.247 91.5762 367.394 91.7268 367.605 91.8473C367.69 92.028 367.816 92.2087 367.985 92.3894C368.154 92.5099 368.238 92.7508 368.238 93.1122C368.027 93.835 367.901 94.5277 367.859 95.1903C367.816 95.7926 367.795 96.3649 367.795 96.907V97.4491L365.959 97.6298C365.664 97.69 365.368 97.7503 365.073 97.8105C364.777 97.8105 364.44 97.8105 364.06 97.8105L362.161 99.3465C361.612 99.3465 361.148 99.4369 360.768 99.6176C360.388 99.738 359.987 99.9489 359.565 100.25C359.185 100.491 358.742 100.762 358.235 101.063C357.729 101.364 357.053 101.666 356.209 101.967C354.183 103.412 352.664 105.159 351.651 107.207C350.68 109.255 350.195 111.785 350.195 114.797C350.195 115.76 350.427 116.724 350.891 117.688C351.355 118.592 351.925 119.435 352.6 120.218C353.276 120.941 353.972 121.543 354.69 122.025C355.407 122.447 356.04 122.657 356.589 122.657C357.222 122.657 357.813 122.657 358.362 122.657C358.911 122.718 359.459 122.748 360.008 122.748H363.49H363.553C363.638 122.748 363.701 122.657 363.743 122.477C363.828 122.356 363.912 122.206 363.997 122.025C364.123 121.784 364.313 121.603 364.566 121.483C364.862 121.302 365.263 121.212 365.769 121.212C366.318 121.212 366.888 121.453 367.479 121.935C368.07 122.356 368.576 122.567 368.998 122.567C369.336 122.567 369.652 122.537 369.948 122.477C370.243 122.416 370.539 122.326 370.834 122.206C371.172 122.085 371.552 121.995 371.974 121.935C372.396 121.814 372.881 121.754 373.43 121.754C373.557 122.055 373.789 122.326 374.127 122.567H375.013C375.055 122.266 375.139 121.995 375.266 121.754C375.393 121.453 375.54 121.061 375.709 120.579C375.667 119.194 375.604 117.959 375.519 116.875C375.477 115.791 375.435 114.767 375.393 113.803C375.393 112.779 375.372 111.725 375.329 110.641C375.329 109.556 375.308 108.321 375.266 106.936H375.456C375.498 106.876 375.54 106.846 375.583 106.846C375.456 106.846 375.351 106.605 375.266 106.123C375.182 105.641 375.118 105.159 375.076 104.677C375.034 104.135 374.992 103.653 374.95 103.232C374.95 102.75 374.95 102.509 374.95 102.509C374.907 102.027 374.823 101.666 374.696 101.425C374.612 101.123 374.506 100.792 374.38 100.431C374.295 100.009 374.19 99.4369 374.063 98.714C373.979 97.9912 373.915 96.8166 373.873 95.1903C373.747 95.0698 373.641 94.7084 373.557 94.1061C373.472 93.5037 373.388 92.8713 373.303 92.2087C373.261 91.4859 373.219 90.8233 373.177 90.2209C373.177 89.5583 373.156 89.1668 373.114 89.0463H372.987C372.649 89.0463 372.375 88.7753 372.164 88.2332C371.953 87.6911 371.763 87.0887 371.594 86.4261C371.425 85.7635 371.277 85.1913 371.151 84.7094C371.024 84.1673 370.876 83.8963 370.708 83.8963C370.623 83.7758 370.539 83.6553 370.454 83.5349C370.37 83.3542 370.286 83.2036 370.201 83.0831H369.188C368.766 83.0831 368.407 83.0831 368.112 83.0831C367.859 83.0831 367.605 83.0831 367.352 83.0831C367.141 83.0831 366.909 83.053 366.656 82.9928C366.402 82.9325 366.086 82.8422 365.706 82.7217C365.664 83.0229 365.411 83.2337 364.946 83.3542C364.524 83.4144 364.039 83.4445 363.49 83.4445C362.984 83.4445 362.498 83.4445 362.034 83.4445C361.612 83.4445 361.38 83.5349 361.337 83.7156C360.198 84.2577 359.164 84.7094 358.235 85.0709C357.307 85.4323 356.526 85.8238 355.893 86.2454C355.26 86.6068 354.732 87.0586 354.31 87.6007C353.888 88.0826 353.571 88.7753 353.36 89.6788ZM367.099 104.858V109.466C366.888 110.43 366.761 111.424 366.719 112.448C366.677 113.472 366.656 114.225 366.656 114.706V115.429H365.769C364.925 115.55 364.144 115.64 363.427 115.7C362.709 115.76 362.013 115.821 361.337 115.881L356.906 116.242C356.61 115.52 356.357 114.947 356.146 114.526C355.977 114.104 355.893 113.472 355.893 112.628C355.893 110.942 356.04 109.617 356.336 108.653C356.673 107.689 357.117 106.966 357.665 106.484C358.256 105.942 358.932 105.551 359.691 105.31C360.451 105.069 361.253 104.798 362.097 104.497C362.519 104.316 362.899 104.165 363.237 104.045C363.617 103.924 363.975 103.864 364.313 103.864H364.566C364.988 104.045 365.411 104.226 365.833 104.406C366.297 104.587 366.719 104.738 367.099 104.858Z" fill="#56321E"/>
<path d="M406.37 118.049L406.117 117.688C406.117 117.387 406.054 117.116 405.927 116.875C405.843 116.574 405.758 116.242 405.674 115.881C405.378 115.881 405.125 115.971 404.914 116.152C404.703 116.272 404.471 116.423 404.218 116.604C404.006 116.724 403.753 116.875 403.458 117.056C403.162 117.176 402.761 117.236 402.255 117.236H401.938C401.432 117.296 400.989 117.327 400.609 117.327C400.271 117.327 399.933 117.357 399.596 117.417C399.3 117.417 398.963 117.447 398.583 117.507C398.245 117.507 397.844 117.507 397.38 117.507C396.62 117.387 395.966 117.327 395.417 117.327C394.911 117.266 394.299 117.086 393.581 116.784C393.539 116.845 393.518 116.875 393.518 116.875C393.476 116.875 393.433 116.905 393.391 116.965C393.391 116.965 393.349 116.965 393.265 116.965C392.758 116.724 392.378 116.544 392.125 116.423C391.914 116.303 391.808 116.092 391.808 115.791C391.808 115.55 391.597 115.128 391.175 114.526C390.795 113.923 390.605 113.231 390.605 112.448C390.605 111.725 390.774 111.002 391.112 110.279C391.492 109.556 391.893 108.954 392.315 108.472C392.779 107.93 393.18 107.508 393.518 107.207C393.855 106.906 393.982 106.786 393.898 106.846C393.982 106.846 394.066 106.785 394.151 106.665C394.235 106.605 394.299 106.545 394.341 106.484C394.425 106.364 394.531 106.243 394.657 106.123C394.868 105.762 395.122 105.49 395.417 105.31C395.755 105.069 396.493 104.828 397.633 104.587C398.519 104.346 399.216 104.165 399.722 104.045C400.271 103.924 400.735 103.864 401.115 103.864C401.495 103.864 401.854 103.864 402.192 103.864C402.529 103.864 402.972 103.864 403.521 103.864C403.648 103.262 403.753 102.84 403.838 102.599C403.922 102.358 404.133 101.816 404.471 100.973C404.386 100.37 404.344 99.6778 404.344 98.8947C404.386 98.0515 404.239 97.5997 403.901 97.5395H400.419C399.912 97.5395 399.385 97.5395 398.836 97.5395C398.33 97.4792 397.717 97.4491 397 97.4491C395.903 97.9912 394.742 98.3827 393.518 98.6237C392.336 98.8646 391.302 99.3766 390.415 100.16C389.867 100.762 389.381 101.334 388.959 101.876C388.579 102.418 388.2 103.021 387.82 103.683C387.482 104.346 387.123 105.069 386.743 105.852C386.406 106.635 386.026 107.569 385.604 108.653C385.435 109.135 385.308 109.617 385.224 110.098C385.14 110.58 385.076 111.062 385.034 111.544C385.034 112.448 385.055 113.351 385.097 114.255C385.182 115.098 385.498 116.062 386.047 117.146C386.216 117.387 386.385 117.658 386.553 117.959C386.722 118.26 386.807 118.411 386.807 118.411L387.123 118.863C387.208 118.863 387.292 119.043 387.377 119.405C387.461 119.706 387.524 119.856 387.566 119.856H388.643C389.149 120.278 389.55 120.64 389.846 120.941C390.141 121.182 390.415 121.362 390.669 121.483C390.964 121.543 391.26 121.603 391.555 121.663C391.851 121.724 392.23 121.754 392.695 121.754C392.906 121.754 393.138 121.754 393.391 121.754C393.687 121.694 393.982 121.663 394.278 121.663C394.573 121.663 394.868 121.663 395.164 121.663C395.459 121.663 395.818 121.724 396.24 121.844C397.127 121.844 397.865 121.784 398.456 121.663C399.089 121.483 399.701 121.272 400.292 121.031C400.925 120.79 401.58 120.579 402.255 120.399C402.972 120.218 403.859 120.097 404.914 120.037C405.125 119.917 405.42 119.646 405.8 119.224C406.18 118.742 406.37 118.441 406.37 118.32C406.37 118.14 406.243 118.049 405.99 118.049H406.37Z" fill="#56321E"/>
<path d="M424.195 103.322C424.026 103.442 423.857 103.503 423.688 103.503C423.393 103.503 423.182 103.322 423.055 102.961L422.675 100.16C422.633 98.8947 422.612 97.2383 422.612 95.1903C422.612 93.1423 422.591 91.0642 422.549 88.956C422.507 86.7875 422.443 84.7697 422.359 82.9024C422.275 80.9749 422.127 79.5292 421.916 78.5655C421.198 78.5655 420.671 78.5655 420.333 78.5655C419.995 78.5655 419.679 78.5655 419.383 78.5655C419.13 78.5053 418.835 78.4751 418.497 78.4751C418.159 78.4149 417.695 78.3547 417.104 78.2944C416.851 78.6558 416.64 78.8667 416.471 78.9269C416.302 78.9269 416.133 79.0474 415.964 79.2883V83.3542C415.964 86.2454 415.922 88.956 415.838 91.4859C415.796 93.9555 415.753 96.395 415.711 98.8044C415.669 101.214 415.627 103.653 415.585 106.123C415.542 108.532 415.521 111.092 415.521 113.803C415.521 114.827 415.521 115.881 415.521 116.965C415.521 118.049 415.542 119.194 415.585 120.399C415.5 120.64 415.416 120.88 415.331 121.121C415.289 121.362 415.268 121.543 415.268 121.663C415.395 122.085 415.5 122.416 415.585 122.657C415.669 122.959 415.753 123.23 415.838 123.471L416.471 125.187C416.977 125.187 417.589 125.187 418.307 125.187C419.024 125.247 419.742 125.247 420.46 125.187C421.219 125.187 421.958 125.097 422.675 124.916C423.393 124.735 424.068 124.404 424.701 123.922C424.617 122.838 424.575 121.663 424.575 120.399C424.617 119.134 424.512 117.748 424.258 116.242C424.047 115.098 423.921 114.315 423.878 113.893C423.836 113.472 423.815 112.96 423.815 112.357C423.815 112.056 423.815 111.725 423.815 111.363C423.857 111.002 424.026 110.701 424.322 110.46C425.757 111.966 426.875 113.231 427.677 114.255C428.479 115.218 429.112 116.032 429.576 116.694C430.041 117.296 430.336 117.748 430.463 118.049C430.589 118.351 430.695 118.561 430.779 118.682L431.033 119.314V119.405C431.033 119.465 431.096 119.676 431.223 120.037C431.349 120.338 431.75 120.941 432.426 121.844C432.805 122.326 433.08 122.657 433.249 122.838C433.46 123.079 433.628 123.26 433.755 123.38C433.882 123.501 433.966 123.591 434.008 123.651C434.093 123.711 434.24 123.832 434.452 124.013L435.591 124.826C436.098 124.525 436.604 123.952 437.111 123.109C437.617 122.326 438.377 121.603 439.39 120.941C439.896 120.64 440.276 120.429 440.529 120.308C440.783 120.188 440.909 119.947 440.909 119.585C440.909 119.224 440.804 118.863 440.593 118.501C440.382 118.14 440.128 117.778 439.833 117.417C439.538 116.995 439.221 116.604 438.883 116.242C438.588 115.881 438.356 115.52 438.187 115.158C437.301 113.953 436.435 112.96 435.591 112.177C434.747 111.393 433.966 110.671 433.249 110.008C432.531 109.345 431.835 108.743 431.159 108.201C430.526 107.659 429.935 107.087 429.387 106.484C430.104 105.762 430.758 105.069 431.349 104.406C431.94 103.683 432.531 102.961 433.122 102.238C433.713 101.455 434.346 100.611 435.021 99.7079C435.697 98.7442 436.477 97.6599 437.364 96.4552C437.237 96.0938 437.09 95.7023 436.921 95.2807C436.794 94.859 436.583 94.5277 436.288 94.2868C436.203 94.347 436.034 94.3771 435.781 94.3771C435.612 94.3771 435.422 94.347 435.211 94.2868C435 94.2265 434.768 94.076 434.515 93.835C433.924 94.3169 433.438 94.7084 433.059 95.0096C432.679 95.3108 432.278 95.6421 431.856 96.0035C431.434 96.3649 430.969 96.8468 430.463 97.4491C429.956 98.0515 429.323 98.8947 428.563 99.979C427.804 100.461 427.297 100.882 427.044 101.244C426.791 101.545 426.453 101.816 426.031 102.057C425.82 102.298 425.567 102.539 425.271 102.78C424.976 103.021 424.659 103.382 424.322 103.864C424.237 103.804 424.195 103.683 424.195 103.503V103.322Z" fill="#56321E"/>
<path d="M489.674 100.34L489.357 96.2745L488.091 91.3955L487.964 90.3113L487.521 89.3174L483.406 83.9866L482.583 83.1735L473.529 80.1918H466.692L465.615 81.8182V103.051V107.749V121.121L467.388 122.928L472.136 122.206L481.19 117.236L485.812 110.189L486.065 109.195L486.762 109.014L489.674 100.34ZM482.836 93.6543V104.406L482.203 107.297L480.874 110.098L479.164 112.538L475.872 113.441L473.213 114.616L473.403 109.827V90.8534L473.909 87.2393L478.658 87.8718L481.317 91.3955L482.836 93.6543Z" fill="#56321E"/>
<path d="M498.409 89.6788C498.704 89.6788 498.958 89.8595 499.169 90.2209C499.422 90.5823 499.633 91.004 499.802 91.4859C500.013 91.9677 500.203 92.3894 500.372 92.7508C500.541 93.1122 500.688 93.2929 500.815 93.2929C501.237 93.1724 501.87 92.9315 502.714 92.5701C503.601 92.1484 504.55 91.7268 505.563 91.3052C506.618 90.8835 507.631 90.5221 508.602 90.2209C509.615 89.9198 510.438 89.7692 511.071 89.7692C511.409 89.7692 511.641 89.8595 511.768 90.0402C511.937 90.2209 512.042 90.4317 512.084 90.6727C512.127 90.9136 512.169 91.1546 512.211 91.3955C512.295 91.5762 512.443 91.7268 512.654 91.8473C512.739 92.028 512.865 92.2087 513.034 92.3894C513.203 92.5099 513.287 92.7508 513.287 93.1122C513.076 93.835 512.95 94.5277 512.907 95.1903C512.865 95.7926 512.844 96.3649 512.844 96.907V97.4491L511.008 97.6298C510.713 97.69 510.417 97.7503 510.122 97.8105C509.826 97.8105 509.489 97.8105 509.109 97.8105L507.209 99.3465C506.661 99.3465 506.196 99.4369 505.816 99.6176C505.437 99.738 505.036 99.9489 504.614 100.25C504.234 100.491 503.791 100.762 503.284 101.063C502.778 101.364 502.102 101.666 501.258 101.967C499.232 103.412 497.713 105.159 496.7 107.207C495.729 109.255 495.243 111.785 495.243 114.797C495.243 115.76 495.476 116.724 495.94 117.688C496.404 118.592 496.974 119.435 497.649 120.218C498.325 120.941 499.021 121.543 499.739 122.025C500.456 122.447 501.089 122.657 501.638 122.657C502.271 122.657 502.862 122.657 503.411 122.657C503.959 122.718 504.508 122.748 505.057 122.748H508.539H508.602C508.687 122.748 508.75 122.657 508.792 122.477C508.877 122.356 508.961 122.206 509.045 122.025C509.172 121.784 509.362 121.603 509.615 121.483C509.911 121.302 510.312 121.212 510.818 121.212C511.367 121.212 511.937 121.453 512.528 121.935C513.118 122.356 513.625 122.567 514.047 122.567C514.385 122.567 514.701 122.537 514.997 122.477C515.292 122.416 515.588 122.326 515.883 122.206C516.221 122.085 516.601 121.995 517.023 121.935C517.445 121.814 517.93 121.754 518.479 121.754C518.606 122.055 518.838 122.326 519.175 122.567H520.062C520.104 122.266 520.188 121.995 520.315 121.754C520.442 121.453 520.589 121.061 520.758 120.579C520.716 119.194 520.653 117.959 520.568 116.875C520.526 115.791 520.484 114.767 520.442 113.803C520.442 112.779 520.42 111.725 520.378 110.641C520.378 109.556 520.357 108.321 520.315 106.936H520.505C520.547 106.876 520.589 106.846 520.632 106.846C520.505 106.846 520.399 106.605 520.315 106.123C520.231 105.641 520.167 105.159 520.125 104.677C520.083 104.135 520.041 103.653 519.998 103.232C519.998 102.75 519.998 102.509 519.998 102.509C519.956 102.027 519.872 101.666 519.745 101.425C519.661 101.123 519.555 100.792 519.429 100.431C519.344 100.009 519.239 99.4369 519.112 98.714C519.028 97.9912 518.964 96.8166 518.922 95.1903C518.795 95.0698 518.69 94.7084 518.606 94.1061C518.521 93.5037 518.437 92.8713 518.352 92.2087C518.31 91.4859 518.268 90.8233 518.226 90.2209C518.226 89.5583 518.205 89.1668 518.162 89.0463H518.036C517.698 89.0463 517.424 88.7753 517.213 88.2332C517.002 87.6911 516.812 87.0887 516.643 86.4261C516.474 85.7635 516.326 85.1913 516.2 84.7094C516.073 84.1673 515.925 83.8963 515.757 83.8963C515.672 83.7758 515.588 83.6553 515.503 83.5349C515.419 83.3542 515.334 83.2036 515.25 83.0831H514.237C513.815 83.0831 513.456 83.0831 513.161 83.0831C512.907 83.0831 512.654 83.0831 512.401 83.0831C512.19 83.0831 511.958 83.053 511.705 82.9928C511.451 82.9325 511.135 82.8422 510.755 82.7217C510.713 83.0229 510.459 83.2337 509.995 83.3542C509.573 83.4144 509.088 83.4445 508.539 83.4445C508.032 83.4445 507.547 83.4445 507.083 83.4445C506.661 83.4445 506.428 83.5349 506.386 83.7156C505.247 84.2577 504.213 84.7094 503.284 85.0709C502.355 85.4323 501.575 85.8238 500.941 86.2454C500.308 86.6068 499.781 87.0586 499.359 87.6007C498.937 88.0826 498.62 88.7753 498.409 89.6788ZM512.148 104.858V109.466C511.937 110.43 511.81 111.424 511.768 112.448C511.726 113.472 511.705 114.225 511.705 114.706V115.429H510.818C509.974 115.55 509.193 115.64 508.476 115.7C507.758 115.76 507.062 115.821 506.386 115.881L501.954 116.242C501.659 115.52 501.406 114.947 501.195 114.526C501.026 114.104 500.941 113.472 500.941 112.628C500.941 110.942 501.089 109.617 501.385 108.653C501.722 107.689 502.165 106.966 502.714 106.484C503.305 105.942 503.98 105.551 504.74 105.31C505.5 105.069 506.302 104.798 507.146 104.497C507.568 104.316 507.948 104.165 508.286 104.045C508.666 103.924 509.024 103.864 509.362 103.864H509.615C510.037 104.045 510.459 104.226 510.881 104.406C511.346 104.587 511.768 104.738 512.148 104.858Z" fill="#56321E"/>
<path d="M537.427 117.598L531.096 135.126L531.919 137.294H532.805L533.502 136.572H537.87L539.136 135.126L540.023 131.06L541.542 125.639L543.505 121.212L544.265 119.405V117.688H543.948L544.835 115.7L546.544 113.532L548.443 107.117L550.406 103.051L551.799 99.6176L552.559 96.3649V94.6482H547.304L544.898 99.0754L543.695 102.78L542.619 104.677L541.985 107.207L541.352 107.569L540.783 108.562L540.023 109.014L535.084 103.051L534.515 101.967L530.146 95.0999L529.513 94.7385L526.221 95.1903L526.031 96.0938L530.209 105.762L531.286 108.653L536.731 116.152L536.921 117.056L537.617 117.598H537.427Z" fill="#56321E"/>
</g>
<g filter="url(#filter1_d)">
<path d="M229.094 4.89393L226.936 0.577237L4.76987 60.0923L6.25545 65.6379L18.096 74.7027L15.208 102.048L16.0819 105.31L238.061 45.8448L237.748 42.4325L226.553 28.3001L229.094 4.89393Z" fill="#785340"/>
<path d="M5.92042 62.6858C4.68737 61.6431 5.13449 59.6445 6.69427 59.2267L224.961 0.756205C226.267 0.406564 227.536 1.42503 227.477 2.77497L226.399 27.5559C226.377 28.0659 226.551 28.565 226.885 28.9511L237.043 40.6963C238.008 41.8127 237.473 43.5546 236.047 43.9365L17.3467 102.523C15.9913 102.886 14.6931 101.777 14.8402 100.382L17.6468 73.7482C17.7162 73.0895 17.4549 72.4391 16.9492 72.0114L5.92042 62.6858Z" fill="#AD795E"/>
<path d="M17.1635 80.1962C22.7381 79.7448 34.0616 79.7509 35.5815 80.9933C41.102 85.506 19.0296 92.2826 16.1987 93.041" stroke="#CC9477"/>
<path d="M83.6059 85.1208L83.4591 85.5987L84.4149 85.8925L84.5618 85.4146L83.6059 85.1208ZM117.733 69.27L118.059 69.6498L117.733 69.27ZM136.792 64.1644L137.091 64.5651L136.792 64.1644ZM165.662 55.1374L165.86 55.5968L165.662 55.1374ZM192.91 49.1314L193.176 49.5547L192.91 49.1314ZM24.5816 102.431C25.9869 101.02 28.6262 98.3784 31.1995 96.0137C32.4867 94.8308 33.7509 93.7233 34.8321 92.8756C35.3729 92.4516 35.8616 92.0975 36.2802 91.8328C36.7078 91.5625 37.0287 91.4072 37.2408 91.3504L36.982 90.3845C36.6193 90.4816 36.1944 90.704 35.7458 90.9876C35.2881 91.277 34.7703 91.6533 34.215 92.0886C33.104 92.9598 31.8179 94.0873 30.5228 95.2774C27.9315 97.6587 25.2783 100.314 23.873 101.725L24.5816 102.431ZM37.2408 91.3504C37.5186 91.276 37.9759 91.2518 38.611 91.2901C39.2339 91.3278 39.984 91.4223 40.8232 91.5578C42.5015 91.8287 44.4987 92.2571 46.4814 92.6962C48.4572 93.1339 50.4216 93.5829 52.0116 93.8886C52.8068 94.0415 53.5194 94.1607 54.1003 94.2247C54.6554 94.2859 55.1685 94.3072 55.5164 94.214L55.2576 93.2481C55.114 93.2866 54.777 93.2932 54.2098 93.2307C53.6684 93.171 52.9862 93.0576 52.2004 92.9066C50.6285 92.6044 48.6858 92.1603 46.6977 91.7199C44.7166 91.2811 42.6931 90.8467 40.9826 90.5705C40.1274 90.4325 39.3409 90.3324 38.6713 90.292C38.014 90.2522 37.4227 90.2664 36.982 90.3845L37.2408 91.3504ZM84.5618 85.4146C84.5479 85.4597 84.53 85.4909 84.5203 85.5063C84.51 85.5226 84.5019 85.532 84.5001 85.5341C84.4972 85.5374 84.5038 85.5295 84.5278 85.5095C84.5753 85.4698 84.6551 85.4121 84.7745 85.3354C85.0111 85.1834 85.3592 84.9849 85.8105 84.744C86.7107 84.2636 87.9854 83.6339 89.5177 82.9024C92.5805 81.4405 96.648 79.5838 100.75 77.725C104.85 75.8672 108.986 74.0072 112.177 72.5419C113.772 71.8092 115.135 71.1736 116.141 70.6852C116.644 70.4412 117.062 70.2321 117.376 70.065C117.67 69.9091 117.926 69.7634 118.059 69.6498L117.408 68.8902C117.408 68.89 117.398 68.8985 117.371 68.9169C117.345 68.9342 117.31 68.956 117.266 68.9826C117.176 69.0359 117.057 69.1023 116.907 69.1818C116.609 69.3406 116.203 69.5436 115.705 69.7856C114.708 70.2691 113.353 70.9011 111.759 71.6331C108.572 73.0971 104.442 74.9545 100.338 76.8141C96.2359 78.6726 92.1599 80.5332 89.0869 82C87.5514 82.733 86.2602 83.3705 85.3397 83.8618C84.8808 84.1067 84.5048 84.3201 84.2342 84.4939C84.1 84.5801 83.9805 84.6636 83.8865 84.7421C83.8397 84.7812 83.7901 84.8266 83.746 84.8773C83.7082 84.9207 83.6417 85.0043 83.6059 85.1208L84.5618 85.4146ZM118.059 69.6498C118.08 69.6318 118.155 69.5827 118.326 69.5117C118.486 69.4449 118.696 69.372 118.957 69.2935C119.477 69.1366 120.163 68.9675 120.971 68.7865C122.589 68.4245 124.648 68.0256 126.776 67.5909C128.896 67.1576 131.078 66.6899 132.914 66.1942C133.831 65.9463 134.67 65.6893 135.376 65.4234C136.073 65.1605 136.674 64.8769 137.091 64.5651L136.493 63.7638C136.19 63.9902 135.695 64.2344 135.023 64.4876C134.359 64.7379 133.554 64.9853 132.653 65.2288C130.85 65.7157 128.695 66.1781 126.576 66.6111C124.464 67.0425 122.382 67.4459 120.753 67.8107C119.938 67.9932 119.224 68.1686 118.668 68.336C118.391 68.4196 118.144 68.5038 117.941 68.5888C117.747 68.6696 117.552 68.7671 117.408 68.8902L118.059 69.6498ZM137.091 64.5651C141.319 61.4089 146.443 60.0274 151.569 59.0091C156.65 57.9997 161.797 57.342 165.86 55.5968L165.465 54.678C161.531 56.368 156.567 56.9966 151.374 58.0283C146.225 59.0511 140.911 60.4655 136.493 63.7638L137.091 64.5651ZM165.86 55.5968C166.884 55.1566 168.804 54.7251 171.237 54.2839C173.653 53.8457 176.51 53.4084 179.382 52.9422C182.248 52.477 185.126 51.9836 187.559 51.436C189.968 50.8935 192.018 50.2824 193.176 49.5547L192.644 48.7081C191.651 49.3323 189.763 49.9148 187.339 50.4604C184.938 51.0008 182.087 51.49 179.222 51.9551C176.363 52.4191 173.486 52.8596 171.058 53.3C168.647 53.7373 166.612 54.1851 165.465 54.678L165.86 55.5968ZM193.176 49.5547C194.191 48.9168 195.901 48.2655 198 47.6101C200.086 46.9589 202.507 46.3183 204.913 45.6898C207.315 45.0627 209.704 44.447 211.708 43.8492C213.692 43.2573 215.369 42.6638 216.302 42.0648L215.762 41.2233C214.966 41.7341 213.425 42.2934 211.422 42.891C209.439 43.4826 207.07 44.093 204.661 44.7223C202.257 45.3501 199.814 45.9962 197.702 46.6555C195.603 47.3107 193.78 47.9938 192.644 48.7081L193.176 49.5547ZM216.302 42.0648C217.213 41.4805 218.2 40.5953 219.216 39.5968C220.234 38.5975 221.315 37.4502 222.395 36.3434C223.482 35.2293 224.577 34.1467 225.651 33.244C226.728 32.3379 227.758 31.6364 228.71 31.2613L228.344 30.3309C227.243 30.7644 226.117 31.5458 225.007 32.4785C223.894 33.4146 222.77 34.5267 221.679 35.645C220.581 36.7706 219.524 37.8932 218.516 38.8833C217.507 39.8742 216.581 40.6978 215.762 41.2233L216.302 42.0648Z" fill="#CC9477"/>
<path d="M14.958 57.0122C28.9968 57.0906 57.9322 57.0687 61.3638 56.3542C65.6533 55.461 88.2264 49.1581 93.9611 47.6219C99.6958 46.0856 115.022 35.0696 118.904 33.2616C122.787 31.4536 129.77 30.3508 135.203 28.8954C140.636 27.4401 156.275 27.8575 159.188 26.0533C162.102 24.2491 178.076 20.4819 182.219 17.8362C186.363 15.1905 193.839 14.7233 199.876 13.1062C205.913 11.4891 219.019 8.48995 221.978 5.64967C224.346 3.37745 226.545 2.5996 227.559 2.15741" stroke="#CC9477"/>
<path d="M9.80566 64.686C19.8644 62.9052 38.2995 64.0715 49.7007 66.9384C63.952 70.5221 99.8597 57.1909 102.48 55.8151C106.743 53.5766 118.972 42.3509 125.475 40.6088C131.978 38.8667 151.389 37.5047 154.262 36.735C157.136 35.9652 176.756 29.3385 180.317 28.1104C183.879 26.8823 195.139 24.14 200.033 23.6514C204.926 23.1628 214.154 17.6753 214.979 17.7286C215.804 17.7818 225.85 14.8165 227.059 14.4924" stroke="#CC9477"/>
<path d="M14.8291 69.9834C23.345 68.403 33.8426 71.0171 39.6399 75.7724C46.8866 81.7164 53.6463 84.6368 59.9385 84.0026C66.2307 83.3684 71.5878 75.625 78.1351 74.134C84.6824 72.6429 108.792 64.3443 114.493 61.5029C120.194 58.6614 133.096 50.737 136.864 49.7275C140.632 48.718 164.004 44.297 168.723 43.8213C173.442 43.3457 181.934 37.654 186.154 36.5233C190.375 35.3927 208.313 30.5875 210.121 30.103C211.93 29.6184 216.418 25.2622 219.884 24.3334C222.658 23.5905 222.596 23.6071 225.862 22.7322" stroke="#CC9477"/>
</g>
<g filter="url(#filter2_i)">
<path d="M58.0411 67.2775L59.4031 69.4469L60.4149 71.3631L63.9167 76.1319L64.2026 76.8216L64.6442 77.1499L65.7797 76.7905L67.6212 76.2075L67.8226 75.8837L67.5324 73.6871L67.5841 72.8905L67.3287 68.0302L67.4286 64.8259L66.9131 62.0244L66.7772 59.6748L66.403 58.493L65.9434 58.5344L63.3041 59.37L63.525 64.7613L62.9029 66.1025L62.8615 67.5719L63.1943 70.2232L60.6759 67.0675L57.4465 62.7326L57.0424 61.4562L56.6442 61.4782L54.2811 62.2263L54.4556 67.6843L54.8401 69.539L54.985 72.7699L53.8548 72.3995L51.4852 69.8209L48.0202 64.2082L47.6999 64.0496L46.5927 64.7121L46.696 65.2516L51.3306 74.2388L54.8631 78.998L55.1489 79.6876L55.5598 80.0257L56.7261 79.6565L58.5675 79.0736L58.7689 78.7498L58.4787 76.5531L58.5147 75.8135L58.275 70.8963L58.0411 67.2775Z" fill="#56321E"/>
<path d="M86.5418 70.9462L86.3899 70.7863C86.34 70.6287 86.2644 70.4966 86.1631 70.3899C86.0518 70.2518 85.9458 70.0946 85.845 69.9185C85.7223 69.9573 85.6247 70.0402 85.5523 70.1672C85.47 70.2626 85.3824 70.377 85.2896 70.5104C85.2072 70.6058 85.0992 70.7267 84.9654 70.8731C84.8422 70.9815 84.668 71.0713 84.4429 71.1425L84.2895 71.1911C84.0539 71.3003 83.8441 71.3841 83.6599 71.4424C83.4758 71.5007 83.3069 71.5715 83.1532 71.6548C82.9895 71.7066 82.8308 71.7742 82.6771 71.8575C82.5134 71.9094 82.319 71.9709 82.094 72.0421C81.6753 72.0706 81.3996 72.0886 81.2668 72.0959C81.1446 72.0653 81.0835 72.05 81.0835 72.05C81.0835 72.05 81.0937 72.0467 81.1141 72.0402C81.1346 72.0338 81.0939 72.012 80.9921 71.9748C80.9817 72.0128 80.9662 72.0351 80.9457 72.0415C80.9253 72.048 80.9098 72.0702 80.8993 72.1082C80.8993 72.1082 80.8789 72.1147 80.8379 72.1277C80.573 72.0729 80.3589 72.0366 80.1957 72.0189C80.053 71.9947 79.9567 71.9039 79.9068 71.7463C79.8669 71.6202 79.6948 71.432 79.3904 71.1816C79.1065 70.9247 78.8997 70.5914 78.77 70.1817C78.6203 69.709 78.4615 69.1004 78.2934 68.3561C78.1153 67.5803 78.0485 66.9426 78.093 66.4431C78.2068 66.2337 78.4384 65.9697 78.7877 65.651C79.1271 65.3009 79.5014 65.0611 79.9106 64.9315C80.1561 64.8538 80.3602 64.8585 80.5229 64.9457C80.696 64.9949 80.8484 65.0854 80.9802 65.2171C81.1119 65.3487 81.2077 65.5091 81.2675 65.6982C81.3379 65.8493 81.398 66.0037 81.4479 66.1613C81.5177 66.3819 81.5165 66.5556 81.4441 66.6826C81.3717 66.8095 81.2689 66.9114 81.1357 66.9883C81.0024 67.0651 80.8642 67.1262 80.721 67.1715C80.5777 67.2169 80.46 67.2715 80.3676 67.3354C80.0183 67.654 79.7206 67.887 79.4746 68.0342C79.249 68.175 79.1158 68.2518 79.0748 68.2648C79.1971 68.2954 79.3086 68.3988 79.4094 68.575C79.5102 68.7511 79.6057 68.9463 79.696 69.1604C79.7763 69.343 79.8464 69.5289 79.9063 69.718C79.9562 69.8756 79.9913 69.9511 80.0118 69.9446C80.7279 69.7179 81.3063 69.4828 81.747 69.2393C82.1876 68.9958 82.5414 68.7624 82.8084 68.5392C83.0655 68.2845 83.2711 68.0807 83.4253 67.9278C83.5695 67.7435 83.7287 67.6064 83.9029 67.5166C83.885 67.1755 83.9172 66.9573 83.9995 66.8619C84.0719 66.7349 84.1345 66.5417 84.1875 66.2822C84.0069 65.854 83.7956 65.4354 83.5536 65.0266C83.3221 64.5797 83.0954 64.1834 82.8733 63.8376C82.6413 63.4603 82.4293 63.146 82.2372 62.8947C82.0656 62.637 81.9698 62.4766 81.9498 62.4135C81.8066 62.4589 81.6689 62.4505 81.5366 62.3883C81.4249 62.3197 81.3233 62.2478 81.232 62.1727C81.1612 62.0911 81.1005 62.0062 81.0501 61.9182C80.9998 61.8301 80.9643 61.7893 80.9439 61.7958C80.7188 61.867 80.5199 61.8433 80.3473 61.7245C80.2455 61.6874 80.1592 61.6281 80.0883 61.5465C79.761 61.6501 79.4853 61.668 79.2612 61.6003C79.0372 61.5325 78.8126 61.5342 78.5875 61.6055C78.1658 62.051 77.6782 62.4308 77.1248 62.7447C76.5918 63.0521 76.1651 63.4819 75.8447 64.0341C75.6989 64.427 75.5686 64.7976 75.4538 65.1461C75.339 65.4945 75.2546 65.8679 75.2007 66.2664C75.1468 66.6649 75.0926 67.0982 75.0381 67.5662C74.9837 68.0342 74.9542 68.581 74.9496 69.2066C74.9271 69.4911 74.9354 69.7659 74.9742 70.031C75.0336 70.2896 75.093 70.5482 75.1523 70.8068C75.302 71.2795 75.4618 71.749 75.632 72.2153C75.8125 72.6436 76.1154 73.1025 76.5405 73.5921C76.6827 73.6858 76.8095 73.8017 76.9207 73.9398C77.0524 74.0715 77.1183 74.1373 77.1183 74.1373L77.3773 74.3154C77.4182 74.3025 77.4788 74.3873 77.5591 74.5699C77.6499 74.7146 77.7056 74.7836 77.726 74.7772L78.2785 74.6023C78.5938 74.7452 78.8481 74.8727 79.0412 74.985C79.2243 75.0657 79.3872 75.1182 79.5299 75.1423C79.6627 75.135 79.8056 75.1244 79.9588 75.1106C80.112 75.0968 80.3012 75.0542 80.5262 74.983C80.649 74.9441 80.7718 74.9053 80.8945 74.8664C81.0278 74.7895 81.166 74.7284 81.3092 74.6831C81.432 74.6442 81.565 74.6021 81.7082 74.5568C81.8514 74.5115 82.0353 74.4879 82.2599 74.4862C82.71 74.3437 83.0683 74.1956 83.3348 74.0419C83.6118 73.8502 83.8735 73.646 84.1201 73.4292C84.3871 73.206 84.6693 72.9953 84.9667 72.7971C85.2846 72.5925 85.6841 72.3967 86.1652 72.2097C86.268 72.1078 86.3663 71.9206 86.4601 71.6482C86.5645 71.3378 86.6067 71.1511 86.5867 71.088C86.5568 70.9935 86.4907 70.9624 86.3883 70.9948L86.5418 70.9462Z" fill="#56321E"/>
<path d="M89.3016 55.1971L89.0135 54.8202L88.7801 53.2297L87.3883 48.8332L86.9003 48.5716L85.1507 51.2579L85.414 52.943L87.3446 59.0414L90.7123 71.7065L91.3672 72.1753L93.1951 71.3366L94.0821 71.4719L94.5171 70.606L91.8533 62.1912L91.2846 60.3947L89.3016 55.1971Z" fill="#56321E"/>
<path d="M110.023 63.513L109.84 63.3628C109.79 63.2052 109.715 63.0731 109.614 62.9665C109.523 62.8218 109.427 62.6615 109.326 62.4853C109.183 62.5307 109.075 62.6168 109.003 62.7437C108.92 62.8391 108.833 62.9536 108.74 63.087C108.658 63.1824 108.56 63.3 108.447 63.4399C108.323 63.5483 108.139 63.6413 107.893 63.7191L107.74 63.7676C107.504 63.8769 107.294 63.9606 107.11 64.0189C106.947 64.0708 106.788 64.1383 106.634 64.2217C106.491 64.267 106.332 64.3346 106.158 64.4244C105.994 64.4762 105.8 64.5377 105.575 64.609C105.187 64.6625 104.86 64.7314 104.594 64.8156C104.338 64.8618 104.012 64.8612 103.614 64.8137C103.603 64.8517 103.598 64.8707 103.598 64.8707C103.578 64.8772 103.562 64.8994 103.552 64.9374C103.552 64.9374 103.531 64.9439 103.49 64.9568C103.205 64.9085 102.991 64.8722 102.848 64.8481C102.726 64.8174 102.64 64.7233 102.59 64.5657C102.55 64.4396 102.378 64.2514 102.074 64.001C101.79 63.7441 101.583 63.4109 101.453 63.0011C101.333 62.6229 101.296 62.2188 101.339 61.7888C101.404 61.3523 101.499 60.9756 101.623 60.6587C101.759 60.3038 101.883 60.0217 101.997 59.8123C102.111 59.6029 102.152 59.5204 102.121 59.5649C102.162 59.552 102.193 59.5075 102.214 59.4315C102.245 59.387 102.266 59.3458 102.276 59.3078C102.297 59.2318 102.328 59.1526 102.37 59.0701C102.412 58.8487 102.49 58.668 102.603 58.5281C102.727 58.3502 103.045 58.1108 103.558 57.8098C103.948 57.5478 104.255 57.3463 104.481 57.2056C104.727 57.0584 104.942 56.9556 105.126 56.8973C105.31 56.839 105.484 56.784 105.648 56.7321C105.811 56.6803 106.026 56.6123 106.292 56.5281C106.254 56.1935 106.235 55.9567 106.236 55.8177C106.237 55.6787 106.25 55.3626 106.274 54.8696C106.133 54.5674 105.998 54.2114 105.868 53.8017C105.749 53.354 105.603 53.1403 105.429 53.1606L103.741 53.6949C103.495 53.7727 103.24 53.8536 102.974 53.9378C102.718 53.984 102.416 54.0622 102.069 54.1723C101.626 54.6243 101.129 55.0073 100.575 55.3212C100.042 55.6286 99.6257 56.0552 99.3258 56.6009C99.1596 57.0003 99.019 57.3742 98.9042 57.7226C98.8099 58.0645 98.7255 58.438 98.6511 58.843C98.5972 59.2415 98.543 59.6747 98.4885 60.1427C98.4546 60.6043 98.425 61.1511 98.4 61.7831C98.398 62.0612 98.4164 62.3327 98.4553 62.5978C98.4942 62.8629 98.5433 63.1247 98.6027 63.3833C98.7524 63.8561 98.9122 64.3256 99.0824 64.7919C99.2629 65.2201 99.576 65.6758 100.022 66.1589C100.143 66.2591 100.27 66.375 100.402 66.5067C100.534 66.6383 100.599 66.7042 100.599 66.7042L100.828 66.892C100.869 66.879 100.939 66.9606 101.04 67.1368C101.131 67.2814 101.187 67.3505 101.207 67.344L101.729 67.1788C102.044 67.3217 102.298 67.4493 102.492 67.5615C102.675 67.6423 102.838 67.6947 102.98 67.7189C103.134 67.7051 103.287 67.6912 103.44 67.6774C103.593 67.6636 103.782 67.6211 104.007 67.5498C104.11 67.5174 104.222 67.4818 104.345 67.4429C104.478 67.3661 104.616 67.305 104.76 67.2597C104.903 67.2143 105.046 67.169 105.189 67.1236C105.333 67.0783 105.516 67.0548 105.741 67.053C106.171 66.917 106.519 66.7722 106.785 66.6184C107.062 66.4267 107.324 66.2225 107.57 66.0058C107.837 65.7826 108.12 65.5719 108.417 65.3737C108.735 65.169 109.145 64.97 109.646 64.7765C109.729 64.6811 109.827 64.494 109.941 64.215C110.046 63.9046 110.088 63.7179 110.068 63.6549C110.038 63.5603 109.962 63.5325 109.839 63.5713L110.023 63.513Z" fill="#56321E"/>
<path d="M110.179 52.7491C110.297 53.3358 110.426 53.8846 110.565 54.3953C110.725 54.8996 110.869 55.3566 110.999 55.7663C111.239 56.5227 111.52 57.1619 111.843 57.6838L112.344 58.2012L116.061 58.6369L116.798 58.4037C116.87 58.3463 116.947 58.2699 117.029 58.1745C117.111 58.0791 117.194 57.9489 117.277 57.784L119.436 55.6442C119.549 55.5043 119.704 55.2819 119.9 54.9771C120.117 54.6658 120.303 54.3295 120.458 53.9681C120.625 53.5688 120.74 53.1508 120.804 52.7144C120.869 52.2779 120.836 51.8548 120.706 51.4451C120.228 49.9323 119.538 48.6423 118.637 47.575C117.757 46.5013 116.752 45.7793 115.622 45.4089L115.56 45.4284C115.478 45.4543 115.34 45.5154 115.146 45.6116C114.951 45.7079 114.772 45.782 114.608 45.8338C114.465 45.8791 114.322 45.8897 114.179 45.8655C114.057 45.8349 113.976 45.7565 113.936 45.6305L111.922 46.8403C111.603 47.1145 111.305 47.4517 111.026 47.8519C110.748 48.2521 110.52 48.7057 110.343 49.2125C110.155 49.6879 110.044 50.2258 110.009 50.8264C109.964 51.3954 110.021 52.0363 110.179 52.7491ZM115.168 48.7771C115.454 48.8255 115.755 48.8516 116.071 48.8555C116.388 48.8593 116.698 48.917 117.004 49.0283C117.299 49.1082 117.584 49.2608 117.858 49.4862C118.152 49.705 118.44 50.0819 118.722 50.6168L118.493 52.6659L115.538 54.7455L115.109 54.8815L113.966 54.0468L113.222 51.1617C113.315 51.0283 113.393 50.8476 113.456 50.6197C113.519 50.3917 113.592 50.1605 113.675 49.9261C113.769 49.6536 113.888 49.4252 114.032 49.2409C114.187 49.0185 114.377 48.8717 114.602 48.8005C114.745 48.7551 114.934 48.7474 115.168 48.7771Z" fill="#56321E"/>
<path d="M142.504 49.694L139.628 40.9301C139.325 40.4712 139.007 40.0345 138.673 39.62C138.34 39.2056 137.984 38.9366 137.608 38.8132L134.57 39.6707L133.663 40.1137L133.4 40.5612L132.723 40.9835L130.816 40.0789L129.099 40.4144L127.602 41.9804L127.189 41.9551L126.901 41.5782L125.879 41.0175L125.249 41.373L123.703 41.2902L123.658 43.2809L124.685 47.377L127.319 55.6973L128.974 55.3812L129.299 54.9143L130.926 54.3994L131.526 53.9493L128.518 44.4471L130.053 43.9613L130.676 44.6484L131.367 46.406L132.534 50.0934L133.417 52.8826L133.859 53.2109L136.375 52.4142L136.796 51.3968L135.457 48.232L134.753 46.0101L134.259 44.4501L133.992 43.3906L135.371 43.1619L135.825 43.9546L137.78 48.7449L138.528 51.1086L139.491 51.376L142.437 50.4433L142.504 49.694Z" fill="#56321E"/>
<path d="M157.693 48.4225L157.541 48.2626C157.492 48.105 157.416 47.9729 157.315 47.8662C157.203 47.7281 157.097 47.5709 156.997 47.3948C156.874 47.4336 156.776 47.5165 156.704 47.6435C156.622 47.7389 156.534 47.8533 156.441 47.9867C156.359 48.0821 156.251 48.203 156.117 48.3494C155.994 48.4578 155.82 48.5476 155.594 48.6188L155.441 48.6674C155.205 48.7766 154.996 48.8604 154.811 48.9187C154.627 48.977 154.458 49.0478 154.305 49.1311C154.141 49.1829 153.982 49.2505 153.829 49.3338C153.665 49.3857 153.471 49.4472 153.245 49.5184C152.827 49.5469 152.551 49.5649 152.418 49.5722C152.296 49.5416 152.235 49.5262 152.235 49.5262C152.235 49.5262 152.245 49.523 152.266 49.5165C152.286 49.5101 152.245 49.4883 152.144 49.4511C152.133 49.4891 152.118 49.5114 152.097 49.5178C152.077 49.5243 152.061 49.5465 152.051 49.5845C152.051 49.5845 152.03 49.591 151.989 49.604C151.724 49.5492 151.51 49.5129 151.347 49.4952C151.205 49.471 151.108 49.3802 151.058 49.2226C151.018 49.0965 150.846 48.9083 150.542 48.6579C150.258 48.401 150.051 48.0677 149.922 47.658C149.772 47.1853 149.613 46.5767 149.445 45.8324C149.267 45.0566 149.2 44.4189 149.245 43.9194C149.358 43.71 149.59 43.446 149.939 43.1273C150.279 42.7772 150.653 42.5373 151.062 42.4078C151.308 42.3301 151.512 42.3348 151.674 42.422C151.848 42.4712 152 42.5617 152.132 42.6934C152.263 42.825 152.359 42.9854 152.419 43.1745C152.489 43.3256 152.55 43.48 152.599 43.6376C152.669 43.8582 152.668 44.0319 152.596 44.1589C152.523 44.2858 152.42 44.3877 152.287 44.4646C152.154 44.5414 152.016 44.6025 151.872 44.6478C151.729 44.6932 151.611 44.7478 151.519 44.8117C151.17 45.1303 150.872 45.3633 150.626 45.5105C150.401 45.6513 150.267 45.7281 150.226 45.7411C150.349 45.7717 150.46 45.8751 150.561 46.0513C150.662 46.2274 150.757 46.4225 150.848 46.6367C150.928 46.8193 150.998 47.0052 151.058 47.1943C151.108 47.3518 151.143 47.4274 151.163 47.4209C151.879 47.1942 152.458 46.9591 152.898 46.7156C153.339 46.4721 153.693 46.2387 153.96 46.0155C154.217 45.7608 154.423 45.557 154.577 45.4041C154.721 45.2198 154.88 45.0827 155.054 44.9929C155.036 44.6518 155.069 44.4336 155.151 44.3382C155.223 44.2112 155.286 44.018 155.339 43.7585C155.158 43.3303 154.947 42.9117 154.705 42.5029C154.474 42.056 154.247 41.6597 154.025 41.3139C153.793 40.9366 153.581 40.6223 153.389 40.371C153.217 40.1133 153.121 39.9529 153.101 39.8898C152.958 39.9352 152.82 39.9268 152.688 39.8646C152.576 39.796 152.475 39.7241 152.384 39.649C152.313 39.5674 152.252 39.4825 152.202 39.3945C152.151 39.3064 152.116 39.2656 152.095 39.2721C151.87 39.3433 151.671 39.3196 151.499 39.2008C151.397 39.1637 151.311 39.1044 151.24 39.0228C150.912 39.1264 150.637 39.1443 150.413 39.0766C150.189 39.0088 149.964 39.0105 149.739 39.0818C149.317 39.5273 148.83 39.9071 148.276 40.221C147.743 40.5284 147.317 40.9582 146.996 41.5104C146.85 41.9033 146.72 42.2739 146.605 42.6224C146.491 42.9708 146.406 43.3442 146.352 43.7427C146.298 44.1412 146.244 44.5745 146.19 45.0425C146.135 45.5105 146.106 46.0573 146.101 46.6829C146.079 46.9674 146.087 47.2422 146.126 47.5073C146.185 47.7659 146.244 48.0245 146.304 48.2831C146.453 48.7558 146.613 49.2253 146.783 49.6916C146.964 50.1199 147.267 50.5788 147.692 51.0684C147.834 51.1621 147.961 51.278 148.072 51.4161C148.204 51.5478 148.27 51.6136 148.27 51.6136L148.529 51.7917C148.57 51.7788 148.63 51.8636 148.711 52.0462C148.801 52.1909 148.857 52.2599 148.878 52.2535L149.43 52.0786C149.745 52.2215 150 52.349 150.193 52.4613C150.376 52.542 150.539 52.5945 150.681 52.6186C150.814 52.6113 150.957 52.6007 151.11 52.5869C151.264 52.5731 151.453 52.5305 151.678 52.4593C151.801 52.4204 151.923 52.3816 152.046 52.3427C152.179 52.2658 152.318 52.2047 152.461 52.1594C152.584 52.1205 152.717 52.0784 152.86 52.0331C153.003 51.9878 153.187 51.9642 153.411 51.9625C153.862 51.82 154.22 51.6719 154.486 51.5182C154.763 51.3265 155.025 51.1223 155.272 50.9055C155.539 50.6823 155.821 50.4716 156.118 50.2734C156.436 50.0688 156.836 49.873 157.317 49.686C157.419 49.5841 157.518 49.3969 157.612 49.1245C157.716 48.8141 157.758 48.6274 157.738 48.5643C157.708 48.4698 157.642 48.4387 157.54 48.4711L157.693 48.4225Z" fill="#56321E"/>
<path d="M172.95 33.7107L173.733 33.4108C173.855 33.4415 173.962 33.4596 174.054 33.4652C174.146 33.4708 174.263 33.4509 174.406 33.4056C174.488 33.3797 174.565 33.338 174.637 33.2806C174.729 33.2167 174.811 33.156 174.883 33.0986C174.975 33.0347 175.093 32.9801 175.236 32.9348C175.39 32.8514 175.59 32.7709 175.835 32.6932C175.917 32.6673 175.994 32.6604 176.065 32.6724C176.147 32.6465 176.208 32.6271 176.249 32.6142C176.27 32.6077 176.29 32.6012 176.311 32.5947C176.352 32.5818 176.413 32.4928 176.496 32.3279C176.394 32.3603 176.308 32.2662 176.238 32.0456C176.228 32.014 176.208 31.9163 176.179 31.7522C176.15 31.5881 176.125 31.4746 176.105 31.4116C176.084 31.418 176.049 31.3425 175.999 31.1849C175.959 31.0588 175.95 30.9578 175.971 30.8818C175.778 30.7696 175.656 30.6347 175.607 30.4771C175.547 30.288 175.446 30.1118 175.304 29.9486C175.201 30.0505 175.119 30.1112 175.058 30.1306C174.915 30.176 174.812 30.2084 174.751 30.2278C174.7 30.2092 174.639 30.1939 174.568 30.1818C174.496 30.1697 174.379 30.1896 174.215 30.2414C174.062 30.2552 173.806 30.3014 173.449 30.38C173.193 30.4262 172.886 30.4886 172.529 30.5672C172.171 30.6458 171.777 30.7184 171.348 30.7849L169.38 25.6345L168.909 25.1074L166.974 26.0323L166.827 27.275L168.081 31.5589C167.795 31.6496 167.519 31.737 167.253 31.8212C166.977 31.8739 166.716 31.9391 166.471 32.0168C166.296 32.1761 166.198 32.259 166.178 32.2655C165.994 32.3238 165.83 32.3756 165.687 32.421C165.544 32.4663 165.39 32.4801 165.227 32.4624L164.736 32.6179L164.47 33.3782C164.55 33.6303 164.64 33.9139 164.74 34.2291C164.84 34.5443 164.95 34.8562 165.07 35.1649C165.21 35.4671 165.351 35.7346 165.493 35.9673C165.624 36.1684 165.751 36.2844 165.873 36.315L166.223 36.5682C166.428 36.5034 166.581 36.4549 166.683 36.4225C166.776 36.3586 166.945 36.253 167.191 36.1058C167.191 36.0363 167.274 35.9756 167.437 35.9238C167.56 35.8849 167.688 35.8618 167.821 35.8545C167.974 35.8407 168.076 35.843 168.127 35.8616C168.188 35.8422 168.249 35.8227 168.311 35.8033C168.383 35.7459 168.46 35.7042 168.541 35.6783L168.956 35.495L169.133 36.4794L171.078 42.6251L172.054 45.2809L172.736 46.2613L173.443 45.8293L176.049 45.3163L177.648 44.3941C177.602 43.8194 177.493 43.2642 177.324 42.7284C177.154 42.1926 176.913 41.6448 176.601 41.0848L175.09 40.471L172.95 33.7107Z" fill="#56321E"/>
<path d="M179.083 30.937C179.201 31.5237 179.33 32.0724 179.469 32.5832C179.628 33.0875 179.773 33.5444 179.903 33.9542C180.142 34.7105 180.423 35.3497 180.746 35.8717L181.248 36.3891L184.965 36.8248L185.701 36.5916C185.773 36.5342 185.85 36.4578 185.933 36.3624C186.015 36.2669 186.098 36.1368 186.18 35.9718L188.339 33.8321C188.453 33.6922 188.607 33.4698 188.804 33.165C189.02 32.8537 189.206 32.5174 189.362 32.156C189.528 31.7566 189.644 31.3387 189.708 30.9022C189.772 30.4657 189.74 30.0426 189.61 29.6329C189.131 28.1201 188.442 26.8301 187.541 25.7629C186.661 24.6892 185.656 23.9672 184.525 23.5968L184.464 23.6162C184.382 23.6421 184.244 23.7032 184.049 23.7995C183.855 23.8958 183.675 23.9699 183.512 24.0217C183.369 24.067 183.226 24.0776 183.083 24.0534C182.961 24.0228 182.88 23.9444 182.84 23.8183L180.825 25.0282C180.507 25.3023 180.208 25.6395 179.93 26.0398C179.651 26.44 179.424 26.8935 179.246 27.4004C179.059 27.8758 178.948 28.4137 178.913 29.0143C178.868 29.5833 178.925 30.2242 179.083 30.937ZM184.072 26.965C184.358 27.0134 184.658 27.0395 184.975 27.0433C185.291 27.0472 185.602 27.1048 185.907 27.2162C186.203 27.2961 186.488 27.4487 186.761 27.674C187.056 27.8929 187.344 28.2698 187.626 28.8047L187.397 30.8538L184.442 32.9333L184.012 33.0693L182.87 32.2346L182.126 29.3496C182.219 29.2162 182.296 29.0355 182.359 28.8075C182.422 28.5796 182.495 28.3484 182.579 28.1139C182.673 27.8415 182.792 27.6131 182.936 27.4287C183.091 27.2064 183.28 27.0596 183.505 26.9884C183.649 26.943 183.838 26.9352 184.072 26.965Z" fill="#56321E"/>
</g>
<defs>
<filter id="filter0_i" x="159.559" y="78.2944" width="393" height="60" filterUnits="userSpaceOnUse" color-interpolation-filters="sRGB">
<feFlood flood-opacity="0" result="BackgroundImageFix"/>
<feBlend mode="normal" in="SourceGraphic" in2="BackgroundImageFix" result="shape"/>
<feColorMatrix in="SourceAlpha" type="matrix" values="0 0 0 0 0 0 0 0 0 0 0 0 0 0 0 0 0 0 127 0" result="hardAlpha"/>
<feOffset dy="1"/>
<feGaussianBlur stdDeviation="0.5"/>
<feComposite in2="hardAlpha" operator="arithmetic" k2="-1" k3="1"/>
<feColorMatrix type="matrix" values="0 0 0 0 0 0 0 0 0 0 0 0 0 0 0 0 0 0 0.3 0"/>
<feBlend mode="normal" in2="shape" result="effect1_innerShadow"/>
</filter>
<filter id="filter1_d" x="0.769531" y="0.577148" width="241.292" height="112.733" filterUnits="userSpaceOnUse" color-interpolation-filters="sRGB">
<feFlood flood-opacity="0" result="BackgroundImageFix"/>
<feColorMatrix in="SourceAlpha" type="matrix" values="0 0 0 0 0 0 0 0 0 0 0 0 0 0 0 0 0 0 127 0"/>
<feOffset dy="4"/>
<feGaussianBlur stdDeviation="2"/>
<feColorMatrix type="matrix" values="0 0 0 0 0 0 0 0 0 0 0 0 0 0 0 0 0 0 0.25 0"/>
<feBlend mode="normal" in2="BackgroundImageFix" result="effect1_dropShadow"/>
<feBlend mode="normal" in="SourceGraphic" in2="effect1_dropShadow" result="shape"/>
</filter>
<filter id="filter2_i" x="46.5928" y="23.5967" width="143.147" height="57.4289" filterUnits="userSpaceOnUse" color-interpolation-filters="sRGB">
<feFlood flood-opacity="0" result="BackgroundImageFix"/>
<feBlend mode="normal" in="SourceGraphic" in2="BackgroundImageFix" result="shape"/>
<feColorMatrix in="SourceAlpha" type="matrix" values="0 0 0 0 0 0 0 0 0 0 0 0 0 0 0 0 0 0 127 0" result="hardAlpha"/>
<feOffset dy="1"/>
<feGaussianBlur stdDeviation="0.5"/>
<feComposite in2="hardAlpha" operator="arithmetic" k2="-1" k3="1"/>
<feColorMatrix type="matrix" values="0 0 0 0 0 0 0 0 0 0 0 0 0 0 0 0 0 0 0.3 0"/>
<feBlend mode="normal" in2="shape" result="effect1_innerShadow"/>
</filter>
</defs>
</svg>
