<svg width="668" height="157" viewBox="0 0 668 157" fill="none" xmlns="http://www.w3.org/2000/svg">
<path d="M667.559 62.6253L664.845 52.0498H19.4437V64.8915L44.9558 91.3303L17.2725 148.74V156.294H662.13L663.759 148.74L643.675 111.726L667.559 62.6253Z" fill="#785340"/>
<path d="M17.4466 54.6084C16.3189 53.3144 17.238 51.2944 18.9544 51.2944H664.075C665.486 51.2944 666.454 52.7169 665.935 54.0295L643.498 110.801C643.268 111.384 643.324 112.04 643.649 112.576L665.168 147.968C665.979 149.3 665.019 151.007 663.459 151.007H17.7424C16.2684 151.007 15.3008 149.466 15.9407 148.138L44.9263 87.986C45.2736 87.2653 45.158 86.407 44.6324 85.8038L17.4466 54.6084Z" fill="#AD795E"/>
<path d="M38.4418 102.661C53.8797 104.913 84.5678 111.48 87.7855 115.044C99.4721 127.989 34.7239 129.855 26.5 129.855" stroke="#CC9477"/>
<path d="M215.754 152.042L215.445 152.435L216.231 153.054L216.54 152.661L215.754 152.042ZM318.971 137.263L319.149 137.73V137.73L318.971 137.263ZM374.337 137.263L374.186 136.786L374.337 137.263ZM459.145 134.469L459.202 134.966L459.145 134.469ZM537.361 137.263L537.242 136.777L537.361 137.263ZM605.471 134.469L605.594 134.953L605.471 134.469ZM41.9081 154.482C46.7417 152.246 55.8298 148.059 64.5424 144.431C68.8993 142.616 73.1555 140.944 76.7352 139.727C78.5253 139.119 80.1401 138.626 81.5102 138.285C82.8882 137.943 83.9885 137.763 84.7612 137.763V136.763C83.864 136.763 82.6684 136.967 81.2691 137.315C79.8619 137.664 78.2182 138.167 76.4133 138.78C72.8031 140.008 68.5236 141.689 64.158 143.507C55.4257 147.144 46.3219 151.339 41.4884 153.574L41.9081 154.482ZM84.7612 137.763C85.7374 137.763 87.121 138.011 88.8346 138.467C90.5391 138.92 92.5363 139.57 94.7268 140.353C99.1079 141.92 104.233 144.011 109.287 146.107C114.335 148.201 119.315 150.3 123.387 151.875C125.423 152.662 127.241 153.322 128.733 153.785C130.206 154.243 131.419 154.528 132.218 154.528V153.528C131.589 153.528 130.509 153.289 129.03 152.83C127.569 152.377 125.776 151.726 123.748 150.942C119.69 149.373 114.728 147.281 109.67 145.184C104.617 143.088 99.4709 140.988 95.0636 139.412C92.8599 138.623 90.8338 137.964 89.0916 137.5C87.3585 137.039 85.8721 136.763 84.7612 136.763V137.763ZM216.54 152.661C216.502 152.709 216.478 152.711 216.535 152.681C216.58 152.657 216.652 152.624 216.758 152.585C216.968 152.507 217.27 152.417 217.666 152.317C218.456 152.116 219.574 151.883 220.981 151.622C223.792 151.101 227.722 150.475 232.41 149.781C241.784 148.394 254.167 146.735 266.635 145.093C279.102 143.452 291.655 141.828 301.365 140.509C306.22 139.85 310.367 139.266 313.439 138.795C314.974 138.56 316.244 138.352 317.201 138.176C318.138 138.004 318.823 137.855 319.149 137.73L318.792 136.796C318.569 136.881 317.984 137.015 317.021 137.192C316.078 137.366 314.819 137.572 313.287 137.807C310.224 138.276 306.084 138.859 301.231 139.518C291.524 140.836 278.975 142.46 266.505 144.102C254.037 145.743 241.647 147.403 232.264 148.792C227.573 149.486 223.628 150.114 220.798 150.638C219.385 150.901 218.242 151.138 217.42 151.348C217.01 151.452 216.669 151.552 216.411 151.647C216.282 151.695 216.163 151.745 216.062 151.8C215.973 151.847 215.847 151.924 215.754 152.042L216.54 152.661ZM319.149 137.73C319.361 137.649 319.727 137.574 320.267 137.517C320.796 137.46 321.458 137.423 322.239 137.404C323.801 137.365 325.811 137.398 328.14 137.475C332.799 137.629 338.694 137.96 344.761 138.252C350.821 138.543 357.048 138.794 362.348 138.785C367.623 138.776 372.059 138.512 374.489 137.739L374.186 136.786C371.927 137.505 367.646 137.776 362.347 137.785C357.073 137.794 350.868 137.544 344.809 137.253C338.755 136.962 332.842 136.63 328.173 136.475C325.838 136.398 323.805 136.365 322.214 136.404C321.419 136.424 320.728 136.462 320.16 136.522C319.603 136.582 319.13 136.667 318.792 136.796L319.149 137.73ZM374.489 137.739C388.458 133.298 403.541 133.292 418.198 134.06C432.818 134.826 447.063 136.369 459.202 134.966L459.087 133.972C447.059 135.363 432.961 133.832 418.25 133.061C403.577 132.293 388.339 132.287 374.186 136.786L374.489 137.739ZM459.202 134.966C462.432 134.592 468.064 134.782 474.956 135.236C481.835 135.688 489.917 136.398 498.028 137.052C506.133 137.706 514.264 138.303 521.223 138.527C528.163 138.75 533.999 138.605 537.481 137.748L537.242 136.777C533.912 137.597 528.207 137.751 521.255 137.528C514.323 137.305 506.213 136.709 498.108 136.056C490.009 135.402 481.911 134.691 475.022 134.238C468.147 133.785 462.422 133.587 459.087 133.972L459.202 134.966ZM537.481 137.748C540.83 136.924 546.055 136.505 552.222 136.305C558.376 136.104 565.425 136.121 572.402 136.156C579.375 136.191 586.276 136.244 592.121 136.113C597.949 135.982 602.784 135.668 605.594 134.953L605.348 133.984C602.665 134.667 597.943 134.982 592.099 135.113C586.271 135.244 579.386 135.191 572.407 135.156C565.433 135.121 558.365 135.104 552.189 135.305C546.024 135.506 540.704 135.925 537.242 136.777L537.481 137.748ZM605.594 134.953C611.148 133.541 618.575 129.734 626.063 126.189C633.604 122.619 641.213 119.31 647.261 118.761L647.17 117.765C640.915 118.333 633.144 121.73 625.635 125.285C618.073 128.865 610.779 132.603 605.348 133.984L605.594 134.953Z" fill="#CC9477"/>
<path d="M49.2979 51.2944C87.2933 59.5893 165.739 76.2897 175.559 76.7321C187.835 77.2851 253.596 76.7321 270.256 76.7321C286.915 76.7321 336.455 61.8013 348.292 60.1423C360.129 58.4833 379.858 60.1423 395.641 60.1423C411.423 60.1423 453.511 70.0962 462.717 67.8842C471.924 65.6722 517.957 66.7782 531.109 63.4603C544.261 60.1423 564.866 63.4603 582.403 63.4603C599.939 63.4603 637.642 64.5663 647.725 60.1423C655.792 56.6032 662.318 56.1955 665.387 55.8268" stroke="#CC9477"/>
<path d="M29.7578 64.8911C58.3154 66.8654 107.437 80.0554 136.259 92.8486C172.285 108.84 279.294 100.82 287.394 99.3637C300.575 96.9946 341.873 79.8185 360.765 79.8185C379.657 79.8185 433.258 88.1104 441.605 88.1104C449.953 88.1104 507.947 85.149 518.491 84.5567C529.036 83.9644 561.547 84.5567 575.167 86.3335C588.787 88.1104 617.784 81.5953 619.981 82.1876C622.177 82.7799 651.56 82.1876 655.075 82.1876" stroke="#CC9477"/>
<path d="M39.5273 79.2441C63.7573 80.7585 90.3132 92.4825 102.574 106.112C117.9 123.149 134.102 133.372 151.618 135.643C169.134 137.915 189.277 124.285 208.106 124.853C226.935 125.421 298.311 121.446 315.827 118.606C333.343 115.767 374.066 106.112 385.014 106.112C395.961 106.112 462.52 110.088 475.657 111.791C488.794 113.495 515.943 106.112 528.204 106.112C540.465 106.112 592.574 106.112 597.829 106.112C603.083 106.112 618.41 99.2974 628.481 99.2974C636.538 99.2974 636.358 99.2974 645.846 99.2974" stroke="#CC9477"/>
<g filter="url(#filter0_i)">
<path d="M225.121 86.0107L223.789 84.8521H219.349L218.313 85.6542V99.0232L217.129 99.6471H206.176L206.472 99.0232V84.6738L205.51 83.6043L201.736 83.0695L200.33 83.7825L199.22 97.9537L197.888 102.41L197 119.701L197.666 124.157H204.622L206.472 123.622V104.727L207.952 104.46H211.653H216.611L216.389 112.392L216.685 112.481L216.389 113.996V120.235L215.871 122.107L216.537 124.424H220.755L222.605 124.87L226.823 122.642V119.79V118.631V114.799L225.121 102.321V86.0107Z" fill="#56321E"/>
<path d="M239.822 93.2299C240.168 93.2299 240.464 93.4082 240.71 93.7647C241.006 94.1212 241.253 94.5371 241.45 95.0125C241.697 95.4878 241.919 95.9037 242.117 96.2603C242.314 96.6168 242.487 96.795 242.635 96.795C243.128 96.6762 243.868 96.4385 244.855 96.082C245.891 95.6661 247.001 95.2501 248.185 94.8342C249.418 94.4183 250.602 94.0618 251.737 93.7647C252.921 93.4676 253.883 93.3191 254.623 93.3191C255.018 93.3191 255.289 93.4082 255.437 93.5865C255.634 93.7647 255.758 93.9727 255.807 94.2103C255.856 94.448 255.906 94.6857 255.955 94.9234C256.054 95.1016 256.226 95.2501 256.473 95.369C256.572 95.5472 256.72 95.7255 256.917 95.9037C257.115 96.0226 257.213 96.2602 257.213 96.6168C256.967 97.3298 256.819 98.0131 256.769 98.6667C256.72 99.2608 256.695 99.8253 256.695 100.36V100.895L254.549 101.073C254.204 101.133 253.858 101.192 253.513 101.251C253.168 101.251 252.773 101.251 252.329 101.251L250.109 102.766C249.468 102.766 248.925 102.856 248.481 103.034C248.037 103.153 247.568 103.361 247.075 103.658C246.631 103.895 246.113 104.163 245.521 104.46C244.929 104.757 244.139 105.054 243.153 105.351C240.784 106.777 239.008 108.5 237.824 110.52C236.69 112.541 236.122 115.036 236.122 118.007C236.122 118.958 236.394 119.908 236.936 120.859C237.479 121.75 238.145 122.582 238.934 123.355C239.724 124.068 240.538 124.662 241.376 125.137C242.215 125.553 242.955 125.761 243.597 125.761C244.337 125.761 245.027 125.761 245.669 125.761C246.31 125.821 246.951 125.85 247.593 125.85H251.663H251.737C251.836 125.85 251.91 125.761 251.959 125.583C252.058 125.464 252.156 125.316 252.255 125.137C252.403 124.9 252.625 124.721 252.921 124.602C253.266 124.424 253.735 124.335 254.327 124.335C254.968 124.335 255.634 124.573 256.325 125.048C257.016 125.464 257.608 125.672 258.101 125.672C258.496 125.672 258.866 125.642 259.211 125.583C259.557 125.523 259.902 125.434 260.247 125.316C260.642 125.197 261.086 125.108 261.579 125.048C262.073 124.929 262.64 124.87 263.281 124.87C263.429 125.167 263.701 125.434 264.095 125.672H265.132C265.181 125.375 265.28 125.108 265.428 124.87C265.576 124.573 265.748 124.187 265.946 123.711C265.896 122.345 265.822 121.127 265.724 120.057C265.674 118.988 265.625 117.977 265.576 117.027C265.576 116.017 265.551 114.977 265.502 113.907C265.502 112.838 265.477 111.62 265.428 110.253H265.65C265.699 110.194 265.748 110.164 265.798 110.164C265.65 110.164 265.526 109.926 265.428 109.451C265.329 108.976 265.255 108.5 265.206 108.025C265.156 107.49 265.107 107.015 265.058 106.599C265.058 106.124 265.058 105.886 265.058 105.886C265.008 105.411 264.91 105.054 264.762 104.816C264.663 104.519 264.54 104.193 264.391 103.836C264.293 103.42 264.169 102.856 264.021 102.143C263.923 101.43 263.849 100.271 263.799 98.6667C263.651 98.5478 263.528 98.1913 263.429 97.5971C263.331 97.003 263.232 96.3791 263.133 95.7255C263.084 95.0125 263.035 94.3589 262.985 93.7647C262.985 93.1111 262.961 92.7249 262.911 92.6061H262.763C262.369 92.6061 262.048 92.3387 261.801 91.8039C261.555 91.2692 261.333 90.675 261.135 90.0214C260.938 89.3678 260.765 88.8033 260.617 88.328C260.469 87.7932 260.297 87.5258 260.099 87.5258C260.001 87.407 259.902 87.2882 259.803 87.1693C259.705 86.9911 259.606 86.8425 259.507 86.7237H258.323C257.83 86.7237 257.411 86.7237 257.065 86.7237C256.769 86.7237 256.473 86.7237 256.177 86.7237C255.93 86.7237 255.659 86.694 255.363 86.6346C255.067 86.5752 254.697 86.486 254.253 86.3672C254.204 86.6643 253.908 86.8723 253.365 86.9911C252.872 87.0505 252.304 87.0802 251.663 87.0802C251.071 87.0802 250.504 87.0802 249.961 87.0802C249.468 87.0802 249.196 87.1693 249.147 87.3476C247.815 87.8824 246.606 88.328 245.521 88.6845C244.435 89.041 243.523 89.4272 242.783 89.8431C242.043 90.1996 241.426 90.6453 240.932 91.18C240.439 91.6554 240.069 92.3387 239.822 93.2299ZM255.881 108.203V112.749C255.634 113.699 255.486 114.68 255.437 115.69C255.388 116.7 255.363 117.443 255.363 117.918V118.631H254.327C253.34 118.75 252.428 118.839 251.589 118.898C250.75 118.958 249.936 119.017 249.147 119.077L243.967 119.433C243.621 118.72 243.325 118.156 243.079 117.74C242.881 117.324 242.783 116.7 242.783 115.868C242.783 114.204 242.955 112.897 243.301 111.947C243.695 110.996 244.213 110.283 244.855 109.807C245.545 109.273 246.335 108.887 247.223 108.649C248.111 108.411 249.048 108.144 250.035 107.847C250.528 107.668 250.972 107.52 251.367 107.401C251.811 107.282 252.23 107.223 252.625 107.223H252.921C253.414 107.401 253.908 107.579 254.401 107.758C254.944 107.936 255.437 108.084 255.881 108.203Z" fill="#56321E"/>
<path d="M301.784 121.216L301.488 120.859C301.488 120.562 301.414 120.295 301.266 120.057C301.167 119.76 301.069 119.433 300.97 119.077C300.625 119.077 300.329 119.166 300.082 119.344C299.835 119.463 299.564 119.611 299.268 119.79C299.021 119.908 298.725 120.057 298.38 120.235C298.034 120.354 297.566 120.414 296.974 120.414H296.604C296.012 120.473 295.494 120.503 295.05 120.503C294.655 120.503 294.26 120.532 293.866 120.592C293.52 120.592 293.126 120.622 292.682 120.681C292.287 120.681 291.818 120.681 291.275 120.681C290.387 120.562 289.623 120.503 288.981 120.503C288.389 120.443 287.674 120.265 286.835 119.968C286.786 120.027 286.761 120.057 286.761 120.057C286.712 120.057 286.663 120.087 286.613 120.146C286.613 120.146 286.564 120.146 286.465 120.146C285.873 119.908 285.429 119.73 285.133 119.611C284.887 119.493 284.763 119.285 284.763 118.988C284.763 118.75 284.517 118.334 284.023 117.74C283.579 117.146 283.357 116.462 283.357 115.69C283.357 114.977 283.554 114.264 283.949 113.551C284.393 112.838 284.862 112.244 285.355 111.768C285.898 111.234 286.367 110.818 286.761 110.52C287.156 110.223 287.304 110.105 287.205 110.164C287.304 110.164 287.403 110.105 287.501 109.986C287.6 109.926 287.674 109.867 287.723 109.807C287.822 109.689 287.945 109.57 288.093 109.451C288.34 109.094 288.636 108.827 288.981 108.649C289.376 108.411 290.239 108.174 291.571 107.936C292.608 107.698 293.422 107.52 294.014 107.401C294.655 107.282 295.198 107.223 295.642 107.223C296.086 107.223 296.505 107.223 296.9 107.223C297.294 107.223 297.812 107.223 298.454 107.223C298.602 106.629 298.725 106.213 298.824 105.975C298.922 105.737 299.169 105.203 299.564 104.371C299.465 103.777 299.416 103.093 299.416 102.321C299.465 101.489 299.292 101.043 298.898 100.984H294.828C294.236 100.984 293.619 100.984 292.978 100.984C292.386 100.925 291.67 100.895 290.831 100.895C289.549 101.43 288.192 101.816 286.761 102.053C285.38 102.291 284.171 102.796 283.135 103.569C282.494 104.163 281.926 104.727 281.433 105.262C280.989 105.797 280.545 106.391 280.101 107.045C279.706 107.698 279.287 108.411 278.843 109.184C278.448 109.956 278.004 110.877 277.511 111.947C277.314 112.422 277.166 112.897 277.067 113.373C276.968 113.848 276.894 114.323 276.845 114.799C276.845 115.69 276.87 116.581 276.919 117.472C277.018 118.304 277.388 119.255 278.029 120.324C278.226 120.562 278.424 120.829 278.621 121.127C278.818 121.424 278.917 121.572 278.917 121.572L279.287 122.018C279.386 122.018 279.484 122.196 279.583 122.553C279.682 122.85 279.756 122.998 279.805 122.998H281.063C281.655 123.414 282.124 123.771 282.469 124.068C282.814 124.305 283.135 124.484 283.431 124.602C283.776 124.662 284.122 124.721 284.467 124.781C284.813 124.84 285.257 124.87 285.799 124.87C286.046 124.87 286.317 124.87 286.613 124.87C286.959 124.81 287.304 124.781 287.649 124.781C287.995 124.781 288.34 124.781 288.685 124.781C289.031 124.781 289.45 124.84 289.943 124.959C290.979 124.959 291.843 124.9 292.534 124.781C293.274 124.602 293.989 124.395 294.68 124.157C295.42 123.919 296.184 123.711 296.974 123.533C297.812 123.355 298.848 123.236 300.082 123.176C300.329 123.058 300.674 122.79 301.118 122.374C301.562 121.899 301.784 121.602 301.784 121.483C301.784 121.305 301.636 121.216 301.34 121.216H301.784Z" fill="#56321E"/>
<path d="M322.619 106.688C322.421 106.807 322.224 106.866 322.027 106.866C321.681 106.866 321.435 106.688 321.287 106.332L320.843 103.569C320.793 102.321 320.769 100.687 320.769 98.6667C320.769 96.6465 320.744 94.5966 320.695 92.5169C320.645 90.3779 320.571 88.3874 320.473 86.5455C320.374 84.6441 320.201 83.2181 319.955 82.2674C319.116 82.2674 318.499 82.2674 318.105 82.2674C317.71 82.2674 317.34 82.2674 316.994 82.2674C316.698 82.208 316.353 82.1783 315.958 82.1783C315.564 82.1188 315.021 82.0594 314.33 82C314.034 82.3565 313.788 82.5645 313.59 82.6239C313.393 82.6239 313.196 82.7427 312.998 82.9804V86.9911C312.998 89.8431 312.949 92.5169 312.85 95.0125C312.801 97.4486 312.752 99.855 312.702 102.232C312.653 104.608 312.604 107.015 312.554 109.451C312.505 111.828 312.48 114.353 312.48 117.027C312.48 118.037 312.48 119.077 312.48 120.146C312.48 121.216 312.505 122.345 312.554 123.533C312.456 123.771 312.357 124.008 312.258 124.246C312.209 124.484 312.184 124.662 312.184 124.781C312.332 125.197 312.456 125.523 312.554 125.761C312.653 126.058 312.752 126.326 312.85 126.563L313.59 128.257C314.182 128.257 314.898 128.257 315.736 128.257C316.575 128.316 317.414 128.316 318.253 128.257C319.141 128.257 320.004 128.168 320.843 127.989C321.681 127.811 322.471 127.484 323.211 127.009C323.112 125.939 323.063 124.781 323.063 123.533C323.112 122.285 322.989 120.919 322.693 119.433C322.446 118.304 322.298 117.532 322.249 117.116C322.199 116.7 322.175 116.195 322.175 115.601C322.175 115.304 322.175 114.977 322.175 114.62C322.224 114.264 322.421 113.967 322.767 113.729C324.444 115.215 325.752 116.462 326.689 117.472C327.626 118.423 328.366 119.225 328.909 119.879C329.452 120.473 329.797 120.919 329.945 121.216C330.093 121.513 330.216 121.721 330.315 121.84L330.611 122.463V122.553C330.611 122.612 330.685 122.82 330.833 123.176C330.981 123.474 331.45 124.068 332.239 124.959C332.683 125.434 333.004 125.761 333.201 125.939C333.448 126.177 333.645 126.355 333.793 126.474C333.941 126.593 334.04 126.682 334.089 126.742C334.188 126.801 334.361 126.92 334.607 127.098L335.939 127.9C336.531 127.603 337.123 127.039 337.715 126.207C338.307 125.434 339.195 124.721 340.38 124.068C340.972 123.771 341.416 123.563 341.712 123.444C342.008 123.325 342.156 123.087 342.156 122.731C342.156 122.374 342.032 122.018 341.786 121.661C341.539 121.305 341.243 120.948 340.898 120.592C340.552 120.176 340.182 119.79 339.787 119.433C339.442 119.077 339.171 118.72 338.973 118.364C337.937 117.175 336.926 116.195 335.939 115.422C334.953 114.65 334.04 113.937 333.201 113.283C332.362 112.63 331.548 112.036 330.759 111.501C330.019 110.966 329.328 110.402 328.687 109.807C329.526 109.094 330.29 108.411 330.981 107.758C331.672 107.045 332.362 106.332 333.053 105.619C333.744 104.846 334.484 104.014 335.273 103.123C336.063 102.172 336.975 101.103 338.011 99.9144C337.863 99.5579 337.691 99.1717 337.493 98.7558C337.345 98.3399 337.099 98.0131 336.753 97.7754C336.655 97.8348 336.457 97.8645 336.161 97.8645C335.964 97.8645 335.742 97.8348 335.495 97.7754C335.249 97.716 334.977 97.5674 334.681 97.3298C333.991 97.8051 333.423 98.1913 332.979 98.4884C332.535 98.7855 332.066 99.1123 331.573 99.4688C331.08 99.8253 330.537 100.301 329.945 100.895C329.353 101.489 328.613 102.321 327.725 103.39C326.837 103.866 326.245 104.282 325.949 104.638C325.653 104.935 325.258 105.203 324.765 105.44C324.518 105.678 324.222 105.916 323.877 106.153C323.531 106.391 323.161 106.747 322.767 107.223C322.668 107.163 322.619 107.045 322.619 106.866V106.688Z" fill="#56321E"/>
<path d="M379.369 117.829C379.122 117.116 378.949 116.611 378.851 116.314C378.801 116.017 378.777 115.809 378.777 115.69C378.086 115.69 377.494 115.69 377.001 115.69C376.557 115.63 376.137 115.601 375.743 115.601L372.634 115.422C371.204 115.482 369.97 115.571 368.934 115.69C367.898 115.749 366.739 115.779 365.456 115.779C364.864 115.66 364.395 115.571 364.05 115.512C363.705 115.452 363.384 115.393 363.088 115.333C362.841 115.274 362.595 115.215 362.348 115.155C362.101 115.036 361.805 114.888 361.46 114.709C361.411 114.769 361.337 114.799 361.238 114.799C360.745 114.799 360.251 114.591 359.758 114.175C359.314 113.759 358.895 113.224 358.5 112.57C358.105 111.917 357.785 111.174 357.538 110.342C357.34 109.451 357.242 108.5 357.242 107.49C357.242 106.599 357.365 105.886 357.612 105.351C357.859 104.816 358.155 104.311 358.5 103.836C358.895 103.361 359.289 102.885 359.684 102.41C360.079 101.935 360.424 101.281 360.72 100.449C361.065 100.152 361.312 99.9739 361.46 99.9144L361.83 99.5579C361.83 99.5579 361.929 99.4391 362.126 99.2014C362.323 98.9638 362.545 98.6964 362.792 98.3993C363.088 98.1022 363.359 97.8348 363.606 97.5971C363.902 97.3001 364.099 97.1515 364.198 97.1515C364.494 96.9733 364.913 96.7653 365.456 96.5276C366.048 96.29 366.616 96.082 367.158 95.9037C367.701 95.7255 368.194 95.5769 368.638 95.4581C369.082 95.3393 369.403 95.2799 369.6 95.2799C369.946 95.3987 370.192 95.5175 370.34 95.6364C370.538 95.6958 370.661 95.7255 370.71 95.7255C371.352 95.7255 371.894 95.6958 372.338 95.6364C372.832 95.5175 373.301 95.4581 373.745 95.4581L376.187 95.1907L377.593 91.0909C377.543 90.7344 377.519 90.3482 377.519 89.9323C377.568 89.4569 377.568 89.0113 377.519 88.5954C377.469 88.12 377.395 87.7041 377.297 87.3476C377.247 86.9317 377.075 86.5455 376.779 86.189H371.45C370.661 86.189 369.847 86.189 369.008 86.189C368.219 86.1295 367.306 86.0998 366.27 86.0998L364.272 86.8128C363.532 86.8128 362.767 86.9614 361.978 87.2585C361.238 87.4961 360.523 87.7932 359.832 88.1497C359.141 88.5062 358.525 88.8627 357.982 89.2193C357.439 89.5758 357.094 89.8431 356.946 90.0214C355.959 91.0315 355.12 91.9525 354.43 92.7843C353.739 93.5567 353.098 94.3886 352.506 95.2799C351.963 96.1711 351.445 97.1515 350.952 98.221C350.458 99.2311 349.916 100.479 349.323 101.964C348.978 102.856 348.756 103.806 348.657 104.816C348.559 105.767 348.509 106.777 348.509 107.847C348.509 109.748 348.633 111.234 348.879 112.303C349.175 113.313 349.471 114.115 349.768 114.709C350.064 115.244 350.335 115.66 350.582 115.957C350.878 116.254 351.026 116.611 351.026 117.027L352.728 118.898L353.616 119.166C354.454 119.463 355.071 119.73 355.466 119.968C355.91 120.206 356.28 120.414 356.576 120.592C356.872 120.711 357.143 120.859 357.39 121.037C357.686 121.216 358.13 121.424 358.722 121.661C358.919 121.721 359.092 121.78 359.24 121.84C359.437 121.84 359.635 121.84 359.832 121.84C360.227 121.84 360.597 121.81 360.942 121.75C361.337 121.691 361.781 121.661 362.274 121.661C362.669 121.661 363.088 121.691 363.532 121.75C363.976 121.75 364.519 121.81 365.16 121.929C366.542 121.929 367.701 121.929 368.638 121.929C369.576 121.929 370.464 121.929 371.302 121.929C372.19 121.869 373.103 121.84 374.041 121.84C375.027 121.78 376.211 121.721 377.593 121.661L378.333 120.859C378.579 120.622 378.752 120.473 378.851 120.414C378.999 120.354 379.319 120.027 379.813 119.433L380.331 118.809C380.281 118.809 380.109 118.78 379.813 118.72C379.517 118.601 379.369 118.304 379.369 117.829Z" fill="#56321E"/>
<path d="M390.214 93.2299C390.559 93.2299 390.855 93.4082 391.102 93.7647C391.398 94.1212 391.644 94.5371 391.842 95.0125C392.088 95.4878 392.31 95.9037 392.508 96.2603C392.705 96.6168 392.878 96.795 393.026 96.795C393.519 96.6762 394.259 96.4385 395.246 96.082C396.282 95.6661 397.392 95.2501 398.576 94.8342C399.809 94.4183 400.994 94.0618 402.128 93.7647C403.312 93.4676 404.274 93.3191 405.014 93.3191C405.409 93.3191 405.68 93.4082 405.828 93.5865C406.026 93.7647 406.149 93.9727 406.198 94.2103C406.248 94.448 406.297 94.6857 406.346 94.9234C406.445 95.1016 406.618 95.2501 406.864 95.369C406.963 95.5472 407.111 95.7255 407.308 95.9037C407.506 96.0226 407.604 96.2602 407.604 96.6168C407.358 97.3298 407.21 98.0131 407.16 98.6667C407.111 99.2608 407.086 99.8253 407.086 100.36V100.895L404.94 101.073C404.595 101.133 404.25 101.192 403.904 101.251C403.559 101.251 403.164 101.251 402.72 101.251L400.5 102.766C399.859 102.766 399.316 102.856 398.872 103.034C398.428 103.153 397.959 103.361 397.466 103.658C397.022 103.895 396.504 104.163 395.912 104.46C395.32 104.757 394.531 105.054 393.544 105.351C391.176 106.777 389.4 108.5 388.216 110.52C387.081 112.541 386.514 115.036 386.514 118.007C386.514 118.958 386.785 119.908 387.328 120.859C387.87 121.75 388.536 122.582 389.326 123.355C390.115 124.068 390.929 124.662 391.768 125.137C392.606 125.553 393.347 125.761 393.988 125.761C394.728 125.761 395.419 125.761 396.06 125.761C396.701 125.821 397.343 125.85 397.984 125.85H402.054H402.128C402.227 125.85 402.301 125.761 402.35 125.583C402.449 125.464 402.548 125.316 402.646 125.137C402.794 124.9 403.016 124.721 403.312 124.602C403.658 124.424 404.126 124.335 404.718 124.335C405.36 124.335 406.026 124.573 406.716 125.048C407.407 125.464 407.999 125.672 408.493 125.672C408.887 125.672 409.257 125.642 409.603 125.583C409.948 125.523 410.293 125.434 410.639 125.316C411.033 125.197 411.477 125.108 411.971 125.048C412.464 124.929 413.031 124.87 413.673 124.87C413.821 125.167 414.092 125.434 414.487 125.672H415.523C415.572 125.375 415.671 125.108 415.819 124.87C415.967 124.573 416.14 124.187 416.337 123.711C416.288 122.345 416.214 121.127 416.115 120.057C416.066 118.988 416.016 117.977 415.967 117.027C415.967 116.017 415.942 114.977 415.893 113.907C415.893 112.838 415.868 111.62 415.819 110.253H416.041C416.09 110.194 416.14 110.164 416.189 110.164C416.041 110.164 415.917 109.926 415.819 109.451C415.72 108.976 415.646 108.5 415.597 108.025C415.547 107.49 415.498 107.015 415.449 106.599C415.449 106.124 415.449 105.886 415.449 105.886C415.399 105.411 415.301 105.054 415.153 104.816C415.054 104.519 414.931 104.193 414.783 103.836C414.684 103.42 414.561 102.856 414.413 102.143C414.314 101.43 414.24 100.271 414.191 98.6667C414.043 98.5478 413.919 98.1913 413.821 97.5971C413.722 97.003 413.623 96.3791 413.525 95.7255C413.475 95.0125 413.426 94.3589 413.377 93.7647C413.377 93.1111 413.352 92.7249 413.303 92.6061H413.155C412.76 92.6061 412.439 92.3387 412.193 91.8039C411.946 91.2692 411.724 90.675 411.527 90.0214C411.329 89.3678 411.157 88.8033 411.009 88.328C410.861 87.7932 410.688 87.5258 410.491 87.5258C410.392 87.407 410.293 87.2882 410.195 87.1693C410.096 86.9911 409.997 86.8425 409.899 86.7237H408.715C408.221 86.7237 407.802 86.7237 407.456 86.7237C407.16 86.7237 406.864 86.7237 406.568 86.7237C406.322 86.7237 406.05 86.694 405.754 86.6346C405.458 86.5752 405.088 86.486 404.644 86.3672C404.595 86.6643 404.299 86.8723 403.756 86.9911C403.263 87.0505 402.696 87.0802 402.054 87.0802C401.462 87.0802 400.895 87.0802 400.352 87.0802C399.859 87.0802 399.587 87.1693 399.538 87.3476C398.206 87.8824 396.997 88.328 395.912 88.6845C394.827 89.041 393.914 89.4272 393.174 89.8431C392.434 90.1996 391.817 90.6453 391.324 91.18C390.83 91.6554 390.46 92.3387 390.214 93.2299ZM406.272 108.203V112.749C406.026 113.699 405.878 114.68 405.828 115.69C405.779 116.7 405.754 117.443 405.754 117.918V118.631H404.718C403.732 118.75 402.819 118.839 401.98 118.898C401.142 118.958 400.327 119.017 399.538 119.077L394.358 119.433C394.013 118.72 393.717 118.156 393.47 117.74C393.273 117.324 393.174 116.7 393.174 115.868C393.174 114.204 393.347 112.897 393.692 111.947C394.087 110.996 394.605 110.283 395.246 109.807C395.937 109.273 396.726 108.887 397.614 108.649C398.502 108.411 399.439 108.144 400.426 107.847C400.92 107.668 401.364 107.52 401.758 107.401C402.202 107.282 402.622 107.223 403.016 107.223H403.312C403.806 107.401 404.299 107.579 404.792 107.758C405.335 107.936 405.828 108.084 406.272 108.203Z" fill="#56321E"/>
<path d="M463.572 115.155L463.35 98.5775C463.004 97.6269 462.61 96.7059 462.166 95.8146C461.722 94.9234 461.13 94.2698 460.39 93.8538L453.137 93.6756L450.843 93.943L449.955 94.5668L448.179 94.9234L444.627 92.3387L440.631 91.9822L436.265 93.8538L435.376 93.5865L435.006 92.7843L433.156 91.2692L431.528 91.5365L428.198 90.5562L426.718 93.943L426.126 101.519V117.205L429.974 117.562L431.01 116.938H434.932L436.561 116.492V98.5775H440.261L441.149 100.093L441.445 103.479V110.431V115.69L442.185 116.492H448.253L449.881 114.977L449.141 108.827V104.638V101.697L449.289 99.7362L452.471 100.093L452.915 101.697L453.877 110.966V115.422L455.801 116.403H462.906L463.572 115.155Z" fill="#56321E"/>
<path d="M472.287 129.95L473.101 132H474.285L475.099 131.198H480.797L482.351 129.772L482.055 125.672L482.425 119.611L482.129 118.007C482.771 117.888 483.289 117.769 483.683 117.651C484.127 117.472 484.621 117.175 485.163 116.759L493.304 113.462C493.797 113.283 494.463 112.927 495.302 112.392C496.19 111.857 497.053 111.204 497.892 110.431C498.731 109.659 499.446 108.827 500.038 107.936C500.679 106.985 501 106.034 501 105.084C501 103.242 500.729 101.4 500.186 99.5579C499.693 97.716 498.953 96.0523 497.966 94.5668C496.979 93.022 495.746 91.7445 494.266 90.7344C492.786 89.7243 491.084 89.1598 489.159 89.041C488.567 88.9816 488 88.8925 487.457 88.7736C486.964 88.6548 486.693 88.328 486.643 87.7932L479.909 88.5062H478.799L478.207 89.1301L475.469 88.6845L474.729 92.5169L473.989 103.658L473.175 106.599V122.998L472.287 129.95ZM481.093 96.082C481.488 96.0226 481.858 95.9929 482.203 95.9929C482.598 95.9335 482.968 95.9037 483.313 95.9037C484.251 95.9037 485.484 96.1711 487.013 96.7059C487.852 96.9436 488.715 97.1218 489.604 97.2406C490.492 97.3001 491.33 97.4486 492.12 97.6863C492.958 97.9239 493.674 98.3399 494.266 98.934C494.907 99.5282 495.376 100.479 495.672 101.786L493.008 106.153L482.795 108.649H481.685V106.242L481.093 102.143V96.082Z" fill="#56321E"/>
</g>
<g filter="url(#filter1_d)">
<path d="M230.094 5.89393L227.936 1.57724L5.76987 61.0923L7.25545 66.6379L19.096 75.7027L16.208 103.048L17.0819 106.31L239.061 46.8448L238.748 43.4325L227.553 29.3001L230.094 5.89393Z" fill="#785340"/>
<path d="M6.92042 63.6858C5.68737 62.6431 6.13449 60.6445 7.69427 60.2267L225.961 1.75621C227.267 1.40656 228.536 2.42503 228.477 3.77497L227.399 28.5559C227.377 29.0659 227.551 29.565 227.885 29.9511L238.043 41.6963C239.008 42.8127 238.473 44.5546 237.047 44.9365L18.3467 103.523C16.9913 103.886 15.6931 102.777 15.8402 101.382L18.6468 74.7482C18.7162 74.0895 18.4549 73.4391 17.9492 73.0114L6.92042 63.6858Z" fill="#AD795E"/>
<path d="M18.1635 81.1962C23.7381 80.7448 35.0616 80.7509 36.5815 81.9933C42.102 86.506 20.0296 93.2826 17.1987 94.041" stroke="#CC9477"/>
<path d="M84.6059 86.1208L84.4591 86.5987L85.4149 86.8925L85.5618 86.4146L84.6059 86.1208ZM118.733 70.27L119.059 70.6498L118.733 70.27ZM137.792 65.1644L138.091 65.5651L137.792 65.1644ZM166.662 56.1374L166.86 56.5968L166.662 56.1374ZM193.91 50.1314L194.176 50.5547L193.91 50.1314ZM25.5816 103.431C26.9869 102.02 29.6262 99.3784 32.1995 97.0137C33.4867 95.8308 34.7509 94.7233 35.8321 93.8756C36.3729 93.4516 36.8616 93.0975 37.2802 92.8328C37.7078 92.5625 38.0287 92.4072 38.2408 92.3504L37.982 91.3845C37.6193 91.4816 37.1944 91.704 36.7458 91.9876C36.2881 92.277 35.7703 92.6533 35.215 93.0886C34.104 93.9598 32.8179 95.0873 31.5228 96.2774C28.9315 98.6587 26.2783 101.314 24.873 102.725L25.5816 103.431ZM38.2408 92.3504C38.5186 92.276 38.9759 92.2518 39.611 92.2901C40.2339 92.3278 40.984 92.4223 41.8232 92.5578C43.5015 92.8287 45.4987 93.2571 47.4814 93.6962C49.4572 94.1339 51.4216 94.5829 53.0116 94.8886C53.8068 95.0415 54.5194 95.1607 55.1003 95.2247C55.6554 95.2859 56.1685 95.3072 56.5164 95.214L56.2576 94.2481C56.114 94.2866 55.777 94.2932 55.2098 94.2307C54.6684 94.171 53.9862 94.0576 53.2004 93.9066C51.6285 93.6044 49.6858 93.1603 47.6977 92.7199C45.7166 92.2811 43.6931 91.8467 41.9826 91.5705C41.1274 91.4325 40.3409 91.3324 39.6713 91.292C39.014 91.2522 38.4227 91.2664 37.982 91.3845L38.2408 92.3504ZM85.5618 86.4146C85.5479 86.4597 85.53 86.4909 85.5203 86.5063C85.51 86.5226 85.5019 86.532 85.5001 86.5341C85.4972 86.5374 85.5038 86.5295 85.5278 86.5095C85.5753 86.4698 85.6551 86.4121 85.7745 86.3354C86.0111 86.1834 86.3592 85.9849 86.8105 85.744C87.7107 85.2636 88.9854 84.6339 90.5177 83.9024C93.5805 82.4405 97.648 80.5838 101.75 78.725C105.85 76.8672 109.986 75.0072 113.177 73.5419C114.772 72.8092 116.135 72.1736 117.141 71.6852C117.644 71.4412 118.062 71.2321 118.376 71.065C118.67 70.9091 118.926 70.7634 119.059 70.6498L118.408 69.8902C118.408 69.89 118.398 69.8985 118.371 69.9169C118.345 69.9342 118.31 69.956 118.266 69.9826C118.176 70.0359 118.057 70.1023 117.907 70.1818C117.609 70.3406 117.203 70.5436 116.705 70.7856C115.708 71.2691 114.353 71.9011 112.759 72.6331C109.572 74.0971 105.442 75.9545 101.338 77.8141C97.2359 79.6726 93.1599 81.5332 90.0869 83C88.5514 83.733 87.2602 84.3705 86.3397 84.8618C85.8808 85.1067 85.5048 85.3201 85.2342 85.4939C85.1 85.5801 84.9805 85.6636 84.8865 85.7421C84.8397 85.7812 84.7901 85.8266 84.746 85.8773C84.7082 85.9207 84.6417 86.0043 84.6059 86.1208L85.5618 86.4146ZM119.059 70.6498C119.08 70.6318 119.155 70.5827 119.326 70.5117C119.486 70.4449 119.696 70.372 119.957 70.2935C120.477 70.1366 121.163 69.9675 121.971 69.7865C123.589 69.4245 125.648 69.0256 127.776 68.5909C129.896 68.1576 132.078 67.6899 133.914 67.1942C134.831 66.9463 135.67 66.6893 136.376 66.4234C137.073 66.1605 137.674 65.8769 138.091 65.5651L137.493 64.7638C137.19 64.9902 136.695 65.2344 136.023 65.4876C135.359 65.7379 134.554 65.9853 133.653 66.2288C131.85 66.7157 129.695 67.1781 127.576 67.6111C125.464 68.0425 123.382 68.4459 121.753 68.8107C120.938 68.9932 120.224 69.1686 119.668 69.336C119.391 69.4196 119.144 69.5038 118.941 69.5888C118.747 69.6696 118.552 69.7671 118.408 69.8902L119.059 70.6498ZM138.091 65.5651C142.319 62.4089 147.443 61.0274 152.569 60.0091C157.65 58.9997 162.797 58.342 166.86 56.5968L166.465 55.678C162.531 57.368 157.567 57.9966 152.374 59.0283C147.225 60.0511 141.911 61.4655 137.493 64.7638L138.091 65.5651ZM166.86 56.5968C167.884 56.1566 169.804 55.7251 172.237 55.2839C174.653 54.8457 177.51 54.4084 180.382 53.9422C183.248 53.477 186.126 52.9836 188.559 52.436C190.968 51.8935 193.018 51.2824 194.176 50.5547L193.644 49.7081C192.651 50.3323 190.763 50.9148 188.339 51.4604C185.938 52.0008 183.087 52.49 180.222 52.9551C177.363 53.4191 174.486 53.8596 172.058 54.3C169.647 54.7373 167.612 55.1851 166.465 55.678L166.86 56.5968ZM194.176 50.5547C195.191 49.9168 196.901 49.2655 199 48.6101C201.086 47.9589 203.507 47.3183 205.913 46.6898C208.315 46.0627 210.704 45.447 212.708 44.8492C214.692 44.2573 216.369 43.6638 217.302 43.0648L216.762 42.2233C215.966 42.7341 214.425 43.2934 212.422 43.891C210.439 44.4826 208.07 45.093 205.661 45.7223C203.257 46.3501 200.814 46.9962 198.702 47.6555C196.603 48.3107 194.78 48.9938 193.644 49.7081L194.176 50.5547ZM217.302 43.0648C218.213 42.4805 219.2 41.5953 220.216 40.5968C221.234 39.5975 222.315 38.4502 223.395 37.3434C224.482 36.2293 225.577 35.1467 226.651 34.244C227.728 33.3379 228.758 32.6364 229.71 32.2613L229.344 31.3309C228.243 31.7644 227.117 32.5458 226.007 33.4785C224.894 34.4146 223.77 35.5267 222.679 36.645C221.581 37.7706 220.524 38.8932 219.516 39.8833C218.507 40.8742 217.581 41.6978 216.762 42.2233L217.302 43.0648Z" fill="#CC9477"/>
<path d="M15.958 58.0122C29.9968 58.0906 58.9322 58.0687 62.3638 57.3542C66.6533 56.461 89.2264 50.1581 94.9611 48.6219C100.696 47.0856 116.022 36.0696 119.904 34.2616C123.787 32.4536 130.77 31.3508 136.203 29.8954C141.636 28.4401 157.275 28.8575 160.188 27.0533C163.102 25.2491 179.076 21.4819 183.219 18.8362C187.363 16.1905 194.839 15.7233 200.876 14.1062C206.913 12.4891 220.019 9.48995 222.978 6.64967C225.346 4.37745 227.545 3.5996 228.559 3.15741" stroke="#CC9477"/>
<path d="M10.8057 65.686C20.8644 63.9052 39.2995 65.0715 50.7007 67.9384C64.952 71.5221 100.86 58.1909 103.48 56.8151C107.743 54.5766 119.972 43.3509 126.475 41.6088C132.978 39.8667 152.389 38.5047 155.262 37.735C158.136 36.9652 177.756 30.3385 181.317 29.1104C184.879 27.8823 196.139 25.14 201.033 24.6514C205.926 24.1628 215.154 18.6753 215.979 18.7286C216.804 18.7818 226.85 15.8165 228.059 15.4924" stroke="#CC9477"/>
<path d="M15.8291 70.9834C24.345 69.403 34.8426 72.0171 40.6399 76.7724C47.8866 82.7164 54.6463 85.6368 60.9385 85.0026C67.2307 84.3684 72.5878 76.625 79.1351 75.134C85.6824 73.6429 109.792 65.3443 115.493 62.5029C121.194 59.6614 134.096 51.737 137.864 50.7275C141.632 49.718 165.004 45.297 169.723 44.8213C174.442 44.3457 182.934 38.654 187.154 37.5233C191.375 36.3927 209.313 31.5875 211.121 31.103C212.93 30.6184 217.418 26.2622 220.884 25.3334C223.658 24.5905 223.596 24.6071 226.862 23.7322" stroke="#CC9477"/>
</g>
<g filter="url(#filter2_i)">
<path d="M59.0411 68.2775L60.4031 70.4469L61.4149 72.3631L64.9167 77.1319L65.2026 77.8216L65.6442 78.1499L66.7797 77.7905L68.6212 77.2075L68.8226 76.8837L68.5324 74.6871L68.5841 73.8905L68.3287 69.0302L68.4286 65.8259L67.9131 63.0244L67.7772 60.6748L67.403 59.493L66.9434 59.5344L64.3041 60.37L64.525 65.7613L63.9029 67.1025L63.8615 68.5719L64.1943 71.2232L61.6759 68.0675L58.4465 63.7326L58.0424 62.4562L57.6442 62.4782L55.2811 63.2263L55.4556 68.6843L55.8401 70.539L55.985 73.7699L54.8548 73.3995L52.4852 70.8209L49.0202 65.2082L48.6999 65.0496L47.5927 65.7121L47.696 66.2516L52.3306 75.2388L55.8631 79.998L56.1489 80.6876L56.5598 81.0257L57.7261 80.6565L59.5675 80.0736L59.7689 79.7498L59.4787 77.5531L59.5147 76.8135L59.275 71.8963L59.0411 68.2775Z" fill="#56321E"/>
<path d="M87.5418 71.9462L87.3899 71.7863C87.34 71.6287 87.2644 71.4966 87.1631 71.3899C87.0518 71.2518 86.9458 71.0946 86.845 70.9185C86.7223 70.9573 86.6247 71.0402 86.5523 71.1672C86.47 71.2626 86.3824 71.377 86.2896 71.5104C86.2072 71.6058 86.0992 71.7267 85.9654 71.8731C85.8422 71.9815 85.668 72.0713 85.4429 72.1425L85.2895 72.1911C85.0539 72.3003 84.8441 72.3841 84.6599 72.4424C84.4758 72.5007 84.3069 72.5715 84.1532 72.6548C83.9895 72.7066 83.8308 72.7742 83.6771 72.8575C83.5134 72.9094 83.319 72.9709 83.094 73.0421C82.6753 73.0706 82.3996 73.0886 82.2668 73.0959C82.1446 73.0653 82.0835 73.05 82.0835 73.05C82.0835 73.05 82.0937 73.0467 82.1141 73.0402C82.1346 73.0338 82.0939 73.012 81.9921 72.9748C81.9817 73.0128 81.9662 73.0351 81.9457 73.0415C81.9253 73.048 81.9098 73.0702 81.8993 73.1082C81.8993 73.1082 81.8789 73.1147 81.8379 73.1277C81.573 73.0729 81.3589 73.0366 81.1957 73.0189C81.053 72.9947 80.9567 72.9039 80.9068 72.7463C80.8669 72.6202 80.6948 72.432 80.3904 72.1816C80.1065 71.9247 79.8997 71.5914 79.77 71.1817C79.6203 70.709 79.4615 70.1004 79.2934 69.3561C79.1153 68.5803 79.0485 67.9426 79.093 67.4431C79.2068 67.2337 79.4384 66.9697 79.7877 66.651C80.1271 66.3009 80.5014 66.0611 80.9106 65.9315C81.1561 65.8538 81.3602 65.8585 81.5229 65.9457C81.696 65.9949 81.8484 66.0854 81.9802 66.2171C82.1119 66.3487 82.2077 66.5091 82.2675 66.6982C82.3379 66.8493 82.398 67.0037 82.4479 67.1613C82.5177 67.3819 82.5165 67.5556 82.4441 67.6826C82.3717 67.8095 82.2689 67.9114 82.1357 67.9883C82.0024 68.0651 81.8642 68.1262 81.721 68.1715C81.5777 68.2169 81.46 68.2715 81.3676 68.3354C81.0183 68.654 80.7206 68.887 80.4746 69.0342C80.249 69.175 80.1158 69.2518 80.0748 69.2648C80.1971 69.2954 80.3086 69.3988 80.4094 69.575C80.5102 69.7511 80.6057 69.9463 80.696 70.1604C80.7763 70.343 80.8464 70.5289 80.9063 70.718C80.9562 70.8756 80.9913 70.9511 81.0118 70.9446C81.7279 70.7179 82.3063 70.4828 82.747 70.2393C83.1876 69.9958 83.5414 69.7624 83.8084 69.5392C84.0655 69.2845 84.2711 69.0807 84.4253 68.9278C84.5695 68.7435 84.7287 68.6064 84.9029 68.5166C84.885 68.1755 84.9172 67.9573 84.9995 67.8619C85.0719 67.7349 85.1345 67.5417 85.1875 67.2822C85.0069 66.854 84.7956 66.4354 84.5536 66.0266C84.3221 65.5797 84.0954 65.1834 83.8733 64.8376C83.6413 64.4603 83.4293 64.146 83.2372 63.8947C83.0656 63.637 82.9698 63.4766 82.9498 63.4135C82.8066 63.4589 82.6689 63.4505 82.5366 63.3883C82.4249 63.3197 82.3233 63.2478 82.232 63.1727C82.1612 63.0911 82.1005 63.0062 82.0501 62.9182C81.9998 62.8301 81.9643 62.7893 81.9439 62.7958C81.7188 62.867 81.5199 62.8433 81.3473 62.7245C81.2455 62.6874 81.1592 62.6281 81.0883 62.5465C80.761 62.6501 80.4853 62.668 80.2612 62.6003C80.0372 62.5325 79.8126 62.5342 79.5875 62.6055C79.1658 63.051 78.6782 63.4308 78.1248 63.7447C77.5918 64.0521 77.1651 64.4819 76.8447 65.0341C76.6989 65.427 76.5686 65.7976 76.4538 66.1461C76.339 66.4945 76.2546 66.8679 76.2007 67.2664C76.1468 67.6649 76.0926 68.0982 76.0381 68.5662C75.9837 69.0342 75.9542 69.581 75.9496 70.2066C75.9271 70.4911 75.9354 70.7659 75.9742 71.031C76.0336 71.2896 76.093 71.5482 76.1523 71.8068C76.302 72.2795 76.4618 72.749 76.632 73.2153C76.8125 73.6436 77.1154 74.1025 77.5405 74.5921C77.6827 74.6858 77.8095 74.8017 77.9207 74.9398C78.0524 75.0715 78.1183 75.1373 78.1183 75.1373L78.3773 75.3154C78.4182 75.3025 78.4788 75.3873 78.5591 75.5699C78.6499 75.7146 78.7056 75.7836 78.726 75.7772L79.2785 75.6023C79.5938 75.7452 79.8481 75.8727 80.0412 75.985C80.2243 76.0657 80.3872 76.1182 80.5299 76.1423C80.6627 76.135 80.8056 76.1244 80.9588 76.1106C81.112 76.0968 81.3012 76.0542 81.5262 75.983C81.649 75.9441 81.7718 75.9053 81.8945 75.8664C82.0278 75.7895 82.166 75.7284 82.3092 75.6831C82.432 75.6442 82.565 75.6021 82.7082 75.5568C82.8514 75.5115 83.0353 75.4879 83.2599 75.4862C83.71 75.3437 84.0683 75.1956 84.3348 75.0419C84.6118 74.8502 84.8735 74.646 85.1201 74.4292C85.3871 74.206 85.6693 73.9953 85.9667 73.7971C86.2846 73.5925 86.6841 73.3967 87.1652 73.2097C87.268 73.1078 87.3663 72.9206 87.4601 72.6482C87.5645 72.3378 87.6067 72.1511 87.5867 72.088C87.5568 71.9935 87.4907 71.9624 87.3883 71.9948L87.5418 71.9462Z" fill="#56321E"/>
<path d="M90.3016 56.1971L90.0135 55.8202L89.7801 54.2297L88.3883 49.8332L87.9003 49.5716L86.1507 52.2579L86.414 53.943L88.3446 60.0414L91.7123 72.7065L92.3672 73.1753L94.1951 72.3366L95.0821 72.4719L95.5171 71.606L92.8533 63.1912L92.2846 61.3947L90.3016 56.1971Z" fill="#56321E"/>
<path d="M111.023 64.513L110.84 64.3628C110.79 64.2052 110.715 64.0731 110.614 63.9665C110.523 63.8218 110.427 63.6615 110.326 63.4853C110.183 63.5307 110.075 63.6168 110.003 63.7437C109.92 63.8391 109.833 63.9536 109.74 64.087C109.658 64.1824 109.56 64.3 109.447 64.4399C109.323 64.5483 109.139 64.6413 108.893 64.7191L108.74 64.7676C108.504 64.8769 108.294 64.9606 108.11 65.0189C107.947 65.0708 107.788 65.1383 107.634 65.2217C107.491 65.267 107.332 65.3346 107.158 65.4244C106.994 65.4762 106.8 65.5377 106.575 65.609C106.187 65.6625 105.86 65.7314 105.594 65.8156C105.338 65.8618 105.012 65.8612 104.614 65.8137C104.603 65.8517 104.598 65.8707 104.598 65.8707C104.578 65.8772 104.562 65.8994 104.552 65.9374C104.552 65.9374 104.531 65.9439 104.49 65.9568C104.205 65.9085 103.991 65.8722 103.848 65.8481C103.726 65.8174 103.64 65.7233 103.59 65.5657C103.55 65.4396 103.378 65.2514 103.074 65.001C102.79 64.7441 102.583 64.4109 102.453 64.0011C102.333 63.6229 102.296 63.2188 102.339 62.7888C102.404 62.3523 102.499 61.9756 102.623 61.6587C102.759 61.3038 102.883 61.0217 102.997 60.8123C103.111 60.6029 103.152 60.5204 103.121 60.5649C103.162 60.552 103.193 60.5075 103.214 60.4315C103.245 60.387 103.266 60.3458 103.276 60.3078C103.297 60.2318 103.328 60.1526 103.37 60.0701C103.412 59.8487 103.49 59.668 103.603 59.5281C103.727 59.3502 104.045 59.1108 104.558 58.8098C104.948 58.5478 105.255 58.3463 105.481 58.2056C105.727 58.0584 105.942 57.9556 106.126 57.8973C106.31 57.839 106.484 57.784 106.648 57.7321C106.811 57.6803 107.026 57.6123 107.292 57.5281C107.254 57.1935 107.235 56.9567 107.236 56.8177C107.237 56.6787 107.25 56.3626 107.274 55.8696C107.133 55.5674 106.998 55.2114 106.868 54.8017C106.749 54.354 106.603 54.1403 106.429 54.1606L104.741 54.6949C104.495 54.7727 104.24 54.8536 103.974 54.9378C103.718 54.984 103.416 55.0622 103.069 55.1723C102.626 55.6243 102.129 56.0073 101.575 56.3212C101.042 56.6286 100.626 57.0552 100.326 57.6009C100.16 58.0003 100.019 58.3742 99.9042 58.7226C99.8099 59.0645 99.7255 59.438 99.6511 59.843C99.5972 60.2415 99.543 60.6747 99.4885 61.1427C99.4546 61.6043 99.425 62.1511 99.4 62.7831C99.398 63.0612 99.4164 63.3327 99.4553 63.5978C99.4942 63.8629 99.5433 64.1247 99.6027 64.3833C99.7524 64.8561 99.9122 65.3256 100.082 65.7919C100.263 66.2201 100.576 66.6758 101.022 67.1589C101.143 67.2591 101.27 67.375 101.402 67.5067C101.534 67.6383 101.599 67.7042 101.599 67.7042L101.828 67.892C101.869 67.879 101.939 67.9606 102.04 68.1368C102.131 68.2814 102.187 68.3505 102.207 68.344L102.729 68.1788C103.044 68.3217 103.298 68.4493 103.492 68.5615C103.675 68.6423 103.838 68.6947 103.98 68.7189C104.134 68.7051 104.287 68.6912 104.44 68.6774C104.593 68.6636 104.782 68.6211 105.007 68.5498C105.11 68.5174 105.222 68.4818 105.345 68.4429C105.478 68.3661 105.616 68.305 105.76 68.2597C105.903 68.2143 106.046 68.169 106.189 68.1236C106.333 68.0783 106.516 68.0548 106.741 68.053C107.171 67.917 107.519 67.7722 107.785 67.6184C108.062 67.4267 108.324 67.2225 108.57 67.0058C108.837 66.7826 109.12 66.5719 109.417 66.3737C109.735 66.169 110.145 65.97 110.646 65.7765C110.729 65.6811 110.827 65.494 110.941 65.215C111.046 64.9046 111.088 64.7179 111.068 64.6549C111.038 64.5603 110.962 64.5325 110.839 64.5713L111.023 64.513Z" fill="#56321E"/>
<path d="M111.179 53.7491C111.297 54.3358 111.426 54.8846 111.565 55.3953C111.725 55.8996 111.869 56.3566 111.999 56.7663C112.239 57.5227 112.52 58.1619 112.843 58.6838L113.344 59.2012L117.061 59.6369L117.798 59.4037C117.87 59.3463 117.947 59.2699 118.029 59.1745C118.111 59.0791 118.194 58.9489 118.277 58.784L120.436 56.6442C120.549 56.5043 120.704 56.2819 120.9 55.9771C121.117 55.6658 121.303 55.3295 121.458 54.9681C121.625 54.5688 121.74 54.1508 121.804 53.7144C121.869 53.2779 121.836 52.8548 121.706 52.4451C121.228 50.9323 120.538 49.6423 119.637 48.575C118.757 47.5013 117.752 46.7793 116.622 46.4089L116.56 46.4284C116.478 46.4543 116.34 46.5154 116.146 46.6116C115.951 46.7079 115.772 46.782 115.608 46.8338C115.465 46.8791 115.322 46.8897 115.179 46.8655C115.057 46.8349 114.976 46.7565 114.936 46.6305L112.922 47.8403C112.603 48.1145 112.305 48.4517 112.026 48.8519C111.748 49.2521 111.52 49.7057 111.343 50.2125C111.155 50.6879 111.044 51.2258 111.009 51.8264C110.964 52.3954 111.021 53.0363 111.179 53.7491ZM116.168 49.7771C116.454 49.8255 116.755 49.8516 117.071 49.8555C117.388 49.8593 117.698 49.917 118.004 50.0283C118.299 50.1082 118.584 50.2608 118.858 50.4862C119.152 50.705 119.44 51.0819 119.722 51.6168L119.493 53.6659L116.538 55.7455L116.109 55.8815L114.966 55.0468L114.222 52.1617C114.315 52.0283 114.393 51.8476 114.456 51.6197C114.519 51.3917 114.592 51.1605 114.675 50.9261C114.769 50.6536 114.888 50.4252 115.032 50.2409C115.187 50.0185 115.377 49.8717 115.602 49.8005C115.745 49.7551 115.934 49.7474 116.168 49.7771Z" fill="#56321E"/>
<path d="M143.504 50.694L140.628 41.9301C140.325 41.4712 140.007 41.0345 139.673 40.62C139.34 40.2056 138.984 39.9366 138.608 39.8132L135.57 40.6707L134.663 41.1137L134.4 41.5612L133.723 41.9835L131.816 41.0789L130.099 41.4144L128.602 42.9804L128.189 42.9551L127.901 42.5782L126.879 42.0175L126.249 42.373L124.703 42.2902L124.658 44.2809L125.685 48.377L128.319 56.6973L129.974 56.3812L130.299 55.9143L131.926 55.3994L132.526 54.9493L129.518 45.4471L131.053 44.9613L131.676 45.6484L132.367 47.406L133.534 51.0934L134.417 53.8826L134.859 54.2109L137.375 53.4142L137.796 52.3968L136.457 49.232L135.753 47.0101L135.259 45.4501L134.992 44.3906L136.371 44.1619L136.825 44.9546L138.78 49.7449L139.528 52.1086L140.491 52.376L143.437 51.4433L143.504 50.694Z" fill="#56321E"/>
<path d="M158.693 49.4225L158.541 49.2626C158.492 49.105 158.416 48.9729 158.315 48.8662C158.203 48.7281 158.097 48.5709 157.997 48.3948C157.874 48.4336 157.776 48.5165 157.704 48.6435C157.622 48.7389 157.534 48.8533 157.441 48.9867C157.359 49.0821 157.251 49.203 157.117 49.3494C156.994 49.4578 156.82 49.5476 156.594 49.6188L156.441 49.6674C156.205 49.7766 155.996 49.8604 155.811 49.9187C155.627 49.977 155.458 50.0478 155.305 50.1311C155.141 50.1829 154.982 50.2505 154.829 50.3338C154.665 50.3857 154.471 50.4472 154.245 50.5184C153.827 50.5469 153.551 50.5649 153.418 50.5722C153.296 50.5416 153.235 50.5262 153.235 50.5262C153.235 50.5262 153.245 50.523 153.266 50.5165C153.286 50.5101 153.245 50.4883 153.144 50.4511C153.133 50.4891 153.118 50.5114 153.097 50.5178C153.077 50.5243 153.061 50.5465 153.051 50.5845C153.051 50.5845 153.03 50.591 152.989 50.604C152.724 50.5492 152.51 50.5129 152.347 50.4952C152.205 50.471 152.108 50.3802 152.058 50.2226C152.018 50.0965 151.846 49.9083 151.542 49.6579C151.258 49.401 151.051 49.0677 150.922 48.658C150.772 48.1853 150.613 47.5767 150.445 46.8324C150.267 46.0566 150.2 45.4189 150.245 44.9194C150.358 44.71 150.59 44.446 150.939 44.1273C151.279 43.7772 151.653 43.5373 152.062 43.4078C152.308 43.3301 152.512 43.3348 152.674 43.422C152.848 43.4712 153 43.5617 153.132 43.6934C153.263 43.825 153.359 43.9854 153.419 44.1745C153.489 44.3256 153.55 44.48 153.599 44.6376C153.669 44.8582 153.668 45.0319 153.596 45.1589C153.523 45.2858 153.42 45.3877 153.287 45.4646C153.154 45.5414 153.016 45.6025 152.872 45.6478C152.729 45.6932 152.611 45.7478 152.519 45.8117C152.17 46.1303 151.872 46.3633 151.626 46.5105C151.401 46.6513 151.267 46.7281 151.226 46.7411C151.349 46.7717 151.46 46.8751 151.561 47.0513C151.662 47.2274 151.757 47.4225 151.848 47.6367C151.928 47.8193 151.998 48.0052 152.058 48.1943C152.108 48.3518 152.143 48.4274 152.163 48.4209C152.879 48.1942 153.458 47.9591 153.898 47.7156C154.339 47.4721 154.693 47.2387 154.96 47.0155C155.217 46.7608 155.423 46.557 155.577 46.4041C155.721 46.2198 155.88 46.0827 156.054 45.9929C156.036 45.6518 156.069 45.4336 156.151 45.3382C156.223 45.2112 156.286 45.018 156.339 44.7585C156.158 44.3303 155.947 43.9117 155.705 43.5029C155.474 43.056 155.247 42.6597 155.025 42.3139C154.793 41.9366 154.581 41.6223 154.389 41.371C154.217 41.1133 154.121 40.9529 154.101 40.8898C153.958 40.9352 153.82 40.9268 153.688 40.8646C153.576 40.796 153.475 40.7241 153.384 40.649C153.313 40.5674 153.252 40.4825 153.202 40.3945C153.151 40.3064 153.116 40.2656 153.095 40.2721C152.87 40.3433 152.671 40.3196 152.499 40.2008C152.397 40.1637 152.311 40.1044 152.24 40.0228C151.912 40.1264 151.637 40.1443 151.413 40.0766C151.189 40.0088 150.964 40.0105 150.739 40.0818C150.317 40.5273 149.83 40.9071 149.276 41.221C148.743 41.5284 148.317 41.9582 147.996 42.5104C147.85 42.9033 147.72 43.2739 147.605 43.6224C147.491 43.9708 147.406 44.3442 147.352 44.7427C147.298 45.1412 147.244 45.5745 147.19 46.0425C147.135 46.5105 147.106 47.0573 147.101 47.6829C147.079 47.9674 147.087 48.2422 147.126 48.5073C147.185 48.7659 147.244 49.0245 147.304 49.2831C147.453 49.7558 147.613 50.2253 147.783 50.6916C147.964 51.1199 148.267 51.5788 148.692 52.0684C148.834 52.1621 148.961 52.278 149.072 52.4161C149.204 52.5478 149.27 52.6136 149.27 52.6136L149.529 52.7917C149.57 52.7788 149.63 52.8636 149.711 53.0462C149.801 53.1909 149.857 53.2599 149.878 53.2535L150.43 53.0786C150.745 53.2215 151 53.349 151.193 53.4613C151.376 53.542 151.539 53.5945 151.681 53.6186C151.814 53.6113 151.957 53.6007 152.11 53.5869C152.264 53.5731 152.453 53.5305 152.678 53.4593C152.801 53.4204 152.923 53.3816 153.046 53.3427C153.179 53.2658 153.318 53.2047 153.461 53.1594C153.584 53.1205 153.717 53.0784 153.86 53.0331C154.003 52.9878 154.187 52.9642 154.411 52.9625C154.862 52.82 155.22 52.6719 155.486 52.5182C155.763 52.3265 156.025 52.1223 156.272 51.9055C156.539 51.6823 156.821 51.4716 157.118 51.2734C157.436 51.0688 157.836 50.873 158.317 50.686C158.419 50.5841 158.518 50.3969 158.612 50.1245C158.716 49.8141 158.758 49.6274 158.738 49.5643C158.708 49.4698 158.642 49.4387 158.54 49.4711L158.693 49.4225Z" fill="#56321E"/>
<path d="M173.95 34.7107L174.733 34.4108C174.855 34.4415 174.962 34.4596 175.054 34.4652C175.146 34.4708 175.263 34.4509 175.406 34.4056C175.488 34.3797 175.565 34.338 175.637 34.2806C175.729 34.2167 175.811 34.156 175.883 34.0986C175.975 34.0347 176.093 33.9801 176.236 33.9348C176.39 33.8514 176.59 33.7709 176.835 33.6932C176.917 33.6673 176.994 33.6604 177.065 33.6724C177.147 33.6465 177.208 33.6271 177.249 33.6142C177.27 33.6077 177.29 33.6012 177.311 33.5947C177.352 33.5818 177.413 33.4928 177.496 33.3279C177.394 33.3603 177.308 33.2662 177.238 33.0456C177.228 33.014 177.208 32.9163 177.179 32.7522C177.15 32.5881 177.125 32.4746 177.105 32.4116C177.084 32.418 177.049 32.3425 176.999 32.1849C176.959 32.0588 176.95 31.9578 176.971 31.8818C176.778 31.7696 176.656 31.6347 176.607 31.4771C176.547 31.288 176.446 31.1118 176.304 30.9486C176.201 31.0505 176.119 31.1112 176.058 31.1306C175.915 31.176 175.812 31.2084 175.751 31.2278C175.7 31.2092 175.639 31.1939 175.568 31.1818C175.496 31.1697 175.379 31.1896 175.215 31.2414C175.062 31.2552 174.806 31.3014 174.449 31.38C174.193 31.4262 173.886 31.4886 173.529 31.5672C173.171 31.6458 172.777 31.7184 172.348 31.7849L170.38 26.6345L169.909 26.1074L167.974 27.0323L167.827 28.275L169.081 32.5589C168.795 32.6496 168.519 32.737 168.253 32.8212C167.977 32.8739 167.716 32.9391 167.471 33.0168C167.296 33.1761 167.198 33.259 167.178 33.2655C166.994 33.3238 166.83 33.3756 166.687 33.421C166.544 33.4663 166.39 33.4801 166.227 33.4624L165.736 33.6179L165.47 34.3782C165.55 34.6303 165.64 34.9139 165.74 35.2291C165.84 35.5443 165.95 35.8562 166.07 36.1649C166.21 36.4671 166.351 36.7346 166.493 36.9673C166.624 37.1684 166.751 37.2844 166.873 37.315L167.223 37.5682C167.428 37.5034 167.581 37.4549 167.683 37.4225C167.776 37.3586 167.945 37.253 168.191 37.1058C168.191 37.0363 168.274 36.9756 168.437 36.9238C168.56 36.8849 168.688 36.8618 168.821 36.8545C168.974 36.8407 169.076 36.843 169.127 36.8616C169.188 36.8422 169.249 36.8227 169.311 36.8033C169.383 36.7459 169.46 36.7042 169.541 36.6783L169.956 36.495L170.133 37.4794L172.078 43.6251L173.054 46.2809L173.736 47.2613L174.443 46.8293L177.049 46.3163L178.648 45.3941C178.602 44.8194 178.493 44.2642 178.324 43.7284C178.154 43.1926 177.913 42.6448 177.601 42.0848L176.09 41.471L173.95 34.7107Z" fill="#56321E"/>
<path d="M180.083 31.937C180.201 32.5237 180.33 33.0724 180.469 33.5832C180.628 34.0875 180.773 34.5444 180.903 34.9542C181.142 35.7105 181.423 36.3497 181.746 36.8717L182.248 37.3891L185.965 37.8248L186.701 37.5916C186.773 37.5342 186.85 37.4578 186.933 37.3624C187.015 37.2669 187.098 37.1368 187.18 36.9718L189.339 34.8321C189.453 34.6922 189.607 34.4698 189.804 34.165C190.02 33.8537 190.206 33.5174 190.362 33.156C190.528 32.7566 190.644 32.3387 190.708 31.9022C190.772 31.4657 190.74 31.0426 190.61 30.6329C190.131 29.1201 189.442 27.8301 188.541 26.7629C187.661 25.6892 186.656 24.9672 185.525 24.5968L185.464 24.6162C185.382 24.6421 185.244 24.7032 185.049 24.7995C184.855 24.8958 184.675 24.9699 184.512 25.0217C184.369 25.067 184.226 25.0776 184.083 25.0534C183.961 25.0228 183.88 24.9444 183.84 24.8183L181.825 26.0282C181.507 26.3023 181.208 26.6395 180.93 27.0398C180.651 27.44 180.424 27.8935 180.246 28.4004C180.059 28.8758 179.948 29.4137 179.913 30.0143C179.868 30.5833 179.925 31.2242 180.083 31.937ZM185.072 27.965C185.358 28.0134 185.658 28.0395 185.975 28.0433C186.291 28.0472 186.602 28.1048 186.907 28.2162C187.203 28.2961 187.488 28.4487 187.761 28.674C188.056 28.8929 188.344 29.2698 188.626 29.8047L188.397 31.8538L185.442 33.9333L185.012 34.0693L183.87 33.2346L183.126 30.3496C183.219 30.2162 183.296 30.0355 183.359 29.8075C183.422 29.5796 183.495 29.3484 183.579 29.1139C183.673 28.8415 183.792 28.6131 183.936 28.4287C184.091 28.2064 184.28 28.0596 184.505 27.9884C184.649 27.943 184.838 27.9352 185.072 27.965Z" fill="#56321E"/>
</g>
<defs>
<filter id="filter0_i" x="197" y="82" width="304" height="51" filterUnits="userSpaceOnUse" color-interpolation-filters="sRGB">
<feFlood flood-opacity="0" result="BackgroundImageFix"/>
<feBlend mode="normal" in="SourceGraphic" in2="BackgroundImageFix" result="shape"/>
<feColorMatrix in="SourceAlpha" type="matrix" values="0 0 0 0 0 0 0 0 0 0 0 0 0 0 0 0 0 0 127 0" result="hardAlpha"/>
<feOffset dy="1"/>
<feGaussianBlur stdDeviation="0.5"/>
<feComposite in2="hardAlpha" operator="arithmetic" k2="-1" k3="1"/>
<feColorMatrix type="matrix" values="0 0 0 0 0 0 0 0 0 0 0 0 0 0 0 0 0 0 0.3 0"/>
<feBlend mode="normal" in2="shape" result="effect1_innerShadow"/>
</filter>
<filter id="filter1_d" x="0.87793" y="0.714844" width="244.052" height="113.595" filterUnits="userSpaceOnUse" color-interpolation-filters="sRGB">
<feFlood flood-opacity="0" result="BackgroundImageFix"/>
<feColorMatrix in="SourceAlpha" type="matrix" values="0 0 0 0 0 0 0 0 0 0 0 0 0 0 0 0 0 0 127 0"/>
<feOffset dy="4"/>
<feGaussianBlur stdDeviation="2"/>
<feColorMatrix type="matrix" values="0 0 0 0 0 0 0 0 0 0 0 0 0 0 0 0 0 0 0.25 0"/>
<feBlend mode="normal" in2="BackgroundImageFix" result="effect1_dropShadow"/>
<feBlend mode="normal" in="SourceGraphic" in2="effect1_dropShadow" result="shape"/>
</filter>
<filter id="filter2_i" x="46.5586" y="18.2944" width="147.389" height="68.2454" filterUnits="userSpaceOnUse" color-interpolation-filters="sRGB">
<feFlood flood-opacity="0" result="BackgroundImageFix"/>
<feBlend mode="normal" in="SourceGraphic" in2="BackgroundImageFix" result="shape"/>
<feColorMatrix in="SourceAlpha" type="matrix" values="0 0 0 0 0 0 0 0 0 0 0 0 0 0 0 0 0 0 127 0" result="hardAlpha"/>
<feOffset dy="1"/>
<feGaussianBlur stdDeviation="0.5"/>
<feComposite in2="hardAlpha" operator="arithmetic" k2="-1" k3="1"/>
<feColorMatrix type="matrix" values="0 0 0 0 0 0 0 0 0 0 0 0 0 0 0 0 0 0 0.3 0"/>
<feBlend mode="normal" in2="shape" result="effect1_innerShadow"/>
</filter>
</defs>
</svg>
