<svg width="450" height="177" viewBox="0 0 450 177" fill="none" xmlns="http://www.w3.org/2000/svg">
<path d="M291.034 76.9302H155.072L214.314 17.7935L223.001 26.5855L231.793 17.7935L291.034 76.9302Z" fill="#FFBC96"/>
<path d="M205.522 76.9295L223.002 59.4502L240.586 76.9295H205.522Z" fill="#DB693B"/>
<path d="M254.922 13.6067H232V0L254.922 13.6067Z" fill="#DB693B"/>
<path d="M0 98.374H13.6899V121.514H37.3141V98.374H51.004V159.191H37.3141V134.113H13.6899V159.191H0V98.374Z" fill="white"/>
<path d="M98.1307 119.696C101.644 122.725 103.34 126.723 103.34 131.811V159.07H91.3463L90.4983 154.829C87.833 158.343 84.0774 160.039 79.2314 160.039C76.0815 160.039 73.1739 159.433 70.6297 158.222C68.0856 157.01 66.1472 155.193 64.6934 153.012C63.2396 150.831 62.5127 148.166 62.5127 145.259C62.5127 142.836 62.9973 140.655 64.0876 138.959C65.178 137.142 66.6318 135.809 68.449 134.719C71.1143 133.265 74.3854 132.538 78.3833 132.538H90.256V131.811C90.256 130.236 89.6502 129.025 88.3176 128.055C86.9849 127.086 85.1677 126.602 82.8659 126.602C81.0486 126.602 79.3525 126.965 77.6564 127.571C75.9603 128.298 74.2642 129.388 72.447 131.205L62.9973 123.209C65.6626 120.423 68.8125 118.484 72.447 117.152C76.0815 115.819 79.9583 115.092 83.8351 115.092C89.8925 115.213 94.6174 116.667 98.1307 119.696ZM87.4695 147.439C89.1656 145.985 90.1348 144.289 90.256 142.23H80.3217C78.8679 142.23 77.7776 142.472 77.0507 142.957C76.2026 143.562 75.718 144.411 75.718 145.501C75.718 146.712 76.2026 147.682 77.1718 148.408C78.141 149.135 79.4737 149.499 81.2909 149.499C83.7139 149.499 85.7734 148.893 87.4695 147.439Z" fill="white"/>
<path d="M121.998 156.889C118.727 154.708 116.304 152.043 114.729 148.651C113.154 145.259 112.306 141.624 112.306 137.747C112.306 133.749 113.154 130.115 114.729 126.723C116.304 123.33 118.848 120.544 121.998 118.363C125.269 116.183 129.267 115.213 133.87 115.213C138.474 115.213 142.472 116.304 145.743 118.484C149.014 120.665 151.558 123.936 153.012 128.298L140.655 133.265C140.412 131.326 139.564 129.63 138.353 128.419C137.141 127.207 135.566 126.601 133.87 126.601C130.963 126.601 128.903 127.692 127.692 129.873C126.359 132.053 125.753 134.719 125.753 137.868C125.753 141.018 126.359 143.562 127.571 145.622C128.782 147.682 130.842 148.772 133.749 148.772C135.445 148.772 136.899 148.166 138.232 147.076C139.564 145.864 140.412 144.41 140.776 142.472L152.649 147.076C151.195 151.195 148.772 154.345 145.501 156.768C142.23 159.07 138.353 160.281 133.991 160.281C129.267 160.16 125.148 159.07 121.998 156.889Z" fill="white"/>
<path d="M162.583 98.374H175.788V130.358L188.146 116.183H205.712L189.963 132.417L207.166 159.191H191.538L180.392 141.261L175.788 146.713V159.191H162.583V98.374Z" fill="white"/>
<path d="M226.308 156.768C221.704 154.103 218.069 150.347 215.525 145.501C212.981 140.655 211.77 135.082 211.77 128.782C211.77 122.362 212.981 116.789 215.525 111.822C218.069 106.976 221.583 103.22 226.186 100.555C230.79 97.8893 235.999 96.5566 242.057 96.5566C248.841 96.5566 254.657 98.1316 259.503 101.403C264.349 104.674 267.862 109.156 270.164 114.971L257.564 119.939C256.353 116.546 254.535 114.002 251.749 112.185C249.084 110.368 245.813 109.52 242.057 109.52C236.848 109.52 232.728 111.216 229.821 114.487C226.913 117.758 225.459 122.483 225.459 128.54C225.459 134.598 226.913 139.323 229.942 142.594C232.971 145.865 237.09 147.561 242.42 147.561C246.297 147.561 249.447 146.713 252.112 144.895C254.778 143.078 256.595 140.413 257.564 136.899L270.406 141.745C268.225 147.803 264.712 152.407 259.866 155.678C255.02 158.949 249.205 160.524 242.42 160.524C236.242 160.766 230.911 159.433 226.308 156.768Z" fill="white"/>
<path d="M310.628 119.696C314.141 122.725 315.837 126.723 315.837 131.811V159.07H303.843L302.995 154.829C300.33 158.343 296.574 160.039 291.728 160.039C288.579 160.039 285.671 159.433 283.127 158.222C280.583 157.01 278.644 155.193 277.19 153.012C275.737 150.831 275.01 148.166 275.01 145.259C275.01 142.836 275.494 140.655 276.585 138.959C277.675 137.142 279.129 135.809 280.946 134.719C283.611 133.265 286.882 132.538 290.88 132.538H302.753V131.811C302.753 130.236 302.147 129.025 300.815 128.055C299.482 127.086 297.665 126.602 295.363 126.602C293.546 126.602 291.85 126.965 290.153 127.571C288.457 128.298 286.761 129.388 284.944 131.205L275.494 123.209C278.16 120.423 281.31 118.484 284.944 117.152C288.579 115.819 292.455 115.092 296.332 115.092C302.39 115.213 307.114 116.667 310.628 119.696ZM299.967 147.439C301.663 145.985 302.632 144.289 302.753 142.23H292.819C291.365 142.23 290.275 142.472 289.548 142.957C288.7 143.562 288.215 144.411 288.215 145.501C288.215 146.712 288.7 147.682 289.669 148.408C290.638 149.135 291.971 149.499 293.788 149.499C296.211 149.499 298.271 148.893 299.967 147.439Z" fill="white"/>
<path d="M387.437 117.515C389.739 119.09 391.435 121.15 392.526 123.573C393.616 125.996 394.222 128.661 394.222 131.326V159.07H381.016V135.445C381.016 133.144 380.653 131.084 379.805 129.267C378.957 127.45 377.382 126.602 374.959 126.602C372.172 126.602 370.234 127.571 369.386 129.509C368.417 131.447 367.932 134.113 367.932 137.626L368.053 141.503C368.053 142.351 368.174 143.684 368.174 145.259V159.07H354.969V135.203C354.969 133.871 354.969 132.659 354.848 131.569C354.727 130.478 354.242 129.388 353.394 128.298C352.546 127.086 351.213 126.602 349.275 126.602C346.367 126.602 344.308 127.571 343.339 129.509C342.37 131.447 341.885 134.234 341.885 137.868L342.006 141.624C342.006 142.472 342.127 143.684 342.127 145.259V159.07H328.922L328.801 116.062H341.4V121.634C343.823 117.273 347.579 115.092 352.788 115.092C355.333 115.092 357.756 115.698 359.936 117.031C362.117 118.363 363.934 120.544 365.267 123.694C366.963 120.423 369.023 118.242 371.324 117.031C373.626 115.819 376.17 115.213 379.078 115.213C382.349 115.213 385.135 115.94 387.437 117.515Z" fill="white"/>
<path d="M441.349 118.121C444.014 120.06 445.952 122.846 447.285 126.238C448.618 129.63 449.345 133.507 449.345 137.748C449.345 142.472 448.497 146.47 446.922 149.863C445.347 153.255 443.166 155.799 440.501 157.495C437.835 159.191 434.928 160.039 431.778 160.039C429.718 160.039 427.659 159.676 425.599 158.828C423.54 158.101 421.844 157.01 420.511 155.678V177H407.306V116.183H420.511V119.454C421.965 118 423.661 116.91 425.599 116.304C427.659 115.577 429.597 115.335 431.778 115.335C435.534 115.214 438.683 116.183 441.349 118.121ZM436.26 137.626C436.26 130.357 433.595 126.723 428.265 126.723C422.328 126.723 419.299 130.357 419.299 137.626C419.299 140.897 420.026 143.563 421.359 145.622C422.813 147.682 424.993 148.651 428.022 148.651C433.474 148.651 436.26 145.017 436.26 137.626Z" fill="white"/>
</svg>